<?xml version="1.0" encoding="utf-8"?>
<!-- Generator: Adobe Illustrator 27.1.1, SVG Export Plug-In . SVG Version: 6.00 Build 0)  -->
<svg version="1.1" id="Layer_1" xmlns="http://www.w3.org/2000/svg" xmlns:xlink="http://www.w3.org/1999/xlink" x="0px" y="0px"
	 viewBox="0 0 760 880" style="enable-background:new 0 0 760 880;" xml:space="preserve">
<style type="text/css">
	.st0{fill:#943B20;}
</style>
<g>
	<g>
		<path class="st0" d="M172.6,150.2c-0.1,0.3-0.3,0.5-0.9,0.6v3.1h5.3v3.5h-5.3v9.5c0,3.8-1.6,4.2-8.4,4.2c-0.2-1.1-0.6-2.5-1.1-3.6
			c1.3,0.1,2.5,0.1,3.5,0.1c2.1,0,2.3,0,2.3-0.8v-9.5h-13.5V156l-4.1,1.1V171h-3.6v-13c-1.8,0.5-3.5,0.9-4.9,1.3
			c-0.1,0.3-0.3,0.5-0.6,0.6l-1.4-4.2c1.8-0.4,4.2-0.8,6.8-1.4v-8.9h-2.9c-0.4,2.3-1.1,4.4-1.8,6c-0.5-0.5-1.7-1.5-2.4-1.9
			c1.1-3.2,1.8-8.5,2.3-13.7l3.9,0.9c-0.2,0.3-0.4,0.4-0.9,0.4c-0.2,1.5-0.4,3-0.5,4.6h2.3v-7.9l4.6,0.3c-0.1,0.4-0.3,0.5-0.9,0.6
			v7.1h4.6v3.6h-4.7v8.2l4.7-1.1l0.2,1.3H168v-3.9L172.6,150.2z M167.2,146h10.2v3.5h-23.6V146h9.6v-4.4h-7.5v-3.5h7.5v-4.4l4.7,0.3
			c-0.1,0.4-0.3,0.5-1,0.7v3.5h7.9v3.5h-7.9L167.2,146L167.2,146z M160.4,166.6c-0.8-1.8-2.5-4.6-4.3-6.5l3-1.5
			c1.7,1.9,3.6,4.5,4.5,6.2L160.4,166.6z"/>
		<path class="st0" d="M216.6,140.4v3h-16.3v-3H216.6z M214.9,157v12h-9.5v1.8h-3.3V157H214.9z M202.2,149v-3H215v3H202.2z
			 M202.2,154.4v-3H215v3H202.2z M215,135.1v3h-12.5v-3H215z M211.4,160.1h-6v5.9h6V160.1z M237.9,152.8v3.6h-8.6v14.9h-3.8v-14.9
			h-9v-3.6h9v-9.6h-3.2c-1.1,2.9-2.4,5.4-3.7,7.4c-0.8-0.6-2.2-1.5-3.1-1.9c2.5-3.4,4.5-9.2,5.6-14.9l4.6,1.1
			c-0.2,0.4-0.4,0.5-1,0.5c-0.4,1.4-0.8,3-1.2,4.4h13.3v3.5h-7.5v9.6h8.6V152.8z"/>
		<path class="st0" d="M274.3,151.2l0.4,3.2c-1.5,0.5-3.1,1.1-4.6,1.6v10.9c0,3.5-1.3,4.3-7.3,4.2c-0.2-1-0.6-2.5-1.1-3.5
			c1,0.1,1.9,0.1,2.8,0.1c1.8,0,1.9,0,1.9-0.8v-9.6c-1.6,0.5-3,1-4.2,1.3c-0.1,0.4-0.3,0.6-0.6,0.8l-1.3-4.4c1.7-0.4,3.8-1,6.1-1.6
			V145h-5.6v-3.5h5.6v-7.8l4.6,0.3c-0.1,0.4-0.3,0.6-0.9,0.7v6.8h4.3v3.5h-4.3v7.4L274.3,151.2z M293.7,149.5l2.5,1.1
			c-0.2,0.3-0.3,0.4-0.4,0.5c-1.5,4.9-3.9,8.9-7.1,12.1c2.8,2.1,6,3.8,9.7,4.8c-0.8,0.8-1.9,2.2-2.5,3.2c-3.9-1.2-7.3-3.1-10.1-5.6
			c-3.3,2.5-7.2,4.4-11.3,5.6c-0.4-1-1.3-2.5-2.1-3.3c3.9-1,7.5-2.5,10.7-4.9c-2.3-2.5-4.1-5.6-5.5-9l2.6-0.8h-4.6v-3.4h8.4v-6.2h-9
			V140h9v-6.2l4.7,0.3c-0.1,0.4-0.3,0.5-0.9,0.7v5.3h9.7v3.5h-9.7v6.2h5.2L293.7,149.5z M281,153.1c1.1,2.8,2.8,5.3,4.8,7.5
			c2.2-2.1,3.9-4.6,5.2-7.5H281z"/>
		<path class="st0" d="M331.9,135.4c-0.2,0.3-0.4,0.4-1,0.3c-1.8,2.7-5.2,6.5-8,8.9c-0.4-0.8-1.5-1.9-2.1-2.7
			c2.5-2.2,5.5-5.6,7.1-8.3L331.9,135.4z M347.2,146.3h-5.8v24.4h-3.5v-24.4h-5.7v-1.9c-0.2,0.1-0.4,0.1-0.6,0.1
			c-0.8,1.7-1.7,3.4-2.5,5.2l0.9,0.3c-0.1,0.3-0.4,0.5-0.9,0.6v20.8h-3.5v-16c-0.9,1.3-1.8,2.5-2.7,3.5c-0.4-0.8-1.3-2.5-1.9-3.2
			c2.7-3,5.8-8.1,7.7-13l3.6,1.3v-1.1h5.7v-8.4l4.5,0.3c-0.1,0.3-0.3,0.5-0.9,0.6v7.5h5.8L347.2,146.3L347.2,146.3z M336.7,151.7
			c-0.1,0.3-0.4,0.4-0.8,0.4c-0.4,5.2-1.3,10.8-3,14.1c-0.5-0.4-1.7-1.3-2.5-1.7c1.4-3,2.1-8.4,2.5-13.7L336.7,151.7z M344.8,134.9
			c1.2,1.7,2.5,3.9,3.1,5.3l-2.7,1.3c-0.5-1.5-1.8-3.8-3-5.5L344.8,134.9z M345.6,151c0.9,3.9,1.8,8.8,2,12.1l-2.8,0.5
			c-0.3-3.2-1-8.2-1.9-12.1L345.6,151z M358.4,147.3v3.5h-3.5V167c0,3.9-1.7,4.2-7.4,4.2c-0.2-1.1-0.5-2.5-1.1-3.7
			c1.1,0.1,2.2,0.1,3,0.1c1.8,0,1.9,0,1.9-0.8v-16h-4.1v-3.5C347.1,147.3,358.4,147.3,358.4,147.3z M357.8,136.1v3.4h-9.5v-3.4
			H357.8z"/>
		<path class="st0" d="M414.2,138.2c-0.3,0.3-0.4,0.4-0.9,0.4c-0.2,0-0.3,0-0.4-0.1c-3.1,3.1-7.2,6.5-11,9.3
			c0.4,0.2,0.8,0.4,1.1,0.4c-0.1,0.3-0.4,0.6-1,0.7V170h-4.2v-19.6c-3.9,2.7-9.3,5.8-14.2,8.2c-0.5-0.9-1.6-2.4-2.5-3.1
			c10.6-4.8,22.6-13.2,28.9-20.3L414.2,138.2z"/>
		<path class="st0" d="M439.7,137.9c4,1.2,8.9,3.4,11.7,5.3l-2.1,3.6c-2.9-1.9-7.6-4.1-11.6-5.5L439.7,137.9z M439,165.2
			c13.8-4.2,23.1-12.2,27.9-23.1c1.1,0.9,2.5,1.7,3.7,2.4c-5,10.9-14.6,19.4-27.9,24.1c-0.1,0.4-0.3,0.8-0.6,1L439,165.2z"/>
		<path class="st0" d="M525.1,144.3c-0.1,0.3-0.3,0.4-0.4,0.5c-0.6,11.8-1.8,19.1-3.2,21.7c-1.3,2.2-3.3,3.1-5.6,3.1
			c-1.7,0-4.4-0.3-7.2-0.9c0.1-1.1-0.1-2.9-0.3-4c2.7,0.6,5.7,1,6.7,1c1.3,0,2.2-0.4,2.9-1.8c1.1-2.1,2-8.4,2.5-16.6h-11.2
			c-1.9,8.8-5.6,16.6-12.8,22.4c-0.8-0.8-2.2-1.8-3.2-2.5c6.7-5.2,10.2-12.1,11.8-20h-10.4v-3.7h11.1c0.4-2.8,0.6-5.2,0.8-8.4
			l5.3,0.4c-0.1,0.4-0.4,0.7-1.1,0.8c-0.3,2.7-0.4,4.7-0.8,7.1h11.6l0.8-0.3L525.1,144.3z"/>
		<path class="st0" d="M581.1,148c-0.2,0.3-0.4,0.4-0.7,0.5c-3.5,12.2-9.8,18-21.8,21.4c-0.4-1-1.6-2.4-2.5-3.2
			c10.4-2.5,17.1-8.1,19.3-16.2h-25.2v-3.7h27l0.4-0.3L581.1,148z M577,140.3h-22.8v-3.7H577V140.3z"/>
		<path class="st0" d="M606.8,159.8c8.5,1,18.6,3.2,25.1,5.7l-1.8,4c-5.8-2.4-16.2-4.9-24.8-6L606.8,159.8z M609.9,135.8
			c6.7,0.7,15.8,2.5,21.1,4.4l-1.7,3.9c-5.6-2.2-14-3.8-20.8-4.6L609.9,135.8z M609.9,147.9c6.2,0.6,14.4,2.3,19.2,3.9l-1.3,4
			c-4.6-1.7-12.7-3.5-19.2-4.1L609.9,147.9z"/>
	</g>
	<g>
		<path class="st0" d="M182.9,388.5c0,2.2,0.4,2.6,3.2,2.6h9.2c2.5,0,2.8-1,3.1-5.6c0.9,0.7,2.5,1.3,3.7,1.6
			c-0.6,5.8-1.8,7.7-6.6,7.7h-9.7c-5.4,0-5.9-1.3-5.9-6.3v-4.8l-12,1.7l-0.5-3.6l12.5-1.8v-5.4l-10.6,1.7l-0.5-3.6L180,371v-5.3
			c-3.9,0.8-7,1.5-10.9,2c-0.2-1-0.8-2.5-1.1-3.3c10.1-1.5,19.4-3.9,25.8-6.7l3.4,3.2c-0.2,0.2-0.4,0.3-0.6,0.3
			c-0.2,0-0.3,0-0.4-0.1c-3.5,1.3-8.1,2.6-13.1,3.8l1,0.1c-0.1,0.4-0.3,0.5-1,0.7v4.8l15.1-2l0.5,3.5l-15.6,2.2v5.4l17.7-2.3
			l0.5,3.5l-18.2,2.4L182.9,388.5L182.9,388.5z"/>
		<path class="st0" d="M244.8,383.9c0.8,0,0.8,0,1.3-0.2l2.4,1.4c-0.2,0.3-0.3,0.4-0.5,0.4c-1.5,1.9-3.5,3.6-5.8,5
			c3.5,0.8,7.5,1.3,11.6,1.5c-0.8,0.8-0.6,2.2-0.9,3.1c-5.1-0.4-10.8-1.2-14.8-2.6c-3.3,1.3-6.1,2.1-9.9,2.7c-0.3-0.8-2.2-2.3-2.8-3
			c3-0.3,6-0.8,8.6-1.6c-2.1-1.1-3.9-2.5-5.3-3.9c-2.3,3.3-4.2,6.2-7.9,8.4c-0.6-0.8-2.9-1.8-3.8-2.5c4.9-2.5,8.4-6.6,10.5-11h-9.8
			v-2.8h11c0.3-0.8,0.5-1.6,0.8-2.5l4.5,1c-0.2,0.3-0.4,0.4-1,0.5l-0.3,0.9h20.9v2.8h-22.1c-0.3,0.8-0.7,1.4-1.1,2.1L244.8,383.9
			L244.8,383.9z M218.6,374.3l3.2-0.2c0.4-0.8,0.9-1.8,1.3-2.8H218V369h3.5v-10.2h15.2v2.2h-11.9v1.4h11v1.9h-11v1.3h11.1v1.9h-11.1
			v1.3H238v2.4h-4c1.4,1.5,3,3.4,3.9,4.6l-2.9,1.3c-0.3-0.4-0.7-1.1-1.1-1.7c-5.1,0.4-10.2,0.8-13.6,1.1c-0.1,0.3-0.3,0.4-0.6,0.5
			L218.6,374.3z M231.9,371.5h-5.5c-0.4,0.8-0.8,1.8-1.3,2.5l7-0.4c-0.4-0.6-1-1.1-1.5-1.7L231.9,371.5z M232,386.3
			c1.5,1.2,3.5,2.2,5.8,3c2-0.8,3.8-1.8,5.2-3H232z M254.2,372.2c-0.2,0.3-0.4,0.3-0.8,0.3c-3,2.2-8.7,4-13.8,5.1
			c-0.3-0.8-1.1-1.9-1.8-2.6c4.9-0.8,10.5-2.5,13.5-5L254.2,372.2z M251.5,360.2c-0.2,0.3-0.4,0.3-0.8,0.3
			c-2.3,1.9-6.7,3.9-10.7,4.9c-0.4-0.7-1.2-1.8-1.8-2.5c3.8-0.9,8.1-2.7,10.3-4.8L251.5,360.2z M252.9,366c-0.2,0.3-0.4,0.3-0.8,0.3
			c-2.5,1.8-7.4,3.7-11.5,4.7c-0.4-0.7-1.2-1.8-1.9-2.4c3.9-0.9,8.8-2.7,11.3-4.7L252.9,366z"/>
		<path class="st0" d="M278.6,376.8l0.8-0.1l1.9,0.3c-0.1,0.3-0.1,0.8-0.1,1.1c-0.4,10.3-1,14.2-2.1,15.5c-1.1,1.3-1.4,1.5-3.7,1.5
			c-0.9,0-1.9-0.1-3.1-0.1c-0.1-1.1-1.4-2.5-2.1-3.5c1.9,0.2,3.7,0.2,4.5,0.2c0.7,0,1.1-0.1,1.4-0.4c0.8-0.8,1.1-3.7,1.5-11.1h-5.1
			l-0.3,1.6l-3.3-0.5c0.5-3.3,1.1-8.6,1.3-12.7h7.3v-5.8h-8.4v-3.5h12.2v13.9h-3.6V372h-4.1c-0.2,1.7-0.3,3.3-0.4,4.9L278.6,376.8
			L278.6,376.8z M299.7,389.2c-0.7-1-1.4-1.9-2.1-2.9l3-1.4c2.3,2.6,4.6,6.2,5.6,8.7l-2.2,1.6c-0.3-0.8-1.8-1.8-2.3-2.9
			c-6.6,0.4-13.4,0.9-17.8,1.1c-0.1,0.4-0.4,0.5-0.6,0.6l-1.3-4.2c2.6-0.1,6.1-0.3,10-0.4v-5.2h-7.7V373h7.7v-3.8
			c-3,0.2-5.8,0.3-8,0.4c-0.1,0.4-0.4,0.5-0.6,0.6l-1.2-4.1c1.1,0,2.2-0.1,3.5-0.1c1.6-2.5,3.4-6,4.4-8.5l4.5,1.3
			c-0.2,0.3-0.4,0.4-1,0.4c-1,1.9-2.5,4.6-3.9,6.7c3.2-0.1,6.6-0.2,10.1-0.3c-0.9-1.1-1.8-2.2-2.7-3.1l3.1-1.6
			c2.5,2.5,5.2,5.9,6.4,8.3l-3.3,1.8c-0.3-0.7-0.8-1.5-1.3-2.4l-5.3,0.3c-0.1,0.3-0.3,0.5-0.9,0.6v3.4h8v11.3h-8v5.1L299.7,389.2z
			 M287.5,381.2h4.4v-4.8h-4.4V381.2z M300,376.4h-4.6v4.8h4.6V376.4z"/>
		<path class="st0" d="M327.6,365.1v8.1c0,6.4,0.5,15.9-3.1,22.1c-0.7-0.6-3.3-1.8-4.1-2.1c3.3-5.7,3.6-14,3.6-19.9v-11.6h14.7v-3.9
			l4.9,0.3c-0.1,0.4-0.3,0.5-0.9,0.7v3h15.2v3.4L327.6,365.1L327.6,365.1L327.6,365.1z M352.4,380.6l2.5,1.1
			c-0.2,0.3-0.3,0.4-0.4,0.4c-1.8,3.2-4.2,5.7-7.4,7.5c3.3,1.1,7.1,1.8,11.1,2.2c-0.8,0.8-0.8,2.3-1.2,3.2c-4.8-0.6-10.2-1.8-14-3.5
			c-4.1,1.8-7.9,2.8-12.8,3.4c-0.3-0.9-2-2.4-2.6-3.2c4.1-0.4,8.1-1.1,11.6-2.4c-2.3-1.4-4.1-3.2-5.6-5.2l1.9-0.8h-6.3v-3h22.4h0.8
			V380.6z M350.9,378.3H335V372h-6v-3h6v-3.2l4.6,0.3c-0.1,0.3-0.3,0.5-0.9,0.7v2.4h8.5V366l4.6,0.3c-0.1,0.3-0.3,0.5-0.9,0.7v2.4
			h6.7v3h-6.7L350.9,378.3L350.9,378.3z M337.3,383.7c1.5,1.8,3.5,3.2,5.9,4.4c2.4-1.1,4.5-2.6,6-4.4H337.3z M347.2,372.1h-8.5v3.5
			h8.5V372.1z"/>
		<path class="st0" d="M374.8,360.1h33.5v34.8h-4v-2.7h-25.7v2.7h-3.8V360.1L374.8,360.1z M378.5,388.4h25.7v-24.6h-25.7V388.4z
			 M383.7,369.2h15.2v13.7h-15.2V369.2z M395.4,379.8v-7.4H387v7.4H395.4L395.4,379.8z"/>
		<path class="st0" d="M456.5,381.4l2.5,1.1c-0.1,0.3-0.3,0.3-0.4,0.4c-1.3,2.6-3.3,4.7-5.7,6.5c3,1.2,6.3,1.9,10,2.5
			c-0.8,0.8-1.8,2.3-2.2,3.2c-4.2-0.6-7.9-1.9-11.1-3.6c-3.6,1.8-6.9,3-11.3,3.7c-0.3-0.9-2.1-2.4-2.7-3.1c3.8-0.4,7.5-1.3,10.8-2.7
			c-1.4-1.1-2.5-2.4-3.7-3.7c-1.3,1.3-2.7,2.5-4.1,3.4c-0.5-0.6-1.8-1.8-2.5-2.3c3-1.8,6-4.6,7.9-7.7h-3.5v-10.3
			c-0.8,1.1-1.6,2-2.4,2.9c-0.5-0.5-1.5-1.1-2.5-1.7c-0.6,1.1-1.3,2.3-2,3.4l0.9,0.3c-0.2,0.3-0.4,0.5-1,0.5l1,20.9H431l-1-16.6
			c-1.2,1.5-2.5,3-3.6,4.2c-0.4-0.8-1.3-2.5-1.9-3.3c3-3,6.7-8.1,8.9-12.9l3.2,1.2c2.2-2.7,4-6.4,5.2-10.1l4.4,1.2
			c-0.2,0.3-0.4,0.4-1,0.4c-0.3,0.8-0.6,1.5-0.9,2.3h17.2v3.1H443c-0.4,0.8-0.9,1.6-1.3,2.4H459v12.2h-11.5l0.9,0.3
			c-0.2,0.3-0.4,0.4-0.9,0.4c-0.4,0.6-0.8,1.2-1.2,1.8h9.7L456.5,381.4z M436.6,359.3c-0.3,0.3-0.5,0.4-1,0.4
			c-2.2,2.8-5.9,6.7-9,9.2c-0.4-0.8-1.4-2.1-2.1-2.8c2.9-2.3,6.3-5.7,8.1-8.4L436.6,359.3z M443.8,369.5v2.3h11.5v-2.3H443.8z
			 M443.8,374.3v2.4h11.5v-2.4H443.8z M445.1,384.2c1.1,1.3,2.5,2.5,4.3,3.5c1.7-1,3.1-2.2,4.2-3.5H445.1z"/>
		<path class="st0" d="M485.6,391.6v-25.8h-0.1l-5.1,2.8l-1.1-3.4l6.7-3.6h3.9v30H485.6L485.6,391.6z"/>
		<path class="st0" d="M527.7,391.6h-4.4v-8h-12.6v-3l11.7-19.2h5.2v18.7h3.8v3.5h-3.8L527.7,391.6L527.7,391.6z M515.1,380.1h8.2
			v-9c0-1.8,0.1-3.5,0.3-5.2h-0.2c-0.9,1.9-1.7,3.4-2.5,5L515.1,380.1L515.1,380.1L515.1,380.1z"/>
		<path class="st0" d="M545.8,376.5c0-9.8,3.7-15.6,10-15.6s9.5,6.2,9.5,15.2c0,10.2-3.7,15.8-9.9,15.8
			C549.2,392,545.8,385.8,545.8,376.5z M560.6,376.4c0-7.2-1.5-11.7-5.1-11.7c-3,0-5.2,4.2-5.2,11.7c0,7.4,1.8,11.8,5.1,11.8
			C559.5,388.3,560.6,382.7,560.6,376.4z"/>
		<path class="st0" d="M593.9,370.4c0,6.2-3.3,9.3-6.9,9.3c-3.8,0-6.8-3.2-6.8-8.9s3-9.2,7-9.2C591.6,361.6,593.9,365.2,593.9,370.4
			z M583.7,370.8c0,3.4,1.1,6.2,3.4,6.2c2.4,0,3.3-2.8,3.3-6.4c0-3.4-0.8-6.3-3.3-6.3C584.5,364.3,583.7,367.9,583.7,370.8z
			 M589.4,392.1h-2.8l16.9-30.6h2.8L589.4,392.1z M612.8,382.7c0,6.2-3.2,9.3-7,9.3s-6.8-3.2-6.8-8.9s3-9.2,7-9.2
			C610.4,373.8,612.8,377.5,612.8,382.7z M602.6,382.9c0,3.5,1.1,6.3,3.4,6.3c2.4,0,3.3-2.8,3.3-6.3c0-3.4-0.8-6.3-3.3-6.3
			C603.5,376.5,602.6,379.8,602.6,382.9z"/>
	</g>
	<g>
		<path class="st0" d="M110.7,612.1c-0.3,0.4-0.8,0.6-1.2,0.6c-6.3,15.4-15.6,22.4-26.6,28.8c-0.7-0.8-2.1-2.2-3.2-3
			c10.6-6,20.1-12.6,25.8-28.4L110.7,612.1z"/>
		<path class="st0" d="M127.6,624.5h33.3v4h-31.7c-0.3,0.4-0.8,0.7-1.3,0.8L127.6,624.5z"/>
		<path class="st0" d="M176.9,629.1c3-3.1,8.9-9.7,11.3-12.4c1.2-1.2,2.5-1.8,3.6-1.8s2.5,0.8,3.8,1.8c4.9,4.5,13.3,13.7,19,20.8
			l-3.4,3.2c-5.2-7.3-13.7-16.8-17.5-20.4c-0.8-0.8-1.3-1.1-1.8-1.1c-0.4,0.1-1,0.4-1.7,1.1c-1.6,1.8-6.9,8.1-9.5,10.9
			c0.1,0.4-0.1,0.9-0.4,1.3L176.9,629.1z M204,612.6c1.8,1.6,3.8,4,4.9,5.7l-1.9,1.6c-1.1-1.7-3.2-4.3-4.8-5.7L204,612.6z
			 M208.8,609c1.8,1.6,3.9,3.9,5,5.6l-1.9,1.6c-1.1-1.7-3.2-4.2-4.8-5.6L208.8,609z"/>
		<path class="st0" d="M240,615.8c-0.1,0.4-0.4,0.8-1,0.8c-0.3,11.1-1.2,19.6-7,26.9c-0.9-0.6-2.4-1.5-3.5-2.1
			c5.6-6.3,6.3-15.5,6.4-26L240,615.8z M250.3,637.6c6-3.1,9.7-8.7,11.7-15.2c0.8,0.7,2.5,1.7,3.5,2.2c-2.9,8.1-7.7,13-16.1,17.1
			c-0.2,0.4-0.5,0.7-0.8,0.9l-3-2.6l0.5-0.8v-28.9l5.1,0.3c-0.1,0.4-0.4,0.8-1,0.9L250.3,637.6L250.3,637.6z"/>
		<path class="st0" d="M296.3,641c-0.3,0.3-0.4,0.3-1,0.3c-3,1.5-7.9,2.9-11.9,3.7c-0.6-0.8-1.8-2.1-2.6-2.7c4.1-0.5,8.9-0.7,11.5-2
			L296.3,641z M285.4,615.5v4.6h-3.5v-7.3h6.2c-0.6-1.1-1.6-2.3-2.5-3.2l3.4-1c1.1,1.1,2.5,2.8,3,3.9l-0.9,0.3h5.5v-4.5l4.7,0.3
			c-0.1,0.4-0.3,0.5-1,0.7v3.5h5.3l-0.3-0.2c1.1-1.2,2.4-3,3.1-4.2l4.3,1.4c-0.2,0.3-0.4,0.4-0.9,0.4c-0.6,0.8-1.5,1.8-2.4,2.5h6.3
			v7.3H312v-4.6L285.4,615.5L285.4,615.5z M304.6,640.2L304.6,640.2c4.3,1.1,9,1.5,11.9,2.6l-3.9,2.1c-2.5-1.1-6.9-2.5-11.2-3.7
			l2.8-1h-18.3v-14.3h26.3v14.3L304.6,640.2L304.6,640.2z M309.5,624.1h-21.4v-6.7h21.4V624.1z M289.4,628v1.9h18.8V628H289.4z
			 M289.4,632v1.9h18.8V632H289.4z M289.4,636.1v1.9h18.8v-1.9H289.4z M291.6,619.6v2.4h14.2v-2.4H291.6z"/>
		<path class="st0" d="M356.3,618.8c0.4,4.7,1.1,9.3,2.2,13.1c1.9-3,3.5-6.5,4.6-10.2l4.5,1.3c-0.2,0.3-0.4,0.4-1.1,0.4
			c-1.7,4.8-3.9,9.2-6.6,13c1.4,3.5,3.1,4.7,4.9,4.7c1.1,0,1.7-1.1,1.9-6.4c0.8,0.8,2.1,1.8,3.1,2.1c-0.7,7.1-1.9,8-5.2,8
			c-3.1,0-5.4-1.2-7.4-5.2c-2.4,2.5-4.9,3.6-7.9,5.3c-0.5-0.8-1.8-2.3-2.5-3c3.3-1.8,6.2-3.2,8.8-6.3c-1.5-4.7-2.5-10.6-3.1-17
			h-13.3v4.7h7.9l0.8-0.1l1.9,0.1c0,0.3,0,0.8-0.1,1.2c-0.2,9.3-0.4,12.8-1.3,13.9c-0.8,1-1.6,1.4-5,1.4c-0.8,0-1.5,0-2.4-0.1
			c-0.1-1.1-0.4-2.5-1.1-3.5c1.8,0.2,3.2,0.3,3.9,0.3c0.5,0,0.9-0.1,1.2-0.4c0.4-0.6,0.7-3,0.8-9.3h-7c-0.1,5.8-0.8,12.8-4.6,17.8
			c-0.6-0.7-2.2-1.9-3-2.5c3.5-4.8,3.9-10.6,3.9-16v-11.3h16.8c-0.2-2.3-0.3-4.6-0.3-6.7l4.8,0.3c0,0.4-0.3,0.6-1,0.7
			c0,1.9,0.1,3.9,0.2,5.8h8.4c-1.5-1.3-4-3.2-6.2-4.4l2.4-2.3c2.3,1.2,5.2,3.2,6.7,4.6l-2.1,2.1h3.5v3.6L356.3,618.8L356.3,618.8z"
			/>
		<path class="st0" d="M409.8,609c2.5,5.3,7.8,11.3,12.2,14.5c-1,0.8-2.5,2.4-3.2,3.4c-1.1-1-2.3-2.1-3.4-3.3c0,0.3-0.1,0.8-0.1,1.2
			c-0.5,12.7-1.1,16.4-2.5,18c-0.9,1.1-1.9,1.5-3.4,1.7c-0.6,0.1-1.5,0.2-2.5,0.2c-1.1,0-2.5-0.1-3.8-0.2c-0.1-1.1-0.5-2.8-1.2-3.9
			c2.5,0.3,4.8,0.3,5.7,0.3c0.8,0,1.3-0.2,1.8-0.5c1-1,1.5-3.8,1.9-13.4h-9.5c-1.1,7.4-3.2,13.9-14,17.9c-0.4-1-1.6-2.5-2.5-3.4
			c9.5-3.1,11.6-8,12.4-14.5h-7.6v-3.2c-1.2,1.2-2.5,2.4-3.9,3.4c-0.7-0.8-2.1-2.2-3-2.9c4.8-3.2,9.5-9.1,11.9-15.3l4.7,1.6
			c-0.2,0.3-0.5,0.5-1.1,0.4c-2,4.6-5,8.9-8.3,12.4h21.8l0.9-0.1l2.2,0.3c-3.5-3.8-6.8-8.5-9.2-13.1L409.8,609z"/>
	</g>
	<g>
		<path class="st0" d="M479.7,616c-0.2,0.3-0.4,0.4-0.7,0.5c-3.3,15.1-10.9,22.9-23.9,27.7c-0.6-1-1.9-2.5-2.7-3.2
			c12.2-4,19.3-11.7,21.6-22.5h-25.1v-3.8h26.5l0.8-0.4L479.7,616z"/>
		<path class="st0" d="M526.7,623.7c-0.2,0.3-0.4,0.4-0.7,0.5c-3.5,12.2-9.8,17-21.8,20.4c-0.4-1-1.6-2.4-2.5-3.2
			c10.4-2.5,17.1-7.1,19.3-15.2h-25.2v-3.7h27l0.4-0.3L526.7,623.7z M522.5,616h-22.8v-3.7h22.8V616z"/>
		<path class="st0" d="M543.2,625.6h33.3v4h-31.7c-0.3,0.4-0.8,0.7-1.3,0.8L543.2,625.6z"/>
		<path class="st0" d="M601.2,639.8c9.4-2.7,17.1-7.7,21.6-15.6c0.8,0.9,2.1,2.2,3,2.9c-5.3,8.8-14.4,13.4-26.3,16.5
			c-0.1,0.4-0.4,0.8-0.8,0.9l-2.3-3.8l0.5,0.2V612l5.3,0.3c-0.1,0.4-0.4,0.8-1.2,0.9L601.2,639.8L601.2,639.8z"/>
		<path class="st0" d="M643.5,613.6c4,1.2,8.9,3.4,11.7,5.3l-2.1,3.6c-2.9-2-7.6-4.1-11.6-5.5L643.5,613.6z M642.7,641
			c13.8-4.2,23.1-14.2,27.9-25.1c1.1,0.9,2.5,1.7,3.7,2.4c-6.4,14.1-13.2,19.9-27.9,25.1c-0.1,0.4-0.3,0.8-0.6,1L642.7,641z"/>
	</g>
</g>
<g>
	<path d="M233.8,434.9h7.8c1.2-1.5,1.5-1.9,2.8-3.3c1.9,1.5,2.5,1.9,4.3,3.5c0.1,0.2,0.2,0.2,0.2,0.3c0,0.2-0.2,0.2-0.3,0.2h-14.7
		v3.6c0,1.7,0.1,5.2,0.2,9.1c0,0.5-0.2,0.7-0.6,0.9c-0.3,0.1-1.5,0.3-2.5,0.3s-1.2-0.2-1.2-0.9c0.1-2.2,0.2-8.1,0.2-9.4v-3.6h-9.6
		c-1.3,0-2.6,0.1-3.6,0.2l-0.2-1.2c1.3,0.3,2,0.3,3.8,0.3h9.7v-14.5h-8.3c-1.3,0-2.2,0.1-3.3,0.2l-0.2-1.2c1.2,0.3,1.8,0.3,3.4,0.3
		h18.9c1.1-1.3,1.5-1.6,2.7-2.8c1.9,1.3,2.4,1.7,4.2,3.1c0.2,0.2,0.2,0.2,0.2,0.3c0,0.2-0.2,0.2-0.4,0.2H234L233.8,434.9
		L233.8,434.9z M220.3,422.3c4.1,2.9,6.7,5.7,6.7,7.4c0,1.5-1.5,3.4-2.8,3.4c-0.5,0-0.8-0.3-0.9-1.4c-0.5-3.4-1.5-6.3-3.2-9.3
		L220.3,422.3z M235.7,433.7c1.2-2.2,2.1-4,3.4-7.5c0.7-1.7,0.9-2.8,1.2-4.1c5.2,2.1,5.4,2.2,5.4,2.6s-0.4,0.5-1.6,0.6
		c-2.9,4.1-4.7,6-8.1,8.7L235.7,433.7z"/>
	<path d="M258.9,427.7c0.7-1,0.9-1.3,1.7-2.3c1.1,1,1.4,1.3,2.2,2.2c1.5-3.7,2.4-6.7,2.8-9.7c4.6,0.9,4.8,0.9,5.3,1.2
		c0.3,0.1,0.4,0.3,0.4,0.4c0,0.3-0.5,0.6-1.5,0.7c-1,2.2-1.5,3-2.2,4.5h9.6c0.9-1,1.2-1.4,2.1-2.3c1.4,0.9,1.7,1.2,2.9,2.1
		c0.3,0.3,0.4,0.4,0.4,0.7c0,0.3-0.3,0.6-1.2,1.1c-0.2,7.4-0.3,10.4-0.9,13.9c-0.7,5.2-1.5,7.2-3.3,8.3c-0.9,0.5-2.5,0.9-3.5,0.9
		c-0.5,0-0.5,0-0.7-1c-0.2-1.5-1.2-2.2-5.2-3.3l0.1-0.5c3.8,0.3,5.3,0.4,6.3,0.4c1.2,0,1.5-0.5,2.2-3.1c0.7-3.4,1.2-9.8,1.2-16.5
		h-10.3c-2,3.3-3.4,4.9-6.5,7.6l-0.3-0.3c1.1-1.7,1.5-2.6,2.2-4.2h-4.1v9.9c2-0.6,2.8-0.9,5-1.9l0.2,0.3c-2.5,2.1-6.2,4.6-10.2,7.1
		c0,1.2-0.2,1.7-0.6,1.7s-0.8-0.9-2.2-5.3c1.5-0.2,1.5-0.2,4-0.9v-11h-2.1c-0.5,0-1.2,0.1-1.7,0.2l-0.2-1.2c0.8,0.2,1.4,0.3,1.9,0.3
		h2.1v-4.1c0-2.2,0-3.2-0.3-5.3c1.1,0.2,2.1,0.2,2.6,0.3c2.2,0.2,2.8,0.3,2.8,0.7s-0.3,0.6-1.4,0.9v7.6L258.9,427.7L258.9,427.7z
		 M276.3,435.8c-3.7,2.6-6.5,4.1-10.9,6.2c-0.1,1.4-0.3,1.7-0.6,1.7c-0.3,0-0.3,0-2.2-5.2c3.3-0.3,7.4-1.3,13.6-3.3L276.3,435.8z
		 M269.5,431.1c1-1.2,1-1.2,2.1-2.4c1.4,1.1,1.7,1.5,3,2.6c0.1,0.2,0.2,0.3,0.2,0.3c0,0.1-0.2,0.2-0.3,0.2h-8.1
		c-0.7,0-1.3,0.1-1.9,0.2l-0.2-1.2c0.8,0.2,1.5,0.3,2.1,0.3H269.5L269.5,431.1z"/>
	<path d="M294.8,424.4c0.9-0.9,1-1.1,1.9-2c1.2,0.9,1.5,1,2.8,2c0.3,0.3,0.3,0.3,0.3,0.5c0,0.3-0.2,0.4-1.1,0.9v4.1
		c0,9.1,0,11.9,0.1,15c0,0.8-0.4,0.9-2.4,0.9c-1.1,0-1.3-0.1-1.3-0.6v-1.9h-4.7v2.6c0,0.9-0.3,0.9-2.4,0.9c-1.2,0-1.4-0.1-1.4-0.7
		c0.2-6.2,0.2-7.8,0.2-12c0-5.4-0.1-9.2-0.2-12c1.7,0.8,2.2,1,3.8,2.1h0.3c0.6-2.6,0.9-4.5,0.9-6.7c1,0.3,1.9,0.4,2.4,0.5
		c2.2,0.4,2.9,0.7,2.9,1.1c0,0.3-0.4,0.5-1.6,0.7c-1.7,2.5-2.3,3.3-3.4,4.5h2.9L294.8,424.4L294.8,424.4z M295.1,433v-7.7h-4.8v7.7
		H295.1z M290.3,433.7v9.1h4.8v-9.1H290.3z M312,424.4c0.9-1,1.3-1.3,2.2-2.2c1.3,0.9,1.6,1.2,2.8,2.2c0.3,0.3,0.4,0.5,0.4,0.7
		c0,0.3-0.3,0.5-1.3,0.9c-0.2,7.9-0.4,11-1,15.1c-0.7,5.2-1.6,6.9-4,7.5c-0.6,0.2-1.9,0.3-2.4,0.3c-0.3,0-0.5-0.2-0.5-0.6
		c-0.1-1.9-1.5-2.8-5.4-3.7l0.1-0.4c4.4,0.3,4.6,0.3,6.5,0.3c0.9,0,1-0.2,1.4-1.3c0.3-1.5,0.9-4.9,1-7.6c0.3-3.3,0.3-6.4,0.3-10.6
		h-7.2c-1.7,3.3-3.4,5.6-5.8,7.9l-0.3-0.2c2.2-4.3,4.1-10.8,4.2-15.2c4.6,0.9,5.6,1.3,5.6,1.7c0,0.3-0.3,0.5-1.6,0.8
		c-0.6,1.9-0.9,2.8-1.7,4.3L312,424.4L312,424.4z M303.1,429.5c4.3,2.4,6.3,4.4,6.3,6.3c0,1.5-1.2,3.2-2.4,3.2
		c-0.7,0-0.9-0.3-1.2-1.6c-0.5-2.8-1.3-4.8-2.9-7.6L303.1,429.5z"/>
	<path d="M325.1,419.1c1,0,2.6,0.4,3.8,1c1.5,0.8,2.2,1.5,2.2,2.2c0,0.3-0.1,0.5-0.3,0.9c-0.4,0.8-0.5,1-0.6,2.2
		c-0.1,0.7-0.2,2.9-0.2,4.7c3.1,0.2,6.3,0.9,8.3,1.7c1.7,0.8,2.5,1.8,2.5,3.4c0,1.5-0.6,2.4-1.5,2.4c-0.5,0-0.7-0.2-1.6-1.1
		c-2.2-2.4-4.8-4.3-7.7-5.3c0,0.4,0,2.2,0,5.4c0,2.9,0,2.9,0.1,7c0,0.6,0,1,0,1.6c0,1.1-0.1,1.7-0.2,2.1c-0.2,0.5-0.7,0.9-1.2,0.9
		c-0.6,0-1.2-0.3-1.9-1.2c-0.7-0.9-1.2-2.1-1.2-2.8c0-0.4,0-0.5,0.3-1.4c0.6-1.7,0.8-5.7,0.8-14.5c0-5-0.1-6.3-0.6-7.2
		c-0.3-0.7-1.2-1.4-2.4-1.8C324.3,419.2,324.5,419.1,325.1,419.1z"/>
	<path d="M349.3,421.3c1.3,0,3.5,0.8,4.6,1.5c0.5,0.4,0.9,0.9,0.9,1.4c0,0,0,0,0,0.1c0,0.3,0,0.3-0.3,1.2c-0.2,0.6-0.3,2.2-0.3,4.3
		c0,0.5,0,1.5,0.1,3.1c0,0.9,0,1.6,0,2.1c0,1,0,1.4-0.1,1.9c-0.2,0.8-0.6,1.2-1.3,1.2c-0.6,0-1.3-0.5-1.9-1.5
		c-0.5-0.9-0.9-1.9-0.9-2.4c0-0.3,0-0.3,0.2-0.9c0.3-0.9,0.6-3.1,0.6-5.6c0-2.4-0.2-3.6-0.7-4.3c-0.4-0.8-0.9-1-2.2-1.6
		C348.5,421.3,348.7,421.3,349.3,421.3z M353.1,448.5c3.6-2.3,5.9-4.7,7.5-7.7c1.6-3.3,2.1-6,2.1-13.9c0-3.9-0.1-5.1-0.6-5.8
		c-0.4-0.7-1.4-1.2-2.8-1.6c0.5-0.4,0.9-0.5,1.5-0.5c1.1,0,2.8,0.4,4.1,1c1.5,0.7,2.1,1.3,2.1,2.1c0,0.3,0,0.3-0.3,0.9
		c-0.3,0.9-0.5,2.3-0.6,6.9c-0.1,4.9-0.3,6.5-0.9,8.5c-1.5,5-5.8,8.6-12,10.5L353.1,448.5z"/>
	<path d="M377,431.2c0.8,0.5,1.5,0.7,3.4,0.7c1.4,0,7.7-0.1,13.6-0.3c0.6,0,2.8,0,3.9,0c3.4,0,4.5,0.2,5.1,0.6
		c0.3,0.3,0.4,0.6,0.4,1c0,0.9-0.8,1.4-2.2,1.6c-1.9,0.3-5,0.3-15.3,0.4c-1.5,0-1.7,0-4.3,0.2c-0.9,0.1-1,0.1-1.5,0.3
		c-0.5,0.2-0.9,0.3-1.2,0.3c-0.9,0-1.7-0.8-2.6-2.2c-0.8-1.4-1.2-2.6-1.2-3.6c0-0.6,0-0.7,0.4-1.1
		C376.2,430.6,376.4,430.8,377,431.2z"/>
	<path d="M412.9,419.1c1,0,2.6,0.4,3.8,1c1.5,0.8,2.2,1.5,2.2,2.2c0,0.3-0.1,0.5-0.3,0.9c-0.4,0.8-0.5,1-0.6,2.2
		c-0.1,0.7-0.2,2.9-0.2,4.7c3.1,0.2,6.3,0.9,8.3,1.7c1.7,0.8,2.5,1.8,2.5,3.4c0,1.5-0.6,2.4-1.5,2.4c-0.5,0-0.7-0.2-1.6-1.1
		c-2.2-2.4-4.8-4.3-7.7-5.3c0,0.4,0,2.2,0,5.4c0,2.9,0,2.9,0.1,7c0,0.6,0,1,0,1.6c0,1.1-0.1,1.7-0.2,2.1c-0.2,0.5-0.7,0.9-1.2,0.9
		c-0.6,0-1.2-0.3-1.9-1.2c-0.7-0.9-1.2-2.1-1.2-2.8c0-0.4,0-0.5,0.3-1.4c0.6-1.7,0.8-5.7,0.8-14.5c0-5-0.1-6.3-0.6-7.2
		c-0.3-0.7-1.2-1.4-2.4-1.8C412.2,419.2,412.4,419.1,412.9,419.1z"/>
	<path d="M437.2,426.7c3.3,1.2,6.2,2.6,9.1,4.3c2.5-4,3.9-7.1,3.9-8.5c0-1.1-0.7-2.1-2.2-2.8c0.3-0.2,0.5-0.2,0.9-0.2
		c1.5,0,3.5,0.9,5.1,2.2c1,0.9,1.4,1.5,1.4,2.2c0,0.4-0.2,0.7-0.9,1.3c-0.4,0.4-0.7,0.7-1.5,2.1c-0.2,0.2-0.2,0.2-1.2,2.1
		c-0.2,0.3-0.8,1.2-1.8,2.8c-0.2,0.2-0.3,0.5-0.5,0.9c4,2.8,4.7,3.8,4.7,5.8c0,1.5-0.7,2.8-1.6,2.8c-0.5,0-0.9-0.3-1.4-1.1
		c-1.2-1.8-2.2-3.1-3.8-4.8c-2.8,3.6-4.6,5.5-7.5,7.7c-2.7,2.1-4.7,3.3-8.3,4.7l-0.3-0.3c5-3.7,9.6-8.8,13.6-14.5
		c-2.6-2.2-5.5-4.6-7.9-6L437.2,426.7z"/>
	<path d="M462.8,422.8c3.9,0.6,5.9,1.2,7.6,2.2c1.1,0.7,1.7,1.6,1.7,2.9c0,1.6-0.8,2.8-1.9,2.8c-0.6,0-0.9-0.3-1.5-1.2
		c-1.6-3-3.4-4.8-6.1-6.5L462.8,422.8z M489,424.8c-1.9,4-4.3,7.2-7.7,10.7c-3.1,3-5.6,5-10,7.8c-0.9,0.6-1.5,1-1.9,1.5
		c-0.5,0.6-0.9,0.9-1.5,0.9c-0.9,0-2.2-0.9-3.4-2.5c-1.1-1.4-1.6-2.8-1.6-3.8c0-0.3,0-0.5,0.2-0.9c0.9,1.5,2.1,2.6,3,2.6
		c1.5,0,5.9-2.4,10.1-5.3c5.2-3.7,9.5-7.6,12.4-11.1L489,424.8z"/>
	<path d="M497,419.1c1,0,2.6,0.4,3.8,1c1.5,0.8,2.2,1.5,2.2,2.2c0,0.3-0.1,0.5-0.3,0.9c-0.4,0.8-0.5,1-0.6,2.2
		c-0.1,0.7-0.2,2.9-0.2,4.7c3.1,0.2,6.3,0.9,8.3,1.7c1.7,0.8,2.5,1.8,2.5,3.4c0,1.5-0.6,2.4-1.5,2.4c-0.5,0-0.7-0.2-1.6-1.1
		c-2.2-2.4-4.8-4.3-7.7-5.3c0,0.4,0,2.2,0,5.4c0,2.9,0,2.9,0.1,7c0,0.6,0,1,0,1.6c0,1.1-0.1,1.7-0.2,2.1c-0.2,0.5-0.7,0.9-1.2,0.9
		c-0.6,0-1.2-0.3-1.9-1.2s-1.2-2.1-1.2-2.8c0-0.4,0-0.5,0.3-1.4c0.6-1.7,0.8-5.7,0.8-14.5c0-5-0.1-6.3-0.6-7.2
		c-0.3-0.7-1.2-1.4-2.4-1.8C496.2,419.2,496.4,419.1,497,419.1z"/>
	<path d="M531.7,446.5c3.7-1.1,6.3-2.7,8.3-4.9c2.3-2.5,3.4-5.5,3.4-9c0-5.9-3.6-9.4-9.5-9.4c-0.4,0-0.7,0-1.4,0.1
		c1.2,1.4,1.5,2.3,1.5,3.7c0,2.8-1.7,7.6-4.2,11.7c-2.2,3.7-4.2,5.6-5.9,5.6c-0.8,0-1.5-0.4-1.9-1c-0.3-0.5-0.5-1-0.8-2.2
		c-0.2-0.9-0.5-1.3-1.5-2.6c-0.9-1-1.4-2.6-1.4-4c0-2.2,1.1-4.8,2.9-6.9c2.9-3.5,7.8-5.7,13-5.7c7.7,0,13.2,4.8,13.2,11.7
		c0,5-2.8,9-7.7,11.3c-2.2,1-4.3,1.5-7.9,2.1L531.7,446.5z M525.3,426.9c-2.4,2.4-3.7,5.3-3.7,8.2c0,2.4,1.2,4.8,2.3,4.8
		s3.4-2.8,5.7-7.1c1.7-3.3,2.8-6.1,2.8-7.6c0-0.3,0-0.9-0.2-1.1c-0.1-0.3-0.3-0.8-0.3-0.8C529.1,423.9,527.3,425,525.3,426.9z"/>
	<path d="M196.7,498.7c0,0.4-0.2,0.6-0.6,0.7c-0.3,0.1-1.5,0.2-2.2,0.2c-0.9,0-1.2-0.2-1.2-0.9c0.3-6.7,0.3-9,0.3-14.5
		c0-9,0-12-0.3-16c1.9,0.9,2.6,1.3,4.5,2.4h19.7c0.9-1,1.2-1.3,2.2-2.2c1.4,0.9,1.7,1.2,2.9,2.2c0.3,0.3,0.4,0.5,0.4,0.7
		c0,0.3-0.3,0.6-1.4,1.2v14.1c0,4.3,0,5.9,0.2,12c0,0.5-0.2,0.7-0.5,0.9c-0.3,0.2-1.5,0.3-2.3,0.3c-0.9,0-1.1-0.2-1.1-0.9v-1.5
		h-20.7v1.5h0.1L196.7,498.7L196.7,498.7z M196.7,496.4h20.7v-25.1h-20.7V496.4z M203.8,490.8c0,0.3-0.1,0.5-0.3,0.7
		c-0.3,0.2-1,0.3-2,0.3c-1.2,0-1.4-0.2-1.4-0.9c0.1-3.4,0.2-5.7,0.2-9.1c0-2.6,0-3.8-0.1-6.4c1.8,0.9,2.3,1.2,4.1,2.2h5.4
		c0.9-0.9,1-1.2,1.9-2.1c1.2,0.9,1.5,1.2,2.7,2.1c0.3,0.3,0.3,0.3,0.3,0.5c0,0.3-0.2,0.4-1,0.9v5.5c0,0.4,0,1.7,0.1,5.8
		c0,0.8-0.5,0.9-2.2,0.9c-1.2,0-1.4-0.1-1.5-0.7v-1.8h-6.2V490.8L203.8,490.8z M203.8,488.1h6.2v-9.7h-6.2V488.1z"/>
	<path d="M249.4,487.7c0.8-0.8,1-1,1.9-1.8c1.3,0.9,1.7,1.2,2.9,2.2c0.3,0.3,0.4,0.4,0.4,0.5c0,0.3-0.5,0.6-1.7,0.9
		c-1.7,2.1-2.6,3-4.3,4.4c3.1,0.9,5.9,1.4,9.5,1.4v0.3c-0.8,0.3-1,0.5-1.5,1c-0.4,0.5-0.8,1.2-0.9,1.9c-0.2,0.5-0.2,0.7-0.5,0.7
		c-0.6,0-3-0.8-4.6-1.4c-1.5-0.7-2.9-1.5-4.1-2.4c-3.5,2.3-7.4,3.6-12.9,4.3l-0.2-0.3c4.6-1.5,7.6-3.2,11-5.8
		c-1-1.1-1.9-2.4-2.7-3.9c-2.1,2.2-4.3,4-7.6,5.5l-0.2-0.3c2.9-2.8,5.2-5.9,6.8-9.3c-0.6,0.1-1.1,0.1-1.8,0.1c-0.9,0-1-0.1-1-0.7
		c0.1-3.2,0.1-4.3,0.1-6.5c0-1.2,0-1.4,0-2.7c-0.7,0.5-0.9,0.8-1.7,1.3c0.2,0.2,0.3,0.3,0.3,0.4c0,0.3-0.3,0.3-1.4,0.4
		c-1.2,1.8-1.9,2.8-3.3,4.1c1.5,0.3,1.9,0.4,1.9,0.8c0,0.3-0.3,0.5-1.1,0.8v15c0,0.4-0.1,0.6-0.3,0.8c-0.3,0.3-1.1,0.3-2.4,0.3
		c-1,0-1.2-0.2-1.2-0.9c0.1-2.9,0.2-6.7,0.2-8.3v-5.8c-1.5,1.2-2.2,1.7-4,2.8l-0.2-0.3c1.9-2.2,3.2-4,4.6-6.7
		c1.3-2.2,1.9-3.6,2.4-5.3c1.8,0.7,2.3,0.9,3.7,1.6c1.9-3,3.4-6.5,3.7-9c4.4,1,5.3,1.4,5.3,1.8c0,0.3-0.4,0.5-1.6,0.6
		c-0.8,1-1,1.4-1.6,2.1h9.6c1.1-1.3,1.4-1.6,2.5-2.9c1.7,1.3,2.2,1.7,3.8,3.1c0.2,0.2,0.2,0.3,0.2,0.3c0,0.2-0.2,0.2-0.4,0.2h-16.3
		c-0.6,0.7-0.9,1-1.5,1.5c0.9,0.4,1.3,0.6,2.5,1.4h8.2c0.7-0.8,0.7-0.8,1.7-1.7c1.2,0.7,1.5,0.9,2.8,1.8c0.3,0.2,0.4,0.3,0.4,0.5
		c0,0.3-0.3,0.5-1.1,0.9c0,0.7,0,0.7,0,1.5c0,1.3,0,2.5,0.1,5.6c0,0.3,0,0.4-0.2,0.6c-0.2,0.3-0.9,0.4-2.4,0.4c-0.9,0-1-0.1-1-0.7
		v-0.6h-8.6v0.1c3.4,0.6,3.4,0.6,3.9,0.8c0.3,0.2,0.4,0.3,0.4,0.4c0,0.3-0.3,0.4-1.5,0.7c-0.3,0.5-0.4,0.5-0.9,1.2h6L249.4,487.7
		L249.4,487.7z M225.3,477.5c1.7-1.9,2.9-3.5,4.2-5.8c0.9-1.5,1.3-2.5,1.7-4c1,0.3,1.8,0.5,2.3,0.7c2.2,0.7,2.9,0.9,2.9,1.3
		s-0.4,0.5-1.6,0.5c-3.1,3.7-5.4,5.6-9.3,7.5L225.3,477.5z M250.1,476.8h-8.6v2.9h8.6V476.8z M241.6,480.4v3.3h8.6v-3.3H241.6z
		 M242.9,488.4c-0.3,0.3-0.4,0.5-0.7,0.9c1,1.4,2,2.3,3.5,3.3c1.7-1.5,2.4-2.2,3.8-4.1L242.9,488.4L242.9,488.4z"/>
	<path d="M273.5,491.5c0-2.6,0-2.6-0.1-4.1c4.6,0.3,5.2,0.4,5.2,0.9c0,0.3-0.3,0.5-1.2,0.9c0,1,0,1.1,0,1.8v0.6h7.8
		c1.1-1.2,1.5-1.5,2.6-2.8c1.8,1.2,2.3,1.6,4.1,2.9c0.2,0.2,0.3,0.3,0.3,0.3c0,0.1-0.2,0.3-0.3,0.3h-14.5c0,4.5,0,4.6,0.1,6.7
		c0,0.3,0,0.5-0.1,0.6c-0.2,0.3-0.9,0.5-2.2,0.5c-1.5,0-1.8-0.1-1.8-0.9c0.1-4,0.1-4.2,0.1-5.3c0-0.1,0-0.6,0-1.6H263
		c-0.5,0-1.9,0.2-2.6,0.3l-0.3-1.4c0.9,0.2,2.3,0.3,2.8,0.3L273.5,491.5L273.5,491.5z M270.2,481.8c-2.9,3-3.2,3.3-6.6,5.9
		c0,0.3,0,0.5,0,0.7c0,0.5-0.3,0.9-0.5,0.9s-0.3-0.2-0.5-0.4c-0.3-0.3-0.3-0.3-2.1-4c3.4-0.9,5.7-1.7,9.6-3.4L270.2,481.8z
		 M284.6,472.3c1.1-1.4,1.5-1.7,2.6-2.9c1.8,1.3,2.3,1.7,4.1,3.1c0.1,0.2,0.2,0.3,0.2,0.3c0,0.2-0.2,0.3-0.3,0.3h-16.9
		c3.3,0.9,3.6,1,3.6,1.4s-0.2,0.4-1.3,0.4h-0.1c-1.9,1.5-2.8,2.1-3.8,2.8c1.2,0.8,1.4,1.1,1.4,1.9c0,1.2-0.9,2.4-1.7,2.4
		c-0.3,0-0.5-0.3-0.8-0.8c-0.9-2.2-1.6-3.4-3.3-5.2l0.2-0.3c1.8,0.7,2.2,0.9,3.1,1.3c0.7-1.3,1.1-2.7,1.5-4h-9.6
		c-0.5,0-1.8,0.1-2.6,0.2l-0.3-1.2c0.9,0.2,2.2,0.3,2.8,0.3h10v-2.1c0-0.2,0-0.7,0-1.4c0-0.3,0-0.7,0-1.1c4.6,0.4,5.4,0.5,5.4,1
		c0,0.3-0.3,0.5-1.4,0.9v2.5L284.6,472.3L284.6,472.3z M261.9,474.2c4.6,1.5,6.4,2.7,6.4,4.1c0,0.5-0.2,1.2-0.5,1.7
		c-0.3,0.7-0.8,1-1.3,1s-0.7-0.3-1.1-1.2c-1-2.5-2.1-4-3.7-5.4L261.9,474.2z M277.6,481.5c4.3,2.1,5.7,3.1,5.7,4.5s-1,2.8-2.1,2.8
		c-0.2,0-0.3-0.1-0.4-0.3c-0.2-0.2-0.2-0.2-0.8-2c-0.1-0.3-0.2-0.6-0.3-1c-0.3,0.1-0.3,0.1-1.2,0.3c-1.8,0.6-2.2,0.7-6.2,1.7
		c-1.5,0.3-1.5,0.3-2.4,0.6c-0.3,1.1-0.4,1.3-0.7,1.3c-0.4,0-0.7-0.9-1.4-4.5c1.2,0.1,1.7,0.1,2.4,0.1c0.1,0,0.2,0,1,0
		c2.7-2.8,5.3-6.5,6.9-9.6c1.9,0.8,3.4,1.5,3.9,1.7c0.3,0.2,0.3,0.3,0.3,0.4c0,0.3-0.4,0.5-1.6,0.6c-2.7,2.7-4.9,4.6-8,6.8
		c3.8-0.2,4-0.2,6.5-0.4c-0.6-1-0.9-1.6-1.9-2.8L277.6,481.5z M281.2,480.6c2.1-2.2,3.4-4,4.8-6.5c1.4,0.8,3,1.7,4,2.4
		c0.3,0.2,0.3,0.3,0.3,0.5c0,0.3-0.3,0.4-0.7,0.4c-0.2,0-0.5,0-1-0.1c-3.6,2.1-4.8,2.7-7.1,3.5L281.2,480.6z M282.1,481.6
		c6.1,1.4,7.6,2.2,7.6,4c0,1.3-0.9,2.6-1.9,2.6c-0.5,0-0.7-0.2-1.4-1.4c-1.1-2.1-2.2-3.3-4.5-5L282.1,481.6z"/>
	<path d="M297.9,495.2c1.5,0,2.1-0.1,2.6-0.4c0.8-0.4,1-1.3,1-3.5v-15.8c0-1.7,0-1.7-0.1-2.1c-0.2-0.8-0.6-0.9-2.3-0.9h-0.9v-0.9
		c3.3-0.3,5.8-0.6,8.1-1c-0.2,2.4-0.3,5.3-0.3,8.7v12.1c0,2.1,0.2,2.9,0.9,3.4c0.5,0.3,0.9,0.4,2.7,0.5v0.9h-11.4L297.9,495.2
		L297.9,495.2z"/>
	<path d="M318,473.9c1.5-2.2,3.9-3.4,6.7-3.4c2.8,0,5.2,1.2,6.6,3.4c1.6,2.4,2.5,5.9,2.5,9.8c0,4-0.9,7.3-2.5,9.7
		c-1.5,2.2-3.9,3.4-6.6,3.4s-5.3-1.2-6.7-3.4c-1.6-2.4-2.5-5.9-2.5-9.7C315.5,479.7,316.4,476.3,318,473.9z M321.2,492.9
		c0.8,2,1.9,3,3.5,3c1.7,0,2.9-1.2,3.7-3.6c0.6-1.9,0.9-4.6,0.9-8.7c0-4.5-0.3-7.3-1.1-9.3c-0.8-2.1-1.9-3-3.5-3
		c-3.2,0-4.6,3.8-4.6,12.3C320.1,488,320.4,490.9,321.2,492.9z"/>
	<path d="M339.7,483.4c2.2-2,4-2.8,6.6-2.8c5,0,8.2,2.9,8.2,7.7c0,5.2-3.6,8.4-9.3,8.4c-4.5,0-8-2.2-8-5c0-1.3,0.9-2,2.4-2
		c0.8,0,1.4,0.2,1.7,0.6c0.3,0.3,0.3,0.5,0.3,1.5c0,1.3,0.3,2.2,0.9,2.8c0.7,0.7,1.6,1.1,2.7,1.1c1.4,0,2.6-0.6,3.4-1.7
		c0.9-1.3,1.3-3.2,1.3-5.3c0-4.3-1.8-6.9-4.9-6.9c-2.2,0-4.4,1.4-5.8,3.8l-1.1-0.3l1.1-14.5h14.1l-0.6,3.9h-12.4L339.7,483.4z"/>
	<path d="M364,470c3.9,0,6.3,2.8,6.3,7.1c0,4.3-2.5,7.1-6.3,7.1s-6.3-2.8-6.3-7.1S360.1,470,364,470z M381.5,470.8L362,496.9l-1-0.9
		l19.4-26L381.5,470.8z M364,483.5c1.6,0,2.3-1.9,2.3-6.3c0-4.5-0.7-6.4-2.4-6.4c-1.6,0-2.3,1.9-2.3,6.4
		C361.6,481.6,362.3,483.5,364,483.5z M378.5,482.5c3.9,0,6.4,2.8,6.4,7.1c0,4.3-2.5,7.1-6.3,7.1s-6.3-2.8-6.3-7.1
		S374.7,482.5,378.5,482.5z M378.6,495.9c1.6,0,2.3-1.9,2.3-6.3c0-4.5-0.7-6.4-2.4-6.4c-1.6,0-2.3,1.9-2.3,6.3
		C376.2,494,376.9,495.9,378.6,495.9z"/>
	<path d="M389.2,474c1.5,1.3,2.6,1.7,4.7,1.7c1.1,0,2.1-0.1,3.4-0.4c0.7-1.2,1.2-2.8,1.2-3.8c0-1.2-0.8-1.8-2.8-2.2
		c0.7-0.4,1-0.5,1.9-0.5c1.2,0,2.8,0.3,3.9,0.8c0.9,0.4,1.5,0.9,1.5,1.5c0,0.3-0.2,0.6-0.6,1c-0.5,0.7-1.2,1.5-1.8,2.6
		c3.1-1,3.4-1.2,4.6-2.2c0.3-0.3,0.6-0.3,0.9-0.3c1.5,0,2.8,0.8,2.8,1.6c0,0.7-0.6,1.1-2.8,1.9c-2.2,0.7-4.4,1.3-7.1,1.7
		c-1,1.5-1.3,1.9-1.7,2.4c-1.3,1.9-1.3,1.9-1.8,2.6c2.1-1.1,3.4-1.5,4.9-1.5c1.1,0,2.2,0.4,2.9,1.2c0.4,0.5,0.7,0.9,0.9,1.8
		c0.6-0.3,0.6-0.3,3.3-1.7c1-0.5,2.2-1.2,2.9-1.7c0.5-0.3,0.7-0.6,0.7-0.9c0-0.7-0.7-1.4-1.9-1.9c0.5-0.2,0.7-0.2,1-0.2
		c2.1,0,5.1,2.6,5.1,4.4c0,0.7-0.3,1-1.4,1.3c-4,1-7.1,2.2-9.3,3.3c0.1,2.3,0.1,2.4,0.1,2.8c0,1.7-0.1,2.4-0.3,2.8
		c-0.3,0.5-0.9,0.9-1.7,0.9c-0.9,0-1.5-0.5-1.5-1.5c0-0.1,0-0.1,0.1-1.4c0-0.8,0.1-1.3,0.1-2.2c-3.7,2.1-5.1,3.5-5.1,5.3
		c0,1.6,1.6,2.4,5.2,2.4c2.2,0,4.8-0.3,6.4-0.9c0.9-0.3,1.1-0.4,1.5-0.4c0.5,0,1.4,0.3,2.1,0.8s1.1,1.2,1.1,1.8
		c0,0.6-0.5,1.1-1.3,1.4c-1.3,0.3-3.6,0.6-6.7,0.6c-3.8,0-6.1-0.4-7.7-1.5c-1.3-0.9-2-2.2-2-3.8s0.9-3.4,2.6-5
		c0.9-0.8,1.7-1.4,4-2.9c0-1.3-0.2-1.7-0.4-2.4c-0.3-0.6-0.9-0.9-1.6-0.9c-2.1,0-4.5,1.7-7.2,5.3c-0.9,1.1-1.2,1.4-1.7,1.4
		c-0.9,0-1.5-1.2-1.5-2.8c0-0.4,0.1-0.8,0.3-1c0.3-0.3,0.3-0.3,1.4-1.1c1.3-0.9,3.6-3.4,5.4-6.1c-0.5,0-0.9,0.1-1.1,0.1
		c-1.5,0-3-0.3-4-1c-0.9-0.5-1.4-1.2-2.1-2.4L389.2,474z"/>
	<path d="M436,478.3c0.9,4,2.6,7.4,5.2,10.2c1.6,1.7,4,3.4,6.3,4.5c1.3,0.6,2.2,0.9,4,1.4v0.4c-1.8,0.9-2.8,1.9-3.4,3.5
		c-0.2,0.5-0.3,0.6-0.5,0.6c-0.3,0-1-0.4-2.2-1.2c-3.5-2.6-6-5.9-7.8-10.6c-0.9-2.2-1.4-4.4-1.9-7.6c-0.6,5.7-2.4,9.9-5.8,13.3
		c-2.1,2.1-4.6,3.9-7.3,5.1c-1.2,0.6-2.2,0.9-4.1,1.6l-0.2-0.4c5.2-3.3,7.7-5.7,9.8-9.1c2-3.2,3.1-7.1,3.5-11.5h-9.1
		c-1.2,0-2.1,0.1-3.2,0.3l-0.2-1.3c1.1,0.2,2.2,0.3,3.4,0.3h9.1c0.2-1.7,0.2-3.3,0.2-5.5c0-1.6,0-2.2-0.2-3.6
		c1.2,0.1,2.2,0.2,2.8,0.3c2.4,0.2,3.1,0.3,3.1,0.9c0,0.3-0.3,0.6-1.5,0.9c-0.1,3.7-0.2,5-0.3,7.1h7.7l2.6-3.4
		c1.9,1.5,2.5,1.9,4.3,3.4c0.2,0.2,0.3,0.3,0.3,0.4c0,0.2-0.2,0.3-0.4,0.3H436V478.3z"/>
	<path d="M454.9,474.2c1.5,1.1,2.9,1.5,4.8,1.5c1.5,0,4-0.4,5.9-1c-0.9-1.4-2.1-2.9-2.8-3.4c-0.6-0.5-1.7-0.8-2.8-0.8
		c-0.1,0-0.3,0-0.5,0c0.3-0.8,0.8-1,1.9-1.3c0.7-0.2,1.5-0.3,2.3-0.3c1.5,0,2.5,0.2,2.9,0.7c0.3,0.3,0.4,0.4,0.5,1.5
		c0,0.6,0.3,1.2,1.1,2.8c2.8-1,3.6-1.5,4.6-2.5c0.3-0.3,0.7-0.3,1.3-0.3c1.5,0,2.3,0.5,2.3,1.3c0,1-1.5,1.7-7.1,3.6
		c0.3,0.4,0.3,0.4,0.6,1c0.2,0.3,0.6,1.1,1.4,2.4c2.1-0.8,3-1.2,3.9-1.8c-0.7-0.7-0.9-0.9-2.1-1.9l0.2-0.3c1.2,0.6,2.2,0.9,3,0.9
		c0.2,0,0.2,0,1-0.2c0.2,0,0.3,0,0.3,0c0.9,0,1.4,0.5,1.4,1.3c0,1.3-1.7,2.4-6.6,4.1c0.9,1.5,1,1.8,1.4,2.4c0.8,1.3,0.8,1.3,1.5,2.5
		c0.6,1,0.9,1.6,0.9,2.3c0,0.9-0.3,1.9-0.7,2.4c-0.3,0.4-0.7,0.6-1.2,0.6c-0.4,0-0.8-0.2-1.3-0.7c-1.1-1.1-1.5-1.4-2.5-1.8
		c-1.8-0.9-3.9-1.4-5.7-1.4c-3.4,0-5.7,1.4-5.7,3.4c0,2.1,2.2,3.1,6.1,3.1c1.4,0,2.1-0.1,3.8-0.5c0.3-0.1,0.6-0.2,0.9-0.2
		c1.5,0,3.1,1.4,3.1,2.6c0,0.6-0.3,1-1.1,1.2c-0.9,0.3-2.7,0.5-4.6,0.5c-4,0-6.7-0.7-8.6-2.1c-1.3-1-2.1-2.4-2.1-3.9
		c0-3.4,3.8-5.7,9.2-5.7c1.9,0,3.9,0.2,6.5,0.7c-0.3-1.2-1-2.9-2.2-5.2c-2.6,0.9-5.3,1.3-7.7,1.3c-2.9,0-4.5-1-5.9-3.8l0.3-0.3
		c1.3,1.5,2.5,2.1,4.3,2.1c2.1,0,4.7-0.5,7.7-1.4c-0.6-1.1-1.2-2.2-2.1-3.4c-2.4,0.7-4.5,1-6.2,1c-2.4,0-4.5-1.1-6.1-3.3
		L454.9,474.2z"/>
	<path d="M494.1,468.2c0.9,0,2.2,0.5,3.4,1.2c1.5,1,2.5,2.2,2.5,3.1s-0.4,1.3-2.2,2.4c-2.8,1.7-4.6,3.1-6.7,5
		c-1.5,1.4-2.2,2.4-2.2,3.3c0,0.5,0.3,1,1,1.7c0.7,0.6,0.7,0.6,3.1,2.4c1.5,1.2,3.7,3,5,4.4c1.5,1.5,2.1,2.8,2.1,4.5
		c0,1.9-0.9,3.2-2.1,3.2c-0.8,0-1.2-0.4-1.7-1.7c-1.3-2.9-3-5.7-5.9-9.1c-2-2.3-2.3-2.8-2.7-3.4c-0.4-0.8-0.6-1.4-0.6-2.1
		c0-0.9,0.3-1.7,1-2.8c0.8-1.1,0.8-1.1,4.2-5.3c1.9-2.2,2.8-3.7,2.8-4.4c0-0.4-0.3-0.9-0.7-1.4c-0.3-0.4-0.4-0.4-1.4-1
		C493.6,468.2,493.7,468.2,494.1,468.2z"/>
	<path d="M530.1,470.6c-0.3,3.1-0.7,4.3-1.5,5.9c-1,2-2.4,3.4-4.6,4.7c1.2,0.5,1.7,0.8,3.4,1.6h5.9c0.8-0.8,1-1,1.8-1.7
		c1.1,0.8,1.5,1,2.6,1.8c0.3,0.3,0.5,0.4,0.5,0.6c0,0.3-0.2,0.5-1,1c0,0.8,0,1,0,1.7c0,2.1,0,4.5,0.2,6.3c0,0.3-0.1,0.5-0.3,0.7
		c-0.3,0.2-1.3,0.3-2.5,0.3c-0.9,0-1-0.1-1-0.6v-1H527v1c0,0.6-0.5,0.8-2.5,0.8c-0.9,0-1.2-0.1-1.2-0.7c0.1-2.9,0.2-4.8,0.2-7.6
		c0-1.9,0-2.9-0.1-4c-0.6,0.3-0.9,0.5-2.5,1.2l-0.3-0.3c1.4-1.1,1.7-1.5,2.5-2.3h-5.5v5.9h0.8c0.9-1,1.1-1.4,1.9-2.4
		c1.2,1.1,1.5,1.5,2.7,2.7c0.1,0.1,0.2,0.2,0.2,0.3s-0.1,0.2-0.3,0.2h-5.2v7.3c1.7,0.8,4,1,8.2,1c5.3,0,9-0.2,14.3-0.8v0.3
		c-1,0.7-1.5,1.3-1.9,2.4c-0.2,0.4-0.2,0.4-0.3,1.2c0,0.3-0.2,0.3-0.9,0.3c-2.8,0.1-4.4,0.1-6.7,0.1c-5.9,0-8.8-0.3-10.8-0.9
		c-4-1.2-6.4-4-7.7-8.7c-0.9,4.3-2.1,6.7-4.7,10l-0.3-0.2c1-2.8,1.5-5,2-8.6c0.3-2.2,0.4-4.9,0.4-6.7c0-0.3,0-0.7-0.1-1.2
		c1,0.2,1.8,0.3,2.3,0.3c2,0.3,2.5,0.5,2.5,0.9c0,0.3-0.3,0.4-1.4,0.8c-0.3,1.9-0.3,2.4-0.6,3.8c0.8,1.8,1.3,2.6,2.2,3.4V480h-4.8
		c-0.7,0-1.4,0.1-1.9,0.2l-0.2-1.2c0.7,0.2,1.4,0.3,2.2,0.3h4.4v-5.2h-3.5c-0.7,0-1.3,0.1-1.9,0.2l-0.2-1.2c0.7,0.2,1.4,0.3,2.1,0.3
		h3.5v-1.9c0-1.5-0.1-2.2-0.3-3.7c5,0.5,5.2,0.5,5.2,1c0,0.3-0.3,0.5-1.4,0.8v3.7h0.9l2.1-2.4c1.4,1.1,1.7,1.5,3,2.6
		c0.2,0.2,0.3,0.3,0.3,0.3c0,0.1-0.2,0.2-0.3,0.2h-5.9v5.2h1.1c1-1.2,1-1.2,2-2.4c1.4,1.1,1.7,1.5,2.9,2.6l0,0
		c0.9-1.2,1.5-2.2,2.1-3.6c0.6-1.7,0.9-2.9,0.9-5.3h-1.9c-0.9,0-1.5,0.1-2.1,0.2l-0.2-1.1c0.8,0.2,1.4,0.3,2.2,0.3h9.6
		c0.8-0.8,1-1,1.8-1.7c1.2,0.9,1.5,1.1,2.8,2c0.3,0.2,0.3,0.3,0.3,0.4c0,0.3-0.3,0.5-1.2,1c-0.5,5.9-0.7,6.8-1.5,7.8
		c-0.6,0.9-1.3,1.3-2.6,1.5c-0.5,0.1-1.1,0.2-1.5,0.2c-0.3,0-0.3-0.1-0.4-0.5c-0.1-0.7-0.3-1.1-0.8-1.5c-0.4-0.3-0.7-0.4-2.6-1
		l0.1-0.4c1.5,0.2,2.8,0.2,3.6,0.2c1.1,0,1.2-0.1,1.5-1.2c0.3-1.2,0.6-3.6,0.6-6L530.1,470.6L530.1,470.6z M527,491.3h6.5v-7.6H527
		V491.3z"/>
	<path d="M541.5,482.1c0.9,0.2,1.7,0.3,2.2,0.3h2c0.8-0.9,1-1.2,1.8-2.1c1.3,0.9,1.7,1.2,2.9,2.1c0.3,0.2,0.3,0.3,0.3,0.4
		c0,0.3-0.3,0.6-1.1,1.1v8.3c0.7,1.2,1.2,1.8,2.2,2.3c1.5,0.7,3.1,1,6.1,1c5.3,0,10.9-0.3,16.5-0.8v0.4c-1.5,0.7-2.1,1.4-2.3,3.1
		c-0.1,0.5-0.2,0.5-0.6,0.6c-0.4,0-7.7,0.2-9.6,0.2c-5.4,0-8.3-0.7-10.2-2.2c-1.1-1-1.8-2-2.8-4.5c-1.2,1.9-3,4.2-4.5,5.8
		c0,0.3,0.1,0.5,0.1,0.9c0,0.3-0.3,0.7-0.5,0.7s-0.3-0.2-0.5-0.4c-1.5-2.8-1.5-2.8-2.2-4.4c0.9-0.3,1.1-0.3,2.4-1
		c1.8-0.9,1.8-0.9,2.3-1.3v-9.3h-2.3c-0.5,0-0.9,0-1.9,0.2L541.5,482.1z M542.9,468.6c5.3,2.2,7.1,3.8,7.1,5.7
		c0,1.4-1.5,3.1-2.7,3.1c-0.2,0-0.4-0.1-0.5-0.3c-0.3-0.3-0.3-0.3-0.9-2.4c-0.9-2.8-1.8-4.3-3.2-5.9L542.9,468.6z M554.8,472
		c0-1-0.1-1.9-0.2-4c1.7,0.8,2.2,1,3.8,2h7.5c0.8-0.9,1-1,1.8-1.9c1.1,0.9,1.5,1,2.6,1.9c0.3,0.2,0.3,0.3,0.3,0.5c0,0.3-0.2,0.3-1,1
		v8.3c0.6-0.8,0.8-0.9,1.5-1.6c0.9,0.7,1.2,0.9,2.2,1.7c0.2,0.2,0.3,0.3,0.3,0.4c0,0.3-0.2,0.4-1.2,1.1v7.6c0,1.1,0,1.3,0,2.2
		c-0.1,0.9-0.2,1.4-0.6,1.8c-0.5,0.5-1.3,0.9-2.7,1c-0.7,0.1-0.7,0.1-0.8,0.1c-0.3,0-0.3-0.1-0.3-0.6c0-1.5-0.4-2.3-1.5-2.8
		c-0.3,0.1-0.9,0.2-1.6,0.2c-0.5,0-0.7-0.2-0.7-0.6v-0.9h-3.4v1.8c0,0.3-0.2,0.5-0.5,0.6s-1,0.2-1.6,0.2c-0.8,0-0.9-0.1-0.9-0.6
		c0.1-1.2,0.1-1.9,0.1-2.9c0-5.3,0-5.6-0.1-6.7c1.5,0.6,1.9,0.8,3.2,1.6h2.9c0.6-0.7,0.8-0.9,1.4-1.5c1,0.6,1.3,0.8,2.2,1.5
		c0.2,0.3,0.3,0.3,0.3,0.5s0,0.2-0.8,0.8c0,0.4,0,0.7,0,0.9c0,0.4,0,0.4,0.1,4.5l-0.1,0.3c0.6,0.1,0.8,0.1,1.4,0.1
		c0.5,0,0.5,0,0.5-0.5v-9.5h-13.1v10.6c0,1.4,0,1.4,0,2c0,0.4-0.2,0.6-0.7,0.8c-0.3,0.1-0.9,0.2-1.5,0.2c-0.9,0-1.3-0.2-1.3-0.8
		c0.1-3.5,0.2-5.3,0.2-7.7c0-4.6,0-5.4-0.2-7.4c1.3,0.6,1.5,0.8,2.8,1.5L554.8,472L554.8,472z M560.4,474.9c0-0.9,0-1.5-0.2-2.8
		c1.6,0.7,2.2,0.9,3.6,1.8h2.2v-3.4h-8.2v9h2.4L560.4,474.9L560.4,474.9z M560.4,488.4h3.4v-4.6h-3.4V488.4z M566.1,479.7v-4.9h-2.8
		v4.9H566.1z"/>
</g>
<path d="M241.3,674.4c1,0.2,1.5,0.3,2.4,0.3h5.5c1-1,1.3-1.4,2.3-2.4c1.5,1.1,1.9,1.5,3.4,2.6c0.2,0.2,0.3,0.3,0.3,0.3
	s-0.2,0.2-0.3,0.2h-11c-0.7,0-1.2,0-2.2,0.2L241.3,674.4z M242.3,679c0.9,0.2,1.6,0.3,2.2,0.3h4c0.9-1.1,1.2-1.4,2.1-2.4
	c1.5,1.1,1.9,1.5,3.2,2.6c0.2,0.2,0.2,0.3,0.2,0.3c0,0.2-0.2,0.3-0.4,0.3h-9c-0.6,0-1,0-2,0.2L242.3,679z M242.4,683.4
	c1,0.2,1.5,0.3,2.2,0.3h4c0.9-1,1.2-1.4,2.2-2.4c1.5,1.1,1.9,1.4,3.2,2.6c0.2,0.2,0.2,0.3,0.2,0.3c0,0.2-0.2,0.3-0.4,0.3h-9
	c-0.6,0-1,0-1.9,0.2L242.4,683.4z M242.5,670c0.9,0.2,1.5,0.3,2.3,0.3h3.8c1-1.1,1.4-1.5,2.3-2.5c1.5,1.1,2.1,1.5,3.4,2.8
	c0.2,0.2,0.2,0.3,0.2,0.3c0,0.2-0.2,0.2-0.4,0.2h-9.4c-0.7,0-1.2,0-2.2,0.2L242.5,670L242.5,670z M246.2,698.9
	c0,0.3-0.1,0.4-0.2,0.5c-0.3,0.2-1,0.3-2.2,0.3c-1,0-1.2-0.1-1.3-0.6c0.1-4.3,0.1-4.3,0.1-6.5c0-3.5,0-4.6-0.1-6.4
	c1.7,0.9,2.2,1.1,3.9,2.1h2.8c0.8-0.9,1-1.2,1.8-2c1.2,0.9,1.5,1.1,2.6,2c0.3,0.3,0.4,0.4,0.4,0.6c0,0.3-0.3,0.5-1.1,0.9
	c0,5.5,0,5.5,0.1,8.5c0,0.3-0.1,0.5-0.3,0.7c-0.3,0.2-1,0.3-2.1,0.3c-1,0-1.2-0.1-1.3-0.6v-1.2H246L246.2,698.9L246.2,698.9z
	 M246.2,696.9h3.3v-7.8h-3.3V696.9z M265.2,687.1h2.1c0.8-0.9,1-1.3,1.8-2.2c1.3,0.9,1.7,1.2,2.9,2.2c0.3,0.3,0.4,0.4,0.4,0.5
	c0,0.3-0.3,0.5-1.2,1v2.7c0,3.3,0,5.4,0.1,7.4c0,0.5-0.1,0.7-0.4,0.9s-1.2,0.3-2.2,0.3s-1.2-0.1-1.2-0.7v-1.5h-7.9v1.3
	c0,0.8-0.4,0.9-2.4,0.9c-1.2,0-1.4-0.1-1.4-0.8c0.1-5.1,0.1-5.1,0.1-7.4c0-3.2,0-4.8-0.1-6.7c1.9,0.9,2.4,1.1,4.3,2.2h1.5v-6.9h-4.5
	c-0.9,0-1.5,0-2.4,0.2l-0.2-1.2c1,0.2,1.7,0.3,2.7,0.3h4.5v-6.4c-3,0.4-4.2,0.5-7.1,0.7l-0.1-0.4c4.2-1.1,6.7-2,9.6-3.3
	c2.1-0.9,2.9-1.5,4-2.3c4,2.8,4.2,2.9,4.2,3.2s-0.3,0.3-0.6,0.3s-0.9-0.1-1.4-0.2c-2.1,0.7-2.9,0.9-4.9,1.3v7h2.2
	c1.1-1.4,1.5-1.7,2.6-2.9c1.6,1.4,2.2,1.7,3.6,3.1c0.2,0.2,0.2,0.3,0.2,0.3c0,0.2-0.2,0.3-0.3,0.3h-8.3v7h-0.2L265.2,687.1
	L265.2,687.1z M259.5,696.9h7.9v-9.1h-7.9V696.9z"/>
<path d="M286.1,670c0.7-0.9,0.9-1,1.7-1.9c1.1,0.8,1.5,1,2.4,1.8c0.3,0.3,0.4,0.3,0.4,0.5c0,0.3-0.2,0.4-0.9,0.8c0,4,0,4,0.1,8.8
	c0,0.3-0.1,0.5-0.4,0.7c1.2,0.9,1.5,1.2,2.6,2.2c0.2,0.2,0.2,0.3,0.2,0.3c0,0.2-0.2,0.2-0.4,0.2h-5.5v4.9h1.2c0.8-0.9,1-1.2,1.8-2.2
	c1.2,1,1.6,1.4,2.8,2.4c0.1,0.1,0.2,0.2,0.2,0.3s-0.2,0.2-0.3,0.2h-5.5v5.9c2.1,0.5,3.4,0.7,9.4,0.7c6.5,0,8.8-0.1,12.7-0.5v0.3
	c-1.2,0.9-1.6,1.5-2,3.1c0,0.3-0.2,0.3-0.9,0.3c-0.2,0-0.7,0-1.5,0c-1,0-2,0-2.8,0c-5.3,0-9.3-0.2-11.1-0.4
	c-5.2-0.8-8.2-2.9-9.8-7.1c-0.3,1-0.8,2.2-1.4,3.4c-0.9,1.8-1.9,3-3.8,4.8l-0.3-0.3c1.1-2.2,1.7-3.8,2.2-6.1c0.4-2,0.9-5.3,0.9-7
	c0-0.3,0-0.7,0-1.2c1,0.2,1.8,0.3,2.2,0.3c1.9,0.3,2.4,0.5,2.4,0.9c0,0.3-0.3,0.4-1.3,0.6c-0.3,1.8-0.3,2.5-0.7,3.6
	c0.8,1.4,1.4,2.1,2.4,2.9v-9.9h-5.2c-0.7,0-1.2,0.1-1.9,0.3l-0.2-1.2c0.7,0.2,1.4,0.3,2.1,0.3h9.5c0.9-1,1.2-1.4,1.9-2.1
	c-0.6,0.1-0.9,0.1-1.6,0.1c-0.9,0-1.1-0.2-1.1-0.6v-0.7h-5.3v0.7c0,0,0,0.1,0,0.2c0,0.5-0.5,0.7-2.2,0.7c-1,0-1.3-0.2-1.3-0.7
	c0,0,0-0.1,0-0.2c0.1-3,0.2-4.7,0.2-7.6c0-2.3,0-3.2-0.2-4.6c1.7,0.7,2.2,0.9,4,1.9L286.1,670L286.1,670z M286.4,670.7h-5.3v3.6h5.3
	V670.7z M281.1,675v3.9h5.3V675H281.1z M296.1,689.1c0,0.4-0.2,0.5-0.8,0.7c3.5,1.7,3.6,1.7,3.6,2.1c0,0.2-0.3,0.3-0.7,0.3
	c-0.3,0-0.6,0-0.9,0c-2.7,1.5-4,2.2-7.7,3.1l-0.2-0.3c2.8-1.8,4.5-3.4,5.6-5.2c-0.3,0-0.6,0-1,0c-1.2,0-1.4-0.1-1.4-0.7
	c0.1-4.6,0.1-4.6,0.1-6.4c0-6.1,0-8.6-0.2-10.2c1.6,0.7,2.1,0.9,3.6,1.8h0.7c0.3-2.1,0.3-2.2,0.4-4h-3.9c-0.7,0-1.3,0.1-1.9,0.2
	l-0.2-1.2c0.8,0.2,1.4,0.3,2.1,0.3h9c0.9-1.1,1.3-1.4,2.2-2.4c1.5,1.1,2,1.5,3.4,2.7c0.2,0.2,0.2,0.2,0.2,0.3c0,0.2-0.2,0.2-0.3,0.2
	h-6.3c-2.2,2.8-2.3,2.8-3.5,4h4.1c0.7-0.9,0.9-1,1.6-1.8c1.1,0.8,1.5,1,2.6,1.8c0.3,0.2,0.4,0.3,0.4,0.5c0,0.3-0.3,0.4-1,0.9
	c0,1,0,1.7,0,2.3c0,2.3,0,5.2,0.2,10.5c0,0.3-0.1,0.5-0.2,0.6c-0.3,0.2-1.1,0.3-2.2,0.3c-0.9,0-1.1-0.1-1.1-0.5v-0.6h-6.2v0.8
	L296.1,689.1L296.1,689.1z M302.2,675.2H296v3.4h6.2V675.2z M296.1,679.3v3.7h6.2v-3.7H296.1z M296.1,683.8v4h6.2v-4H296.1z
	 M299.7,689.8c3.6,0.6,4.6,0.9,5.6,1.2c0.9,0.3,1.4,1,1.4,1.8c0,1.2-0.7,2.3-1.5,2.3c-0.3,0-0.3,0-1.2-1.1c-1.4-1.6-2.6-2.8-4.5-3.9
	L299.7,689.8z"/>
<path d="M324,696.9c3.7-1.1,6.3-2.7,8.3-4.9c2.3-2.5,3.4-5.5,3.4-9c0-5.9-3.6-9.4-9.5-9.4c-0.4,0-0.7,0-1.4,0.1
	c1.2,1.4,1.5,2.3,1.5,3.7c0,2.8-1.7,7.6-4.2,11.7c-2.2,3.7-4.2,5.6-5.9,5.6c-0.8,0-1.5-0.4-1.9-1c-0.3-0.5-0.5-1-0.8-2.2
	c-0.2-0.9-0.5-1.3-1.5-2.6c-0.9-1-1.4-2.6-1.4-4c0-2.2,1.1-4.8,2.9-6.9c2.9-3.5,7.8-5.7,13-5.7c7.7,0,13.2,4.8,13.2,11.7
	c0,5-2.8,9-7.7,11.3c-2.2,1-4.3,1.5-7.9,2.1L324,696.9z M317.6,677.3c-2.4,2.4-3.7,5.3-3.7,8.2c0,2.4,1.2,4.8,2.3,4.8
	s3.4-2.8,5.7-7.1c1.7-3.3,2.8-6.1,2.8-7.6c0-0.3,0-0.9-0.2-1.1c-0.1-0.3-0.3-0.8-0.3-0.8C321.4,674.4,319.5,675.4,317.6,677.3z"/>
<path d="M347.2,698c2.9-2.2,4.6-3.9,7-6.5c3.4-4.1,6.6-9.4,8.6-14.3c0.4-1,0.7-1.9,0.7-2.2s-0.2-0.3-0.6-0.3c-1.2,0-4.3,0.6-7.3,1.4
	c-2.6,0.7-3.9,1.2-5.5,2c-0.3,0.2-0.9,0.3-1.2,0.3c-1,0-2.2-0.9-3.2-2.6c-0.7-1-0.9-1.7-0.9-2.4c0-0.3,0-0.4,0.2-0.9
	c0.9,1.5,1.9,2.2,3.6,2.2c1.5,0,5.5-0.5,11.2-1.5c2.6-0.4,2.8-0.5,3.8-1c0.2-0.1,0.6-0.2,0.8-0.2c0.5,0,1.6,0.7,2.5,1.5
	c1.2,1,1.8,2,1.8,2.6c0,0.5-0.2,0.8-0.6,1.2c-0.6,0.6-0.8,0.9-1.5,2.2c-3.2,6-6.3,10.2-10.2,13.6c-2.8,2.4-4.8,3.6-8.8,5.3
	L347.2,698z"/>
<path d="M378.6,698.7c3.4-2.7,5.9-5.2,8.2-8.3c2.6-3.6,4.5-7.1,5.5-10.4c-4.4,0.6-6,0.9-9.1,1.7c-2.4,0.6-2.9,0.8-4,1.4
	c-0.5,0.3-0.9,0.3-1.3,0.3c-1.5,0-3.9-3-3.9-4.8c0-0.3,0-0.4,0.2-0.8c0.9,1.5,2,2.2,3.6,2.2c1.3,0,7.4-0.9,11.9-1.6
	c2.1-0.3,2.2-0.3,2.9-0.9c0.3-0.2,0.6-0.3,0.9-0.3c0.5,0,1.3,0.5,2.2,1.3c1,0.9,1.5,1.6,1.5,2.2c0,0.4-0.2,0.7-0.7,1
	c-0.5,0.4-0.8,0.8-1.5,2.2c-4,7.6-9.1,12.4-16.3,15.1L378.6,698.7z M377.6,670.9c1.4,1.3,2.3,1.7,3.8,1.7c2.5,0,6.3-0.9,7.9-2
	c0.3-0.2,0.5-0.3,0.9-0.3c0.7,0,2,0.5,2.8,1.1c0.6,0.4,0.9,0.9,0.9,1.3c0,0.8-0.5,1-2.7,1.4c-3.4,0.5-6.8,0.9-8.2,0.9
	c-2.7,0-4.1-1-5.8-4L377.6,670.9z"/>
<path d="M405,681.7c0.8,0.5,1.5,0.7,3.4,0.7c1.4,0,7.7-0.1,13.6-0.3c0.6,0,2.8,0,3.9,0c3.4,0,4.5,0.2,5.1,0.6c0.3,0.3,0.4,0.6,0.4,1
	c0,0.9-0.8,1.4-2.2,1.6c-1.9,0.3-5,0.3-15.3,0.4c-1.5,0-1.7,0-4.3,0.2c-0.9,0.1-1,0.1-1.5,0.3s-0.9,0.3-1.2,0.3
	c-0.9,0-1.7-0.8-2.6-2.2s-1.2-2.6-1.2-3.6c0-0.6,0-0.7,0.4-1.1C404.2,681,404.5,681.2,405,681.7z"/>
<path d="M463.3,680.4c-2.3,3.8-4.2,6.1-7.2,8.7c-2.6,2.2-5.2,3.9-10,6.4c-1,0.5-1,0.5-1.7,1.2c-0.3,0.3-0.7,0.5-1,0.5
	c-1,0-3.3-2.8-3.3-4.1c0-0.3,0-0.3,0.2-0.9c0.3-0.8,0.3-1.5,0.3-5.3c0-3.7-0.2-9.6-0.3-11.1c-0.2-2.4-0.8-3.2-2.9-3.9
	c0.4-0.3,0.9-0.4,1.5-0.4c1,0,2.6,0.4,4,1.2c1.5,0.7,2.1,1.5,2.1,2.3c0,0.3,0,0.4-0.2,0.9c-0.3,0.7-0.4,1.5-0.5,2.4
	c-0.3,2.7-0.7,9.5-0.7,12.6c0,0.2,0,0.7,0,1.2c4.7-1.7,7.7-3.2,11.6-5.7c3.2-2.1,5.7-4.1,7.7-6.2L463.3,680.4z"/>
<path d="M467,673.2c3.9,0.6,5.9,1.2,7.6,2.2c1.1,0.7,1.7,1.6,1.7,2.9c0,1.6-0.8,2.8-1.9,2.8c-0.6,0-0.9-0.3-1.5-1.2
	c-1.6-3-3.4-4.8-6.1-6.5L467,673.2z M493.1,675.2c-1.9,4-4.3,7.2-7.7,10.7c-3.1,3-5.6,5-10,7.8c-0.9,0.6-1.5,1-1.9,1.5
	c-0.5,0.6-0.9,0.9-1.5,0.9c-0.9,0-2.2-0.9-3.4-2.5c-1.1-1.4-1.6-2.8-1.6-3.8c0-0.3,0-0.5,0.2-0.9c0.9,1.5,2.1,2.6,3,2.6
	c1.5,0,5.9-2.4,10.1-5.3c5.2-3.7,9.5-7.6,12.4-11.1L493.1,675.2z"/>
<path d="M497.5,674.1c1.5,1.3,2.6,1.7,4.7,1.7c1.1,0,2.1-0.1,3.4-0.4c0.7-1.2,1.2-2.8,1.2-3.8c0-1.2-0.8-1.8-2.8-2.2
	c0.7-0.4,1-0.5,1.9-0.5c1.2,0,2.8,0.3,3.9,0.8c0.9,0.4,1.5,0.9,1.5,1.5c0,0.3-0.2,0.6-0.6,1c-0.5,0.7-1.2,1.5-1.8,2.6
	c3.1-1,3.4-1.2,4.6-2.2c0.3-0.3,0.6-0.3,0.9-0.3c1.5,0,2.8,0.8,2.8,1.6c0,0.7-0.6,1.1-2.8,1.9c-2.2,0.7-4.4,1.3-7.1,1.7
	c-1,1.5-1.3,1.9-1.7,2.4c-1.3,1.9-1.3,1.9-1.8,2.6c2.1-1.1,3.4-1.5,4.9-1.5c1.1,0,2.2,0.4,2.9,1.2c0.4,0.5,0.7,0.9,0.9,1.8
	c0.6-0.3,0.6-0.3,3.3-1.7c1-0.5,2.2-1.2,2.9-1.7c0.5-0.3,0.7-0.6,0.7-0.9c0-0.7-0.7-1.4-1.9-1.9c0.5-0.2,0.7-0.2,1-0.2
	c2.1,0,5.1,2.6,5.1,4.4c0,0.7-0.3,1-1.4,1.3c-4,1-7.1,2.2-9.3,3.3c0.1,2.3,0.1,2.4,0.1,2.8c0,1.7-0.1,2.4-0.3,2.8
	c-0.3,0.5-0.9,0.9-1.7,0.9c-0.9,0-1.5-0.5-1.5-1.5c0-0.1,0-0.1,0.1-1.4c0-0.8,0.1-1.3,0.1-2.2c-3.7,2.1-5.1,3.5-5.1,5.3
	c0,1.6,1.6,2.4,5.2,2.4c2.2,0,4.8-0.3,6.4-0.9c0.9-0.3,1.1-0.4,1.5-0.4c0.5,0,1.4,0.3,2.1,0.8s1.1,1.2,1.1,1.8s-0.5,1.1-1.3,1.4
	c-1.3,0.3-3.6,0.6-6.7,0.6c-3.8,0-6.1-0.4-7.7-1.5c-1.3-0.9-2-2.2-2-3.8s0.9-3.4,2.6-5c0.9-0.8,1.7-1.4,4-2.9c0-1.3-0.2-1.7-0.4-2.4
	c-0.3-0.6-0.9-0.9-1.6-0.9c-2.1,0-4.5,1.7-7.2,5.3c-0.9,1.1-1.2,1.4-1.7,1.4c-0.9,0-1.5-1.2-1.5-2.8c0-0.4,0.1-0.8,0.3-1
	c0.3-0.3,0.3-0.3,1.4-1.1c1.3-0.9,3.6-3.4,5.4-6.1c-0.5,0-0.9,0.1-1.1,0.1c-1.5,0-3-0.3-4-1c-0.9-0.5-1.4-1.2-2.1-2.4L497.5,674.1z"
	/>
<path d="M146.5,735.1c0.4,0,0.9-0.3,1.7-0.9c0.6-0.5,0.7-0.5,2.8-2.7c2.6-2.6,3.5-3.2,4.9-3.2c1.2,0,1.5,0.2,5.2,2.8
	c6,4.4,9.1,6.4,11.8,7.4c0.6,0.3,0.9,0.6,1.4,1.3c0.5,0.9,0.9,2.2,0.9,3.3c0,0.9-0.5,1.7-1.3,1.7s-1.6-0.5-3.4-1.9
	c-3.3-2.6-4.8-4-11.4-10.4c-2.3-2.2-2.7-2.6-3.4-2.6c-0.8,0-1.4,0.7-2.8,3c-0.9,1.4-1.6,2.9-2.4,4.9c-0.3,0.9-0.9,1.2-1.6,1.2
	c-1,0-2.4-0.8-3.5-2.1c-1-1.2-1.5-2.2-1.5-3.3c0-0.1,0-0.1,0.1-0.5C144.5,734.3,145.7,735.1,146.5,735.1z"/>
<path d="M178.7,750.2c2.8-2.6,4.9-5.6,6.4-9.3c1-2.6,2-6.2,2-7.9c0-0.8-0.3-1.2-0.9-1.7c-0.4-0.3-0.9-0.6-1.5-0.8
	c0.3-0.3,0.7-0.4,1.3-0.4c1.3,0,4,1.2,5.3,2.3c2.8-1.9,6.5-5.6,6.5-6.3c0-0.3-0.3-0.4-1.3-0.4c-1.9,0-5.9,0.6-9.5,1.3
	c-2.8,0.6-4.4,1.1-6,2c-0.9,0.4-1.1,0.5-1.5,0.5c-0.9,0-2.1-0.9-3.1-2.4c-0.6-0.9-1-2.1-1-2.8c0-0.3,0.1-0.6,0.2-1
	c0.9,1.5,2,2.2,3.8,2.2c1.2,0,1.7,0,6.5-0.6c6-0.7,7.9-0.9,9.3-1.1c1-0.2,1-0.2,2.1-0.5c0.3-0.1,0.4-0.2,0.6-0.2
	c0.6,0,1.2,0.3,2.3,1.3c1.7,1.5,2.8,2.8,2.8,3.6c0,0.5-0.3,0.9-0.7,1c-0.3,0.2-0.3,0.2-1,0.3c-0.4,0.1-0.8,0.2-1.4,0.5
	c-3,1.4-4.1,1.9-8.4,3.5c-0.6,2-0.9,3.3-1.2,4c-1.5,4.1-3.3,7.1-6.2,9.6c-1.7,1.5-3.2,2.6-5.1,3.4L178.7,750.2z"/>
<path d="M204.6,738.8c2.2-2.6,4-5.3,5.8-8.8c1.5-2.9,2.3-5.2,2.3-6.2s-0.9-1.9-2.3-2.5c0.4-0.2,0.7-0.3,1.1-0.3c1,0,2.3,0.4,3.8,1.2
	c1.4,0.7,2.1,1.4,2.1,2.1c0,0.4-0.1,0.5-0.8,1.5c-0.1,0.1-0.3,0.4-0.6,0.9s-1.5,2.6-1.9,3.2c0.5,0.4,0.9,0.5,1.8,0.5
	c2.6,0,9.8-1.7,11.6-2.8c0.6-0.3,0.8-0.4,1.2-0.4c0.5,0,1.5,0.3,2.4,0.8s1.4,0.9,1.4,1.5s-0.3,1-1,1.1c-0.4,0.1-0.7,0.2-3.4,0.3
	c-0.5,0.1-1.3,0.2-2.3,0.3c-2,0.3-2.4,0.3-3.6,0.4c1.8,0.9,2.5,1.6,2.5,2.4c0,1.5-2,5.9-3.8,8.6c-2.5,3.6-5.3,5.9-9.6,7.9l-0.3-0.3
	c3-2.7,5.2-5.4,7.1-9c1.5-3.1,2.8-6.5,2.8-8.1c0-0.6-0.2-0.9-0.6-1.4c-1.4,0.2-2.2,0.3-3.3,0.3c-1.5,0-2.2-0.3-3.4-1.5
	c-2.6,3.7-5.3,6.3-8.6,8.3H204.6z"/>
<path d="M239.6,750.2c2.8-2.6,4.9-5.6,6.4-9.3c1-2.6,2-6.2,2-7.9c0-0.8-0.3-1.2-0.9-1.7c-0.4-0.3-0.9-0.6-1.5-0.8
	c0.3-0.3,0.7-0.4,1.3-0.4c1.3,0,4,1.2,5.3,2.3c2.8-1.9,6.5-5.6,6.5-6.3c0-0.3-0.3-0.4-1.3-0.4c-1.9,0-5.9,0.6-9.5,1.3
	c-2.8,0.6-4.4,1.1-6,2c-0.9,0.4-1.1,0.5-1.5,0.5c-0.9,0-2.1-0.9-3.1-2.4c-0.6-0.9-1-2.1-1-2.8c0-0.3,0.1-0.6,0.2-1
	c0.9,1.5,2,2.2,3.8,2.2c1.2,0,1.7,0,6.5-0.6c6-0.7,7.9-0.9,9.3-1.1c1-0.2,1-0.2,2.1-0.5c0.3-0.1,0.4-0.2,0.6-0.2
	c0.6,0,1.2,0.3,2.3,1.3c1.7,1.5,2.8,2.8,2.8,3.6c0,0.5-0.3,0.9-0.7,1c-0.3,0.2-0.3,0.2-1,0.3c-0.4,0.1-0.8,0.2-1.4,0.5
	c-3,1.4-4.1,1.9-8.4,3.5c-0.6,2-0.9,3.3-1.2,4c-1.5,4.1-3.3,7.1-6.2,9.6c-1.7,1.5-3.2,2.6-5.1,3.4L239.6,750.2z"/>
<path d="M292.2,726.2c0.8-1,1-1.4,2-2.6c1.5,1.2,2.1,1.5,3.6,2.8c0.1,0.1,0.2,0.3,0.2,0.3c0,0.1-0.2,0.2-0.3,0.2H287
	c0.2,5,0.6,8,1.5,10.7c1.5-3,2.4-5.6,2.7-8c4,1.2,4.9,1.5,4.9,1.9s-0.3,0.5-1.5,0.7c-1.5,4.1-2.6,6.2-4.5,9c1.1,1.8,1.9,2.7,4.1,4.6
	c1.5-2.3,2-3.3,3.5-6.5l0.3,0.1l-1.4,6.4c-0.1,0.4-0.2,0.7-0.2,0.9c0,0.3,0,0.3,0.7,1c0.3,0.3,0.5,0.9,0.5,1.4
	c0,1.1-0.9,2.1-1.9,2.1c-1.3,0-3.1-1.1-5.3-3.4c-1.1-1.1-2-2.2-2.8-3.6c-1.2,1.2-2.2,2.1-3.4,2.9c-2.5,1.9-4.3,2.8-7.9,4.1l-0.2-0.3
	c4.6-2.9,7.3-5.5,10-9.4c-1.6-3.5-2.4-7.7-2.9-14.5H273c0,3.3,0,4.5-0.2,6.2h4.6c0.8-0.9,1-1.2,1.8-2.1c1.2,0.9,1.5,1.1,2.8,2
	c0.3,0.3,0.3,0.4,0.3,0.5c0,0.3-0.2,0.4-1.1,0.9c-0.3,6.2-0.9,9-1.6,10.3c-0.6,1-1.7,1.6-3.3,1.9c-0.3,0.1-0.8,0.1-1,0.1
	c-0.3,0-0.5-0.2-0.5-0.6c0-1.7-0.7-2.3-2.9-3.1l0.1-0.4c2.6,0.2,3.3,0.3,3.8,0.3c0.8,0,1-0.3,1.2-1.4c0.3-1.6,0.6-5,0.7-7.7h-5
	c-0.2,3.9-0.4,5.4-0.8,7.1c-0.6,2.6-1.7,5.1-3.3,7.2c-0.8,1-1.4,1.8-2.8,3.3l-0.3-0.2c1.5-3.1,2.2-5.1,2.8-8.3
	c0.5-3.2,0.8-6.7,0.8-13.6c0-2.6,0-3.4-0.2-5.5c1.9,0.9,2.5,1.2,4.4,2.3h9.8c-0.1-1-0.1-1.5-0.1-2.2c-0.1-2.4-0.1-2.9-0.3-4.1
	c4.8,0.4,5.2,0.5,5.2,0.9c0,0.3-0.3,0.5-1.2,0.9c0,1.5-0.1,2.3-0.1,2.8s0,0.7,0,1.7L292.2,726.2L292.2,726.2z M288.7,720.6
	c1.7,0.2,2.5,0.3,3.3,0.6c1.2,0.4,1.7,1,1.7,1.8c0,1.1-0.9,2.2-1.9,2.2c-0.2,0-0.4-0.1-0.6-0.2c-0.2-0.2-0.3-0.3-0.6-1.2
	c-0.5-1.4-1-2.1-2.1-3L288.7,720.6z"/>
<path d="M300.6,736.5c2.9-2.9,4.9-5.5,6.9-8.9c1.6-2.8,2.6-5,3.4-7.7c2.8,1.1,4.8,1.9,5.1,2.2c0.1,0.1,0.2,0.2,0.2,0.3
	c0,0.3-0.4,0.5-1.7,0.6c-2.2,3.9-3.8,6-6,8.3c-2.2,2.2-4.1,3.6-7.6,5.5L300.6,736.5z M316.2,733.9c-0.3,2.1-0.3,2.3-0.5,3.4
	c-1.5,7.4-5.3,11.2-13.9,14.2l-0.2-0.3c4.7-3.1,7.4-5.9,8.9-9.6c0.9-2.2,1.2-4,1.5-7.6h-2.4c-0.8,0-1.6,0.1-2.4,0.2l-0.3-1.2
	c1,0.2,1.7,0.3,2.6,0.3h13.1c0.7-0.7,0.9-0.9,1.5-1.5c1.4,0.9,1.7,1.2,3,2.2c0.3,0.3,0.4,0.4,0.4,0.6c0,0.2-0.2,0.3-0.8,0.7
	c-0.3,5.3-0.6,7.2-1,9.8c-0.6,3.3-1.4,4.6-3,5.3c-0.9,0.3-2.4,0.7-3.8,0.7c-0.6,0-0.7-0.1-0.7-0.8c-0.1-0.9-0.5-1.6-1.4-2.1
	s-1.5-0.7-3.9-1.4v-0.4c2.6,0.3,5.5,0.6,6.5,0.6c1.5,0,1.9-0.3,2.2-1.7c0.6-2.7,0.9-6.4,1.1-11.1h-6.6L316.2,733.9L316.2,733.9z
	 M319.8,720.1c0,0.2,0,0.3,0,0.3c0,1,1.3,3,3.2,4.9c1.7,1.7,3.8,3.2,6.3,4.3c1.4,0.6,2.3,0.9,4.4,1.5v0.3c-0.9,0.4-1.3,0.8-2,1.6
	c-0.3,0.5-0.7,1.2-0.9,1.7c-0.1,0.3-0.3,0.4-0.3,0.4c-0.3,0-1.9-1-3.3-2.2c-3.4-2.8-5.7-6-7.5-10.8c-0.3-0.9-0.6-1.3-0.9-1.7
	L319.8,720.1z"/>
<path d="M342.4,720.6c1.1,0,2.3,0.3,3.5,0.7c1.4,0.5,2,1.1,2,1.9c0,0.3,0,0.3-0.3,1.2c-0.6,1.2-1,4.2-1,7.2c0,1.1,0.3,1.6,1.1,1.6
	c0.5,0,1.2-0.3,3.1-1.1c1.5-0.7,2.3-0.9,3-0.9c1.2,0,2.2,1,2.2,2.2c0,0.7-0.3,1.1-0.9,1.5c-0.3,0.2-0.3,0.2-3.4,0.9
	c-3.8,0.9-6.7,2.2-8.7,3.6c-1.7,1.2-2.4,2.5-2.4,4c0,2.2,1.8,3.3,5.1,3.3c2.5,0,5.1-0.3,8.2-1.2c0.5-0.2,0.9-0.2,1.2-0.2
	c0.9,0,1.7,0.3,2.4,1.1c0.5,0.5,0.7,0.9,0.7,1.5c0,0.8-0.6,1.3-1.8,1.5c-1.2,0.3-4.3,0.5-6.9,0.5c-3.1,0-5.3-0.3-6.9-1
	c-2.4-0.9-3.8-3.1-3.8-5.5c0-3.3,2.8-6.4,8.1-9.2c-0.1,0-0.2,0-0.3,0c-0.7,0-1.5-0.3-1.9-0.7c-0.9-0.8-1-1.8-1.1-6.2
	c-0.2-3.3-0.2-4-0.4-4.6c-0.3-0.8-1-1.2-2.7-1.5C340.9,720.7,341.3,720.6,342.4,720.6z"/>
<path d="M388.9,739.6c-0.2,0.3-0.3,0.7-0.4,0.9c-1.2,2.4-1.4,2.6-2.1,3.5c-2.8,3.8-7,6-11.1,6c-2.8,0-5.2-1.1-6.4-3.1
	c-0.9-1.5-1.4-3.7-1.4-7.4c0-2.2,0-3.1,0.4-11c0-1,0.1-2,0.1-2.8c0-2.4-0.5-3.3-2.8-4.2c0.4-0.3,0.7-0.3,1.1-0.3
	c1.3,0,2.9,0.5,4.4,1.2c1.5,0.8,2.2,1.6,2.2,2.5c0,0.4-0.1,0.6-0.4,1.5c-1,2.3-2.2,10.7-2.2,15.3c0,3.3,1.5,4.8,4.7,4.8
	c2.9,0,6.2-1,9.1-2.9c1.7-1.1,2.5-1.8,4.5-4H388.9z"/>
<path d="M393.2,728.1c1.1,0,2.3-0.3,9.3-2.1c1.7-0.4,2.9-0.7,7.7-1.7c1.4-0.3,1.8-0.4,2.8-0.9c0.5-0.2,0.9-0.3,1.3-0.3
	c0.6,0,1.7,0.4,2.6,0.9c0.9,0.6,1.4,1.2,1.4,1.9c0,0.9-0.7,1.4-1.7,1.4c-0.2,0-0.5,0-0.9-0.1c-0.4,0-0.6,0-1,0
	c-3.1,0-6.1,1.4-8.3,3.9c-1.7,2.1-2.7,4.4-2.7,6.8c0,2.9,1.5,5.2,4.1,6.2c0.9,0.3,2,0.5,2.8,0.5c0.1,0,0.2,0,0.3,0s0.3,0,0.3,0
	c0.7,0,1.3,0.3,1.8,0.7c0.9,0.7,1.4,1.7,1.4,2.4c0,1.1-0.8,1.6-2.4,1.6c-2.5,0-5.3-1-7.3-2.6c-2.3-1.9-3.6-4.6-3.6-7.7
	c0-2.9,1.4-6.1,3.9-8.6c1.4-1.4,2.6-2.3,5.5-4c-3,0.7-6.4,1.6-9.3,2.8c-2.9,1.1-3.7,1.5-5.1,2.3c-0.6,0.4-1.2,0.6-1.7,0.6
	c-1.9,0-4.5-3.3-4.5-5.5c0-0.3,0.1-0.5,0.3-1C390.7,727.3,391.8,728.1,393.2,728.1z"/>
<path d="M430.3,735.2l-1.1,4.4c-0.7,2.6-1.1,4.9-1.1,6c0,0.3,0,0.6,0.1,1.1c0,0.3,0.1,0.7,0.1,0.9c0,1-0.7,1.8-1.6,1.8
	s-1.5-0.6-2.1-1.8c-0.7-1.6-1.2-4.5-1.2-7.3c0-3.4,0.3-5.9,1.5-11.6c0.5-2.2,0.6-2.8,0.6-3.6c0-1.2-0.3-2-1-3.4c1.1,0.3,2,0.8,3.1,2
	c1.2,1.3,1.9,2.7,1.9,3.6c0,0.6-0.1,0.9-0.6,1.8s-1,1.8-1.4,2.7c-0.9,2.2-1.5,5.2-1.5,7.6c0,1.3,0.1,2.2,0.3,3.3
	c0.6-1.1,0.9-1.5,1.6-3.4c0.9-1.7,1.1-2.3,2.1-4.1H430.3z M432.7,729.2c1.5,1.2,2.6,1.6,4.4,1.6c1.4,0,2.7-0.2,4-0.5
	c0-4.3-0.1-5.3-0.3-5.9c-0.3-0.9-1.3-1.4-2.8-1.5c0.7-0.5,1.2-0.7,2.2-0.7c1.3,0,2.6,0.3,3.6,0.8c0.9,0.3,1.4,0.9,1.4,1.5
	c0,0.3-0.1,0.5-0.3,1.2c-0.5,1.1-0.7,1.7-0.9,4c1.5-0.5,2.1-0.7,3.1-1.5c0.3-0.3,0.5-0.3,0.9-0.3c0.7,0,1.7,0.3,2.2,0.9
	c0.2,0.2,0.3,0.5,0.3,0.9c0,1-2.2,2-6.5,2.9c0,0.6,0,1,0,1.3c0,2.8,0.2,5.2,0.5,7.6c2.1,0.6,3.4,1.2,4.5,2.1c1,0.7,1.5,1.6,1.5,2.8
	s-0.5,2.1-1.2,2.1c-0.4,0-0.5-0.1-2-1.5c-0.8-0.9-1.7-1.5-2.8-2.1c0,0.2,0,0.3,0,0.4c0,2.7-2.2,4.3-6.1,4.3c-3.4,0-5.7-1.6-5.7-4
	c0-2.8,2.8-4.6,7-4.6c0.5,0,0.9,0,1.5,0.1c0-0.4-0.1-5.9-0.2-7.9c-0.9,0.2-1.7,0.2-2.4,0.2c-1.7,0-3.1-0.3-4.1-1.2
	c-0.9-0.6-1.5-1.4-2.2-2.3L432.7,729.2z M438.1,742.8c-2.6,0-4.2,0.9-4.2,2.2c0,1.1,1.3,1.9,3.3,1.9c1.4,0,2.7-0.3,3.3-1
	c0.3-0.3,0.6-0.9,0.7-1.5c0-0.3,0.1-0.9,0.1-1v-0.1C440.2,742.9,439.3,742.8,438.1,742.8z"/>
<path d="M479.2,739.9c-0.2,0.3-0.4,0.8-0.4,0.9c-1.2,2.4-1.4,2.6-2.1,3.5c-2.8,3.8-7,6-11.1,6c-2.8,0-5.2-1.1-6.4-3.1
	c-0.9-1.5-1.4-3.7-1.4-7.4c0-2.2,0-3.1,0.4-11c0-1,0.1-2,0.1-2.8c0-2.4-0.5-3.3-2.8-4.2c0.4-0.3,0.7-0.3,1.1-0.3
	c1.3,0,2.9,0.5,4.4,1.2c1.5,0.8,2.2,1.6,2.2,2.5c0,0.4-0.1,0.6-0.4,1.5c-1,2.3-2.2,10.7-2.2,15.3c0,1.7,0.4,2.9,1.2,3.7
	c0.7,0.7,2,1,3.4,1c3,0,6.2-1,9.2-2.9c1.7-1.1,2.5-1.8,4.5-4L479.2,739.9z M469.1,724.2c1.6,0.5,2.7,0.9,3.7,1.6
	c1.5,1,2.3,2.1,2.3,3.2c0,0.8-0.4,1.4-1,1.4c-0.4,0-0.7-0.2-1.2-1c-1-1.8-2.4-3.3-4-4.6L469.1,724.2z M472.6,721.5
	c1.7,0.3,3,0.9,4,1.5c1.4,0.9,2,1.7,2,2.7c0,0.9-0.4,1.4-1,1.4c-0.3,0-0.6-0.2-1.1-0.9c-1.2-1.7-2.4-2.8-4.1-4L472.6,721.5z"/>
<path d="M487.2,724.4c2.8,1.4,4,2.8,4.7,6.2c2.4-1.2,4-1.7,6.9-2.2c0.3-1.9,0.5-3,0.5-4s-0.4-1.4-1.6-1.4c-0.3,0-0.5,0-1,0.1
	l-0.1-0.3c1.3-0.7,2-0.9,2.8-0.9c0.9,0,2.1,0.4,2.8,1c0.6,0.5,0.9,1,0.9,1.7s-0.3,2.2-0.9,3.9c5.9,0.5,10,4.6,10,9.8
	c0,4.3-2.5,7.8-7.1,9.8c-2.2,0.9-4.6,1.5-8.3,1.8l-0.1-0.3c4.6-1.5,6.8-2.8,8.8-5.2c1.7-2.1,2.6-4.5,2.6-7.1c0-2.5-0.9-4.6-2.4-6
	c-1-0.9-2.2-1.4-3.8-1.5c-1.6,4.6-3.4,8.1-5.9,11.4c0.3,0.6,0.5,0.9,1.1,1.5c0.9,1,1.2,1.5,1.2,2.1c0,0.7-0.5,1.1-1.2,1.1
	c-0.9,0-2.1-0.7-3.3-2.2c-0.7,0.9-1.6,1.6-2.8,2.4c-1.2,0.9-2.1,1.2-2.9,1.2c-1,0-1.5-0.6-1.8-2c-0.2-1.1-0.3-1.4-1.1-2.2
	c-0.7-0.7-1-1.5-1-2.5c0-1.4,0.6-3.2,1.5-4.6c1-1.5,2.2-2.6,4-4c-0.8-4.3-1.2-5.4-2.9-7.1L487.2,724.4z M487.1,740.8
	c0,1.4,0.9,2.9,1.6,2.9c0.9,0,2.2-0.9,3.6-2.4c-1-2.4-1.6-4.6-2.1-7.5C488.1,736.1,487.1,738.2,487.1,740.8z M493.3,735.3
	c0.3,1.1,0.7,2.1,1.4,3.4c1.7-2.7,3-5.8,4-9.1c-2.8,0.4-4.3,1-6.3,2.4C492.5,732.7,492.5,732.7,493.3,735.3z"/>
<path d="M517.7,728.1c1.1,0,2.3-0.3,9.3-2.1c1.7-0.4,2.9-0.7,7.7-1.7c1.4-0.3,1.8-0.4,2.8-0.9c0.5-0.2,0.9-0.3,1.3-0.3
	c0.6,0,1.7,0.4,2.6,0.9c0.9,0.6,1.4,1.2,1.4,1.9c0,0.9-0.7,1.4-1.7,1.4c-0.2,0-0.5,0-0.9-0.1c-0.4,0-0.6,0-1,0
	c-3.1,0-6.1,1.4-8.3,3.9c-1.7,2.1-2.7,4.4-2.7,6.8c0,2.9,1.5,5.2,4.1,6.2c0.9,0.3,2,0.5,2.8,0.5c0.1,0,0.2,0,0.3,0
	c0.2,0,0.3,0,0.3,0c0.7,0,1.3,0.3,1.8,0.7c0.9,0.7,1.4,1.7,1.4,2.4c0,1.1-0.8,1.6-2.4,1.6c-2.5,0-5.3-1-7.3-2.6
	c-2.3-1.9-3.6-4.6-3.6-7.7c0-2.9,1.4-6.1,3.9-8.6c1.4-1.4,2.6-2.3,5.5-4c-3,0.7-6.4,1.6-9.3,2.8c-2.9,1.1-3.7,1.5-5.1,2.3
	c-0.6,0.4-1.2,0.6-1.7,0.6c-1.9,0-4.5-3.3-4.5-5.5c0-0.3,0.1-0.5,0.3-1C515.3,727.3,516.3,728.1,517.7,728.1z"/>
<path d="M556.7,727.9h1c0.7-0.7,0.9-0.9,1.5-1.6c1,0.8,1.4,1,2.3,1.8c0.3,0.2,0.4,0.3,0.4,0.5c0,0.3-0.3,0.5-1.2,0.9
	c0,16,0,16,0.2,20.6c0,0.7-0.4,0.9-2.2,0.9c-0.8,0-0.9-0.1-0.9-0.6v-2.1h-7.6v2.2c0,0.7-0.4,0.9-2.2,0.9c-0.9,0-1-0.1-1-0.6
	c0,0,0,0,0-0.1c0.2-6.1,0.2-7.7,0.2-15c0-4.8,0-6.2-0.2-9.6c1.5,0.8,2.1,1,3.4,1.9h0.6v-5.4h-2.9c-0.9,0-1.4,0-2.2,0.2l-0.2-1.2
	c0.9,0.2,1.7,0.3,2.5,0.3h8.4c0.9-1.1,1.2-1.5,2.1-2.5c1.5,1.1,1.9,1.5,3.4,2.8c0.1,0.2,0.2,0.3,0.2,0.3c0,0.1-0.2,0.2-0.3,0.2h-5.2
	L556.7,727.9L556.7,727.9z M557.8,739c-0.6,0.1-0.9,0.1-1.4,0.1c-1.6,0-1.9-0.1-1.9-1.1c0-2.2,0-2.2,0-2.5v-6.9h-1.2
	c0,2.9-0.1,4.1-0.3,5.8c-0.3,2.6-1,4.3-2.5,6.5l-0.3-0.2v2h7.6L557.8,739L557.8,739z M550.2,728.6v11.7c0.6-1.1,0.9-2.6,1.1-5
	c0.1-0.9,0.2-3.3,0.2-6.7H550.2z M557.8,743.4h-7.6v4.2h7.6V743.4z M553.2,722.5v5.4h1.2v-5.4H553.2z M556.3,728.6v8.1
	c0,0.3,0.1,0.3,0.4,0.3c0.3,0,0.6,0,1,0v-8.4L556.3,728.6L556.3,728.6z M576.4,739.4v6.4c0,0.6,0,0.6,0.8,0.9
	c0.6,0.3,0.9,0.8,0.9,1.5c0,0.8-0.4,1.4-1.1,1.7c-0.9,0.4-2.4,0.5-5.6,0.5c-4.1,0-5.9-0.1-6.6-0.3c-1.2-0.3-1.6-0.9-1.6-2.6
	c0,0,0-0.2,0-0.3c0-2.2,0-2.2,0-8c0-6,0-7.1-0.1-9.3c1.9,0.9,2.4,1.2,4.2,2.2h4.9v-9.7h-6.8c-1,0-1.5,0-2.4,0.2l-0.2-1.2
	c0.9,0.2,1.5,0.3,2.7,0.3h6.4c0.9-0.9,1.1-1.2,2-2.1c1.4,0.9,1.8,1.2,3,2.1c0.3,0.3,0.5,0.5,0.5,0.7c0,0.3-0.3,0.5-1.4,1
	c0,1.4,0,2.4,0,3.1c0,2.5,0,4.2,0.2,7.7c0,0.3,0,0.5-0.2,0.6c-0.3,0.2-0.5,0.3-1.6,0.3c-0.5,0-1,0.1-1.2,0.1c-0.6,0-0.8-0.2-0.9-0.7
	v-1.7H567v13.3c0,0.6,0.1,0.7,0.5,0.8s1.7,0.1,3.7,0.1c2.1,0,2.4-0.1,2.8-0.7s1.3-3.4,2.3-7h0.1L576.4,739.4L576.4,739.4z"/>
<path d="M579.6,736.1c3.6-2.8,6.1-5.2,8.8-8.6c2.2-2.9,3.7-5.5,4.4-7.8c5.7,1.2,5.9,1.3,5.9,1.7c0,0.3-0.5,0.5-1.5,0.7
	c1.7,2.6,4,4.5,7.1,6.2c2.8,1.5,5.7,2.5,8.6,2.9v0.4c-1.5,0.5-2.2,1.4-3,3.8c-0.1,0.3-0.3,0.3-0.4,0.3c-0.3,0-1.4-0.6-2.8-1.5
	c-4.5-2.9-7-5.9-9.8-11.7c-2.6,4.1-4.6,6.4-8.1,9c-2.8,2.2-5,3.4-8.8,5L579.6,736.1z M589,750.2c0,0.5-0.2,0.8-0.5,0.9
	c-0.3,0.1-1.4,0.3-2.2,0.3c-0.9,0-1.3-0.2-1.3-0.9c0,0,0-0.2,0-0.3c0.1-2.6,0.2-5.3,0.2-8.3c0-3.3,0-4.5-0.2-5.9
	c2.1,0.9,2.6,1.2,4.6,2.2H602l2.1-2.2c1.4,0.9,1.7,1.2,3,2.2c0.3,0.3,0.4,0.4,0.4,0.6c0,0.3-0.3,0.5-1.3,0.9c0,4.5,0,6,0.2,10.3
	c0,0.1,0,0.2,0,0.2c0,0.3-0.2,0.6-0.5,0.7c-0.3,0.2-1.7,0.3-2.5,0.3c-0.9,0-1.1-0.2-1.1-0.8v-0.1v-1.4H589V750.2z M588,732.3
	c0.9,0.2,1.7,0.3,2.3,0.3h6.6l2.4-2.8c1.7,1.2,2.2,1.6,3.8,2.9c0.2,0.2,0.2,0.3,0.2,0.3c0,0.2-0.2,0.2-0.4,0.2h-12.7
	c-0.7,0-1.1,0-1.9,0.2L588,732.3z M589,748.4h13.2v-9.5H589V748.4z"/>
<g>
	<g>
		<path d="M190.2,198.9c4.5,1.6,4.5,1.6,4.5,2.1c0,0.3-0.4,0.5-1.4,0.5c0,0-0.2,0-0.3,0c-2.9,2.1-2.9,2.1-3.9,2.6h5.3
			c1-1,1.4-1.4,2.4-2.4c1.5,1.1,2,1.5,3.4,2.7c0.1,0.1,0.2,0.2,0.2,0.3s-0.2,0.2-0.3,0.2h-12.7v3.1h5.3c1-1,1.3-1.4,2.2-2.3
			c1.5,1,1.9,1.4,3.2,2.5c0.2,0.1,0.2,0.3,0.2,0.3c0,0.2-0.2,0.2-0.4,0.2h-10.5v3.3h7.9c1.1-1.1,1.5-1.5,2.5-2.5
			c1.5,1.1,2,1.5,3.4,2.8c0.2,0.1,0.2,0.2,0.2,0.3s-0.2,0.2-0.4,0.2h-13.2c1.5,1.5,2.5,2.2,4,2.9c2.8,1.3,5.9,2,10.2,2.2v0.5
			c-1.2,0.5-1.7,1.2-2.4,2.9c-0.2,0.6-0.3,0.6-0.5,0.6c-0.4,0-2.4-0.7-3.8-1.4c-3.3-1.6-5.5-3.7-7.9-7.3v3.4c0,1.6,0,2.9,0.1,6
			c0,0.7-0.4,0.9-2.6,0.9c-1.1,0-1.3-0.1-1.3-0.7c0.1-1.9,0.2-5.2,0.2-6v-2.1c-2.6,2.5-4.3,3.6-6.7,4.9c-2.1,1-3.7,1.6-7.1,2.6
			l-0.2-0.4c2.9-1.5,5.3-3,7.6-5.2c1.4-1.3,2.2-2.2,3.6-3.9h-7.5c-0.8,0-1.6,0.1-2.5,0.3l-0.2-1.3c1.1,0.3,1.7,0.3,2.7,0.3h10.3
			v-3.3h-7.1c-0.9,0-1.7,0.1-2.7,0.2l-0.2-1.2c1,0.2,1.8,0.3,2.9,0.3h7.1v-3h-9.2c-0.9,0-1.4,0-2.3,0.2l-0.2-1.2
			c0.9,0.3,1.6,0.3,2.5,0.3h5.9c-0.3-0.3-0.3-0.4-0.5-1c-0.4-1.7-0.8-2.6-1.7-3.8l0.3-0.3h-5.7c-1,0-1.8,0.1-2.4,0.2l-0.2-1.2
			c0.9,0.3,1.8,0.3,2.7,0.3h8.2v-3.3c0-1.5,0-2.1-0.2-3.4c3.8,0.3,4.1,0.3,4.5,0.4c0.3,0.1,0.3,0.2,0.3,0.3c0,0.3-0.3,0.5-1.3,0.8
			v5.1h2.6v-3.3c0-1.3,0-1.9-0.1-3.3c4.3,0.3,4.8,0.3,4.8,0.9c0,0.3-0.3,0.4-1.3,0.8v5h1.4c1.3-2.4,2.3-4.6,2.8-6.3
			c3.6,1.4,4.7,1.8,4.7,2.2c0,0.3-0.4,0.4-1.4,0.4c0,0-0.2,0-0.3,0c-2.8,2.5-2.9,2.6-4.5,3.6h3.4c1-1,1-1,2.3-2.5
			c1.5,1.1,2,1.5,3.4,2.8c0.1,0.1,0.2,0.2,0.2,0.3s-0.2,0.2-0.4,0.2h-12L190.2,198.9L190.2,198.9z M173.8,192.1
			c4,1.3,5.3,2.2,5.3,3.6c0,1.1-1.1,2.4-2.2,2.4c-0.6,0-0.9-0.4-1.1-1.4c-0.3-1.5-0.9-2.7-2.3-4.4L173.8,192.1z M178.6,198.9
			c3.4,1.2,4.7,2.1,4.7,3.2c0,0.8-0.4,1.5-1.2,1.9h5.4c1.1-1.9,1.7-3.2,2.2-5.1L178.6,198.9L178.6,198.9z"/>
		<path d="M212.1,205.5v0.9c0,0.3-0.1,0.5-0.3,0.6c-0.3,0.2-1.2,0.3-2.2,0.3s-1.4-0.2-1.4-0.8c0.1-2.7,0.2-3.9,0.2-6.9
			c0-3.8,0-5.3-0.2-7.9c1.9,0.9,2.5,1.1,4.4,2.1h15.5c0.9-0.9,1.1-1.1,2-2c1.2,0.9,1.6,1.2,2.9,2.1c0.3,0.3,0.3,0.3,0.3,0.6
			s-0.3,0.5-1.2,0.9c0,1.2,0,2.1,0,2.7c0,3.1,0,5.7,0.2,8.2c0,0.3-0.1,0.5-0.2,0.6c-0.3,0.3-1.3,0.4-2.4,0.4c-0.9,0-1.1-0.2-1.2-0.7
			v-1h-6.4c0.9,1.1,2,1.9,3.7,2.8c2.8,1.4,6.3,2.2,11,2.5v0.3c-1.3,0.5-2.1,1.4-2.5,2.9c-0.2,0.5-0.3,0.6-0.5,0.6
			c-1,0-4.2-1.4-6.4-2.8c-0.2,0.1-0.3,0.1-0.5,0.2v3.1c0,0.3,0,2.8,0.2,7.2c0,0.8-0.5,1-2.5,1c-1.2,0-1.5-0.1-1.5-0.7
			c0.1-4,0.1-4.7,0.1-5.5c0-5.3,0-5.7-0.1-6.9c1.2,0.2,1.9,0.2,2.6,0.3c-1.5-1.2-2.2-1.9-3.2-3.4c-0.6-0.9-0.8-1.2-1-1.7h-1.6
			c-1.6,2.3-2.4,3.1-4.6,4.6c2.8,0.4,3.1,0.5,3.1,0.9c0,0.3-0.3,0.5-1.2,0.8c-0.2,2.9-0.4,4.1-1.1,5.7c-0.9,2.2-3.1,4-5.7,5
			c-1.6,0.6-2.8,0.9-5.5,1.3l-0.2-0.4c3.7-1.5,5.2-2.4,6.5-4.2c1.4-1.7,2-4,2-7.2c0-0.1,0-0.2,0-0.3c-2.8,1.7-5.1,2.6-9.3,3.4
			l-0.2-0.4c3.7-1.6,5.8-2.9,7.9-4.8c1.6-1.4,2.5-2.5,3.6-4.3L212.1,205.5L212.1,205.5z M218.2,199.1v-4.6H212v4.6H218.2z
			 M218.2,199.9H212v4.8h6.2V199.9z M228.4,194.5h-6.5v4.6h6.5V194.5z M221.9,199.9v4.8h6.5v-4.8H221.9z"/>
		<path d="M247,207.5c0.9,0.3,1.2,0.4,1.8,0.7c1.3-1.9,2.3-3.9,2.8-5.2c3.1,1.2,3.9,1.6,3.9,2c0,0.2-0.1,0.3-0.2,0.3
			c0,0-0.4,0.1-1.3,0.3c-1.8,1.3-2.9,2.1-4.3,2.9c2.5,1.1,3.3,1.9,3.3,3.1c0,1.2-1,2.6-2.1,2.6c-0.3,0-0.5-0.2-0.8-0.5
			c-0.1-0.2-0.2-0.4-0.8-1.9c-0.7-1.5-1.5-2.8-2.4-3.7v5.6c0,0.6,0,1.5,0,2.8c0,2.2,0,3.3,0.1,5.9c0,0.4-0.2,0.6-0.4,0.7
			c-0.4,0.1-1.4,0.2-2.2,0.2c-0.9,0-1.2-0.2-1.2-0.7c0.1-1.7,0.2-6.8,0.2-9v-4c-1.5,1.4-2.4,2-5.2,3.7l-0.3-0.3
			c4-4.1,6.7-8.3,9.4-13.9h-6.1c-0.6,0-1.2,0.1-2.2,0.3l-0.3-1.3c0.9,0.2,1.8,0.3,2.4,0.3h2.2v-3.6c-0.1-1.6-0.2-2.8-0.2-3.1
			c4.2,0.3,4.3,0.4,4.8,0.6c0.2,0.1,0.3,0.3,0.3,0.3c0,0.3-0.3,0.5-1.3,0.9v4.8h0.9c0.8-0.9,1-1,1.8-1.9c1.3,0.9,1.7,1.3,2.9,2.3
			c0.3,0.3,0.3,0.3,0.3,0.5c0,0.3-0.2,0.3-1.7,0.8c-2.1,3.3-2.6,4-4.2,5.9L247,207.5L247,207.5z M261.2,196.2
			c-0.2,5.9-0.7,9.1-1.8,12.9c-1.4,4.6-3.4,7.9-6.5,10.7c-1.4,1.2-2.4,2-4.6,3.4l-0.2-0.3c2.7-2.8,4.1-4.9,5.7-7.9
			c2.1-4.4,3.3-9.7,3.4-16.1c0-0.3,0-1.2,0-2.6h-2.4c-0.8,0-1.7,0.1-2.5,0.3l-0.3-1.2c1.2,0.3,1.7,0.3,2.8,0.3h10.6
			c0.9-0.9,1.1-1.2,2-2.1c1.4,0.9,1.8,1.2,3.1,2.2c0.3,0.3,0.3,0.3,0.3,0.5c0,0.3-0.3,0.6-1.3,1c-0.2,7.9-0.3,11.5-0.7,15.6
			c-0.5,5.2-0.9,6.9-2.1,8.3c-0.8,0.9-1.6,1.3-3.4,1.5c-0.5,0.1-1.1,0.2-1.4,0.2c-0.4,0-0.5-0.1-0.5-0.6c-0.1-0.9-0.4-1.6-1-2
			c-0.6-0.3-0.7-0.3-3.9-1.4v-0.4c2,0.3,4.8,0.4,5.9,0.4c1,0,1.5-0.4,1.7-1.5c0.6-2.3,1-6.3,1.4-12.8c0.2-2.9,0.2-4.8,0.2-8.3
			L261.2,196.2L261.2,196.2z"/>
		<path d="M287.1,220.5c3.7-1.1,6.3-2.7,8.3-4.9c2.3-2.5,3.4-5.5,3.4-9c0-5.9-3.6-9.4-9.5-9.4c-0.4,0-0.7,0-1.4,0.1
			c1.2,1.4,1.5,2.3,1.5,3.7c0,2.8-1.7,7.6-4.2,11.7c-2.2,3.7-4.2,5.6-5.9,5.6c-0.8,0-1.5-0.4-1.9-1c-0.3-0.5-0.5-1-0.8-2.2
			c-0.2-0.9-0.5-1.3-1.5-2.6c-0.9-1-1.4-2.6-1.4-4c0-2.2,1.1-4.8,2.9-6.9c2.9-3.5,7.8-5.7,13-5.7c7.7,0,13.2,4.8,13.2,11.7
			c0,5-2.8,9-7.7,11.3c-2.2,1-4.3,1.5-7.9,2.1L287.1,220.5z M280.7,200.9c-2.4,2.4-3.7,5.3-3.7,8.2c0,2.4,1.2,4.8,2.3,4.8
			c1.1,0,3.4-2.8,5.7-7.1c1.7-3.3,2.8-6.1,2.8-7.6c0-0.3,0-0.9-0.2-1.1c-0.1-0.3-0.3-0.8-0.3-0.8C284.6,198,282.7,198.9,280.7,200.9
			z"/>
		<path d="M305.8,209.5c2.2-2.9,3.6-5.5,5.3-9c1.9-4.2,2.8-6.7,3.1-9.1c1.1,0.3,2,0.5,2.6,0.7c2.2,0.5,2.9,0.9,2.9,1.2
			s-0.3,0.5-1.5,0.7c-1.4,3.2-2.6,5.3-4.6,8.1c2.3,0.3,2.7,0.5,2.7,0.9c0,0.3-0.3,0.5-1.3,0.9v9.6c0,4.4,0,4.4,0,8.7
			c0,0.3-0.1,0.6-0.2,0.7c-0.3,0.3-1.1,0.4-2.2,0.4c-1.4,0-1.5-0.2-1.5-0.9c0.2-2.3,0.3-6.8,0.3-8.9v-8.3c-1.9,2.2-2.8,2.9-5.1,4.6
			L305.8,209.5z M325.1,207.1c1.8-1.7,2.9-3.1,4.5-5c1.7-2.2,2.5-3.4,3.3-5.3c3.8,2.2,4.9,3.1,4.9,3.4c0,0.3-0.3,0.4-0.9,0.4
			c-0.3,0-0.7,0-1,0c-3.7,3.4-6.4,5.2-10.8,7.5v10.2c0,0.5,0,0.7,0.3,0.8c0.3,0.2,1.5,0.2,4,0.2c1.5,0,3.1-0.2,3.4-0.3
			c0.7-0.3,1.1-1.3,3.6-8.6h0.3l-0.4,6.9c0,0.2,0,0.3,0,0.4c0,0.3,0.2,0.5,0.5,0.7c0.9,0.3,0.9,0.3,1.1,0.6s0.3,0.6,0.3,1
			c0,2.1-1.8,2.5-9,2.5c-4.8,0-6-0.2-7-0.8c-0.7-0.4-0.9-1.1-1-2.6c0-1.4,0-2.2,0-3.1c0-0.5,0-0.5,0-5.2v-15.3c0-1.3,0-2.1-0.2-3.5
			c1.1,0.1,2,0.2,2.6,0.3c2.3,0.2,2.8,0.3,2.8,0.8c0,0.3-0.3,0.5-1.5,0.9L325.1,207.1L325.1,207.1z"/>
		<path d="M365.7,211.3c1.6-1.8,1.6-1.8,2.8-3.1c1.7,1.4,2.2,1.7,4,3.1c0.2,0.2,0.2,0.3,0.2,0.3c0,0.2-0.2,0.3-0.5,0.3h-13.6v3.9
			v4.4c0,1.4-0.3,2-1.3,2.6c-0.8,0.4-2.5,0.9-3.7,0.9c-0.4,0-0.5-0.1-0.6-0.7c-0.1-0.7-0.4-1.4-0.9-1.8c-0.7-0.5-1.2-0.7-4.7-1.5
			v-0.4c4.8,0.3,4.8,0.3,6.8,0.3h0.1c0.3,0,0.5-0.2,0.5-0.5V212H344c-1,0-1.8,0.1-2.8,0.2L341,211c1,0.2,1.8,0.3,2.9,0.3h10.8v-0.5
			c0-1.8,0-2.2-0.2-3.4c1.7,0.2,1.7,0.2,3.6,0.5c1.2-1.2,1.9-2,3.2-3.8h-11.6c-0.9,0-1.6,0.1-2.5,0.2l-0.2-1.2
			c1,0.2,1.7,0.3,2.7,0.3h11.8c0.8-0.9,1-1,1.8-1.9c1.4,0.9,1.8,1.2,2.6,1.9c0.5-1.3,0.7-2,1-3.4h-21.3c0,0.2,0,0.3,0,0.3
			c0,1.4-0.3,3-0.5,3.8c-0.5,1.2-1.4,2.1-2.4,2.1s-1.8-1.2-1.8-2.6c0-0.5,0.2-0.9,0.5-1.2c0.1-0.1,0.1-0.1,0.9-0.5
			c1.6-0.9,2.3-2.2,2.6-4.8h0.4c0.2,1.2,0.3,1.5,0.3,2.3h14.8c1.6-2.8,2.4-4.6,3.1-7.2c2.4,0.8,4.4,1.4,5,1.7
			c0.3,0.2,0.4,0.3,0.4,0.5c0,0.3-0.5,0.5-1.4,0.5c0,0-0.2,0-0.3,0c-2.3,2.2-3.4,3.1-5.5,4.5h4.8c0.9-0.9,1.2-1.2,2.2-2.1
			c1.5,1.1,2.1,1.5,3.5,2.7c0.3,0.3,0.5,0.5,0.5,0.7c0,0.4-0.6,0.6-2.2,0.6c-0.9,0.7-0.9,0.7-3.4,2.2c-0.2,0.1-0.3,0.2-0.7,0.4
			l0.4,0.3c0.3,0.3,0.5,0.5,0.5,0.7c0,0.3-0.4,0.5-1.3,0.5c-0.1,0-0.3,0-0.5,0c-2.7,1.4-4,1.9-6.1,2.8c0.3,0.1,0.4,0.3,0.4,0.4
			c0,0.3-0.3,0.5-1.3,0.9v2h7.2L365.7,211.3L365.7,211.3z M346.1,192.3c4.1,1.5,5.7,2.7,5.7,4s-1.1,2.8-2.2,2.8
			c-0.5,0-0.9-0.3-1.2-1.4c-0.8-2.7-1.2-3.4-2.5-5.1L346.1,192.3z M353.2,191.8c3.8,1.3,5.7,2.7,5.7,4c0,1.4-1.3,2.9-2.5,2.9
			c-0.6,0-0.8-0.3-1.2-1.7c-0.6-2.2-1-3.3-2.3-4.9L353.2,191.8z"/>
		<path d="M399.4,200.2c1.5,0.9,1.9,1.3,3.3,2.3c0.3,0.3,0.5,0.5,0.5,0.8s-0.5,0.6-1.8,0.9c-1.9,4.6-3.6,7.3-6.2,10.2
			c3.4,2.2,6.9,3.4,12.2,4v0.3c-1.3,0.5-2,1.1-2.6,2.4c-0.3,0.4-0.3,0.6-0.5,1.2c-0.1,0.3-0.2,0.3-0.4,0.3c-0.3,0-0.8-0.2-1.7-0.5
			c-3.3-1.3-6.5-3.4-9-5.9c-2.3,2.1-4.8,3.5-7.7,4.8c-2,0.9-3.6,1.4-6.9,2.2l-0.2-0.4c3.6-1.5,5.6-2.8,8.1-4.6
			c1.9-1.4,3.4-2.8,4.6-4.1c-2.4-3.2-4.3-7.1-5.1-10.9h-2.5c-0.2,6.2-1.1,10.3-3,13.9c-1.3,2.4-2.8,4.3-5.2,6.3l-0.3-0.3
			c3.7-5.8,4.6-10.8,4.6-24.6c0-2.9,0-4-0.2-5.9c2.1,0.9,2.7,1.3,4.7,2.3h15.2c1.2-1.4,1.5-1.7,2.7-3c1.8,1.3,2.3,1.7,4,3.2
			c0.2,0.2,0.3,0.3,0.3,0.3c0,0.2-0.2,0.3-0.4,0.3h-22.2c0,1.9,0,1.9-0.2,6.9h13.7L399.4,200.2z M386.6,203.2
			c1.3,3.7,3.1,6.5,5.9,9.1c2.2-2.9,3.6-5.6,4.8-9.1H386.6z"/>
		<path d="M434.7,196.7c1.2-1.4,1.5-1.8,2.7-3c1.9,1.4,2.4,1.7,4.1,3.2c0.2,0.2,0.2,0.3,0.2,0.3c0,0.2-0.2,0.3-0.4,0.3h-25.1
			c-0.1,9-0.3,12.5-1.3,16.1c-1,3.8-2.8,6.9-5.5,9.5l-0.3-0.2c2.4-5.2,3.2-11.1,3.2-22.5c0-3.2,0-4-0.2-5.9c2.1,0.9,2.7,1.3,4.5,2.3
			h7.7V194c0-0.9,0-1.4-0.2-2.4c4.1,0.3,4.6,0.4,5,0.6c0.3,0.1,0.4,0.3,0.4,0.4c0,0.3-0.3,0.5-1.4,0.9v3.3L434.7,196.7L434.7,196.7z
			 M419.3,206.9c0.5,2.2,0.6,3.4,0.6,5.2c0,4-1,6.4-2.7,6.4c-1,0-2-1.4-2-2.8c0-0.6,0.2-0.9,0.9-1.5c1.6-1.5,2.5-3.9,2.8-7.1
			L419.3,206.9z M422.4,206.3c0-1.8,0-2.5-0.2-3.9c4.6,0.3,5.3,0.5,5.3,1c0,0.3-0.3,0.5-1.4,0.9v13.8c0,1,0,1,2.8,1
			c2,0,2.3-0.1,2.7-0.5c0.3-0.6,1-2.5,2.2-6.6h0.3v5.2c0,1.2,0,1.2,0.2,1.4s0.2,0.2,0.9,0.3c0.6,0.2,1,0.8,1,1.5s-0.3,1.3-1,1.6
			s-2.3,0.5-5.3,0.5c-2.8,0-4.6-0.1-5.4-0.2c-0.7-0.1-1.3-0.4-1.5-0.9c-0.3-0.3-0.3-0.9-0.4-1.5c0-1.5,0-1.5,0-4.8v-8.8H422.4z
			 M425.9,198.9c5.9,1.8,7.4,2.8,7.4,4.6c0,1.5-1,3.1-2.1,3.1c-0.3,0-0.5-0.2-0.9-0.9c-1.3-2.7-2.6-4.5-4.7-6.5L425.9,198.9z
			 M434.7,206.9c5.1,3.8,6.7,5.6,6.7,7.6c0,1.6-1.4,3.5-2.6,3.5c-0.3,0-0.5-0.2-0.7-0.3c-0.2-0.2-0.2-0.3-0.5-1.6
			c-1-4.6-1.6-6.1-3.3-8.8L434.7,206.9z"/>
		<path d="M451,194c-1.9,0.9-2.9,2.1-2.9,3.2c0,0.3,0.1,0.5,0.3,0.7s0.2,0.2,1,0.3c1.2,0.3,1.9,1.2,1.9,2.4c0,1.5-1.2,2.8-2.9,2.8
			c-1.9,0-3.1-1.5-3.1-3.5c0-2.9,2-5.5,5.1-6.7L451,194z M458.7,194c-1.9,0.9-2.9,2.1-2.9,3.2c0,0.3,0.1,0.5,0.3,0.7
			c0.2,0.2,0.2,0.2,1,0.3c1.2,0.3,1.9,1.2,1.9,2.4c0,1.5-1.2,2.8-2.9,2.8c-1.8,0-3.1-1.5-3.1-3.5c0-2.9,2-5.5,5.1-6.7L458.7,194z"/>
		<path d="M461.5,211.4c0.9,0.1,1.7,0.2,2.1,0.2c0.5,0,0.7-0.2,1.2-1.2c2.1-4.6,3.3-7.4,4.8-11.4l0.3,0.2l-3.1,11.6
			c-0.3,0.9-0.3,1.5-0.3,1.9c0,0.5,0.2,1,0.5,2c0.9,1.9,1,2.6,1,3.5s-0.3,1.7-1.2,2.4c-0.7,0.6-1.4,0.9-2.1,0.9s-1.2-0.4-1.2-1.1
			c0-0.3,0-0.6,0.3-2.9c0.1-0.8,0.2-1.5,0.2-2.3c0-2.3-0.3-2.8-2.5-3.4L461.5,211.4z M462.7,193.6c4,1.4,5.9,2.9,5.9,4.6
			c0,1.4-1.3,2.9-2.4,2.9c-0.6,0-0.9-0.4-1.2-1.7c-0.7-2.8-1.2-3.9-2.5-5.5L462.7,193.6z M476.3,207.9c-0.1,2.4-0.2,2.9-0.3,4.3h0.6
			c0.7-0.8,0.9-1,1.5-1.8c0.9,0.9,1.2,1.2,2.1,2.2c0.1,0.1,0.1,0.2,0.1,0.3s-0.2,0.2-0.3,0.2h-4.1c-0.2,0.7-0.2,1-0.4,1.6
			c2.2,0.8,3.4,1.7,3.4,2.8c0,1-1,2.3-1.8,2.3c-0.4,0-0.6-0.3-0.7-1.5s-0.4-2.2-1-3.2c-0.6,1.6-1.3,2.9-2.4,4.1
			c-1.5,1.6-2.9,2.6-5.8,4l-0.2-0.3c3.4-2.9,5.2-5.7,5.9-9.9H470c-0.9,0-1.1,0-1.7,0.2l-0.2-1.2c0.7,0.2,1.2,0.3,2,0.3h3
			c0.2-1.7,0.2-1.8,0.3-4.3h-0.7c-1.1,1.5-2.1,2.6-3.7,3.9l-0.3-0.2c1.2-2.7,2.1-5.7,2.3-7.9c4.1,0.9,4.3,0.9,4.3,1.3
			s-0.3,0.5-1.2,0.6c-0.3,0.7-0.5,0.9-0.9,1.5h3.3c0.7-0.9,0.9-1,1.6-1.9c1,0.9,1.3,1.2,2.2,2.2c0.1,0.1,0.2,0.2,0.2,0.3
			s-0.2,0.2-0.3,0.2L476.3,207.9L476.3,207.9z M473.9,197.1c2.2-1.8,3.2-2.8,4.1-4.3c2.6,1.6,3.4,2.3,3.4,2.6c0,0.2-0.3,0.3-0.5,0.3
			c-0.3,0-0.6,0-0.9-0.1c-2.6,1.2-3.9,1.6-6,2.2v1.9c0,0.7,0.1,0.7,1.9,0.7c1.7,0,2,0,2.2-0.4c0.3-0.3,0.5-0.9,1.5-3.4l0.3,0.1v2.4
			c0,0.8,0,0.9,0.4,1c0.6,0.3,0.9,0.6,0.9,1.2c0,0.7-0.3,1.1-0.9,1.4c-0.6,0.3-1.7,0.3-4.1,0.3c-3.3,0-4.2-0.1-4.8-0.3
			c-0.5-0.3-0.7-0.7-0.7-1.5v-0.1c0-1.5,0-2.1,0-2.8v-3.1c0-1.6,0-2.2-0.1-3.4c3.7,0.4,4,0.5,4.3,0.6s0.3,0.3,0.3,0.4
			c0,0.3-0.3,0.5-1.4,0.9L473.9,197.1L473.9,197.1z M495.1,218.7c-0.7,0.4-0.9,0.7-1.2,1.1c-0.3,0.5-0.5,1.1-0.5,1.7
			c0,0.9-0.1,0.9-0.8,0.9c-3.2,0-6-1-7.7-3c-0.9-0.9-1.6-2.2-2.3-4.1c-0.6,1.7-1.2,2.9-2.2,4.1c-1.2,1.5-2.3,2.4-4.4,3.6l-0.3-0.3
			c2.1-2.2,2.9-3.6,3.8-6.2c0.8-2.3,1.3-5.8,1.3-8.4c0-0.5,0-0.8-0.1-1.5c0.9,0.2,1.7,0.3,2.2,0.3c1.7,0.3,2.2,0.3,2.2,0.7
			c0,0.3-0.3,0.5-1.1,0.7c-0.3,2.9-0.5,4.1-0.9,5.9c0.9,1.5,1.2,1.9,2.2,2.7V204h-2.5c-0.6,0-1.1,0.1-1.8,0.2l-0.2-1.1
			c0.7,0.2,1.3,0.2,2,0.2h7.5c0.8-0.9,1-1.1,1.8-1.9c1.2,0.9,1.5,1.3,2.8,2.3c0.3,0.3,0.3,0.4,0.3,0.6c0,0.3-0.3,0.5-1.5,0.7
			c-1.6,1.6-2.2,2.2-4,3.4l-0.3-0.2c0.7-1.7,0.9-2.4,1.4-4.2h-2.3v6.5h1.4l1.9-2.3c1.2,1,1.5,1.4,2.6,2.6c0.2,0.2,0.2,0.2,0.2,0.3
			c0,0.2-0.2,0.2-0.3,0.2h-5.7v6.8c1,0.2,1.9,0.3,3,0.3c1,0,1.8,0,3.9-0.2v0.5L495.1,218.7L495.1,218.7z M488.8,194
			c0.9-0.9,1.1-1,1.9-1.9c1.4,1,1.8,1.4,3.2,2.6c0.3,0.3,0.3,0.4,0.3,0.6c0,0.3-0.4,0.5-1.7,0.6c-1.8,1.5-2.7,2.1-4.6,3.3
			c0.9,0.6,1.1,1,1.1,1.7c0,1.2-1,2.6-2.1,2.6c-0.3,0-0.5-0.2-0.7-0.4c-0.1-0.2-0.1-0.2-0.6-1.1c-0.9-2-1.8-3.2-3.4-4.5l0.2-0.3
			c2.1,0.5,3.2,0.9,4.4,1.5c0.9-1.4,1.3-2.2,2-3.8h-5.4c-0.7,0-1.2,0-1.8,0.2l-0.2-1.2c0.9,0.2,1.4,0.3,2.1,0.3h5.3L488.8,194
			L488.8,194z"/>
		<path d="M521.9,213.1c1-1.2,1.4-1.5,2.5-2.6c1.7,1.3,2.2,1.7,4,3c0.1,0.1,0.2,0.2,0.2,0.2c0,0.1-0.2,0.2-0.4,0.2H515
			c2,1.6,3.4,2.4,5.9,3.3c2.5,0.9,5.3,1.3,8.5,1.3v0.4c-1.5,0.8-2.1,1.5-2.4,3.3c-0.1,0.3-0.2,0.4-0.5,0.4c-0.5,0-2.4-0.6-3.6-1.2
			c-1.9-0.9-3.9-2.2-5.3-3.5c-1-0.9-1.7-1.8-3.1-3.6v5.8l0.1,1.8c0,0.3,0,0.6,0,1.1c0,0.3-0.1,0.4-0.3,0.5c-0.3,0.2-1.7,0.3-2.8,0.3
			c-0.6,0-0.8-0.2-0.8-0.6c0.1-1.5,0.1-3.4,0.1-4.8v-1.9c-2.6,2.1-4.2,3.1-6.9,4.2c-2.2,0.9-4,1.5-7.3,2.2l-0.1-0.3
			c3.8-1.6,5.7-2.8,8.5-5c1.6-1.3,2.1-1.7,3.5-3.4h-7.7c-1.2,0-2.2,0-3.1,0.2l-0.3-1.2c1.2,0.2,2.6,0.3,3.7,0.3h9.6
			c0-0.3,0-0.7,0-0.9c0-1,0-1.4-0.2-2.2c1,0.1,1.8,0.2,2.2,0.2c2.1,0.2,2.8,0.3,2.8,0.8c0,0.3-0.2,0.3-1.2,0.8v1.4h7.6V213.1
			L521.9,213.1z M519.8,200.4c0.9-1,1.1-1.3,2.1-2.2c1.5,1.1,1.9,1.5,3.3,2.7c0.1,0.1,0.1,0.2,0.1,0.2c0,0.1-0.1,0.2-0.3,0.2h-9.8
			v3.3h4.6c0.9-1,1.1-1.3,2.1-2.2c1.5,1.1,2,1.5,3.4,2.7c0.1,0.1,0.2,0.2,0.2,0.2c0,0.1-0.1,0.2-0.3,0.2h-9.9v3.6h5.5
			c1-1.1,1.4-1.4,2.4-2.5c1.7,1.2,2.2,1.6,3.8,2.8c0.1,0.1,0.1,0.2,0.1,0.2c0,0.1-0.1,0.2-0.3,0.2h-21.7v0.9c0,0.3-0.2,0.5-0.3,0.6
			c-0.3,0.2-1.6,0.3-2.6,0.3c-0.6,0-0.8-0.2-0.9-0.6c0-0.4,0.1-2.2,0.2-5.1v-5c-1.6,1.4-2.4,2-4.6,3.3l-0.3-0.3
			c2.2-2.4,3.4-4,4.8-6.5c1-1.9,1.6-3.2,2.4-5.3c1,0.3,1.9,0.5,2.4,0.6c2.5,0.6,2.9,0.8,2.9,1.1c0,0.1-0.1,0.2-0.2,0.3
			s-0.7,0.3-1.7,0.4c-0.9,1.3-1.3,1.7-2,2.5h6.5c0.9-1.9,1.4-3.1,1.8-4.8c5.1,1.2,5.3,1.3,5.3,1.7c0,0.3-0.3,0.5-1.8,0.7
			c-0.7,0.5-0.7,0.5-2.4,1.7c-0.3,0.2-0.4,0.3-1.1,0.7h6.7c1-1.1,1.4-1.5,2.4-2.7c1.7,1.2,2.2,1.6,3.8,3c0.1,0.1,0.2,0.2,0.2,0.2
			c0,0.1-0.2,0.2-0.3,0.2h-11.4v3.2h4.9V200.4L519.8,200.4z M511.4,197.2H505v3.2h6.5L511.4,197.2L511.4,197.2z M511.4,201.2H505
			v3.3h6.5L511.4,201.2L511.4,201.2z M511.4,205.1H505v3.6h6.5L511.4,205.1L511.4,205.1z"/>
		<path d="M544.7,198.2c-0.3,0.1-0.3,0.1-0.7,0.1c-2.6,2.8-6.3,6.5-7.7,7.6c2.5-0.1,3.4-0.2,5.2-0.3c-0.3-1.1-0.6-1.5-1.4-2.8
			l0.3-0.2c3.4,2.1,4.6,3.2,4.6,4.6c0,1.3-1.1,2.8-2.1,2.8c-0.6,0-0.8-0.3-0.9-1.9c-0.1-0.5-0.2-0.8-0.3-1.3
			c-1.1,0.4-1.2,0.4-1.9,0.6v7.4c0,3.3,0,4,0.1,7.7c0,0.3-0.1,0.5-0.2,0.6c-0.3,0.2-1,0.3-2.2,0.3c-1.1,0-1.3-0.1-1.3-0.7
			c0.1-1.8,0.2-6.9,0.2-7.6v-2.8c-0.3,0.1-0.3,0.1-0.7,0.2c-1.5,4.6-2.4,6.7-4.6,9.8l-0.3-0.2c1.2-4.3,1.8-8.1,1.9-11.6
			c2.1,0.4,2.8,0.7,3.8,0.9v-3.2c-0.5,0.2-0.9,0.3-1.1,0.3c-1.3,0.3-1.4,0.3-2.5,0.6c-0.2,0.9-0.3,1.1-0.6,1.1s-0.3,0-1.1-4.4
			c0.9,0.1,1.4,0.1,1.7,0.1s1.2,0,1.8-0.1c1.1-1.4,1.7-2.2,2.8-4c2-3.2,2.8-4.6,3.4-6.3c3.5,1.5,4.2,1.8,4.3,2.2
			c0.3,0.1,0.9,0.1,1.4,0.1h4.1v-1.9c0-2.1,0-2.8-0.2-4.2c1.2,0.1,2,0.2,2.6,0.3c2.3,0.2,2.8,0.3,2.8,0.8c0,0.3-0.3,0.6-1.5,0.9v4.2
			h2.8c1-1.3,1.4-1.7,2.4-2.9c1.6,1.3,2.1,1.7,3.5,3.1c0.1,0.1,0.2,0.2,0.2,0.3s-0.2,0.2-0.3,0.2h-8.5v6.5h2.4
			c1-1.2,1.4-1.6,2.4-2.8c1.5,1.3,2,1.6,3.4,3c0.1,0.1,0.2,0.2,0.2,0.3s-0.2,0.2-0.4,0.2h-14.6c-0.9,0-1.4,0.1-2.3,0.3l-0.3-1.2
			c0.9,0.2,1.7,0.3,2.6,0.3h3v-6.5h-4.3c-0.9,0-1.1,0-1.8,0.2L544.7,198.2z M531.8,196.1c1.3,0.5,1.7,0.7,2.7,1.3
			c1.1-2.4,1.6-4,2.1-6c4.9,1.5,5,1.6,5,2.1c0,0.4-0.3,0.5-1.6,0.6c-1.9,1.8-2.8,2.5-4.6,4c1.5,1.1,2,1.6,2,2.6
			c0,1.2-1.1,2.7-2.2,2.7c-0.2,0-0.3-0.1-0.4-0.3c-0.2-0.2-0.2-0.2-0.6-1.7c-0.6-1.9-1.4-3.2-2.7-4.8L531.8,196.1z M540.5,210.2
			c2.8,2.3,4.1,4.1,4.1,5.7c0,1.4-1,2.9-2,2.9c-0.5,0-0.7-0.3-0.8-1.5c-0.2-2.8-0.6-4.5-1.5-6.7L540.5,210.2z M556.5,210.5
			c0.9-1,1.1-1.3,2.1-2.2c1.3,0.9,1.6,1.2,2.8,2.2c0.3,0.3,0.4,0.4,0.4,0.6c0,0.3-0.3,0.6-1.2,1c0,1,0,1.4,0,2.2c0,1.8,0,4.4,0.2,8
			c0,0.4,0,0.6-0.3,0.7c-0.3,0.3-1.2,0.3-2.5,0.3c-0.9,0-1.1-0.1-1.1-0.7v-1.7h-7.5v1.5c0,0.8-0.5,0.9-2.6,0.9c-1,0-1.3-0.2-1.3-0.7
			c0-1,0-2.1,0.1-2.6c0.1-3,0.1-3.4,0.1-4.7c0-3.3-0.1-5.4-0.2-7.1c1.9,1,2.5,1.3,4.3,2.4L556.5,210.5L556.5,210.5z M549.3,220.2
			h7.5v-9h-7.5V220.2z"/>
		<path d="M565.2,208.1c3.6-2.8,6.1-5.2,8.8-8.6c2.2-2.9,3.7-5.5,4.4-7.8c5.7,1.2,5.9,1.3,5.9,1.7c0,0.3-0.5,0.5-1.5,0.7
			c1.7,2.6,4,4.5,7.1,6.2c2.8,1.5,5.7,2.5,8.6,2.9v0.4c-1.5,0.5-2.2,1.4-3,3.8c-0.1,0.3-0.3,0.3-0.4,0.3c-0.3,0-1.4-0.6-2.8-1.5
			c-4.5-2.9-7-5.9-9.8-11.7c-2.6,4.1-4.6,6.4-8.1,9c-2.8,2.2-5,3.4-8.8,5L565.2,208.1z M574.7,222.2c0,0.5-0.2,0.8-0.5,0.9
			c-0.3,0.1-1.4,0.3-2.2,0.3c-0.9,0-1.3-0.2-1.3-0.9c0,0,0-0.2,0-0.3c0.1-2.6,0.2-5.3,0.2-8.3c0-3.3,0-4.5-0.2-5.9
			c2.1,0.9,2.6,1.2,4.6,2.2h12.4l2.1-2.2c1.4,0.9,1.7,1.2,3,2.2c0.3,0.3,0.4,0.4,0.4,0.6c0,0.3-0.3,0.5-1.3,0.9c0,4.5,0,6,0.2,10.3
			c0,0.1,0,0.2,0,0.2c0,0.3-0.2,0.6-0.5,0.7c-0.3,0.2-1.7,0.3-2.5,0.3c-0.9,0-1.1-0.2-1.1-0.8v-0.1v-1.4h-13.2L574.7,222.2
			L574.7,222.2z M573.7,204.3c0.9,0.2,1.7,0.3,2.3,0.3h6.6l2.4-2.8c1.7,1.2,2.2,1.6,3.8,2.9c0.2,0.2,0.2,0.3,0.2,0.3
			c0,0.2-0.2,0.2-0.4,0.2h-12.7c-0.7,0-1.1,0-1.9,0.2L573.7,204.3z M574.7,220.3h13.2v-9.5h-13.2V220.3z"/>
		<path d="M601.3,203.1c1.9-0.9,2.9-2.1,2.9-3.2c0-0.3-0.1-0.5-0.3-0.7s-0.2-0.2-1-0.3c-1.1-0.3-1.9-1.2-1.9-2.4
			c0-1.5,1.2-2.8,2.9-2.8c1.9,0,3.1,1.5,3.1,3.5c0,2.9-2,5.6-5.2,6.8L601.3,203.1z"/>
	</g>
	<path d="M609,203c1.9-0.9,2.9-2.1,2.9-3.2c0-0.3-0.1-0.5-0.3-0.7s-0.2-0.2-1-0.3c-1.1-0.3-1.9-1.2-1.9-2.4c0-1.5,1.2-2.8,2.9-2.8
		c1.9,0,3.1,1.5,3.1,3.5c0,2.9-2,5.6-5.2,6.8L609,203z"/>
</g>
</svg>
