<?xml version="1.0" encoding="utf-8"?>
<!-- Generator: Adobe Illustrator 27.0.1, SVG Export Plug-In . SVG Version: 6.00 Build 0)  -->
<svg version="1.1" id="Layer_1" xmlns="http://www.w3.org/2000/svg" xmlns:xlink="http://www.w3.org/1999/xlink" x="0px" y="0px"
	 viewBox="0 0 760 880" style="enable-background:new 0 0 760 880;" xml:space="preserve">
<style type="text/css">
	.st0{opacity:0.56;fill:#BFBFBF;}
	.st1{fill:#943B20;}
	.st2{font-family:'KozGoPr6N-Medium-83pv-RKSJ-H';}
	.st3{font-size:53px;}
	.st4{letter-spacing:27;}
	.st5{letter-spacing:15;}
	.st6{font-family:'HiraMinProN-W6-83pv-RKSJ-H';}
	.st7{font-size:40px;}
</style>
<g>
	<circle class="st0" cx="120.5" cy="371.5" r="114.5"/>
	<circle class="st0" cx="120.5" cy="130.5" r="114.5"/>
	<circle class="st0" cx="129.5" cy="634.5" r="114.5"/>
	<g>
		<text transform="matrix(1 0 0 1 80.2368 111.7739)" class="st1 st2 st3 st4">特許技術インカラミ</text>
		<text transform="matrix(1 0 0 1 106.529 344.5867)" class="st1 st2 st3 st5">毛髪強度回復140%</text>
		<text transform="matrix(1 0 0 1 178.0586 626.3938)" class="st1 st2 st3 st5">ノーベル賞成分</text>
		<text transform="matrix(1 0 0 1 254.3947 723.3938)" class="st1 st2 st3 st5">フラーレン</text>
	</g>
	<text transform="matrix(1 0 0 1 127.8921 186.2349)" class="st6 st7">業界初の化学反応“凝集結合”</text>
	<text transform="matrix(1 0 0 1 191.014 424.3647)"><tspan x="0" y="0" class="st6 st7">平均的トリートメントの</tspan><tspan x="-14.1" y="48" class="st6 st7">回復率105%を大きく超過</tspan></text>
	<text transform="matrix(1 0 0 1 202.5942 787.3649)"><tspan x="0" y="0" class="st6 st7">話題のフラーレンを</tspan><tspan x="0" y="60" class="st6 st7">ヘアケア成分としてはじめて配合</tspan></text>
</g>
</svg>
