<?xml version="1.0" encoding="utf-8"?>
<!-- Generator: Adobe Illustrator 27.0.1, SVG Export Plug-In . SVG Version: 6.00 Build 0)  -->
<svg version="1.1" id="Layer_1" xmlns="http://www.w3.org/2000/svg" xmlns:xlink="http://www.w3.org/1999/xlink" x="0px" y="0px"
	 viewBox="0 0 760 880" style="enable-background:new 0 0 760 880;" xml:space="preserve">
<style type="text/css">
	.st0{opacity:0.56;fill:#BFBFBF;enable-background:new    ;}
	.st1{fill:#943B20;}
</style>
<circle class="st0" cx="156.3" cy="401.1" r="98.5"/>
<circle class="st0" cx="156.3" cy="172.7" r="98.5"/>
<circle class="st0" cx="154.1" cy="626.5" r="98.5"/>
<g>
	<g>
		<path class="st1" d="M160.4,136.6c-0.1,0.3-0.3,0.6-1,0.7v3.5h6v4h-6v10.9c0,4.3-1.8,4.8-9.6,4.8c-0.2-1.2-0.7-2.9-1.3-4.1
			c1.5,0.1,2.8,0.1,4,0.1c2.4,0,2.6,0,2.6-0.9v-10.8h-15.4v-1.5l-4.7,1.3v15.9h-4.1v-14.9c-2.1,0.6-4,1-5.6,1.5
			c-0.1,0.3-0.3,0.6-0.7,0.7L123,143c2.1-0.4,4.8-0.9,7.8-1.6v-10.2h-3.3c-0.5,2.6-1.2,5-2,6.8c-0.6-0.6-1.9-1.7-2.7-2.2
			c1.3-3.6,2.1-9.7,2.6-15.6l4.5,1c-0.2,0.3-0.4,0.5-1,0.5c-0.2,1.7-0.4,3.4-0.6,5.2h2.6v-9l5.2,0.3c-0.1,0.4-0.3,0.6-1,0.7v8.1h5.3
			v4.1H135v9.4l5.4-1.2l0.2,1.5h14.5v-4.5L160.4,136.6z M154.2,131.9h11.7v4h-27v-4h11v-5h-8.6v-4h8.6v-5l5.4,0.3
			c-0.1,0.4-0.3,0.6-1.1,0.8v4h9v4h-9V131.9z M146.5,155.4c-0.9-2.1-2.9-5.2-4.9-7.4l3.4-1.7c1.9,2.2,4.1,5.1,5.1,7.1L146.5,155.4z"
			/>
		<path class="st1" d="M210.6,125.5v3.4H192v-3.4H210.6z M208.7,144.4v13.7h-10.8v2h-3.8v-15.7H208.7z M194.2,135.3v-3.4h14.6v3.4
			H194.2z M194.2,141.5v-3.4h14.6v3.4H194.2z M208.8,119.4v3.4h-14.3v-3.4H208.8z M204.7,147.9h-6.9v6.7h6.9V147.9z M234.9,139.6
			v4.1h-9.8v17h-4.3v-17h-10.3v-4.1h10.3v-11h-3.6c-1.2,3.3-2.7,6.2-4.2,8.4c-0.9-0.7-2.5-1.7-3.5-2.2c2.8-3.9,5.1-10.5,6.4-17
			l5.2,1.2c-0.2,0.4-0.5,0.6-1.1,0.6c-0.4,1.6-0.9,3.4-1.4,5h15.2v4h-8.6v11H234.9z"/>
		<path class="st1" d="M276.5,137.8l0.4,3.7c-1.7,0.6-3.5,1.2-5.2,1.8v12.4c0,4-1.5,4.9-8.3,4.8c-0.2-1.1-0.7-2.8-1.2-4
			c1.1,0.1,2.2,0.1,3.2,0.1c2,0,2.2,0,2.2-0.9v-11c-1.8,0.6-3.4,1.1-4.8,1.5c-0.1,0.4-0.3,0.7-0.7,0.9l-1.5-5c1.9-0.4,4.3-1.1,7-1.8
			v-9.6h-6.4v-4h6.4v-8.9l5.3,0.3c-0.1,0.4-0.3,0.7-1,0.8v7.8h4.9v4h-4.9v8.4L276.5,137.8z M298.7,135.9l2.8,1.2
			c-0.2,0.3-0.3,0.4-0.5,0.6c-1.7,5.6-4.5,10.2-8.1,13.8c3.2,2.4,6.8,4.3,11.1,5.5c-0.9,0.9-2.2,2.5-2.8,3.6
			c-4.5-1.4-8.3-3.5-11.5-6.4c-3.8,2.8-8.2,5-12.9,6.4c-0.4-1.1-1.5-2.8-2.4-3.8c4.4-1.1,8.6-2.9,12.2-5.6
			c-2.6-2.9-4.7-6.4-6.3-10.3l3-0.9H278v-3.9h9.6v-7.1h-10.3v-4h10.3v-7.1l5.4,0.3c-0.1,0.4-0.3,0.6-1,0.8v6.1h11.1v4H292v7.1h5.9
			L298.7,135.9z M284.2,140c1.3,3.2,3.2,6.1,5.5,8.6c2.5-2.4,4.5-5.3,5.9-8.6H284.2z"/>
		<path class="st1" d="M342.3,119.8c-0.2,0.3-0.5,0.4-1.1,0.3c-2.1,3.1-5.9,7.4-9.1,10.2c-0.5-0.9-1.7-2.2-2.4-3.1
			c2.8-2.5,6.3-6.4,8.1-9.5L342.3,119.8z M359.7,132.2h-6.6V160h-4v-27.8h-6.5V130c-0.2,0.1-0.4,0.1-0.7,0.1
			c-0.9,1.9-1.9,3.9-2.9,5.9l1,0.3c-0.1,0.3-0.4,0.6-1,0.7v23.8h-4v-18.3c-1,1.5-2.1,2.8-3.1,4c-0.4-0.9-1.5-2.8-2.2-3.7
			c3.1-3.4,6.6-9.3,8.8-14.8l4.1,1.5v-1.2h6.5v-9.6l5.1,0.3c-0.1,0.3-0.3,0.6-1,0.7v8.6h6.6L359.7,132.2L359.7,132.2z M347.7,138.4
			c-0.1,0.3-0.4,0.5-0.9,0.5c-0.5,5.9-1.5,12.3-3.4,16.1c-0.6-0.5-1.9-1.5-2.8-1.9c1.6-3.4,2.4-9.6,2.8-15.6L347.7,138.4z
			 M357,119.2c1.4,1.9,2.9,4.4,3.5,6l-3.1,1.5c-0.6-1.7-2-4.3-3.4-6.3L357,119.2z M357.9,137.6c1,4.4,2.1,10,2.3,13.8L357,152
			c-0.3-3.7-1.1-9.4-2.2-13.8L357.9,137.6z M372.5,133.3v4h-4v18.5c0,4.5-1.9,4.8-8.5,4.8c-0.2-1.2-0.6-2.9-1.2-4.2
			c1.3,0.1,2.5,0.1,3.4,0.1c2,0,2.2,0,2.2-0.9v-18.3h-4.7v-4C359.6,133.3,372.5,133.3,372.5,133.3z M371.8,120.5v3.9h-10.8v-3.9
			H371.8z"/>
		<path class="st1" d="M436.2,122.9c-0.3,0.3-0.5,0.4-1,0.4c-0.2,0-0.3,0-0.4-0.1c-3.5,3.5-8.2,7.4-12.6,10.6
			c0.4,0.2,0.9,0.4,1.2,0.5c-0.1,0.3-0.5,0.7-1.1,0.8v24.1h-4.8v-22.4c-4.5,3.1-10.6,6.6-16.2,9.4c-0.6-1-1.8-2.7-2.8-3.5
			c12.1-5.5,25.8-15.1,33-23.2L436.2,122.9z"/>
		<path class="st1" d="M465.3,122.6c4.6,1.4,10.2,3.9,13.4,6l-2.4,4.1c-3.3-2.2-8.7-4.7-13.3-6.3L465.3,122.6z M464.5,153.8
			c15.8-4.8,26.4-13.9,31.8-26.4c1.3,1,2.8,1.9,4.2,2.7c-5.7,12.5-16.7,22.2-31.9,27.5c-0.1,0.4-0.3,0.9-0.7,1.1L464.5,153.8z"/>
		<path class="st1" d="M562.8,129.9c-0.1,0.3-0.3,0.5-0.4,0.6c-0.7,13.5-2,21.8-3.7,24.8c-1.5,2.5-3.8,3.5-6.4,3.5
			c-1.9,0-5-0.3-8.2-1c0.1-1.2-0.1-3.3-0.3-4.6c3.1,0.7,6.5,1.1,7.6,1.1c1.5,0,2.5-0.4,3.3-2c1.2-2.4,2.3-9.6,2.8-19h-12.8
			c-2.2,10.1-6.4,19-14.6,25.6c-0.9-0.9-2.5-2.1-3.7-2.8c7.7-5.9,11.6-13.8,13.5-22.8h-11.9v-4.2h12.7c0.5-3.2,0.7-5.9,0.9-9.6
			l6,0.5c-0.1,0.5-0.5,0.8-1.3,0.9c-0.3,3.1-0.4,5.4-0.9,8.1h13.3l0.9-0.3L562.8,129.9z"/>
		<path class="st1" d="M626.8,134.1c-0.2,0.3-0.4,0.4-0.8,0.6c-4,13.9-11.2,20.6-24.9,24.4c-0.5-1.1-1.8-2.7-2.8-3.6
			c11.9-2.9,19.5-9.3,22-18.5h-28.8v-4.2h30.8l0.5-0.3L626.8,134.1z M622.1,125.3h-26v-4.2h26V125.3z"/>
		<path class="st1" d="M656.1,147.6c9.7,1.1,21.2,3.6,28.6,6.5l-2,4.6c-6.6-2.7-18.5-5.6-28.3-6.8L656.1,147.6z M659.7,120.2
			c7.7,0.8,18,2.8,24.1,5l-1.9,4.5c-6.4-2.5-16-4.3-23.8-5.3L659.7,120.2z M659.7,134c7.1,0.7,16.4,2.6,21.9,4.4l-1.5,4.6
			c-5.3-1.9-14.5-4-21.9-4.7L659.7,134z"/>
	</g>
	<g>
		<path class="st1" d="M166.5,374.5c0,2.5,0.5,3,3.7,3h10.5c2.8,0,3.2-1.1,3.5-6.4c1,0.8,2.9,1.5,4.2,1.8c-0.7,6.6-2.1,8.8-7.5,8.8
			h-11.1c-6.2,0-7.9-1.5-7.9-7.2V369l-14.8,1.9l-0.6-4.1l15.4-2v-6.2l-13.3,1.9l-0.6-4.1l13.9-1.9v-6c-4.5,0.9-9.1,1.7-13.6,2.3
			c-0.2-1.1-0.9-2.8-1.3-3.8c11.5-1.7,24.4-4.4,31.7-7.7l3.9,3.7c-0.2,0.2-0.4,0.3-0.7,0.3c-0.2,0-0.3,0-0.4-0.1
			c-4,1.5-9.3,3-14.9,4.3l1.1,0.1c-0.1,0.4-0.3,0.6-1.1,0.8v5.5l17.2-2.3l0.6,4l-17.8,2.5v6.2l20.2-2.6l0.6,4l-20.8,2.7L166.5,374.5
			L166.5,374.5z"/>
		<path class="st1" d="M237.1,369.2c0.9,0,0.9,0,1.5-0.2l2.7,1.6c-0.2,0.3-0.3,0.4-0.6,0.5c-1.7,2.2-4,4.1-6.6,5.7
			c4,0.9,8.6,1.5,13.3,1.7c-0.9,0.9-1.8,2.5-2.2,3.5c-5.8-0.4-11.2-1.4-15.8-3c-3.8,1.5-8.1,2.4-12.5,3.1c-0.3-0.9-1.4-2.6-2.1-3.4
			c3.4-0.3,6.8-0.9,9.8-1.8c-2.4-1.3-4.4-2.8-6-4.5c-2.6,3.8-5.9,7.1-10.2,9.6c-0.7-0.9-2.2-2.1-3.2-2.8c5.6-2.8,9.6-7.5,12-12.6
			h-11.2v-3.2h12.6c0.3-0.9,0.6-1.8,0.9-2.8l5.1,1.1c-0.2,0.3-0.5,0.5-1.1,0.6l-0.3,1h23.9v3.2h-25.2c-0.3,0.9-0.8,1.6-1.2,2.4
			L237.1,369.2L237.1,369.2z M207.2,358.3l3.6-0.2c0.5-0.9,1-2.1,1.5-3.2h-5.8v-2.7h4v-11.6h17.4v2.5h-13.6v1.6h12.6v2.2h-12.6v1.5
			h12.7v2.2h-12.7v1.5h15.1v2.7h-4.6c1.6,1.7,3.4,3.9,4.4,5.3l-3.3,1.5c-0.3-0.5-0.8-1.2-1.3-1.9c-5.8,0.5-11.7,0.9-15.5,1.2
			c-0.1,0.3-0.3,0.5-0.7,0.6L207.2,358.3z M222.4,355.1h-6.3c-0.4,0.9-0.9,2-1.5,2.9l8-0.4c-0.5-0.7-1.1-1.3-1.7-1.9L222.4,355.1z
			 M222.5,372c1.7,1.4,4,2.5,6.6,3.4c2.3-0.9,4.3-2.1,5.9-3.4H222.5z M247.9,355.8c-0.2,0.3-0.4,0.3-0.9,0.3
			c-3.4,2.5-9.9,4.6-15.8,5.8c-0.3-0.9-1.3-2.2-2.1-3c5.6-0.9,12-2.9,15.4-5.7L247.9,355.8z M244.8,342.1c-0.2,0.3-0.5,0.3-0.9,0.3
			c-2.6,2.2-7.7,4.4-12.2,5.6c-0.4-0.8-1.4-2.1-2.1-2.8c4.3-1,9.3-3.1,11.8-5.5L244.8,342.1z M246.4,348.8c-0.2,0.3-0.4,0.3-0.9,0.3
			c-2.9,2.1-8.4,4.2-13.1,5.4c-0.4-0.8-1.4-2-2.2-2.7c4.5-1,10-3.1,12.9-5.4L246.4,348.8z"/>
		<path class="st1" d="M275.7,361.1l0.9-0.1l2.2,0.3c-0.1,0.3-0.1,0.9-0.1,1.3c-0.5,11.8-1.1,16.2-2.4,17.7
			c-1.3,1.5-2.7,1.7-5.4,1.7c-1,0-2.2-0.1-3.5-0.1c-0.1-1.2-0.5-2.8-1.2-4c2.2,0.2,4.2,0.2,5.1,0.2c0.8,0,1.2-0.1,1.6-0.5
			c0.9-0.9,1.3-4.2,1.7-12.7h-5.8l-0.3,1.8l-3.8-0.6c0.6-3.8,1.2-9.8,1.5-14.5h8.3V345h-9.6v-4h13.9v15.9h-4.1v-1.4h-4.7
			c-0.2,1.9-0.3,3.8-0.5,5.6L275.7,361.1L275.7,361.1z M299.8,375.3c-0.8-1.1-1.6-2.2-2.4-3.3l3.4-1.6c2.6,3,5.3,7.1,6.4,9.9
			l-3.7,1.8c-0.3-0.9-0.9-2.1-1.5-3.3c-7.5,0.5-15.3,1-20.3,1.3c-0.1,0.4-0.4,0.6-0.7,0.7l-1.5-4.8c3-0.1,7-0.3,11.4-0.4v-5.9h-8.8
			v-12.8h8.8v-4.3c-3.4,0.2-6.6,0.3-9.1,0.4c-0.1,0.4-0.4,0.6-0.7,0.7l-1.4-4.7c1.2,0,2.5-0.1,4-0.1c1.8-2.8,3.9-6.8,5-9.7l5.1,1.5
			c-0.2,0.3-0.5,0.5-1.1,0.5c-1.1,2.2-2.8,5.2-4.4,7.7c3.6-0.1,7.5-0.2,11.5-0.3c-1-1.2-2.1-2.5-3.1-3.5l3.5-1.8
			c2.8,2.8,5.9,6.7,7.3,9.5l-3.8,2c-0.3-0.8-0.9-1.7-1.5-2.7l-6.1,0.3c-0.1,0.3-0.3,0.6-1,0.7v3.9h9.1v12.9h-9.1v5.8L299.8,375.3z
			 M285.9,366.1h5v-5.5h-5V366.1z M300.2,360.6H295v5.5h5.2V360.6z"/>
		<path class="st1" d="M331.7,347.7v9.3c0,7.3-0.6,18.1-4.7,25.2c-0.8-0.7-2.6-2-3.5-2.4c3.8-6.5,4.1-16,4.1-22.7v-13.2h16.8v-4.5
			l5.6,0.3c-0.1,0.4-0.3,0.6-1,0.8v3.4h17.3v3.9h-34.5V347.7z M360,365.4l2.8,1.3c-0.2,0.3-0.3,0.4-0.5,0.5c-2,3.6-4.8,6.5-8.4,8.6
			c3.8,1.2,8.1,2.1,12.7,2.5c-0.9,0.9-2,2.6-2.5,3.7c-5.5-0.7-10.5-2-14.8-4c-4.7,2-10.2,3.2-15.8,3.9c-0.3-1-1.1-2.7-1.8-3.6
			c4.7-0.4,9.3-1.3,13.3-2.7c-2.6-1.6-4.7-3.6-6.4-5.9l2.2-0.9h-7.2v-3.4h25.6L360,365.4z M358.2,362.8H340v-7.2h-6.8v-3.4h6.8v-3.7
			l5.2,0.3c-0.1,0.3-0.3,0.6-1,0.8v2.7h9.7v-3.7l5.3,0.3c-0.1,0.3-0.3,0.6-1,0.8v2.7h7.6v3.4h-7.6V362.8z M342.7,369
			c1.7,2,4,3.6,6.7,5c2.7-1.3,5.1-3,6.8-5H342.7z M354,355.7h-9.7v4h9.7V355.7z"/>
		<path class="st1" d="M385.5,342h38.2v39.7h-4.6v-3.1h-29.3v3.1h-4.3V342z M389.8,374.4h29.3v-28.1h-29.3V374.4z M395.7,352.4h17.4
			V368h-17.4V352.4z M409.1,364.5V356h-9.6v8.4H409.1z"/>
		<path class="st1" d="M478.8,366.3l2.8,1.2c-0.1,0.3-0.3,0.3-0.4,0.5c-1.5,3-3.8,5.4-6.5,7.4c3.4,1.4,7.2,2.2,11.4,2.8
			c-0.9,0.9-2,2.6-2.5,3.6c-4.8-0.7-9-2.2-12.7-4.1c-4.1,2.1-9,3.4-14,4.2c-0.3-1-1.2-2.7-1.9-3.5c4.3-0.5,8.6-1.5,12.3-3.1
			c-1.6-1.2-2.9-2.7-4.2-4.2c-1.5,1.5-3.1,2.8-4.7,3.9c-0.6-0.7-2-2-2.8-2.6c3.4-2,6.8-5.3,9-8.8h-4v-11.8c-0.9,1.2-1.8,2.3-2.7,3.3
			c-0.6-0.6-1.7-1.3-2.8-1.9c-0.7,1.3-1.5,2.6-2.3,3.9l1,0.3c-0.2,0.3-0.4,0.6-1.1,0.6v23.9h-4V363c-1.4,1.7-2.8,3.4-4.1,4.8
			c-0.4-0.9-1.5-2.9-2.2-3.8c3.4-3.4,7.6-9.3,10.2-14.7l3.7,1.4c2.5-3.1,4.6-7.3,5.9-11.5l5,1.4c-0.2,0.3-0.5,0.5-1.1,0.5
			c-0.3,0.9-0.7,1.7-1,2.6h19.6v3.5h-21.3c-0.5,0.9-1,1.8-1.5,2.7h19.8v13.9h-13.1l1,0.3c-0.2,0.3-0.5,0.4-1,0.4
			c-0.4,0.7-0.9,1.4-1.4,2.1h11.1L478.8,366.3z M456.1,341.1c-0.3,0.3-0.6,0.4-1.1,0.4c-2.5,3.2-6.7,7.6-10.3,10.5
			c-0.5-0.9-1.6-2.4-2.4-3.2c3.3-2.6,7.2-6.5,9.3-9.6L456.1,341.1z M464.3,352.8v2.6h13.1v-2.6H464.3z M464.3,358.2v2.7h13.1v-2.7
			H464.3z M465.8,369.5c1.3,1.5,2.9,2.9,4.9,4c1.9-1.1,3.5-2.5,4.8-4H465.8z"/>
		<path class="st1" d="M512,378v-29.5h-0.1l-5.8,3.2l-1.2-3.9l7.7-4.1h4.5V378L512,378L512,378z"/>
		<path class="st1" d="M560.1,378h-5v-9.1h-14.4v-3.4l13.4-21.9h5.9v21.3h4.3v4H560L560.1,378L560.1,378z M545.7,364.9h9.4v-10.3
			c0-2,0.1-4,0.3-5.9h-0.2c-1,2.2-1.9,3.9-2.8,5.7L545.7,364.9L545.7,364.9L545.7,364.9z"/>
		<path class="st1" d="M580.8,360.8c0-11.2,4.2-17.8,11.4-17.8c7.2,0,10.9,7.1,10.9,17.4c0,11.6-4.2,18-11.3,18
			C584.6,378.5,580.8,371.4,580.8,360.8z M597.7,360.7c0-8.2-1.7-13.4-5.8-13.4c-3.4,0-5.9,4.8-5.9,13.4c0,8.5,2.1,13.5,5.8,13.5
			C596.4,374.2,597.7,367.8,597.7,360.7z"/>
		<path class="st1" d="M635.7,353.8c0,7.1-3.8,10.6-7.9,10.6c-4.3,0-7.8-3.7-7.8-10.2s3.4-10.5,8-10.5
			C633,343.7,635.7,347.9,635.7,353.8z M624,354.3c0,3.9,1.3,7.1,3.9,7.1c2.7,0,3.8-3.2,3.8-7.3c0-3.9-0.9-7.2-3.8-7.2
			C625,346.8,624,350.9,624,354.3z M630.5,378.6h-3.2l19.3-34.9h3.2L630.5,378.6z M657.3,367.8c0,7.1-3.7,10.6-8,10.6
			c-4.3,0-7.8-3.7-7.8-10.2c0-6.5,3.4-10.5,8-10.5C654.5,357.7,657.3,361.9,657.3,367.8z M645.6,368.1c0,4,1.3,7.2,3.9,7.2
			c2.7,0,3.8-3.2,3.8-7.2c0-3.9-0.9-7.2-3.8-7.2C646.6,360.8,645.6,364.5,645.6,368.1z"/>
	</g>
	<g>
		<path class="st1" d="M241.6,592c-0.3,0.4-0.9,0.7-1.4,0.7c-7.2,17.6-17.8,29-30.4,36.3c-0.8-0.9-2.4-2.5-3.7-3.4
			c12.1-6.8,22.9-17.8,29.4-35.9L241.6,592z"/>
		<path class="st1" d="M260.9,606.2h38v4.6h-36.2c-0.3,0.4-0.9,0.8-1.5,0.9L260.9,606.2z"/>
		<path class="st1" d="M317.2,611.5c3.4-3.5,10.2-11.1,12.9-14.1c1.4-1.4,2.8-2.1,4.1-2.1s2.8,0.9,4.3,2.1
			c5.6,5.1,15.2,15.6,21.7,23.8l-3.9,3.6c-5.9-8.3-15.6-19.2-20-23.3c-0.9-0.9-1.5-1.3-2.1-1.3c-0.5,0.1-1.1,0.5-1.9,1.3
			c-1.8,2-7.9,9.2-10.8,12.5c0.1,0.5-0.1,1-0.5,1.5L317.2,611.5z M348.1,592.6c2,1.8,4.3,4.6,5.6,6.5l-2.2,1.8
			c-1.2-1.9-3.7-4.9-5.5-6.5L348.1,592.6z M353.6,588.5c2.1,1.8,4.4,4.5,5.7,6.4l-2.2,1.8c-1.2-1.9-3.7-4.8-5.5-6.4L353.6,588.5z"/>
		<path class="st1" d="M389.2,596.3c-0.1,0.5-0.4,0.9-1.1,0.9c-0.3,12.7-1.4,23.5-8,31.8c-1-0.7-2.7-1.7-4-2.4
			c6.4-7.2,7.2-18.8,7.3-30.8L389.2,596.3z M400.9,621.2c6.8-3.5,11.1-9.9,13.4-17.4c0.9,0.8,2.9,1.9,4,2.5
			c-3.3,9.3-8.8,16-18.4,20.7c-0.2,0.4-0.6,0.8-0.9,1l-3.4-4.1l0.6-0.9v-33l5.8,0.3c-0.1,0.4-0.4,0.9-1.1,1L400.9,621.2L400.9,621.2
			z"/>
		<path class="st1" d="M453.5,626.2c-0.3,0.3-0.5,0.3-1.1,0.3c-3.4,1.7-9,3.3-13.6,4.2c-0.7-0.9-2.1-2.4-3-3.1
			c4.7-0.6,10.2-1.9,13.1-3.4L453.5,626.2z M441,595.9v5.3h-4v-8.3h7.1c-0.7-1.2-1.8-2.6-2.8-3.7l3.9-1.1c1.3,1.3,2.8,3.2,3.4,4.4
			l-1,0.3h6.3v-5.1l5.4,0.3c-0.1,0.4-0.3,0.6-1.1,0.8v4h6l-0.3-0.2c1.2-1.4,2.7-3.4,3.5-4.8l4.9,1.6c-0.2,0.3-0.5,0.4-1,0.4
			c-0.7,0.9-1.7,2-2.7,2.9h7.2v8.3h-4.2v-5.3L441,595.9L441,595.9z M462.9,624.1L462.9,624.1c4.9,1.3,10.3,2.9,13.6,4.1l-4.4,2.4
			c-2.8-1.2-7.9-2.9-12.8-4.2l3.2-2.3h-20.9v-16.3h30v16.3L462.9,624.1L462.9,624.1z M468.5,605.8h-24.4v-7.7h24.4V605.8z
			 M445.6,610.2v2.2h21.5v-2.2H445.6z M445.6,614.8v2.2h21.5v-2.2H445.6z M445.6,619.4v2.2h21.5v-2.2H445.6z M448.1,600.6v2.7h16.2
			v-2.7H448.1z"/>
		<path class="st1" d="M522,599.7c0.5,5.4,1.3,10.6,2.5,14.9c2.2-3.4,4-7.4,5.3-11.7l5.1,1.5c-0.2,0.3-0.5,0.5-1.2,0.5
			c-1.9,5.5-4.4,10.5-7.5,14.8c1.6,4,3.5,6.5,5.6,6.5c1.3,0,1.9-2.4,2.2-8.4c0.9,0.9,2.4,2,3.5,2.4c-0.8,8.1-2.2,10.3-5.9,10.3
			c-3.5,0-6.2-2.5-8.4-7.1c-2.7,2.8-5.6,5.3-9,7.2c-0.6-0.9-2-2.6-2.8-3.4c3.8-2.1,7.1-4.8,10-8.3c-1.7-5.4-2.8-12.1-3.5-19.4h-15.2
			v5.4h9l0.9-0.1l2.2,0.1c0,0.3,0,0.9-0.1,1.4c-0.2,10.6-0.4,14.6-1.5,15.9c-0.9,1.1-1.8,1.6-5.7,1.6c-0.9,0-1.7,0-2.7-0.1
			c-0.1-1.2-0.5-2.9-1.2-4c2,0.2,3.7,0.3,4.5,0.3c0.6,0,1-0.1,1.4-0.5c0.5-0.7,0.8-3.4,0.9-10.6h-8c-0.1,6.6-0.9,15.8-5.3,21.5
			c-0.7-0.8-2.5-2.2-3.4-2.8c4-5.5,4.4-13.3,4.4-19.4v-12.9h19.2c-0.2-2.6-0.3-5.2-0.3-7.7l5.5,0.3c0,0.4-0.3,0.7-1.1,0.8
			c0,2.2,0.1,4.4,0.2,6.6h9.6c-1.7-1.5-4.6-3.6-7.1-5l2.7-2.6c2.6,1.4,5.9,3.6,7.6,5.2l-2.4,2.4h4v4.1L522,599.7L522,599.7z"/>
		<path class="st1" d="M583,588.5c2.9,6,8.9,12.9,13.9,16.6c-1.1,0.9-2.8,2.7-3.6,3.9c-1.3-1.1-2.6-2.4-3.9-3.8
			c0,0.3-0.1,0.9-0.1,1.4c-0.6,14.5-1.2,19.9-2.8,21.7c-1,1.3-2.2,1.7-3.9,1.9c-0.7,0.1-1.7,0.2-2.8,0.2c-1.3,0-2.8-0.1-4.3-0.2
			c-0.1-1.3-0.6-3.2-1.4-4.4c2.8,0.3,5.5,0.3,6.5,0.3c0.9,0,1.5-0.2,2-0.6c1.1-1.1,1.7-5.5,2.2-16.4h-10.8c-1.3,8.5-3.7,17-16,21.6
			c-0.5-1.1-1.8-2.9-2.8-3.9c10.8-3.5,13.2-10.3,14.2-17.7h-8.7v-3.6c-1.4,1.4-2.8,2.7-4.4,3.9c-0.8-0.9-2.4-2.5-3.4-3.3
			c5.5-3.7,10.8-10.4,13.6-17.5l5.4,1.8c-0.2,0.3-0.6,0.6-1.3,0.5c-2.3,5.2-5.7,10.2-9.5,14.1h24.9l1-0.1l2.5,0.3
			c-4-4.3-7.8-9.7-10.5-15L583,588.5z"/>
	</g>
	<g>
		<path class="st1" d="M308.9,678.7c-0.2,0.3-0.4,0.5-0.8,0.6c-3.8,17.2-12.4,27.3-27.3,32.8c-0.7-1.1-2.2-2.8-3.1-3.7
			c13.9-4.6,22-14.5,24.7-26.8h-28.6v-4.3h30.3l0.9-0.5L308.9,678.7z"/>
		<path class="st1" d="M362.6,687.5c-0.2,0.3-0.4,0.4-0.8,0.6c-4,13.9-11.2,20.6-24.9,24.4c-0.5-1.1-1.8-2.7-2.8-3.6
			c11.9-2.9,19.5-9.3,22-18.5h-28.8v-4.2h30.8l0.5-0.3L362.6,687.5z M357.8,678.7h-26v-4.2h26V678.7z"/>
		<path class="st1" d="M381.4,689.7h38v4.6h-36.2c-0.3,0.4-0.9,0.8-1.5,0.9L381.4,689.7z"/>
		<path class="st1" d="M447.6,705.9c10.7-3.1,19.5-8.8,24.7-17.8c0.9,1,2.4,2.5,3.4,3.3c-6,10-16.4,16.4-30,20
			c-0.1,0.4-0.4,0.9-0.9,1l-2.6-4.3l0.6-0.9v-33l6.1,0.3c-0.1,0.5-0.4,0.9-1.4,1L447.6,705.9L447.6,705.9z"/>
		<path class="st1" d="M495.9,676c4.6,1.4,10.2,3.9,13.4,6l-2.4,4.1c-3.3-2.3-8.7-4.7-13.3-6.3L495.9,676z M495,707.2
			c15.8-4.8,26.4-13.9,31.8-26.4c1.3,1,2.8,1.9,4.2,2.7c-5.7,12.5-16.7,22.2-31.9,27.5c-0.1,0.4-0.3,0.9-0.7,1.1L495,707.2z"/>
	</g>
</g>
<g>
	<path d="M184.2,198.9c4.5,1.6,4.5,1.6,4.5,2.1c0,0.3-0.4,0.5-1.4,0.5c0,0-0.2,0-0.3,0c-2.9,2.1-2.9,2.1-3.9,2.6h5.3
		c1-1,1.4-1.4,2.4-2.4c1.5,1.1,2,1.5,3.4,2.7c0.1,0.1,0.2,0.2,0.2,0.3s-0.2,0.2-0.3,0.2h-12.7v3.1h5.3c1-1,1.3-1.4,2.2-2.3
		c1.5,1,1.9,1.4,3.2,2.5c0.2,0.1,0.2,0.3,0.2,0.3c0,0.2-0.2,0.2-0.4,0.2h-10.5v3.3h7.9c1.1-1.1,1.5-1.5,2.5-2.5
		c1.5,1.1,2,1.5,3.4,2.8c0.2,0.1,0.2,0.2,0.2,0.3s-0.2,0.2-0.4,0.2h-13.2c1.5,1.5,2.5,2.2,4,2.9c2.8,1.3,5.9,2,10.2,2.2v0.5
		c-1.2,0.5-1.7,1.2-2.4,2.9c-0.2,0.6-0.3,0.6-0.5,0.6c-0.4,0-2.4-0.7-3.8-1.4c-3.3-1.6-5.5-3.7-7.9-7.3v3.4c0,1.6,0,2.9,0.1,6
		c0,0.7-0.4,0.9-2.6,0.9c-1.1,0-1.3-0.1-1.3-0.7c0.1-1.9,0.2-5.2,0.2-6v-2.1c-2.6,2.5-4.3,3.6-6.7,4.9c-2.1,1-3.7,1.6-7.1,2.6
		l-0.2-0.4c2.9-1.5,5.3-3,7.6-5.2c1.4-1.3,2.2-2.2,3.6-3.9h-7.5c-0.8,0-1.6,0.1-2.5,0.3l-0.2-1.3c1.1,0.3,1.7,0.3,2.7,0.3h10.3v-3.3
		h-7.1c-0.9,0-1.7,0.1-2.7,0.2l-0.2-1.2c1,0.2,1.8,0.3,2.9,0.3h7.1V205h-9.2c-0.9,0-1.4,0-2.3,0.2l-0.2-1.2c0.9,0.3,1.6,0.3,2.5,0.3
		h5.9c-0.3-0.3-0.3-0.4-0.5-1c-0.4-1.7-0.8-2.6-1.7-3.8l0.3-0.3h-5.7c-1,0-1.8,0.1-2.4,0.2l-0.2-1.2c0.9,0.3,1.8,0.3,2.7,0.3h8.2
		v-3.3c0-1.5,0-2.1-0.2-3.4c3.8,0.3,4.1,0.3,4.5,0.4c0.3,0.1,0.3,0.2,0.3,0.3c0,0.3-0.3,0.5-1.3,0.8v5.1h2.6v-3.3
		c0-1.3,0-1.9-0.1-3.3c4.3,0.3,4.8,0.3,4.8,0.9c0,0.3-0.3,0.4-1.3,0.8v5h1.4c1.3-2.4,2.3-4.6,2.8-6.3c3.6,1.4,4.7,1.8,4.7,2.2
		c0,0.3-0.4,0.4-1.4,0.4c0,0-0.2,0-0.3,0c-2.8,2.5-2.9,2.6-4.5,3.6h3.4c1-1,1-1,2.3-2.5c1.5,1.1,2,1.5,3.4,2.8
		c0.1,0.1,0.2,0.2,0.2,0.3s-0.2,0.2-0.4,0.2h-12V198.9z M167.8,192.1c4,1.3,5.3,2.2,5.3,3.6c0,1.1-1.1,2.4-2.2,2.4
		c-0.6,0-0.9-0.4-1.1-1.4c-0.3-1.5-0.9-2.7-2.3-4.4L167.8,192.1z M172.6,198.9c3.4,1.2,4.7,2.1,4.7,3.2c0,0.8-0.4,1.5-1.2,1.9h5.4
		c1.1-1.9,1.7-3.2,2.2-5.1H172.6z"/>
	<path d="M206.1,205.5v0.9c0,0.3-0.1,0.5-0.3,0.6c-0.3,0.2-1.2,0.3-2.2,0.3c-1,0-1.4-0.2-1.4-0.8c0.1-2.7,0.2-3.9,0.2-6.9
		c0-3.8,0-5.3-0.2-7.9c1.9,0.9,2.5,1.1,4.4,2.1h15.5c0.9-0.9,1.1-1.1,2-2c1.2,0.9,1.6,1.2,2.9,2.1c0.3,0.3,0.3,0.3,0.3,0.6
		c0,0.3-0.3,0.5-1.2,0.9c0,1.2,0,2.1,0,2.7c0,3.1,0,5.7,0.2,8.2c0,0.3-0.1,0.5-0.2,0.6c-0.3,0.3-1.3,0.4-2.4,0.4
		c-0.9,0-1.1-0.2-1.2-0.7v-1h-6.4c0.9,1.1,2,1.9,3.7,2.8c2.8,1.4,6.3,2.2,11,2.5v0.3c-1.3,0.5-2.1,1.4-2.5,2.9
		c-0.2,0.5-0.3,0.6-0.5,0.6c-1,0-4.2-1.4-6.4-2.8c-0.2,0.1-0.3,0.1-0.5,0.2v3.1c0,0.3,0,2.8,0.2,7.2c0,0.8-0.5,1-2.5,1
		c-1.2,0-1.5-0.1-1.5-0.7c0.1-4,0.1-4.7,0.1-5.5c0-5.3,0-5.7-0.1-6.9c1.2,0.2,1.9,0.2,2.6,0.3c-1.5-1.2-2.2-1.9-3.2-3.4
		c-0.6-0.9-0.8-1.2-1-1.7h-1.6c-1.6,2.3-2.4,3.1-4.6,4.6c2.8,0.4,3.1,0.5,3.1,0.9c0,0.3-0.3,0.5-1.2,0.8c-0.2,2.9-0.4,4.1-1.1,5.7
		c-0.9,2.2-3.1,4-5.7,5c-1.6,0.6-2.8,0.9-5.5,1.3l-0.2-0.4c3.7-1.5,5.2-2.4,6.5-4.2c1.4-1.7,2-4,2-7.2c0-0.1,0-0.2,0-0.3
		c-2.8,1.7-5.1,2.6-9.3,3.4l-0.2-0.4c3.7-1.6,5.8-2.9,7.9-4.8c1.6-1.4,2.5-2.5,3.6-4.3L206.1,205.5L206.1,205.5z M212.2,199.1v-4.6
		H206v4.6H212.2z M212.2,199.9H206v4.8h6.2V199.9z M222.4,194.5h-6.5v4.6h6.5V194.5z M215.9,199.9v4.8h6.5v-4.8H215.9z"/>
	<path d="M241,207.5c0.9,0.3,1.2,0.4,1.8,0.7c1.3-1.9,2.3-3.9,2.8-5.2c3.1,1.2,3.9,1.6,3.9,2c0,0.2-0.1,0.3-0.2,0.3
		c0,0-0.4,0.1-1.3,0.3c-1.8,1.3-2.9,2.1-4.3,2.9c2.5,1.1,3.3,1.9,3.3,3.1c0,1.2-1,2.6-2.1,2.6c-0.3,0-0.5-0.2-0.8-0.5
		c-0.1-0.2-0.2-0.4-0.8-1.9c-0.7-1.5-1.5-2.8-2.4-3.7v5.6c0,0.6,0,1.5,0,2.8c0,2.2,0,3.3,0.1,5.9c0,0.4-0.2,0.6-0.4,0.7
		c-0.4,0.1-1.4,0.2-2.2,0.2c-0.9,0-1.2-0.2-1.2-0.7c0.1-1.7,0.2-6.8,0.2-9v-4c-1.5,1.4-2.4,2-5.2,3.7l-0.3-0.3
		c4-4.1,6.7-8.3,9.4-13.9h-6.1c-0.6,0-1.2,0.1-2.2,0.3l-0.3-1.3c0.9,0.2,1.8,0.3,2.4,0.3h2.2v-3.6c-0.1-1.6-0.2-2.8-0.2-3.1
		c4.2,0.3,4.3,0.4,4.8,0.6c0.2,0.1,0.3,0.3,0.3,0.3c0,0.3-0.3,0.5-1.3,0.9v4.8h0.9c0.8-0.9,1-1,1.8-1.9c1.3,0.9,1.7,1.3,2.9,2.3
		c0.3,0.3,0.3,0.3,0.3,0.5c0,0.3-0.2,0.3-1.7,0.8c-2.1,3.3-2.6,4-4.2,5.9L241,207.5L241,207.5z M255.2,196.2
		c-0.2,5.9-0.7,9.1-1.8,12.9c-1.4,4.6-3.4,7.9-6.5,10.7c-1.4,1.2-2.4,2-4.6,3.4l-0.2-0.3c2.7-2.8,4.1-4.9,5.7-7.9
		c2.1-4.4,3.3-9.7,3.4-16.1c0-0.3,0-1.2,0-2.6h-2.4c-0.8,0-1.7,0.1-2.5,0.3l-0.3-1.2c1.2,0.3,1.7,0.3,2.8,0.3h10.6
		c0.9-0.9,1.1-1.2,2-2.1c1.4,0.9,1.8,1.2,3.1,2.2c0.3,0.3,0.3,0.3,0.3,0.5c0,0.3-0.3,0.6-1.3,1c-0.2,7.9-0.3,11.5-0.7,15.6
		c-0.5,5.2-0.9,6.9-2.1,8.3c-0.8,0.9-1.6,1.3-3.4,1.5c-0.5,0.1-1.1,0.2-1.4,0.2c-0.4,0-0.5-0.1-0.5-0.6c-0.1-0.9-0.4-1.6-1-2
		c-0.6-0.3-0.7-0.3-3.9-1.4v-0.4c2,0.3,4.8,0.4,5.9,0.4c1,0,1.5-0.4,1.7-1.5c0.6-2.3,1-6.3,1.4-12.8c0.2-2.9,0.2-4.8,0.2-8.3
		L255.2,196.2L255.2,196.2z"/>
	<path d="M281.1,220.5c3.7-1.1,6.3-2.7,8.3-4.9c2.3-2.5,3.4-5.5,3.4-9c0-5.9-3.6-9.4-9.5-9.4c-0.4,0-0.7,0-1.4,0.1
		c1.2,1.4,1.5,2.3,1.5,3.7c0,2.8-1.7,7.6-4.2,11.7c-2.2,3.7-4.2,5.6-5.9,5.6c-0.8,0-1.5-0.4-1.9-1c-0.3-0.5-0.5-1-0.8-2.2
		c-0.2-0.9-0.5-1.3-1.5-2.6c-0.9-1-1.4-2.6-1.4-4c0-2.2,1.1-4.8,2.9-6.9c2.9-3.5,7.8-5.7,13-5.7c7.7,0,13.2,4.8,13.2,11.7
		c0,5-2.8,9-7.7,11.3c-2.2,1-4.3,1.5-7.9,2.1L281.1,220.5z M274.7,200.9c-2.4,2.4-3.7,5.3-3.7,8.2c0,2.4,1.2,4.8,2.3,4.8
		c1.1,0,3.4-2.8,5.7-7.1c1.7-3.3,2.8-6.1,2.8-7.6c0-0.3,0-0.9-0.2-1.1c-0.1-0.3-0.3-0.8-0.3-0.8C278.6,198,276.7,198.9,274.7,200.9z
		"/>
	<path d="M299.8,209.5c2.2-2.9,3.6-5.5,5.3-9c1.9-4.2,2.8-6.7,3.1-9.1c1.1,0.3,2,0.5,2.6,0.7c2.2,0.5,2.9,0.9,2.9,1.2
		c0,0.3-0.3,0.5-1.5,0.7c-1.4,3.2-2.6,5.3-4.6,8.1c2.3,0.3,2.7,0.5,2.7,0.9c0,0.3-0.3,0.5-1.3,0.9v9.6c0,4.4,0,4.4,0,8.7
		c0,0.3-0.1,0.6-0.2,0.7c-0.3,0.3-1.1,0.4-2.2,0.4c-1.4,0-1.5-0.2-1.5-0.9c0.2-2.3,0.3-6.8,0.3-8.9v-8.3c-1.9,2.2-2.8,2.9-5.1,4.6
		L299.8,209.5z M319.1,207.1c1.8-1.7,2.9-3.1,4.5-5c1.7-2.2,2.5-3.4,3.3-5.3c3.8,2.2,4.9,3.1,4.9,3.4c0,0.3-0.3,0.4-0.9,0.4
		c-0.3,0-0.7,0-1,0c-3.7,3.4-6.4,5.2-10.8,7.5v10.2c0,0.5,0,0.7,0.3,0.8c0.3,0.2,1.5,0.2,4,0.2c1.5,0,3.1-0.2,3.4-0.3
		c0.7-0.3,1.1-1.3,3.6-8.6h0.3l-0.4,6.9c0,0.2,0,0.3,0,0.4c0,0.3,0.2,0.5,0.5,0.7c0.9,0.3,0.9,0.3,1.1,0.6c0.2,0.3,0.3,0.6,0.3,1
		c0,2.1-1.8,2.5-9,2.5c-4.8,0-6-0.2-7-0.8c-0.7-0.4-0.9-1.1-1-2.6c0-1.4,0-2.2,0-3.1c0-0.5,0-0.5,0-5.2v-15.3c0-1.3,0-2.1-0.2-3.5
		c1.1,0.1,2,0.2,2.6,0.3c2.3,0.2,2.8,0.3,2.8,0.8c0,0.3-0.3,0.5-1.5,0.9L319.1,207.1L319.1,207.1z"/>
	<path d="M359.7,211.3c1.6-1.8,1.6-1.8,2.8-3.1c1.7,1.4,2.2,1.7,4,3.1c0.2,0.2,0.2,0.3,0.2,0.3c0,0.2-0.2,0.3-0.5,0.3h-13.6v3.9v4.4
		c0,1.4-0.3,2-1.3,2.6c-0.8,0.4-2.5,0.9-3.7,0.9c-0.4,0-0.5-0.1-0.6-0.7c-0.1-0.7-0.4-1.4-0.9-1.8c-0.7-0.5-1.2-0.7-4.7-1.5v-0.4
		c4.8,0.3,4.8,0.3,6.8,0.3h0.1c0.3,0,0.5-0.2,0.5-0.5v-7.1h-10.8c-1,0-1.8,0.1-2.8,0.2l-0.2-1.2c1,0.2,1.8,0.3,2.9,0.3h10.8v-0.5
		c0-1.8,0-2.2-0.2-3.4c1.7,0.2,1.7,0.2,3.6,0.5c1.2-1.2,1.9-2,3.2-3.8h-11.6c-0.9,0-1.6,0.1-2.5,0.2l-0.2-1.2c1,0.2,1.7,0.3,2.7,0.3
		h11.8c0.8-0.9,1-1,1.8-1.9c1.4,0.9,1.8,1.2,2.6,1.9c0.5-1.3,0.7-2,1-3.4h-21.3c0,0.2,0,0.3,0,0.3c0,1.4-0.3,3-0.5,3.8
		c-0.5,1.2-1.4,2.1-2.4,2.1c-1,0-1.8-1.2-1.8-2.6c0-0.5,0.2-0.9,0.5-1.2c0.1-0.1,0.1-0.1,0.9-0.5c1.6-0.9,2.3-2.2,2.6-4.8h0.4
		c0.2,1.2,0.3,1.5,0.3,2.3h14.8c1.6-2.8,2.4-4.6,3.1-7.2c2.4,0.8,4.4,1.4,5,1.7c0.3,0.2,0.4,0.3,0.4,0.5c0,0.3-0.5,0.5-1.4,0.5
		c0,0-0.2,0-0.3,0c-2.3,2.2-3.4,3.1-5.5,4.5h4.8c0.9-0.9,1.2-1.2,2.2-2.1c1.5,1.1,2.1,1.5,3.5,2.7c0.3,0.3,0.5,0.5,0.5,0.7
		c0,0.4-0.6,0.6-2.2,0.6c-0.9,0.7-0.9,0.7-3.4,2.2c-0.2,0.1-0.3,0.2-0.7,0.4l0.4,0.3c0.3,0.3,0.5,0.5,0.5,0.7c0,0.3-0.4,0.5-1.3,0.5
		c-0.1,0-0.3,0-0.5,0c-2.7,1.4-4,1.9-6.1,2.8c0.3,0.1,0.4,0.3,0.4,0.4c0,0.3-0.3,0.5-1.3,0.9v2h7.2V211.3z M340.1,192.3
		c4.1,1.5,5.7,2.7,5.7,4c0,1.3-1.1,2.8-2.2,2.8c-0.5,0-0.9-0.3-1.2-1.4c-0.8-2.7-1.2-3.4-2.5-5.1L340.1,192.3z M347.2,191.8
		c3.8,1.3,5.7,2.7,5.7,4c0,1.4-1.3,2.9-2.5,2.9c-0.6,0-0.8-0.3-1.2-1.7c-0.6-2.2-1-3.3-2.3-4.9L347.2,191.8z"/>
	<path d="M393.4,200.2c1.5,0.9,1.9,1.3,3.3,2.3c0.3,0.3,0.5,0.5,0.5,0.8c0,0.3-0.5,0.6-1.8,0.9c-1.9,4.6-3.6,7.3-6.2,10.2
		c3.4,2.2,6.9,3.4,12.2,4v0.3c-1.3,0.5-2,1.1-2.6,2.4c-0.3,0.4-0.3,0.6-0.5,1.2c-0.1,0.3-0.2,0.3-0.4,0.3c-0.3,0-0.8-0.2-1.7-0.5
		c-3.3-1.3-6.5-3.4-9-5.9c-2.3,2.1-4.8,3.5-7.7,4.8c-2,0.9-3.6,1.4-6.9,2.2l-0.2-0.4c3.6-1.5,5.6-2.8,8.1-4.6
		c1.9-1.4,3.4-2.8,4.6-4.1c-2.4-3.2-4.3-7.1-5.1-10.9h-2.5c-0.2,6.2-1.1,10.3-3,13.9c-1.3,2.4-2.8,4.3-5.2,6.3l-0.3-0.3
		c3.7-5.8,4.6-10.8,4.6-24.6c0-2.9,0-4-0.2-5.9c2.1,0.9,2.7,1.3,4.7,2.3h15.2c1.2-1.4,1.5-1.7,2.7-3c1.8,1.3,2.3,1.7,4,3.2
		c0.2,0.2,0.3,0.3,0.3,0.3c0,0.2-0.2,0.3-0.4,0.3h-22.2c0,1.9,0,1.9-0.2,6.9h13.7L393.4,200.2z M380.6,203.2
		c1.3,3.7,3.1,6.5,5.9,9.1c2.2-2.9,3.6-5.6,4.8-9.1H380.6z"/>
	<path d="M428.7,196.7c1.2-1.4,1.5-1.8,2.7-3c1.9,1.4,2.4,1.7,4.1,3.2c0.2,0.2,0.2,0.3,0.2,0.3c0,0.2-0.2,0.3-0.4,0.3h-25.1
		c-0.1,9-0.3,12.5-1.3,16.1c-1,3.8-2.8,6.9-5.5,9.5l-0.3-0.2c2.4-5.2,3.2-11.1,3.2-22.5c0-3.2,0-4-0.2-5.9c2.1,0.9,2.7,1.3,4.5,2.3
		h7.7V194c0-0.9,0-1.4-0.2-2.4c4.1,0.3,4.6,0.4,5,0.6c0.3,0.1,0.4,0.3,0.4,0.4c0,0.3-0.3,0.5-1.4,0.9v3.3L428.7,196.7L428.7,196.7z
		 M413.3,206.9c0.5,2.2,0.6,3.4,0.6,5.2c0,4-1,6.4-2.7,6.4c-1,0-2-1.4-2-2.8c0-0.6,0.2-0.9,0.9-1.5c1.6-1.5,2.5-3.9,2.8-7.1
		L413.3,206.9z M416.4,206.3c0-1.8,0-2.5-0.2-3.9c4.6,0.3,5.3,0.5,5.3,1c0,0.3-0.3,0.5-1.4,0.9v13.8c0,1,0,1,2.8,1
		c2,0,2.3-0.1,2.7-0.5c0.3-0.6,1-2.5,2.2-6.6h0.3v5.2c0,1.2,0,1.2,0.2,1.4c0.2,0.2,0.2,0.2,0.9,0.3c0.6,0.2,1,0.8,1,1.5
		c0,0.7-0.3,1.3-1,1.6c-0.7,0.3-2.3,0.5-5.3,0.5c-2.8,0-4.6-0.1-5.4-0.2c-0.7-0.1-1.3-0.4-1.5-0.9c-0.3-0.3-0.3-0.9-0.4-1.5
		c0-1.5,0-1.5,0-4.8v-8.8H416.4z M419.9,198.9c5.9,1.8,7.4,2.8,7.4,4.6c0,1.5-1,3.1-2.1,3.1c-0.3,0-0.5-0.2-0.9-0.9
		c-1.3-2.7-2.6-4.5-4.7-6.5L419.9,198.9z M428.7,206.9c5.1,3.8,6.7,5.6,6.7,7.6c0,1.6-1.4,3.5-2.6,3.5c-0.3,0-0.5-0.2-0.7-0.3
		c-0.2-0.2-0.2-0.3-0.5-1.6c-1-4.6-1.6-6.1-3.3-8.8L428.7,206.9z"/>
	<path d="M445,194c-1.9,0.9-2.9,2.1-2.9,3.2c0,0.3,0.1,0.5,0.3,0.7s0.2,0.2,1,0.3c1.2,0.3,1.9,1.2,1.9,2.4c0,1.5-1.2,2.8-2.9,2.8
		c-1.9,0-3.1-1.5-3.1-3.5c0-2.9,2-5.5,5.1-6.7L445,194z M452.7,194c-1.9,0.9-2.9,2.1-2.9,3.2c0,0.3,0.1,0.5,0.3,0.7
		c0.2,0.2,0.2,0.2,1,0.3c1.2,0.3,1.9,1.2,1.9,2.4c0,1.5-1.2,2.8-2.9,2.8c-1.8,0-3.1-1.5-3.1-3.5c0-2.9,2-5.5,5.1-6.7L452.7,194z"/>
	<path d="M455.5,211.4c0.9,0.1,1.7,0.2,2.1,0.2c0.5,0,0.7-0.2,1.2-1.2c2.1-4.6,3.3-7.4,4.8-11.4l0.3,0.2l-3.1,11.6
		c-0.3,0.9-0.3,1.5-0.3,1.9c0,0.5,0.2,1,0.5,2c0.9,1.9,1,2.6,1,3.5c0,0.9-0.3,1.7-1.2,2.4c-0.7,0.6-1.4,0.9-2.1,0.9
		s-1.2-0.4-1.2-1.1c0-0.3,0-0.6,0.3-2.9c0.1-0.8,0.2-1.5,0.2-2.3c0-2.3-0.3-2.8-2.5-3.4L455.5,211.4z M456.7,193.6
		c4,1.4,5.9,2.9,5.9,4.6c0,1.4-1.3,2.9-2.4,2.9c-0.6,0-0.9-0.4-1.2-1.7c-0.7-2.8-1.2-3.9-2.5-5.5L456.7,193.6z M470.3,207.9
		c-0.1,2.4-0.2,2.9-0.3,4.3h0.6c0.7-0.8,0.9-1,1.5-1.8c0.9,0.9,1.2,1.2,2.1,2.2c0.1,0.1,0.1,0.2,0.1,0.3c0,0.1-0.2,0.2-0.3,0.2h-4.1
		c-0.2,0.7-0.2,1-0.4,1.6c2.2,0.8,3.4,1.7,3.4,2.8c0,1-1,2.3-1.8,2.3c-0.4,0-0.6-0.3-0.7-1.5c-0.1-1.2-0.4-2.2-1-3.2
		c-0.6,1.6-1.3,2.9-2.4,4.1c-1.5,1.6-2.9,2.6-5.8,4l-0.2-0.3c3.4-2.9,5.2-5.7,5.9-9.9h-2.9c-0.9,0-1.1,0-1.7,0.2l-0.2-1.2
		c0.7,0.2,1.2,0.3,2,0.3h3c0.2-1.7,0.2-1.8,0.3-4.3h-0.7c-1.1,1.5-2.1,2.6-3.7,3.9l-0.3-0.2c1.2-2.7,2.1-5.7,2.3-7.9
		c4.1,0.9,4.3,0.9,4.3,1.3s-0.3,0.5-1.2,0.6c-0.3,0.7-0.5,0.9-0.9,1.5h3.3c0.7-0.9,0.9-1,1.6-1.9c1,0.9,1.3,1.2,2.2,2.2
		c0.1,0.1,0.2,0.2,0.2,0.3s-0.2,0.2-0.3,0.2L470.3,207.9L470.3,207.9z M467.9,197.1c2.2-1.8,3.2-2.8,4.1-4.3
		c2.6,1.6,3.4,2.3,3.4,2.6c0,0.2-0.3,0.3-0.5,0.3c-0.3,0-0.6,0-0.9-0.1c-2.6,1.2-3.9,1.6-6,2.2v1.9c0,0.7,0.1,0.7,1.9,0.7
		c1.7,0,2,0,2.2-0.4c0.3-0.3,0.5-0.9,1.5-3.4l0.3,0.1v2.4c0,0.8,0,0.9,0.4,1c0.6,0.3,0.9,0.6,0.9,1.2c0,0.7-0.3,1.1-0.9,1.4
		c-0.6,0.3-1.7,0.3-4.1,0.3c-3.3,0-4.2-0.1-4.8-0.3c-0.5-0.3-0.7-0.7-0.7-1.5v-0.1c0-1.5,0-2.1,0-2.8v-3.1c0-1.6,0-2.2-0.1-3.4
		c3.7,0.4,4,0.5,4.3,0.6c0.3,0.1,0.3,0.3,0.3,0.4c0,0.3-0.3,0.5-1.4,0.9L467.9,197.1L467.9,197.1z M489.1,218.7
		c-0.7,0.4-0.9,0.7-1.2,1.1c-0.3,0.5-0.5,1.1-0.5,1.7c0,0.9-0.1,0.9-0.8,0.9c-3.2,0-6-1-7.7-3c-0.9-0.9-1.6-2.2-2.3-4.1
		c-0.6,1.7-1.2,2.9-2.2,4.1c-1.2,1.5-2.3,2.4-4.4,3.6l-0.3-0.3c2.1-2.2,2.9-3.6,3.8-6.2c0.8-2.3,1.3-5.8,1.3-8.4
		c0-0.5,0-0.8-0.1-1.5c0.9,0.2,1.7,0.3,2.2,0.3c1.7,0.3,2.2,0.3,2.2,0.7c0,0.3-0.3,0.5-1.1,0.7c-0.3,2.9-0.5,4.1-0.9,5.9
		c0.9,1.5,1.2,1.9,2.2,2.7v-12.9h-2.5c-0.6,0-1.1,0.1-1.8,0.2l-0.2-1.1c0.7,0.2,1.3,0.2,2,0.2h7.5c0.8-0.9,1-1.1,1.8-1.9
		c1.2,0.9,1.5,1.3,2.8,2.3c0.3,0.3,0.3,0.4,0.3,0.6c0,0.3-0.3,0.5-1.5,0.7c-1.6,1.6-2.2,2.2-4,3.4l-0.3-0.2c0.7-1.7,0.9-2.4,1.4-4.2
		h-2.3v6.5h1.4l1.9-2.3c1.2,1,1.5,1.4,2.6,2.6c0.2,0.2,0.2,0.2,0.2,0.3c0,0.2-0.2,0.2-0.3,0.2h-5.7v6.8c1,0.2,1.9,0.3,3,0.3
		c1,0,1.8,0,3.9-0.2v0.5H489.1z M482.8,194c0.9-0.9,1.1-1,1.9-1.9c1.4,1,1.8,1.4,3.2,2.6c0.3,0.3,0.3,0.4,0.3,0.6
		c0,0.3-0.4,0.5-1.7,0.6c-1.8,1.5-2.7,2.1-4.6,3.3c0.9,0.6,1.1,1,1.1,1.7c0,1.2-1,2.6-2.1,2.6c-0.3,0-0.5-0.2-0.7-0.4
		c-0.1-0.2-0.1-0.2-0.6-1.1c-0.9-2-1.8-3.2-3.4-4.5l0.2-0.3c2.1,0.5,3.2,0.9,4.4,1.5c0.9-1.4,1.3-2.2,2-3.8h-5.4
		c-0.7,0-1.2,0-1.8,0.2l-0.2-1.2c0.9,0.2,1.4,0.3,2.1,0.3h5.3V194z"/>
	<path d="M515.9,213.1c1-1.2,1.4-1.5,2.5-2.6c1.7,1.3,2.2,1.7,4,3c0.1,0.1,0.2,0.2,0.2,0.2c0,0.1-0.2,0.2-0.4,0.2H509
		c2,1.6,3.4,2.4,5.9,3.3c2.5,0.9,5.3,1.3,8.5,1.3v0.4c-1.5,0.8-2.1,1.5-2.4,3.3c-0.1,0.3-0.2,0.4-0.5,0.4c-0.5,0-2.4-0.6-3.6-1.2
		c-1.9-0.9-3.9-2.2-5.3-3.5c-1-0.9-1.7-1.8-3.1-3.6v5.8l0.1,1.8c0,0.3,0,0.6,0,1.1c0,0.3-0.1,0.4-0.3,0.5c-0.3,0.2-1.7,0.3-2.8,0.3
		c-0.6,0-0.8-0.2-0.8-0.6c0.1-1.5,0.1-3.4,0.1-4.8v-1.9c-2.6,2.1-4.2,3.1-6.9,4.2c-2.2,0.9-4,1.5-7.3,2.2l-0.1-0.3
		c3.8-1.6,5.7-2.8,8.5-5c1.6-1.3,2.1-1.7,3.5-3.4h-7.7c-1.2,0-2.2,0-3.1,0.2l-0.3-1.2c1.2,0.2,2.6,0.3,3.7,0.3h9.6
		c0-0.3,0-0.7,0-0.9c0-1,0-1.4-0.2-2.2c1,0.1,1.8,0.2,2.2,0.2c2.1,0.2,2.8,0.3,2.8,0.8c0,0.3-0.2,0.3-1.2,0.8v1.4h7.6V213.1z
		 M513.8,200.4c0.9-1,1.1-1.3,2.1-2.2c1.5,1.1,1.9,1.5,3.3,2.7c0.1,0.1,0.1,0.2,0.1,0.2c0,0.1-0.1,0.2-0.3,0.2h-9.8v3.3h4.6
		c0.9-1,1.1-1.3,2.1-2.2c1.5,1.1,2,1.5,3.4,2.7c0.1,0.1,0.2,0.2,0.2,0.2c0,0.1-0.1,0.2-0.3,0.2h-9.9v3.6h5.5c1-1.1,1.4-1.4,2.4-2.5
		c1.7,1.2,2.2,1.6,3.8,2.8c0.1,0.1,0.1,0.2,0.1,0.2c0,0.1-0.1,0.2-0.3,0.2h-21.7v0.9c0,0.3-0.2,0.5-0.3,0.6
		c-0.3,0.2-1.6,0.3-2.6,0.3c-0.6,0-0.8-0.2-0.9-0.6c0-0.4,0.1-2.2,0.2-5.1v-5c-1.6,1.4-2.4,2-4.6,3.3l-0.3-0.3
		c2.2-2.4,3.4-4,4.8-6.5c1-1.9,1.6-3.2,2.4-5.3c1,0.3,1.9,0.5,2.4,0.6c2.5,0.6,2.9,0.8,2.9,1.1c0,0.1-0.1,0.2-0.2,0.3
		c-0.1,0.1-0.7,0.3-1.7,0.4c-0.9,1.3-1.3,1.7-2,2.5h6.5c0.9-1.9,1.4-3.1,1.8-4.8c5.1,1.2,5.3,1.3,5.3,1.7c0,0.3-0.3,0.5-1.8,0.7
		c-0.7,0.5-0.7,0.5-2.4,1.7c-0.3,0.2-0.4,0.3-1.1,0.7h6.7c1-1.1,1.4-1.5,2.4-2.7c1.7,1.2,2.2,1.6,3.8,3c0.1,0.1,0.2,0.2,0.2,0.2
		c0,0.1-0.2,0.2-0.3,0.2h-11.4v3.2h4.9V200.4z M505.4,197.2H499v3.2h6.5V197.2z M505.4,201.2H499v3.3h6.5V201.2z M505.4,205.1H499
		v3.6h6.5V205.1z"/>
	<path d="M538.7,198.2c-0.3,0.1-0.3,0.1-0.7,0.1c-2.6,2.8-6.3,6.5-7.7,7.6c2.5-0.1,3.4-0.2,5.2-0.3c-0.3-1.1-0.6-1.5-1.4-2.8
		l0.3-0.2c3.4,2.1,4.6,3.2,4.6,4.6c0,1.3-1.1,2.8-2.1,2.8c-0.6,0-0.8-0.3-0.9-1.9c-0.1-0.5-0.2-0.8-0.3-1.3
		c-1.1,0.4-1.2,0.4-1.9,0.6v7.4c0,3.3,0,4,0.1,7.7c0,0.3-0.1,0.5-0.2,0.6c-0.3,0.2-1,0.3-2.2,0.3c-1.1,0-1.3-0.1-1.3-0.7
		c0.1-1.8,0.2-6.9,0.2-7.6v-2.8c-0.3,0.1-0.3,0.1-0.7,0.2c-1.5,4.6-2.4,6.7-4.6,9.8l-0.3-0.2c1.2-4.3,1.8-8.1,1.9-11.6
		c2.1,0.4,2.8,0.7,3.8,0.9v-3.2c-0.5,0.2-0.9,0.3-1.1,0.3c-1.3,0.3-1.4,0.3-2.5,0.6c-0.2,0.9-0.3,1.1-0.6,1.1c-0.3,0-0.3,0-1.1-4.4
		c0.9,0.1,1.4,0.1,1.7,0.1c0.3,0,1.2,0,1.8-0.1c1.1-1.4,1.7-2.2,2.8-4c2-3.2,2.8-4.6,3.4-6.3c3.5,1.5,4.2,1.8,4.3,2.2
		c0.3,0.1,0.9,0.1,1.4,0.1h4.1v-1.9c0-2.1,0-2.8-0.2-4.2c1.2,0.1,2,0.2,2.6,0.3c2.3,0.2,2.8,0.3,2.8,0.8c0,0.3-0.3,0.6-1.5,0.9v4.2
		h2.8c1-1.3,1.4-1.7,2.4-2.9c1.6,1.3,2.1,1.7,3.5,3.1c0.1,0.1,0.2,0.2,0.2,0.3s-0.2,0.2-0.3,0.2h-8.5v6.5h2.4c1-1.2,1.4-1.6,2.4-2.8
		c1.5,1.3,2,1.6,3.4,3c0.1,0.1,0.2,0.2,0.2,0.3c0,0.1-0.2,0.2-0.4,0.2h-14.6c-0.9,0-1.4,0.1-2.3,0.3l-0.3-1.2
		c0.9,0.2,1.7,0.3,2.6,0.3h3v-6.5h-4.3c-0.9,0-1.1,0-1.8,0.2L538.7,198.2z M525.8,196.1c1.3,0.5,1.7,0.7,2.7,1.3
		c1.1-2.4,1.6-4,2.1-6c4.9,1.5,5,1.6,5,2.1c0,0.4-0.3,0.5-1.6,0.6c-1.9,1.8-2.8,2.5-4.6,4c1.5,1.1,2,1.6,2,2.6
		c0,1.2-1.1,2.7-2.2,2.7c-0.2,0-0.3-0.1-0.4-0.3c-0.2-0.2-0.2-0.2-0.6-1.7c-0.6-1.9-1.4-3.2-2.7-4.8L525.8,196.1z M534.5,210.2
		c2.8,2.3,4.1,4.1,4.1,5.7c0,1.4-1,2.9-2,2.9c-0.5,0-0.7-0.3-0.8-1.5c-0.2-2.8-0.6-4.5-1.5-6.7L534.5,210.2z M550.5,210.5
		c0.9-1,1.1-1.3,2.1-2.2c1.3,0.9,1.6,1.2,2.8,2.2c0.3,0.3,0.4,0.4,0.4,0.6c0,0.3-0.3,0.6-1.2,1c0,1,0,1.4,0,2.2c0,1.8,0,4.4,0.2,8
		c0,0.4,0,0.6-0.3,0.7c-0.3,0.3-1.2,0.3-2.5,0.3c-0.9,0-1.1-0.1-1.1-0.7v-1.7h-7.5v1.5c0,0.8-0.5,0.9-2.6,0.9c-1,0-1.3-0.2-1.3-0.7
		c0-1,0-2.1,0.1-2.6c0.1-3,0.1-3.4,0.1-4.7c0-3.3-0.1-5.4-0.2-7.1c1.9,1,2.5,1.3,4.3,2.4L550.5,210.5L550.5,210.5z M543.3,220.2h7.5
		v-9h-7.5V220.2z"/>
	<path d="M559.2,208.1c3.6-2.8,6.1-5.2,8.8-8.6c2.2-2.9,3.7-5.5,4.4-7.8c5.7,1.2,5.9,1.3,5.9,1.7c0,0.3-0.5,0.5-1.5,0.7
		c1.7,2.6,4,4.5,7.1,6.2c2.8,1.5,5.7,2.5,8.6,2.9v0.4c-1.5,0.5-2.2,1.4-3,3.8c-0.1,0.3-0.3,0.3-0.4,0.3c-0.3,0-1.4-0.6-2.8-1.5
		c-4.5-2.9-7-5.9-9.8-11.7c-2.6,4.1-4.6,6.4-8.1,9c-2.8,2.2-5,3.4-8.8,5L559.2,208.1z M568.7,222.2c0,0.5-0.2,0.8-0.5,0.9
		c-0.3,0.1-1.4,0.3-2.2,0.3c-0.9,0-1.3-0.2-1.3-0.9c0,0,0-0.2,0-0.3c0.1-2.6,0.2-5.3,0.2-8.3c0-3.3,0-4.5-0.2-5.9
		c2.1,0.9,2.6,1.2,4.6,2.2h12.4l2.1-2.2c1.4,0.9,1.7,1.2,3,2.2c0.3,0.3,0.4,0.4,0.4,0.6c0,0.3-0.3,0.5-1.3,0.9c0,4.5,0,6,0.2,10.3
		c0,0.1,0,0.2,0,0.2c0,0.3-0.2,0.6-0.5,0.7c-0.3,0.2-1.7,0.3-2.5,0.3c-0.9,0-1.1-0.2-1.1-0.8v-0.1v-1.4h-13.2L568.7,222.2
		L568.7,222.2z M567.7,204.3c0.9,0.2,1.7,0.3,2.3,0.3h6.6l2.4-2.8c1.7,1.2,2.2,1.6,3.8,2.9c0.2,0.2,0.2,0.3,0.2,0.3
		c0,0.2-0.2,0.2-0.4,0.2h-12.7c-0.7,0-1.1,0-1.9,0.2L567.7,204.3z M568.7,220.3h13.2v-9.5h-13.2V220.3z"/>
	<path d="M595.3,203.1c1.9-0.9,2.9-2.1,2.9-3.2c0-0.3-0.1-0.5-0.3-0.7c-0.2-0.2-0.2-0.2-1-0.3c-1.1-0.3-1.9-1.2-1.9-2.4
		c0-1.5,1.2-2.8,2.9-2.8c1.9,0,3.1,1.5,3.1,3.5c0,2.9-2,5.6-5.2,6.8L595.3,203.1z M603,203.1c1.9-0.9,2.9-2.1,2.9-3.2
		c0-0.3-0.1-0.5-0.3-0.7c-0.2-0.2-0.2-0.2-1-0.3c-1.1-0.3-1.9-1.2-1.9-2.4c0-1.5,1.2-2.8,2.9-2.8c1.9,0,3.1,1.4,3.1,3.5
		c0,2.9-2,5.6-5.2,6.8L603,203.1z"/>
</g>
<g>
	<path d="M257.8,434.9h7.8c1.2-1.5,1.5-1.9,2.8-3.3c1.9,1.5,2.5,1.9,4.3,3.5c0.1,0.2,0.2,0.2,0.2,0.3c0,0.2-0.2,0.2-0.3,0.2h-14.7
		v3.6c0,1.7,0.1,5.2,0.2,9.1c0,0.5-0.2,0.7-0.6,0.9c-0.3,0.1-1.5,0.3-2.5,0.3s-1.2-0.2-1.2-0.9c0.1-2.2,0.2-8.1,0.2-9.4v-3.6h-9.6
		c-1.3,0-2.6,0.1-3.6,0.2l-0.2-1.2c1.3,0.3,2,0.3,3.8,0.3h9.7v-14.5h-8.3c-1.3,0-2.2,0.1-3.3,0.2l-0.2-1.2c1.2,0.3,1.8,0.3,3.4,0.3
		h18.9c1.1-1.3,1.5-1.6,2.7-2.8c1.9,1.3,2.4,1.7,4.2,3.1c0.2,0.2,0.2,0.2,0.2,0.3c0,0.2-0.2,0.2-0.4,0.2h-13.3L257.8,434.9
		L257.8,434.9z M244.3,422.3c4.1,2.9,6.7,5.7,6.7,7.4c0,1.5-1.5,3.4-2.8,3.4c-0.5,0-0.8-0.3-0.9-1.4c-0.5-3.4-1.5-6.3-3.2-9.3
		L244.3,422.3z M259.7,433.7c1.2-2.2,2.1-4,3.4-7.5c0.7-1.7,0.9-2.8,1.2-4.1c5.2,2.1,5.4,2.2,5.4,2.6c0,0.4-0.4,0.5-1.6,0.6
		c-2.9,4.1-4.7,6-8.1,8.7L259.7,433.7z"/>
	<path d="M282.9,427.7c0.7-1,0.9-1.3,1.7-2.3c1.1,1,1.4,1.3,2.2,2.2c1.5-3.7,2.4-6.7,2.8-9.7c4.6,0.9,4.8,0.9,5.3,1.2
		c0.3,0.1,0.4,0.3,0.4,0.4c0,0.3-0.5,0.6-1.5,0.7c-1,2.2-1.5,3-2.2,4.5h9.6c0.9-1,1.2-1.4,2.1-2.3c1.4,0.9,1.7,1.2,2.9,2.1
		c0.3,0.3,0.4,0.4,0.4,0.7c0,0.3-0.3,0.6-1.2,1.1c-0.2,7.4-0.3,10.4-0.9,13.9c-0.7,5.2-1.5,7.2-3.3,8.3c-0.9,0.5-2.5,0.9-3.5,0.9
		c-0.5,0-0.5,0-0.7-1c-0.2-1.5-1.2-2.2-5.2-3.3l0.1-0.5c3.8,0.3,5.3,0.4,6.3,0.4c1.2,0,1.5-0.5,2.2-3.1c0.7-3.4,1.2-9.8,1.2-16.5
		h-10.3c-2,3.3-3.4,4.9-6.5,7.6l-0.3-0.3c1.1-1.7,1.5-2.6,2.2-4.2h-4.1v9.9c2-0.6,2.8-0.9,5-1.9l0.2,0.3c-2.5,2.1-6.2,4.6-10.2,7.1
		c0,1.2-0.2,1.7-0.6,1.7s-0.8-0.9-2.2-5.3c1.5-0.2,1.5-0.2,4-0.9v-11h-2.1c-0.5,0-1.2,0.1-1.7,0.2l-0.2-1.2c0.8,0.2,1.4,0.3,1.9,0.3
		h2.1v-4.1c0-2.2,0-3.2-0.3-5.3c1.1,0.2,2.1,0.2,2.6,0.3c2.2,0.2,2.8,0.3,2.8,0.7s-0.3,0.6-1.4,0.9v7.6L282.9,427.7L282.9,427.7z
		 M300.3,435.8c-3.7,2.6-6.5,4.1-10.9,6.2c-0.1,1.4-0.3,1.7-0.6,1.7c-0.3,0-0.3,0-2.2-5.2c3.3-0.3,7.4-1.3,13.6-3.3L300.3,435.8z
		 M293.5,431.1c1-1.2,1-1.2,2.1-2.4c1.4,1.1,1.7,1.5,3,2.6c0.1,0.2,0.2,0.3,0.2,0.3c0,0.1-0.2,0.2-0.3,0.2h-8.1
		c-0.7,0-1.3,0.1-1.9,0.2l-0.2-1.2c0.8,0.2,1.5,0.3,2.1,0.3L293.5,431.1L293.5,431.1z"/>
	<path d="M318.8,424.4c0.9-0.9,1-1.1,1.9-2c1.2,0.9,1.5,1,2.8,2c0.3,0.3,0.3,0.3,0.3,0.5c0,0.3-0.2,0.4-1.1,0.9v4.1
		c0,9.1,0,11.9,0.1,15c0,0.8-0.4,0.9-2.4,0.9c-1.1,0-1.3-0.1-1.3-0.6v-1.9h-4.7v2.6c0,0.9-0.3,0.9-2.4,0.9c-1.2,0-1.4-0.1-1.4-0.7
		c0.2-6.2,0.2-7.8,0.2-12c0-5.4-0.1-9.2-0.2-12c1.7,0.8,2.2,1,3.8,2.1h0.3c0.6-2.6,0.9-4.5,0.9-6.7c1,0.3,1.9,0.4,2.4,0.5
		c2.2,0.4,2.9,0.7,2.9,1.1c0,0.3-0.4,0.5-1.6,0.7c-1.7,2.5-2.3,3.3-3.4,4.5H318.8z M319.1,433v-7.7h-4.8v7.7H319.1z M314.3,433.7
		v9.1h4.8v-9.1H314.3z M336,424.4c0.9-1,1.3-1.3,2.2-2.2c1.3,0.9,1.6,1.2,2.8,2.2c0.3,0.3,0.4,0.5,0.4,0.7c0,0.3-0.3,0.5-1.3,0.9
		c-0.2,7.9-0.4,11-1,15.1c-0.7,5.2-1.6,6.9-4,7.5c-0.6,0.2-1.9,0.3-2.4,0.3c-0.3,0-0.5-0.2-0.5-0.6c-0.1-1.9-1.5-2.8-5.4-3.7
		l0.1-0.4c4.4,0.3,4.6,0.3,6.5,0.3c0.9,0,1-0.2,1.4-1.3c0.3-1.5,0.9-4.9,1-7.6c0.3-3.3,0.3-6.4,0.3-10.6h-7.2
		c-1.7,3.3-3.4,5.6-5.8,7.9l-0.3-0.2c2.2-4.3,4.1-10.8,4.2-15.2c4.6,0.9,5.6,1.3,5.6,1.7c0,0.3-0.3,0.5-1.6,0.8
		c-0.6,1.9-0.9,2.8-1.7,4.3L336,424.4L336,424.4z M327.1,429.5c4.3,2.4,6.3,4.4,6.3,6.3c0,1.5-1.2,3.2-2.4,3.2
		c-0.7,0-0.9-0.3-1.2-1.6c-0.5-2.8-1.3-4.8-2.9-7.6L327.1,429.5z"/>
	<path d="M349.1,419.1c1,0,2.6,0.4,3.8,1c1.5,0.8,2.2,1.5,2.2,2.2c0,0.3-0.1,0.5-0.3,0.9c-0.4,0.8-0.5,1-0.6,2.2
		c-0.1,0.7-0.2,2.9-0.2,4.7c3.1,0.2,6.3,0.9,8.3,1.7c1.7,0.8,2.5,1.8,2.5,3.4c0,1.5-0.6,2.4-1.5,2.4c-0.5,0-0.7-0.2-1.6-1.1
		c-2.2-2.4-4.8-4.3-7.7-5.3c0,0.4,0,2.2,0,5.4c0,2.9,0,2.9,0.1,7c0,0.6,0,1,0,1.6c0,1.1-0.1,1.7-0.2,2.1c-0.2,0.5-0.7,0.9-1.2,0.9
		c-0.6,0-1.2-0.3-1.9-1.2c-0.7-0.9-1.2-2.1-1.2-2.8c0-0.4,0-0.5,0.3-1.4c0.6-1.7,0.8-5.7,0.8-14.5c0-5-0.1-6.3-0.6-7.2
		c-0.3-0.7-1.2-1.4-2.4-1.8C348.3,419.2,348.5,419.1,349.1,419.1z"/>
	<path d="M373.3,421.3c1.3,0,3.5,0.8,4.6,1.5c0.5,0.4,0.9,0.9,0.9,1.4c0,0,0,0,0,0.1c0,0.3,0,0.3-0.3,1.2c-0.2,0.6-0.3,2.2-0.3,4.3
		c0,0.5,0,1.5,0.1,3.1c0,0.9,0,1.6,0,2.1c0,1,0,1.4-0.1,1.9c-0.2,0.8-0.6,1.2-1.3,1.2c-0.6,0-1.3-0.5-1.9-1.5
		c-0.5-0.9-0.9-1.9-0.9-2.4c0-0.3,0-0.3,0.2-0.9c0.3-0.9,0.6-3.1,0.6-5.6c0-2.4-0.2-3.6-0.7-4.3c-0.4-0.8-0.9-1-2.2-1.6
		C372.5,421.3,372.7,421.3,373.3,421.3z M377.1,448.5c3.6-2.3,5.9-4.7,7.5-7.7c1.6-3.3,2.1-6,2.1-13.9c0-3.9-0.1-5.1-0.6-5.8
		c-0.4-0.7-1.4-1.2-2.8-1.6c0.5-0.4,0.9-0.5,1.5-0.5c1.1,0,2.8,0.4,4.1,1c1.5,0.7,2.1,1.3,2.1,2.1c0,0.3,0,0.3-0.3,0.9
		c-0.3,0.9-0.5,2.3-0.6,6.9c-0.1,4.9-0.3,6.5-0.9,8.5c-1.5,5-5.8,8.6-12,10.5L377.1,448.5z"/>
	<path d="M401,431.2c0.8,0.5,1.5,0.7,3.4,0.7c1.4,0,7.7-0.1,13.6-0.3c0.6,0,2.8,0,3.9,0c3.4,0,4.5,0.2,5.1,0.6
		c0.3,0.3,0.4,0.6,0.4,1c0,0.9-0.8,1.4-2.2,1.6c-1.9,0.3-5,0.3-15.3,0.4c-1.5,0-1.7,0-4.3,0.2c-0.9,0.1-1,0.1-1.5,0.3
		c-0.5,0.2-0.9,0.3-1.2,0.3c-0.9,0-1.7-0.8-2.6-2.2c-0.8-1.4-1.2-2.6-1.2-3.6c0-0.6,0-0.7,0.4-1.1
		C400.2,430.6,400.4,430.8,401,431.2z"/>
	<path d="M436.9,419.1c1,0,2.6,0.4,3.8,1c1.5,0.8,2.2,1.5,2.2,2.2c0,0.3-0.1,0.5-0.3,0.9c-0.4,0.8-0.5,1-0.6,2.2
		c-0.1,0.7-0.2,2.9-0.2,4.7c3.1,0.2,6.3,0.9,8.3,1.7c1.7,0.8,2.5,1.8,2.5,3.4c0,1.5-0.6,2.4-1.5,2.4c-0.5,0-0.7-0.2-1.6-1.1
		c-2.2-2.4-4.8-4.3-7.7-5.3c0,0.4,0,2.2,0,5.4c0,2.9,0,2.9,0.1,7c0,0.6,0,1,0,1.6c0,1.1-0.1,1.7-0.2,2.1c-0.2,0.5-0.7,0.9-1.2,0.9
		c-0.6,0-1.2-0.3-1.9-1.2c-0.7-0.9-1.2-2.1-1.2-2.8c0-0.4,0-0.5,0.3-1.4c0.6-1.7,0.8-5.7,0.8-14.5c0-5-0.1-6.3-0.6-7.2
		c-0.3-0.7-1.2-1.4-2.4-1.8C436.2,419.2,436.4,419.1,436.9,419.1z"/>
	<path d="M461.2,426.7c3.3,1.2,6.2,2.6,9.1,4.3c2.5-4,3.9-7.1,3.9-8.5c0-1.1-0.7-2.1-2.2-2.8c0.3-0.2,0.5-0.2,0.9-0.2
		c1.5,0,3.5,0.9,5.1,2.2c1,0.9,1.4,1.5,1.4,2.2c0,0.4-0.2,0.7-0.9,1.3c-0.4,0.4-0.7,0.7-1.5,2.1c-0.2,0.2-0.2,0.2-1.2,2.1
		c-0.2,0.3-0.8,1.2-1.8,2.8c-0.2,0.2-0.3,0.5-0.5,0.9c4,2.8,4.7,3.8,4.7,5.8c0,1.5-0.7,2.8-1.6,2.8c-0.5,0-0.9-0.3-1.4-1.1
		c-1.2-1.8-2.2-3.1-3.8-4.8c-2.8,3.6-4.6,5.5-7.5,7.7c-2.7,2.1-4.7,3.3-8.3,4.7l-0.3-0.3c5-3.7,9.6-8.8,13.6-14.5
		c-2.6-2.2-5.5-4.6-7.9-6L461.2,426.7z"/>
	<path d="M486.8,422.8c3.9,0.6,5.9,1.2,7.6,2.2c1.1,0.7,1.7,1.6,1.7,2.9c0,1.6-0.8,2.8-1.9,2.8c-0.6,0-0.9-0.3-1.5-1.2
		c-1.6-3-3.4-4.8-6.1-6.5L486.8,422.8z M513,424.8c-1.9,4-4.3,7.2-7.7,10.7c-3.1,3-5.6,5-10,7.8c-0.9,0.6-1.5,1-1.9,1.5
		c-0.5,0.6-0.9,0.9-1.5,0.9c-0.9,0-2.2-0.9-3.4-2.5c-1.1-1.4-1.6-2.8-1.6-3.8c0-0.3,0-0.5,0.2-0.9c0.9,1.5,2.1,2.6,3,2.6
		c1.5,0,5.9-2.4,10.1-5.3c5.2-3.7,9.5-7.6,12.4-11.1L513,424.8z"/>
	<path d="M521,419.1c1,0,2.6,0.4,3.8,1c1.5,0.8,2.2,1.5,2.2,2.2c0,0.3-0.1,0.5-0.3,0.9c-0.4,0.8-0.5,1-0.6,2.2
		c-0.1,0.7-0.2,2.9-0.2,4.7c3.1,0.2,6.3,0.9,8.3,1.7c1.7,0.8,2.5,1.8,2.5,3.4c0,1.5-0.6,2.4-1.5,2.4c-0.5,0-0.7-0.2-1.6-1.1
		c-2.2-2.4-4.8-4.3-7.7-5.3c0,0.4,0,2.2,0,5.4c0,2.9,0,2.9,0.1,7c0,0.6,0,1,0,1.6c0,1.1-0.1,1.7-0.2,2.1c-0.2,0.5-0.7,0.9-1.2,0.9
		c-0.6,0-1.2-0.3-1.9-1.2s-1.2-2.1-1.2-2.8c0-0.4,0-0.5,0.3-1.4c0.6-1.7,0.8-5.7,0.8-14.5c0-5-0.1-6.3-0.6-7.2
		c-0.3-0.7-1.2-1.4-2.4-1.8C520.2,419.2,520.4,419.1,521,419.1z"/>
	<path d="M555.7,446.5c3.7-1.1,6.3-2.7,8.3-4.9c2.3-2.5,3.4-5.5,3.4-9c0-5.9-3.6-9.4-9.5-9.4c-0.4,0-0.7,0-1.4,0.1
		c1.2,1.4,1.5,2.3,1.5,3.7c0,2.8-1.7,7.6-4.2,11.7c-2.2,3.7-4.2,5.6-5.9,5.6c-0.8,0-1.5-0.4-1.9-1c-0.3-0.5-0.5-1-0.8-2.2
		c-0.2-0.9-0.5-1.3-1.5-2.6c-0.9-1-1.4-2.6-1.4-4c0-2.2,1.1-4.8,2.9-6.9c2.9-3.5,7.8-5.7,13-5.7c7.7,0,13.2,4.8,13.2,11.7
		c0,5-2.8,9-7.7,11.3c-2.2,1-4.3,1.5-7.9,2.1L555.7,446.5z M549.3,426.9c-2.4,2.4-3.7,5.3-3.7,8.2c0,2.4,1.2,4.8,2.3,4.8
		s3.4-2.8,5.7-7.1c1.7-3.3,2.8-6.1,2.8-7.6c0-0.3,0-0.9-0.2-1.1c-0.1-0.3-0.3-0.8-0.3-0.8C553.1,423.9,551.3,425,549.3,426.9z"/>
	<path d="M220.7,489.7c0,0.4-0.2,0.6-0.6,0.7c-0.3,0.1-1.5,0.2-2.2,0.2c-0.9,0-1.2-0.2-1.2-0.9c0.3-6.7,0.3-9,0.3-14.5
		c0-9,0-12-0.3-16c1.9,0.9,2.6,1.3,4.5,2.4h19.7c0.9-1,1.2-1.3,2.2-2.2c1.4,0.9,1.7,1.2,2.9,2.2c0.3,0.3,0.4,0.5,0.4,0.7
		c0,0.3-0.3,0.6-1.4,1.2v14.1c0,4.3,0,5.9,0.2,12c0,0.5-0.2,0.7-0.5,0.9c-0.3,0.2-1.5,0.3-2.3,0.3c-0.9,0-1.1-0.2-1.1-0.9v-1.5
		h-20.7v1.5H220.7z M220.7,487.4h20.7v-25.1h-20.7V487.4z M227.8,481.8c0,0.3-0.1,0.5-0.3,0.7c-0.3,0.2-1,0.3-2,0.3
		c-1.2,0-1.4-0.2-1.4-0.9c0.1-3.4,0.2-5.7,0.2-9.1c0-2.6,0-3.8-0.1-6.4c1.8,0.9,2.3,1.2,4.1,2.2h5.4c0.9-0.9,1-1.2,1.9-2.1
		c1.2,0.9,1.5,1.2,2.7,2.1c0.3,0.3,0.3,0.3,0.3,0.5c0,0.3-0.2,0.4-1,0.9v5.5c0,0.4,0,1.7,0.1,5.8c0,0.8-0.5,0.9-2.2,0.9
		c-1.2,0-1.4-0.1-1.5-0.7v-1.8h-6.2L227.8,481.8L227.8,481.8z M227.8,479.1h6.2v-9.7h-6.2V479.1z"/>
	<path d="M273.4,478.7c0.8-0.8,1-1,1.9-1.8c1.3,0.9,1.7,1.2,2.9,2.2c0.3,0.3,0.4,0.4,0.4,0.5c0,0.3-0.5,0.6-1.7,0.9
		c-1.7,2.1-2.6,3-4.3,4.4c3.1,0.9,5.9,1.4,9.5,1.4v0.3c-0.8,0.3-1,0.5-1.5,1c-0.4,0.5-0.8,1.2-0.9,1.9c-0.2,0.5-0.2,0.7-0.5,0.7
		c-0.6,0-3-0.8-4.6-1.4c-1.5-0.7-2.9-1.5-4.1-2.4c-3.5,2.3-7.4,3.6-12.9,4.3l-0.2-0.3c4.6-1.5,7.6-3.2,11-5.8
		c-1-1.1-1.9-2.4-2.7-3.9c-2.1,2.2-4.3,4-7.6,5.5l-0.2-0.3c2.9-2.8,5.2-5.9,6.8-9.3c-0.6,0.1-1.1,0.1-1.8,0.1c-0.9,0-1-0.1-1-0.7
		c0.1-3.2,0.1-4.3,0.1-6.5c0-1.2,0-1.4,0-2.7c-0.7,0.5-0.9,0.8-1.7,1.3c0.2,0.2,0.3,0.3,0.3,0.4c0,0.3-0.3,0.3-1.4,0.4
		c-1.2,1.8-1.9,2.8-3.3,4.1c1.5,0.3,1.9,0.4,1.9,0.8c0,0.3-0.3,0.5-1.1,0.8v15c0,0.4-0.1,0.6-0.3,0.8c-0.3,0.3-1.1,0.3-2.4,0.3
		c-1,0-1.2-0.2-1.2-0.9c0.1-2.9,0.2-6.7,0.2-8.3v-5.8c-1.5,1.2-2.2,1.7-4,2.8l-0.2-0.3c1.9-2.2,3.2-4,4.6-6.7
		c1.3-2.2,1.9-3.6,2.4-5.3c1.8,0.7,2.3,0.9,3.7,1.6c1.9-3,3.4-6.5,3.7-9c4.4,1,5.3,1.4,5.3,1.8c0,0.3-0.4,0.5-1.6,0.6
		c-0.8,1-1,1.4-1.6,2.1h9.6c1.1-1.3,1.4-1.6,2.5-2.9c1.7,1.3,2.2,1.7,3.8,3.1c0.2,0.2,0.2,0.3,0.2,0.3c0,0.2-0.2,0.2-0.4,0.2h-16.3
		c-0.6,0.7-0.9,1-1.5,1.5c0.9,0.4,1.3,0.6,2.5,1.4h8.2c0.7-0.8,0.7-0.8,1.7-1.7c1.2,0.7,1.5,0.9,2.8,1.8c0.3,0.2,0.4,0.3,0.4,0.5
		c0,0.3-0.3,0.5-1.1,0.9c0,0.7,0,0.7,0,1.5c0,1.3,0,2.5,0.1,5.6c0,0.3,0,0.4-0.2,0.6c-0.2,0.3-0.9,0.4-2.4,0.4c-0.9,0-1-0.1-1-0.7
		v-0.6h-8.6v0.1c3.4,0.6,3.4,0.6,3.9,0.8c0.3,0.2,0.4,0.3,0.4,0.4c0,0.3-0.3,0.4-1.5,0.7c-0.3,0.5-0.4,0.5-0.9,1.2h6V478.7z
		 M249.3,468.5c1.7-1.9,2.9-3.5,4.2-5.8c0.9-1.5,1.3-2.5,1.7-4c1,0.3,1.8,0.5,2.3,0.7c2.2,0.7,2.9,0.9,2.9,1.3s-0.4,0.5-1.6,0.5
		c-3.1,3.7-5.4,5.6-9.3,7.5L249.3,468.5z M274.1,467.8h-8.6v2.9h8.6V467.8z M265.6,471.4v3.3h8.6v-3.3H265.6z M266.9,479.4
		c-0.3,0.3-0.4,0.5-0.7,0.9c1,1.4,2,2.3,3.5,3.3c1.7-1.5,2.4-2.2,3.8-4.1H266.9z"/>
	<path d="M297.5,482.5c0-2.6,0-2.6-0.1-4.1c4.6,0.3,5.2,0.4,5.2,0.9c0,0.3-0.3,0.5-1.2,0.9c0,1,0,1.1,0,1.8v0.6h7.8
		c1.1-1.2,1.5-1.5,2.6-2.8c1.8,1.2,2.3,1.6,4.1,2.9c0.2,0.2,0.3,0.3,0.3,0.3c0,0.1-0.2,0.3-0.3,0.3h-14.5c0,4.5,0,4.6,0.1,6.7
		c0,0.3,0,0.5-0.1,0.6c-0.2,0.3-0.9,0.5-2.2,0.5c-1.5,0-1.8-0.1-1.8-0.9c0.1-4,0.1-4.2,0.1-5.3c0-0.1,0-0.6,0-1.6h-10.5
		c-0.5,0-1.9,0.2-2.6,0.3l-0.3-1.4c0.9,0.2,2.3,0.3,2.8,0.3L297.5,482.5L297.5,482.5z M294.2,472.8c-2.9,3-3.2,3.3-6.6,5.9
		c0,0.3,0,0.5,0,0.7c0,0.5-0.3,0.9-0.5,0.9c-0.2,0-0.3-0.2-0.5-0.4c-0.3-0.3-0.3-0.3-2.1-4c3.4-0.9,5.7-1.7,9.6-3.4L294.2,472.8z
		 M308.6,463.3c1.1-1.4,1.5-1.7,2.6-2.9c1.8,1.3,2.3,1.7,4.1,3.1c0.1,0.2,0.2,0.3,0.2,0.3c0,0.2-0.2,0.3-0.3,0.3h-16.9
		c3.3,0.9,3.6,1,3.6,1.4s-0.2,0.4-1.3,0.4h-0.1c-1.9,1.5-2.8,2.1-3.8,2.8c1.2,0.8,1.4,1.1,1.4,1.9c0,1.2-0.9,2.4-1.7,2.4
		c-0.3,0-0.5-0.3-0.8-0.8c-0.9-2.2-1.6-3.4-3.3-5.2l0.2-0.3c1.8,0.7,2.2,0.9,3.1,1.3c0.7-1.3,1.1-2.7,1.5-4h-9.6
		c-0.5,0-1.8,0.1-2.6,0.2l-0.3-1.2c0.9,0.2,2.2,0.3,2.8,0.3h10v-2.1c0-0.2,0-0.7,0-1.4c0-0.3,0-0.7,0-1.1c4.6,0.4,5.4,0.5,5.4,1
		c0,0.3-0.3,0.5-1.4,0.9v2.5L308.6,463.3L308.6,463.3z M285.9,465.2c4.6,1.5,6.4,2.7,6.4,4.1c0,0.5-0.2,1.2-0.5,1.7
		c-0.3,0.7-0.8,1-1.3,1s-0.7-0.3-1.1-1.2c-1-2.5-2.1-4-3.7-5.4L285.9,465.2z M301.6,472.5c4.3,2.1,5.7,3.1,5.7,4.5
		c0,1.4-1,2.8-2.1,2.8c-0.2,0-0.3-0.1-0.4-0.3c-0.2-0.2-0.2-0.2-0.8-2c-0.1-0.3-0.2-0.6-0.3-1c-0.3,0.1-0.3,0.1-1.2,0.3
		c-1.8,0.6-2.2,0.7-6.2,1.7c-1.5,0.3-1.5,0.3-2.4,0.6c-0.3,1.1-0.4,1.3-0.7,1.3c-0.4,0-0.7-0.9-1.4-4.5c1.2,0.1,1.7,0.1,2.4,0.1
		c0.1,0,0.2,0,1,0c2.7-2.8,5.3-6.5,6.9-9.6c1.9,0.8,3.4,1.5,3.9,1.7c0.3,0.2,0.3,0.3,0.3,0.4c0,0.3-0.4,0.5-1.6,0.6
		c-2.7,2.7-4.9,4.6-8,6.8c3.8-0.2,4-0.2,6.5-0.4c-0.6-1-0.9-1.6-1.9-2.8L301.6,472.5z M305.2,471.6c2.1-2.2,3.4-4,4.8-6.5
		c1.4,0.8,3,1.7,4,2.4c0.3,0.2,0.3,0.3,0.3,0.5c0,0.3-0.3,0.4-0.7,0.4c-0.2,0-0.5,0-1-0.1c-3.6,2.1-4.8,2.7-7.1,3.5L305.2,471.6z
		 M306.1,472.6c6.1,1.4,7.6,2.2,7.6,4c0,1.3-0.9,2.6-1.9,2.6c-0.5,0-0.7-0.2-1.4-1.4c-1.1-2.1-2.2-3.3-4.5-5L306.1,472.6z"/>
	<path d="M321.9,486.2c1.5,0,2.1-0.1,2.6-0.4c0.8-0.4,1-1.3,1-3.5v-15.8c0-1.7,0-1.7-0.1-2.1c-0.2-0.8-0.6-0.9-2.3-0.9h-0.9v-0.9
		c3.3-0.3,5.8-0.6,8.1-1c-0.2,2.4-0.3,5.3-0.3,8.7v12.1c0,2.1,0.2,2.9,0.9,3.4c0.5,0.3,0.9,0.4,2.7,0.5v0.9h-11.4L321.9,486.2
		L321.9,486.2z"/>
	<path d="M342,464.9c1.5-2.2,3.9-3.4,6.7-3.4c2.8,0,5.2,1.2,6.6,3.4c1.6,2.4,2.5,5.9,2.5,9.8c0,4-0.9,7.3-2.5,9.7
		c-1.5,2.2-3.9,3.4-6.6,3.4s-5.3-1.2-6.7-3.4c-1.6-2.4-2.5-5.9-2.5-9.7C339.5,470.7,340.4,467.3,342,464.9z M345.2,483.9
		c0.8,2,1.9,3,3.5,3c1.7,0,2.9-1.2,3.7-3.6c0.6-1.9,0.9-4.6,0.9-8.7c0-4.5-0.3-7.3-1.1-9.3c-0.8-2.1-1.9-3-3.5-3
		c-3.2,0-4.6,3.8-4.6,12.3C344.1,479,344.4,481.9,345.2,483.9z"/>
	<path d="M363.7,474.4c2.2-2,4-2.8,6.6-2.8c5,0,8.2,2.9,8.2,7.7c0,5.2-3.6,8.4-9.3,8.4c-4.5,0-8-2.2-8-5c0-1.3,0.9-2,2.4-2
		c0.8,0,1.4,0.2,1.7,0.6c0.3,0.3,0.3,0.5,0.3,1.5c0,1.3,0.3,2.2,0.9,2.8c0.7,0.7,1.6,1.1,2.7,1.1c1.4,0,2.6-0.6,3.4-1.7
		c0.9-1.3,1.3-3.2,1.3-5.3c0-4.3-1.8-6.9-4.9-6.9c-2.2,0-4.4,1.4-5.8,3.8l-1.1-0.3l1.1-14.5h14.1l-0.6,3.9h-12.4L363.7,474.4z"/>
	<path d="M388,461c3.9,0,6.3,2.8,6.3,7.1c0,4.3-2.5,7.1-6.3,7.1c-3.8,0-6.3-2.8-6.3-7.1S384.1,461,388,461z M405.5,461.8l-19.5,26.1
		l-1-0.9l19.4-26L405.5,461.8z M388,474.5c1.6,0,2.3-1.9,2.3-6.3c0-4.5-0.7-6.4-2.4-6.4c-1.6,0-2.3,1.9-2.3,6.4
		C385.6,472.6,386.3,474.5,388,474.5z M402.5,473.5c3.9,0,6.4,2.8,6.4,7.1c0,4.3-2.5,7.1-6.3,7.1s-6.3-2.8-6.3-7.1
		S398.7,473.5,402.5,473.5z M402.6,486.9c1.6,0,2.3-1.9,2.3-6.3c0-4.5-0.7-6.4-2.4-6.4c-1.6,0-2.3,1.9-2.3,6.3
		C400.2,485,400.9,486.9,402.6,486.9z"/>
	<path d="M413.2,465c1.5,1.3,2.6,1.7,4.7,1.7c1.1,0,2.1-0.1,3.4-0.4c0.7-1.2,1.2-2.8,1.2-3.8c0-1.2-0.8-1.8-2.8-2.2
		c0.7-0.4,1-0.5,1.9-0.5c1.2,0,2.8,0.3,3.9,0.8c0.9,0.4,1.5,0.9,1.5,1.5c0,0.3-0.2,0.6-0.6,1c-0.5,0.7-1.2,1.5-1.8,2.6
		c3.1-1,3.4-1.2,4.6-2.2c0.3-0.3,0.6-0.3,0.9-0.3c1.5,0,2.8,0.8,2.8,1.6c0,0.7-0.6,1.1-2.8,1.9c-2.2,0.7-4.4,1.3-7.1,1.7
		c-1,1.5-1.3,1.9-1.7,2.4c-1.3,1.9-1.3,1.9-1.8,2.6c2.1-1.1,3.4-1.5,4.9-1.5c1.1,0,2.2,0.4,2.9,1.2c0.4,0.5,0.7,0.9,0.9,1.8
		c0.6-0.3,0.6-0.3,3.3-1.7c1-0.5,2.2-1.2,2.9-1.7c0.5-0.3,0.7-0.6,0.7-0.9c0-0.7-0.7-1.4-1.9-1.9c0.5-0.2,0.7-0.2,1-0.2
		c2.1,0,5.1,2.6,5.1,4.4c0,0.7-0.3,1-1.4,1.3c-4,1-7.1,2.2-9.3,3.3c0.1,2.3,0.1,2.4,0.1,2.8c0,1.7-0.1,2.4-0.3,2.8
		c-0.3,0.5-0.9,0.9-1.7,0.9c-0.9,0-1.5-0.5-1.5-1.5c0-0.1,0-0.1,0.1-1.4c0-0.8,0.1-1.3,0.1-2.2c-3.7,2.1-5.1,3.5-5.1,5.3
		c0,1.6,1.6,2.4,5.2,2.4c2.2,0,4.8-0.3,6.4-0.9c0.9-0.3,1.1-0.4,1.5-0.4c0.5,0,1.4,0.3,2.1,0.8c0.7,0.5,1.1,1.2,1.1,1.8
		c0,0.6-0.5,1.1-1.3,1.4c-1.3,0.3-3.6,0.6-6.7,0.6c-3.8,0-6.1-0.4-7.7-1.5c-1.3-0.9-2-2.2-2-3.8s0.9-3.4,2.6-5
		c0.9-0.8,1.7-1.4,4-2.9c0-1.3-0.2-1.7-0.4-2.4c-0.3-0.6-0.9-0.9-1.6-0.9c-2.1,0-4.5,1.7-7.2,5.3c-0.9,1.1-1.2,1.4-1.7,1.4
		c-0.9,0-1.5-1.2-1.5-2.8c0-0.4,0.1-0.8,0.3-1c0.3-0.3,0.3-0.3,1.4-1.1c1.3-0.9,3.6-3.4,5.4-6.1c-0.5,0-0.9,0.1-1.1,0.1
		c-1.5,0-3-0.3-4-1c-0.9-0.5-1.4-1.2-2.1-2.4L413.2,465z"/>
	<path d="M460,469.3c0.9,4,2.6,7.4,5.2,10.2c1.6,1.7,4,3.4,6.3,4.5c1.3,0.6,2.2,0.9,4,1.4v0.4c-1.8,0.9-2.8,1.9-3.4,3.5
		c-0.2,0.5-0.3,0.6-0.5,0.6c-0.3,0-1-0.4-2.2-1.2c-3.5-2.6-6-5.9-7.8-10.6c-0.9-2.2-1.4-4.4-1.9-7.6c-0.6,5.7-2.4,9.9-5.8,13.3
		c-2.1,2.1-4.6,3.9-7.3,5.1c-1.2,0.6-2.2,0.9-4.1,1.6l-0.2-0.4c5.2-3.3,7.7-5.7,9.8-9.1c2-3.2,3.1-7.1,3.5-11.5h-9.1
		c-1.2,0-2.1,0.1-3.2,0.3l-0.2-1.3c1.1,0.2,2.2,0.3,3.4,0.3h9.1c0.2-1.7,0.2-3.3,0.2-5.5c0-1.6,0-2.2-0.2-3.6
		c1.2,0.1,2.2,0.2,2.8,0.3c2.4,0.2,3.1,0.3,3.1,0.9c0,0.3-0.3,0.6-1.5,0.9c-0.1,3.7-0.2,5-0.3,7.1h7.7l2.6-3.4
		c1.9,1.5,2.5,1.9,4.3,3.4c0.2,0.2,0.3,0.3,0.3,0.4c0,0.2-0.2,0.3-0.4,0.3H460V469.3z"/>
	<path d="M478.9,465.2c1.5,1.1,2.9,1.5,4.8,1.5c1.5,0,4-0.4,5.9-1c-0.9-1.4-2.1-2.9-2.8-3.4c-0.6-0.5-1.7-0.8-2.8-0.8
		c-0.1,0-0.3,0-0.5,0c0.3-0.8,0.8-1,1.9-1.3c0.7-0.2,1.5-0.3,2.3-0.3c1.5,0,2.5,0.2,2.9,0.7c0.3,0.3,0.4,0.4,0.5,1.5
		c0,0.6,0.3,1.2,1.1,2.8c2.8-1,3.6-1.5,4.6-2.5c0.3-0.3,0.7-0.3,1.3-0.3c1.5,0,2.3,0.5,2.3,1.3c0,1-1.5,1.7-7.1,3.6
		c0.3,0.4,0.3,0.4,0.6,1c0.2,0.3,0.6,1.1,1.4,2.4c2.1-0.8,3-1.2,3.9-1.8c-0.7-0.7-0.9-0.9-2.1-1.9l0.2-0.3c1.2,0.6,2.2,0.9,3,0.9
		c0.2,0,0.2,0,1-0.2c0.2,0,0.3,0,0.3,0c0.9,0,1.4,0.5,1.4,1.3c0,1.3-1.7,2.4-6.6,4.1c0.9,1.5,1,1.8,1.4,2.4c0.8,1.3,0.8,1.3,1.5,2.5
		c0.6,1,0.9,1.6,0.9,2.3c0,0.9-0.3,1.9-0.7,2.4c-0.3,0.4-0.7,0.6-1.2,0.6c-0.4,0-0.8-0.2-1.3-0.7c-1.1-1.1-1.5-1.4-2.5-1.8
		c-1.8-0.9-3.9-1.4-5.7-1.4c-3.4,0-5.7,1.4-5.7,3.4c0,2.1,2.2,3.1,6.1,3.1c1.4,0,2.1-0.1,3.8-0.5c0.3-0.1,0.6-0.2,0.9-0.2
		c1.5,0,3.1,1.4,3.1,2.6c0,0.6-0.3,1-1.1,1.2c-0.9,0.3-2.7,0.5-4.6,0.5c-4,0-6.7-0.7-8.6-2.1c-1.3-1-2.1-2.4-2.1-3.9
		c0-3.4,3.8-5.7,9.2-5.7c1.9,0,3.9,0.2,6.5,0.7c-0.3-1.2-1-2.9-2.2-5.2c-2.6,0.9-5.3,1.3-7.7,1.3c-2.9,0-4.5-1-5.9-3.8l0.3-0.3
		c1.3,1.5,2.5,2.1,4.3,2.1c2.1,0,4.7-0.5,7.7-1.4c-0.6-1.1-1.2-2.2-2.1-3.4c-2.4,0.7-4.5,1-6.2,1c-2.4,0-4.5-1.1-6.1-3.3
		L478.9,465.2z"/>
	<path d="M518.1,459.2c0.9,0,2.2,0.5,3.4,1.2c1.5,1,2.5,2.2,2.5,3.1c0,0.9-0.4,1.3-2.2,2.4c-2.8,1.7-4.6,3.1-6.7,5
		c-1.5,1.4-2.2,2.4-2.2,3.3c0,0.5,0.3,1,1,1.7c0.7,0.6,0.7,0.6,3.1,2.4c1.5,1.2,3.7,3,5,4.4c1.5,1.5,2.1,2.8,2.1,4.5
		c0,1.9-0.9,3.2-2.1,3.2c-0.8,0-1.2-0.4-1.7-1.7c-1.3-2.9-3-5.7-5.9-9.1c-2-2.3-2.3-2.8-2.7-3.4c-0.4-0.8-0.6-1.4-0.6-2.1
		c0-0.9,0.3-1.7,1-2.8c0.8-1.1,0.8-1.1,4.2-5.3c1.9-2.2,2.8-3.7,2.8-4.4c0-0.4-0.3-0.9-0.7-1.4c-0.3-0.4-0.4-0.4-1.4-1
		C517.6,459.2,517.7,459.2,518.1,459.2z"/>
	<path d="M554.1,461.6c-0.3,3.1-0.7,4.3-1.5,5.9c-1,2-2.4,3.4-4.6,4.7c1.2,0.5,1.7,0.8,3.4,1.6h5.9c0.8-0.8,1-1,1.8-1.7
		c1.1,0.8,1.5,1,2.6,1.8c0.3,0.3,0.5,0.4,0.5,0.6c0,0.3-0.2,0.5-1,1c0,0.8,0,1,0,1.7c0,2.1,0,4.5,0.2,6.3c0,0.3-0.1,0.5-0.3,0.7
		c-0.3,0.2-1.3,0.3-2.5,0.3c-0.9,0-1-0.1-1-0.6v-1H551v1c0,0.6-0.5,0.8-2.5,0.8c-0.9,0-1.2-0.1-1.2-0.7c0.1-2.9,0.2-4.8,0.2-7.6
		c0-1.9,0-2.9-0.1-4c-0.6,0.3-0.9,0.5-2.5,1.2l-0.3-0.3c1.4-1.1,1.7-1.5,2.5-2.3h-5.5v5.9h0.8c0.9-1,1.1-1.4,1.9-2.4
		c1.2,1.1,1.5,1.5,2.7,2.7c0.1,0.1,0.2,0.2,0.2,0.3s-0.1,0.2-0.3,0.2h-5.2v7.3c1.7,0.8,4,1,8.2,1c5.3,0,9-0.2,14.3-0.8v0.3
		c-1,0.7-1.5,1.3-1.9,2.4c-0.2,0.4-0.2,0.4-0.3,1.2c0,0.3-0.2,0.3-0.9,0.3c-2.8,0.1-4.4,0.1-6.7,0.1c-5.9,0-8.8-0.3-10.8-0.9
		c-4-1.2-6.4-4-7.7-8.7c-0.9,4.3-2.1,6.7-4.7,10l-0.3-0.2c1-2.8,1.5-5,2-8.6c0.3-2.2,0.4-4.9,0.4-6.7c0-0.3,0-0.7-0.1-1.2
		c1,0.2,1.8,0.3,2.3,0.3c2,0.3,2.5,0.5,2.5,0.9c0,0.3-0.3,0.4-1.4,0.8c-0.3,1.9-0.3,2.4-0.6,3.8c0.8,1.8,1.3,2.6,2.2,3.4v-11.4h-4.8
		c-0.7,0-1.4,0.1-1.9,0.2l-0.2-1.2c0.7,0.2,1.4,0.3,2.2,0.3h4.4v-5.2h-3.5c-0.7,0-1.3,0.1-1.9,0.2l-0.2-1.2c0.7,0.2,1.4,0.3,2.1,0.3
		h3.5v-1.9c0-1.5-0.1-2.2-0.3-3.7c5,0.5,5.2,0.5,5.2,1c0,0.3-0.3,0.5-1.4,0.8v3.7h0.9l2.1-2.4c1.4,1.1,1.7,1.5,3,2.6
		c0.2,0.2,0.3,0.3,0.3,0.3c0,0.1-0.2,0.2-0.3,0.2h-5.9v5.2h1.1c1-1.2,1-1.2,2-2.4c1.4,1.1,1.7,1.5,2.9,2.6l0,0
		c0.9-1.2,1.5-2.2,2.1-3.6c0.6-1.7,0.9-2.9,0.9-5.3h-1.9c-0.9,0-1.5,0.1-2.1,0.2l-0.2-1.1c0.8,0.2,1.4,0.3,2.2,0.3h9.6
		c0.8-0.8,1-1,1.8-1.7c1.2,0.9,1.5,1.1,2.8,2c0.3,0.2,0.3,0.3,0.3,0.4c0,0.3-0.3,0.5-1.2,1c-0.5,5.9-0.7,6.8-1.5,7.8
		c-0.6,0.9-1.3,1.3-2.6,1.5c-0.5,0.1-1.1,0.2-1.5,0.2c-0.3,0-0.3-0.1-0.4-0.5c-0.1-0.7-0.3-1.1-0.8-1.5c-0.4-0.3-0.7-0.4-2.6-1
		l0.1-0.4c1.5,0.2,2.8,0.2,3.6,0.2c1.1,0,1.2-0.1,1.5-1.2c0.3-1.2,0.6-3.6,0.6-6L554.1,461.6L554.1,461.6z M551,482.3h6.5v-7.6H551
		V482.3z"/>
	<path d="M565.5,473.1c0.9,0.2,1.7,0.3,2.2,0.3h2c0.8-0.9,1-1.2,1.8-2.1c1.3,0.9,1.7,1.2,2.9,2.1c0.3,0.2,0.3,0.3,0.3,0.4
		c0,0.3-0.3,0.6-1.1,1.1v8.3c0.7,1.2,1.2,1.8,2.2,2.3c1.5,0.7,3.1,1,6.1,1c5.3,0,10.9-0.3,16.5-0.8v0.4c-1.5,0.7-2.1,1.4-2.3,3.1
		c-0.1,0.5-0.2,0.5-0.6,0.6c-0.4,0-7.7,0.2-9.6,0.2c-5.4,0-8.3-0.7-10.2-2.2c-1.1-1-1.8-2-2.8-4.5c-1.2,1.9-3,4.2-4.5,5.8
		c0,0.3,0.1,0.5,0.1,0.9c0,0.3-0.3,0.7-0.5,0.7c-0.2,0-0.3-0.2-0.5-0.4c-1.5-2.8-1.5-2.8-2.2-4.4c0.9-0.3,1.1-0.3,2.4-1
		c1.8-0.9,1.8-0.9,2.3-1.3v-9.3h-2.3c-0.5,0-0.9,0-1.9,0.2L565.5,473.1z M566.9,459.6c5.3,2.2,7.1,3.8,7.1,5.7
		c0,1.4-1.5,3.1-2.7,3.1c-0.2,0-0.4-0.1-0.5-0.3c-0.3-0.3-0.3-0.3-0.9-2.4c-0.9-2.8-1.8-4.3-3.2-5.9L566.9,459.6z M578.8,463
		c0-1-0.1-1.9-0.2-4c1.7,0.8,2.2,1,3.8,2h7.5c0.8-0.9,1-1,1.8-1.9c1.1,0.9,1.5,1,2.6,1.9c0.3,0.2,0.3,0.3,0.3,0.5c0,0.3-0.2,0.3-1,1
		v8.3c0.6-0.8,0.8-0.9,1.5-1.6c0.9,0.7,1.2,0.9,2.2,1.7c0.2,0.2,0.3,0.3,0.3,0.4c0,0.3-0.2,0.4-1.2,1.1v7.6c0,1.1,0,1.3,0,2.2
		c-0.1,0.9-0.2,1.4-0.6,1.8c-0.5,0.5-1.3,0.9-2.7,1c-0.7,0.1-0.7,0.1-0.8,0.1c-0.3,0-0.3-0.1-0.3-0.6c0-1.5-0.4-2.3-1.5-2.8
		c-0.3,0.1-0.9,0.2-1.6,0.2c-0.5,0-0.7-0.2-0.7-0.6v-0.9h-3.4v1.8c0,0.3-0.2,0.5-0.5,0.6c-0.3,0.1-1,0.2-1.6,0.2
		c-0.8,0-0.9-0.1-0.9-0.6c0.1-1.2,0.1-1.9,0.1-2.9c0-5.3,0-5.6-0.1-6.7c1.5,0.6,1.9,0.8,3.2,1.6h2.9c0.6-0.7,0.8-0.9,1.4-1.5
		c1,0.6,1.3,0.8,2.2,1.5c0.2,0.3,0.3,0.3,0.3,0.5s0,0.2-0.8,0.8c0,0.4,0,0.7,0,0.9c0,0.4,0,0.4,0.1,4.5l-0.1,0.3
		c0.6,0.1,0.8,0.1,1.4,0.1c0.5,0,0.5,0,0.5-0.5v-9.5h-13.1v10.6c0,1.4,0,1.4,0,2c0,0.4-0.2,0.6-0.7,0.8c-0.3,0.1-0.9,0.2-1.5,0.2
		c-0.9,0-1.3-0.2-1.3-0.8c0.1-3.5,0.2-5.3,0.2-7.7c0-4.6,0-5.4-0.2-7.4c1.3,0.6,1.5,0.8,2.8,1.5L578.8,463L578.8,463z M584.4,465.9
		c0-0.9,0-1.5-0.2-2.8c1.6,0.7,2.2,0.9,3.6,1.8h2.2v-3.4h-8.2v9h2.4L584.4,465.9L584.4,465.9z M584.4,479.4h3.4v-4.6h-3.4V479.4z
		 M590.1,470.7v-4.9h-2.8v4.9H590.1z"/>
</g>
<g>
	<path d="M228.3,742.4c1,0.2,1.5,0.3,2.4,0.3h5.5c1-1,1.3-1.4,2.3-2.4c1.5,1.1,1.9,1.5,3.4,2.6c0.2,0.2,0.3,0.3,0.3,0.3
		s-0.2,0.2-0.3,0.2h-11c-0.7,0-1.2,0-2.2,0.2L228.3,742.4z M229.3,747c0.9,0.2,1.6,0.3,2.2,0.3h4c0.9-1.1,1.2-1.4,2.1-2.4
		c1.5,1.1,1.9,1.5,3.2,2.6c0.2,0.2,0.2,0.3,0.2,0.3c0,0.2-0.2,0.3-0.4,0.3h-9c-0.6,0-1,0-2,0.2L229.3,747z M229.4,751.4
		c1,0.2,1.5,0.3,2.2,0.3h4c0.9-1,1.2-1.4,2.2-2.4c1.5,1.1,1.9,1.4,3.2,2.6c0.2,0.2,0.2,0.3,0.2,0.3c0,0.2-0.2,0.3-0.4,0.3h-9
		c-0.6,0-1,0-1.9,0.2L229.4,751.4z M229.5,738c0.9,0.2,1.5,0.3,2.3,0.3h3.8c1-1.1,1.4-1.5,2.3-2.5c1.5,1.1,2.1,1.5,3.4,2.8
		c0.2,0.2,0.2,0.3,0.2,0.3c0,0.2-0.2,0.2-0.4,0.2h-9.4c-0.7,0-1.2,0-2.2,0.2L229.5,738z M233.2,766.9c0,0.3-0.1,0.4-0.2,0.5
		c-0.3,0.2-1,0.3-2.2,0.3c-1,0-1.2-0.1-1.3-0.6c0.1-4.3,0.1-4.3,0.1-6.5c0-3.5,0-4.6-0.1-6.4c1.7,0.9,2.2,1.1,3.9,2.1h2.8
		c0.8-0.9,1-1.2,1.8-2c1.2,0.9,1.5,1.1,2.6,2c0.3,0.3,0.4,0.4,0.4,0.6c0,0.3-0.3,0.5-1.1,0.9c0,5.5,0,5.5,0.1,8.5
		c0,0.3-0.1,0.5-0.3,0.7c-0.3,0.2-1,0.3-2.1,0.3c-1,0-1.2-0.1-1.3-0.6v-1.2h-3.3L233.2,766.9L233.2,766.9z M233.2,764.9h3.3v-7.8
		h-3.3V764.9z M252.2,755.1h2.1c0.8-0.9,1-1.3,1.8-2.2c1.3,0.9,1.7,1.2,2.9,2.2c0.3,0.3,0.4,0.4,0.4,0.5c0,0.3-0.3,0.5-1.2,1v2.7
		c0,3.3,0,5.4,0.1,7.4c0,0.5-0.1,0.7-0.4,0.9c-0.3,0.2-1.2,0.3-2.2,0.3c-1,0-1.2-0.1-1.2-0.7v-1.5h-7.9v1.3c0,0.8-0.4,0.9-2.4,0.9
		c-1.2,0-1.4-0.1-1.4-0.8c0.1-5.1,0.1-5.1,0.1-7.4c0-3.2,0-4.8-0.1-6.7c1.9,0.9,2.4,1.1,4.3,2.2h1.5v-6.9h-4.5c-0.9,0-1.5,0-2.4,0.2
		l-0.2-1.2c1,0.2,1.7,0.3,2.7,0.3h4.5v-6.4c-3,0.4-4.2,0.5-7.1,0.7l-0.1-0.4c4.2-1.1,6.7-2,9.6-3.3c2.1-0.9,2.9-1.5,4-2.3
		c4,2.8,4.2,2.9,4.2,3.2c0,0.3-0.3,0.3-0.6,0.3s-0.9-0.1-1.4-0.2c-2.1,0.7-2.9,0.9-4.9,1.3v7h2.2c1.1-1.4,1.5-1.7,2.6-2.9
		c1.6,1.4,2.2,1.7,3.6,3.1c0.2,0.2,0.2,0.3,0.2,0.3c0,0.2-0.2,0.3-0.3,0.3h-8.3v7H252.2z M246.5,764.9h7.9v-9.1h-7.9V764.9z"/>
	<path d="M273.1,738c0.7-0.9,0.9-1,1.7-1.9c1.1,0.8,1.5,1,2.4,1.8c0.3,0.3,0.4,0.3,0.4,0.5c0,0.3-0.2,0.4-0.9,0.8c0,4,0,4,0.1,8.8
		c0,0.3-0.1,0.5-0.4,0.7c1.2,0.9,1.5,1.2,2.6,2.2c0.2,0.2,0.2,0.3,0.2,0.3c0,0.2-0.2,0.2-0.4,0.2h-5.5v4.9h1.2
		c0.8-0.9,1-1.2,1.8-2.2c1.2,1,1.6,1.4,2.8,2.4c0.1,0.1,0.2,0.2,0.2,0.3s-0.2,0.2-0.3,0.2h-5.5v5.9c2.1,0.5,3.4,0.7,9.4,0.7
		c6.5,0,8.8-0.1,12.7-0.5v0.3c-1.2,0.9-1.6,1.5-2,3.1c0,0.3-0.2,0.3-0.9,0.3c-0.2,0-0.7,0-1.5,0c-1,0-2,0-2.8,0
		c-5.3,0-9.3-0.2-11.1-0.4c-5.2-0.8-8.2-2.9-9.8-7.1c-0.3,1-0.8,2.2-1.4,3.4c-0.9,1.8-1.9,3-3.8,4.8l-0.3-0.3
		c1.1-2.2,1.7-3.8,2.2-6.1c0.4-2,0.9-5.3,0.9-7c0-0.3,0-0.7,0-1.2c1,0.2,1.8,0.3,2.2,0.3c1.9,0.3,2.4,0.5,2.4,0.9
		c0,0.3-0.3,0.4-1.3,0.6c-0.3,1.8-0.3,2.5-0.7,3.6c0.8,1.4,1.4,2.1,2.4,2.9v-9.9h-5.2c-0.7,0-1.2,0.1-1.9,0.3l-0.2-1.2
		c0.7,0.2,1.4,0.3,2.1,0.3h9.5c0.9-1,1.2-1.4,1.9-2.1c-0.6,0.1-0.9,0.1-1.6,0.1c-0.9,0-1.1-0.2-1.1-0.6v-0.7h-5.3v0.7
		c0,0,0,0.1,0,0.2c0,0.5-0.5,0.7-2.2,0.7c-1,0-1.3-0.2-1.3-0.7c0,0,0-0.1,0-0.2c0.1-3,0.2-4.7,0.2-7.6c0-2.3,0-3.2-0.2-4.6
		c1.7,0.7,2.2,0.9,4,1.9L273.1,738L273.1,738z M273.4,738.7h-5.3v3.6h5.3V738.7z M268.1,743v3.9h5.3V743H268.1z M283.1,757.1
		c0,0.4-0.2,0.5-0.8,0.7c3.5,1.7,3.6,1.7,3.6,2.1c0,0.2-0.3,0.3-0.7,0.3c-0.3,0-0.6,0-0.9,0c-2.7,1.5-4,2.2-7.7,3.1l-0.2-0.3
		c2.8-1.8,4.5-3.4,5.6-5.2c-0.3,0-0.6,0-1,0c-1.2,0-1.4-0.1-1.4-0.7c0.1-4.6,0.1-4.6,0.1-6.4c0-6.1,0-8.6-0.2-10.2
		c1.6,0.7,2.1,0.9,3.6,1.8h0.7c0.3-2.1,0.3-2.2,0.4-4h-3.9c-0.7,0-1.3,0.1-1.9,0.2l-0.2-1.2c0.8,0.2,1.4,0.3,2.1,0.3h9
		c0.9-1.1,1.3-1.4,2.2-2.4c1.5,1.1,2,1.5,3.4,2.7c0.2,0.2,0.2,0.2,0.2,0.3c0,0.2-0.2,0.2-0.3,0.2h-6.3c-2.2,2.8-2.3,2.8-3.5,4h4.1
		c0.7-0.9,0.9-1,1.6-1.8c1.1,0.8,1.5,1,2.6,1.8c0.3,0.2,0.4,0.3,0.4,0.5c0,0.3-0.3,0.4-1,0.9c0,1,0,1.7,0,2.3c0,2.3,0,5.2,0.2,10.5
		c0,0.3-0.1,0.5-0.2,0.6c-0.3,0.2-1.1,0.3-2.2,0.3c-0.9,0-1.1-0.1-1.1-0.5v-0.6h-6.2v0.8H283.1z M289.2,743.2H283v3.4h6.2V743.2z
		 M283.1,747.3v3.7h6.2v-3.7H283.1z M283.1,751.8v4h6.2v-4H283.1z M286.7,757.8c3.6,0.6,4.6,0.9,5.6,1.2c0.9,0.3,1.4,1,1.4,1.8
		c0,1.2-0.7,2.3-1.5,2.3c-0.3,0-0.3,0-1.2-1.1c-1.4-1.6-2.6-2.8-4.5-3.9L286.7,757.8z"/>
	<path d="M311,764.9c3.7-1.1,6.3-2.7,8.3-4.9c2.3-2.5,3.4-5.5,3.4-9c0-5.9-3.6-9.4-9.5-9.4c-0.4,0-0.7,0-1.4,0.1
		c1.2,1.4,1.5,2.3,1.5,3.7c0,2.8-1.7,7.6-4.2,11.7c-2.2,3.7-4.2,5.6-5.9,5.6c-0.8,0-1.5-0.4-1.9-1c-0.3-0.5-0.5-1-0.8-2.2
		c-0.2-0.9-0.5-1.3-1.5-2.6c-0.9-1-1.4-2.6-1.4-4c0-2.2,1.1-4.8,2.9-6.9c2.9-3.5,7.8-5.7,13-5.7c7.7,0,13.2,4.8,13.2,11.7
		c0,5-2.8,9-7.7,11.3c-2.2,1-4.3,1.5-7.9,2.1L311,764.9z M304.6,745.3c-2.4,2.4-3.7,5.3-3.7,8.2c0,2.4,1.2,4.8,2.3,4.8
		s3.4-2.8,5.7-7.1c1.7-3.3,2.8-6.1,2.8-7.6c0-0.3,0-0.9-0.2-1.1c-0.1-0.3-0.3-0.8-0.3-0.8C308.4,742.4,306.5,743.4,304.6,745.3z"/>
	<path d="M334.2,766c2.9-2.2,4.6-3.9,7-6.5c3.4-4.1,6.6-9.4,8.6-14.3c0.4-1,0.7-1.9,0.7-2.2c0-0.3-0.2-0.3-0.6-0.3
		c-1.2,0-4.3,0.6-7.3,1.4c-2.6,0.7-3.9,1.2-5.5,2c-0.3,0.2-0.9,0.3-1.2,0.3c-1,0-2.2-0.9-3.2-2.6c-0.7-1-0.9-1.7-0.9-2.4
		c0-0.3,0-0.4,0.2-0.9c0.9,1.5,1.9,2.2,3.6,2.2c1.5,0,5.5-0.5,11.2-1.5c2.6-0.4,2.8-0.5,3.8-1c0.2-0.1,0.6-0.2,0.8-0.2
		c0.5,0,1.6,0.7,2.5,1.5c1.2,1,1.8,2,1.8,2.6c0,0.5-0.2,0.8-0.6,1.2c-0.6,0.6-0.8,0.9-1.5,2.2c-3.2,6-6.3,10.2-10.2,13.6
		c-2.8,2.4-4.8,3.6-8.8,5.3L334.2,766z"/>
	<path d="M365.6,766.7c3.4-2.7,5.9-5.2,8.2-8.3c2.6-3.6,4.5-7.1,5.5-10.4c-4.4,0.6-6,0.9-9.1,1.7c-2.4,0.6-2.9,0.8-4,1.4
		c-0.5,0.3-0.9,0.3-1.3,0.3c-1.5,0-3.9-3-3.9-4.8c0-0.3,0-0.4,0.2-0.8c0.9,1.5,2,2.2,3.6,2.2c1.3,0,7.4-0.9,11.9-1.6
		c2.1-0.3,2.2-0.3,2.9-0.9c0.3-0.2,0.6-0.3,0.9-0.3c0.5,0,1.3,0.5,2.2,1.3c1,0.9,1.5,1.6,1.5,2.2c0,0.4-0.2,0.7-0.7,1
		c-0.5,0.4-0.8,0.8-1.5,2.2c-4,7.6-9.1,12.4-16.3,15.1L365.6,766.7z M364.6,738.9c1.4,1.3,2.3,1.7,3.8,1.7c2.5,0,6.3-0.9,7.9-2
		c0.3-0.2,0.5-0.3,0.9-0.3c0.7,0,2,0.5,2.8,1.1c0.6,0.4,0.9,0.9,0.9,1.3c0,0.8-0.5,1-2.7,1.4c-3.4,0.5-6.8,0.9-8.2,0.9
		c-2.7,0-4.1-1-5.8-4L364.6,738.9z"/>
	<path d="M392,749.7c0.8,0.5,1.5,0.7,3.4,0.7c1.4,0,7.7-0.1,13.6-0.3c0.6,0,2.8,0,3.9,0c3.4,0,4.5,0.2,5.1,0.6
		c0.3,0.3,0.4,0.6,0.4,1c0,0.9-0.8,1.4-2.2,1.6c-1.9,0.3-5,0.3-15.3,0.4c-1.5,0-1.7,0-4.3,0.2c-0.9,0.1-1,0.1-1.5,0.3
		c-0.5,0.2-0.9,0.3-1.2,0.3c-0.9,0-1.7-0.8-2.6-2.2c-0.9-1.4-1.2-2.6-1.2-3.6c0-0.6,0-0.7,0.4-1.1C391.2,749,391.5,749.2,392,749.7z
		"/>
	<path d="M450.3,748.4c-2.3,3.8-4.2,6.1-7.2,8.7c-2.6,2.2-5.2,3.9-10,6.4c-1,0.5-1,0.5-1.7,1.2c-0.3,0.3-0.7,0.5-1,0.5
		c-1,0-3.3-2.8-3.3-4.1c0-0.3,0-0.3,0.2-0.9c0.3-0.8,0.3-1.5,0.3-5.3c0-3.7-0.2-9.6-0.3-11.1c-0.2-2.4-0.8-3.2-2.9-3.9
		c0.4-0.3,0.9-0.4,1.5-0.4c1,0,2.6,0.4,4,1.2c1.5,0.7,2.1,1.5,2.1,2.3c0,0.3,0,0.4-0.2,0.9c-0.3,0.7-0.4,1.5-0.5,2.4
		c-0.3,2.7-0.7,9.5-0.7,12.6c0,0.2,0,0.7,0,1.2c4.7-1.7,7.7-3.2,11.6-5.7c3.2-2.1,5.7-4.1,7.7-6.2L450.3,748.4z"/>
	<path d="M454,741.2c3.9,0.6,5.9,1.2,7.6,2.2c1.1,0.7,1.7,1.6,1.7,2.9c0,1.6-0.8,2.8-1.9,2.8c-0.6,0-0.9-0.3-1.5-1.2
		c-1.6-3-3.4-4.8-6.1-6.5L454,741.2z M480.1,743.2c-1.9,4-4.3,7.2-7.7,10.7c-3.1,3-5.6,5-10,7.8c-0.9,0.6-1.5,1-1.9,1.5
		c-0.5,0.6-0.9,0.9-1.5,0.9c-0.9,0-2.2-0.9-3.4-2.5c-1.1-1.4-1.6-2.8-1.6-3.8c0-0.3,0-0.5,0.2-0.9c0.9,1.5,2.1,2.6,3,2.6
		c1.5,0,5.9-2.4,10.1-5.3c5.2-3.7,9.5-7.6,12.4-11.1L480.1,743.2z"/>
	<path d="M484.5,742.1c1.5,1.3,2.6,1.7,4.7,1.7c1.1,0,2.1-0.1,3.4-0.4c0.7-1.2,1.2-2.8,1.2-3.8c0-1.2-0.8-1.8-2.8-2.2
		c0.7-0.4,1-0.5,1.9-0.5c1.2,0,2.8,0.3,3.9,0.8c0.9,0.4,1.5,0.9,1.5,1.5c0,0.3-0.2,0.6-0.6,1c-0.5,0.7-1.2,1.5-1.8,2.6
		c3.1-1,3.4-1.2,4.6-2.2c0.3-0.3,0.6-0.3,0.9-0.3c1.5,0,2.8,0.8,2.8,1.6c0,0.7-0.6,1.1-2.8,1.9c-2.2,0.7-4.4,1.3-7.1,1.7
		c-1,1.5-1.3,1.9-1.7,2.4c-1.3,1.9-1.3,1.9-1.8,2.6c2.1-1.1,3.4-1.5,4.9-1.5c1.1,0,2.2,0.4,2.9,1.2c0.4,0.5,0.7,0.9,0.9,1.8
		c0.6-0.3,0.6-0.3,3.3-1.7c1-0.5,2.2-1.2,2.9-1.7c0.5-0.3,0.7-0.6,0.7-0.9c0-0.7-0.7-1.4-1.9-1.9c0.5-0.2,0.7-0.2,1-0.2
		c2.1,0,5.1,2.6,5.1,4.4c0,0.7-0.3,1-1.4,1.3c-4,1-7.1,2.2-9.3,3.3c0.1,2.3,0.1,2.4,0.1,2.8c0,1.7-0.1,2.4-0.3,2.8
		c-0.3,0.5-0.9,0.9-1.7,0.9c-0.9,0-1.5-0.5-1.5-1.5c0-0.1,0-0.1,0.1-1.4c0-0.8,0.1-1.3,0.1-2.2c-3.7,2.1-5.1,3.5-5.1,5.3
		c0,1.6,1.6,2.4,5.2,2.4c2.2,0,4.8-0.3,6.4-0.9c0.9-0.3,1.1-0.4,1.5-0.4c0.5,0,1.4,0.3,2.1,0.8c0.7,0.5,1.1,1.2,1.1,1.8
		c0,0.6-0.5,1.1-1.3,1.4c-1.3,0.3-3.6,0.6-6.7,0.6c-3.8,0-6.1-0.4-7.7-1.5c-1.3-0.9-2-2.2-2-3.8s0.9-3.4,2.6-5
		c0.9-0.8,1.7-1.4,4-2.9c0-1.3-0.2-1.7-0.4-2.4c-0.3-0.6-0.9-0.9-1.6-0.9c-2.1,0-4.5,1.7-7.2,5.3c-0.9,1.1-1.2,1.4-1.7,1.4
		c-0.9,0-1.5-1.2-1.5-2.8c0-0.4,0.1-0.8,0.3-1c0.3-0.3,0.3-0.3,1.4-1.1c1.3-0.9,3.6-3.4,5.4-6.1c-0.5,0-0.9,0.1-1.1,0.1
		c-1.5,0-3-0.3-4-1c-0.9-0.5-1.4-1.2-2.1-2.4L484.5,742.1z"/>
	<path d="M231.5,803.1c0.4,0,0.9-0.3,1.7-0.9c0.6-0.5,0.7-0.5,2.8-2.7c2.6-2.6,3.5-3.2,4.9-3.2c1.2,0,1.5,0.2,5.2,2.8
		c6,4.4,9.1,6.4,11.8,7.4c0.6,0.3,0.9,0.6,1.4,1.3c0.5,0.9,0.9,2.2,0.9,3.3c0,0.9-0.5,1.7-1.3,1.7s-1.6-0.5-3.4-1.9
		c-3.3-2.6-4.8-4-11.4-10.4c-2.3-2.2-2.7-2.6-3.4-2.6c-0.8,0-1.4,0.7-2.8,3c-0.9,1.4-1.6,2.9-2.4,4.9c-0.3,0.9-0.9,1.2-1.6,1.2
		c-1,0-2.4-0.8-3.5-2.1c-1-1.2-1.5-2.2-1.5-3.3c0-0.1,0-0.1,0.1-0.5C229.5,802.3,230.7,803.1,231.5,803.1z"/>
	<path d="M263.7,818.2c2.8-2.6,4.9-5.6,6.4-9.3c1-2.6,2-6.2,2-7.9c0-0.8-0.3-1.2-0.9-1.7c-0.4-0.3-0.9-0.6-1.5-0.8
		c0.3-0.3,0.7-0.4,1.3-0.4c1.3,0,4,1.2,5.3,2.3c2.8-1.9,6.5-5.6,6.5-6.3c0-0.3-0.3-0.4-1.3-0.4c-1.9,0-5.9,0.6-9.5,1.3
		c-2.8,0.6-4.4,1.1-6,2c-0.9,0.4-1.1,0.5-1.5,0.5c-0.9,0-2.1-0.9-3.1-2.4c-0.6-0.9-1-2.1-1-2.8c0-0.3,0.1-0.6,0.2-1
		c0.9,1.5,2,2.2,3.8,2.2c1.2,0,1.7,0,6.5-0.6c6-0.7,7.9-0.9,9.3-1.1c1-0.2,1-0.2,2.1-0.5c0.3-0.1,0.4-0.2,0.6-0.2
		c0.6,0,1.2,0.3,2.3,1.3c1.7,1.5,2.8,2.8,2.8,3.6c0,0.5-0.3,0.9-0.7,1c-0.3,0.2-0.3,0.2-1,0.3c-0.4,0.1-0.8,0.2-1.4,0.5
		c-3,1.4-4.1,1.9-8.4,3.5c-0.6,2-0.9,3.3-1.2,4c-1.5,4.1-3.3,7.1-6.2,9.6c-1.7,1.5-3.2,2.6-5.1,3.4L263.7,818.2z"/>
	<path d="M289.6,806.8c2.2-2.6,4-5.3,5.8-8.8c1.5-2.9,2.3-5.2,2.3-6.2s-0.9-1.9-2.3-2.5c0.4-0.2,0.7-0.3,1.1-0.3
		c1,0,2.3,0.4,3.8,1.2c1.4,0.7,2.1,1.4,2.1,2.1c0,0.4-0.1,0.5-0.8,1.5c-0.1,0.1-0.3,0.4-0.6,0.9c-0.3,0.5-1.5,2.6-1.9,3.2
		c0.5,0.4,0.9,0.5,1.8,0.5c2.6,0,9.8-1.7,11.6-2.8c0.6-0.3,0.8-0.4,1.2-0.4c0.5,0,1.5,0.3,2.4,0.8c0.9,0.5,1.4,0.9,1.4,1.5
		s-0.3,1-1,1.1c-0.4,0.1-0.7,0.2-3.4,0.3c-0.5,0.1-1.3,0.2-2.3,0.3c-2,0.3-2.4,0.3-3.6,0.4c1.8,0.9,2.5,1.6,2.5,2.4
		c0,1.5-2,5.9-3.8,8.6c-2.5,3.6-5.3,5.9-9.6,7.9l-0.3-0.3c3-2.7,5.2-5.4,7.1-9c1.5-3.1,2.8-6.5,2.8-8.1c0-0.6-0.2-0.9-0.6-1.4
		c-1.4,0.2-2.2,0.3-3.3,0.3c-1.5,0-2.2-0.3-3.4-1.5c-2.6,3.7-5.3,6.3-8.6,8.3L289.6,806.8z"/>
	<path d="M324.6,818.2c2.8-2.6,4.9-5.6,6.4-9.3c1-2.6,2-6.2,2-7.9c0-0.8-0.3-1.2-0.9-1.7c-0.4-0.3-0.9-0.6-1.5-0.8
		c0.3-0.3,0.7-0.4,1.3-0.4c1.3,0,4,1.2,5.3,2.3c2.8-1.9,6.5-5.6,6.5-6.3c0-0.3-0.3-0.4-1.3-0.4c-1.9,0-5.9,0.6-9.5,1.3
		c-2.8,0.6-4.4,1.1-6,2c-0.9,0.4-1.1,0.5-1.5,0.5c-0.9,0-2.1-0.9-3.1-2.4c-0.6-0.9-1-2.1-1-2.8c0-0.3,0.1-0.6,0.2-1
		c0.9,1.5,2,2.2,3.8,2.2c1.2,0,1.7,0,6.5-0.6c6-0.7,7.9-0.9,9.3-1.1c1-0.2,1-0.2,2.1-0.5c0.3-0.1,0.4-0.2,0.6-0.2
		c0.6,0,1.2,0.3,2.3,1.3c1.7,1.5,2.8,2.8,2.8,3.6c0,0.5-0.3,0.9-0.7,1c-0.3,0.2-0.3,0.2-1,0.3c-0.4,0.1-0.8,0.2-1.4,0.5
		c-3,1.4-4.1,1.9-8.4,3.5c-0.6,2-0.9,3.3-1.2,4c-1.5,4.1-3.3,7.1-6.2,9.6c-1.7,1.5-3.2,2.6-5.1,3.4L324.6,818.2z"/>
	<path d="M377.2,794.2c0.8-1,1-1.4,2-2.6c1.5,1.2,2.1,1.5,3.6,2.8c0.1,0.1,0.2,0.3,0.2,0.3c0,0.1-0.2,0.2-0.3,0.2h-10.7
		c0.2,5,0.6,8,1.5,10.7c1.5-3,2.4-5.6,2.7-8c4,1.2,4.9,1.5,4.9,1.9s-0.3,0.5-1.5,0.7c-1.5,4.1-2.6,6.2-4.5,9
		c1.1,1.8,1.9,2.7,4.1,4.6c1.5-2.3,2-3.3,3.5-6.5l0.3,0.1l-1.4,6.4c-0.1,0.4-0.2,0.7-0.2,0.9c0,0.3,0,0.3,0.7,1
		c0.3,0.3,0.5,0.9,0.5,1.4c0,1.1-0.9,2.1-1.9,2.1c-1.3,0-3.1-1.1-5.3-3.4c-1.1-1.1-2-2.2-2.8-3.6c-1.2,1.2-2.2,2.1-3.4,2.9
		c-2.5,1.9-4.3,2.8-7.9,4.1l-0.2-0.3c4.6-2.9,7.3-5.5,10-9.4c-1.6-3.5-2.4-7.7-2.9-14.5h-10.2c0,3.3,0,4.5-0.2,6.2h4.6
		c0.8-0.9,1-1.2,1.8-2.1c1.2,0.9,1.5,1.1,2.8,2c0.3,0.3,0.3,0.4,0.3,0.5c0,0.3-0.2,0.4-1.1,0.9c-0.3,6.2-0.9,9-1.6,10.3
		c-0.6,1-1.7,1.6-3.3,1.9c-0.3,0.1-0.8,0.1-1,0.1c-0.3,0-0.5-0.2-0.5-0.6c0-1.7-0.7-2.3-2.9-3.1l0.1-0.4c2.6,0.2,3.3,0.3,3.8,0.3
		c0.8,0,1-0.3,1.2-1.4c0.3-1.6,0.6-5,0.7-7.7h-5c-0.2,3.9-0.4,5.4-0.8,7.1c-0.6,2.6-1.7,5.1-3.3,7.2c-0.8,1-1.4,1.8-2.8,3.3
		l-0.3-0.2c1.5-3.1,2.2-5.1,2.8-8.3c0.5-3.2,0.8-6.7,0.8-13.6c0-2.6,0-3.4-0.2-5.5c1.9,0.9,2.5,1.2,4.4,2.3h9.8
		c-0.1-1-0.1-1.5-0.1-2.2c-0.1-2.4-0.1-2.9-0.3-4.1c4.8,0.4,5.2,0.5,5.2,0.9c0,0.3-0.3,0.5-1.2,0.9c0,1.5-0.1,2.3-0.1,2.8
		s0,0.7,0,1.7L377.2,794.2L377.2,794.2z M373.7,788.6c1.7,0.2,2.5,0.3,3.3,0.6c1.2,0.4,1.7,1,1.7,1.8c0,1.1-0.9,2.2-1.9,2.2
		c-0.2,0-0.4-0.1-0.6-0.2c-0.2-0.2-0.3-0.3-0.6-1.2c-0.5-1.4-1-2.1-2.1-3L373.7,788.6z"/>
	<path d="M385.6,804.5c2.9-2.9,4.9-5.5,6.9-8.9c1.6-2.8,2.6-5,3.4-7.7c2.8,1.1,4.8,1.9,5.1,2.2c0.1,0.1,0.2,0.2,0.2,0.3
		c0,0.3-0.4,0.5-1.7,0.6c-2.2,3.9-3.8,6-6,8.3c-2.2,2.2-4.1,3.6-7.6,5.5L385.6,804.5z M401.2,801.9c-0.3,2.1-0.3,2.3-0.5,3.4
		c-1.5,7.4-5.3,11.2-13.9,14.2l-0.2-0.3c4.7-3.1,7.4-5.9,8.9-9.6c0.9-2.2,1.2-4,1.5-7.6h-2.4c-0.8,0-1.6,0.1-2.4,0.2l-0.3-1.2
		c1,0.2,1.7,0.3,2.6,0.3h13.1c0.7-0.7,0.9-0.9,1.5-1.5c1.4,0.9,1.7,1.2,3,2.2c0.3,0.3,0.4,0.4,0.4,0.6c0,0.2-0.2,0.3-0.8,0.7
		c-0.3,5.3-0.6,7.2-1,9.8c-0.6,3.3-1.4,4.6-3,5.3c-0.9,0.3-2.4,0.7-3.8,0.7c-0.6,0-0.7-0.1-0.7-0.8c-0.1-0.9-0.5-1.6-1.4-2.1
		c-0.9-0.5-1.5-0.7-3.9-1.4v-0.4c2.6,0.3,5.5,0.6,6.5,0.6c1.5,0,1.9-0.3,2.2-1.7c0.6-2.7,0.9-6.4,1.1-11.1h-6.6V801.9z M404.8,788.1
		c0,0.2,0,0.3,0,0.3c0,1,1.3,3,3.2,4.9c1.7,1.7,3.8,3.2,6.3,4.3c1.4,0.6,2.3,0.9,4.4,1.5v0.3c-0.9,0.4-1.3,0.8-2,1.6
		c-0.3,0.5-0.7,1.2-0.9,1.7c-0.1,0.3-0.3,0.4-0.3,0.4c-0.3,0-1.9-1-3.3-2.2c-3.4-2.8-5.7-6-7.5-10.8c-0.3-0.9-0.6-1.3-0.9-1.7
		L404.8,788.1z"/>
	<path d="M427.4,788.6c1.1,0,2.3,0.3,3.5,0.7c1.4,0.5,2,1.1,2,1.9c0,0.3,0,0.3-0.3,1.2c-0.6,1.2-1,4.2-1,7.2c0,1.1,0.3,1.6,1.1,1.6
		c0.5,0,1.2-0.3,3.1-1.1c1.5-0.7,2.3-0.9,3-0.9c1.2,0,2.2,1,2.2,2.2c0,0.7-0.3,1.1-0.9,1.5c-0.3,0.2-0.3,0.2-3.4,0.9
		c-3.8,0.9-6.7,2.2-8.7,3.6c-1.7,1.2-2.4,2.5-2.4,4c0,2.2,1.8,3.3,5.1,3.3c2.5,0,5.1-0.3,8.2-1.2c0.5-0.2,0.9-0.2,1.2-0.2
		c0.9,0,1.7,0.3,2.4,1.1c0.5,0.5,0.7,0.9,0.7,1.5c0,0.8-0.6,1.3-1.8,1.5c-1.2,0.3-4.3,0.5-6.9,0.5c-3.1,0-5.3-0.3-6.9-1
		c-2.4-0.9-3.8-3.1-3.8-5.5c0-3.3,2.8-6.4,8.1-9.2c-0.1,0-0.2,0-0.3,0c-0.7,0-1.5-0.3-1.9-0.7c-0.9-0.8-1-1.8-1.1-6.2
		c-0.2-3.3-0.2-4-0.4-4.6c-0.3-0.8-1-1.2-2.7-1.5C425.9,788.7,426.3,788.6,427.4,788.6z"/>
	<path d="M473.9,807.6c-0.2,0.3-0.3,0.7-0.4,0.9c-1.2,2.4-1.4,2.6-2.1,3.5c-2.8,3.8-7,6-11.1,6c-2.8,0-5.2-1.1-6.4-3.1
		c-0.9-1.5-1.4-3.7-1.4-7.4c0-2.2,0-3.1,0.4-11c0-1,0.1-2,0.1-2.8c0-2.4-0.5-3.3-2.8-4.2c0.4-0.3,0.7-0.3,1.1-0.3
		c1.3,0,2.9,0.5,4.4,1.2c1.5,0.8,2.2,1.6,2.2,2.5c0,0.4-0.1,0.6-0.4,1.5c-1,2.3-2.2,10.7-2.2,15.3c0,3.3,1.5,4.8,4.7,4.8
		c2.9,0,6.2-1,9.1-2.9c1.7-1.1,2.5-1.8,4.5-4L473.9,807.6z"/>
	<path d="M478.2,796.1c1.1,0,2.3-0.3,9.3-2.1c1.7-0.4,2.9-0.7,7.7-1.7c1.4-0.3,1.8-0.4,2.8-0.9c0.5-0.2,0.9-0.3,1.3-0.3
		c0.6,0,1.7,0.4,2.6,0.9c0.9,0.6,1.4,1.2,1.4,1.9c0,0.9-0.7,1.4-1.7,1.4c-0.2,0-0.5,0-0.9-0.1c-0.4,0-0.6,0-1,0
		c-3.1,0-6.1,1.4-8.3,3.9c-1.7,2.1-2.7,4.4-2.7,6.8c0,2.9,1.5,5.2,4.1,6.2c0.9,0.3,2,0.5,2.8,0.5c0.1,0,0.2,0,0.3,0s0.3,0,0.3,0
		c0.7,0,1.3,0.3,1.8,0.7c0.9,0.7,1.4,1.7,1.4,2.4c0,1.1-0.8,1.6-2.4,1.6c-2.5,0-5.3-1-7.3-2.6c-2.3-1.9-3.6-4.6-3.6-7.7
		c0-2.9,1.4-6.1,3.9-8.6c1.4-1.4,2.6-2.3,5.5-4c-3,0.7-6.4,1.6-9.3,2.8c-2.9,1.1-3.7,1.5-5.1,2.3c-0.6,0.4-1.2,0.6-1.7,0.6
		c-1.9,0-4.5-3.3-4.5-5.5c0-0.3,0.1-0.5,0.3-1C475.7,795.3,476.8,796.1,478.2,796.1z"/>
	<path d="M515.3,803.2l-1.1,4.4c-0.7,2.6-1.1,4.9-1.1,6c0,0.3,0,0.6,0.1,1.1c0,0.3,0.1,0.7,0.1,0.9c0,1-0.7,1.8-1.6,1.8
		c-0.9,0-1.5-0.6-2.1-1.8c-0.7-1.6-1.2-4.5-1.2-7.3c0-3.4,0.3-5.9,1.5-11.6c0.5-2.2,0.6-2.8,0.6-3.6c0-1.2-0.3-2-1-3.4
		c1.1,0.3,2,0.8,3.1,2c1.2,1.3,1.9,2.7,1.9,3.6c0,0.6-0.1,0.9-0.6,1.8s-1,1.8-1.4,2.7c-0.9,2.2-1.5,5.2-1.5,7.6
		c0,1.3,0.1,2.2,0.3,3.3c0.6-1.1,0.9-1.5,1.6-3.4c0.9-1.7,1.1-2.3,2.1-4.1L515.3,803.2z M517.7,797.2c1.5,1.2,2.6,1.6,4.4,1.6
		c1.4,0,2.7-0.2,4-0.5c0-4.3-0.1-5.3-0.3-5.9c-0.3-0.9-1.3-1.4-2.8-1.5c0.7-0.5,1.2-0.7,2.2-0.7c1.3,0,2.6,0.3,3.6,0.8
		c0.9,0.3,1.4,0.9,1.4,1.5c0,0.3-0.1,0.5-0.3,1.2c-0.5,1.1-0.7,1.7-0.9,4c1.5-0.5,2.1-0.7,3.1-1.5c0.3-0.3,0.5-0.3,0.9-0.3
		c0.7,0,1.7,0.3,2.2,0.9c0.2,0.2,0.3,0.5,0.3,0.9c0,1-2.2,2-6.5,2.9c0,0.6,0,1,0,1.3c0,2.8,0.2,5.2,0.5,7.6c2.1,0.6,3.4,1.2,4.5,2.1
		c1,0.7,1.5,1.6,1.5,2.8c0,1.2-0.5,2.1-1.2,2.1c-0.4,0-0.5-0.1-2-1.5c-0.8-0.9-1.7-1.5-2.8-2.1c0,0.2,0,0.3,0,0.4
		c0,2.7-2.2,4.3-6.1,4.3c-3.4,0-5.7-1.6-5.7-4c0-2.8,2.8-4.6,7-4.6c0.5,0,0.9,0,1.5,0.1c0-0.4-0.1-5.9-0.2-7.9
		c-0.9,0.2-1.7,0.2-2.4,0.2c-1.7,0-3.1-0.3-4.1-1.2c-0.9-0.6-1.5-1.4-2.2-2.3L517.7,797.2z M523.1,810.8c-2.6,0-4.2,0.9-4.2,2.2
		c0,1.1,1.3,1.9,3.3,1.9c1.4,0,2.7-0.3,3.3-1c0.3-0.3,0.6-0.9,0.7-1.5c0-0.3,0.1-0.9,0.1-1v-0.1
		C525.2,810.9,524.3,810.8,523.1,810.8z"/>
	<path d="M564.2,807.9c-0.2,0.3-0.4,0.8-0.4,0.9c-1.2,2.4-1.4,2.6-2.1,3.5c-2.8,3.8-7,6-11.1,6c-2.8,0-5.2-1.1-6.4-3.1
		c-0.9-1.5-1.4-3.7-1.4-7.4c0-2.2,0-3.1,0.4-11c0-1,0.1-2,0.1-2.8c0-2.4-0.5-3.3-2.8-4.2c0.4-0.3,0.7-0.3,1.1-0.3
		c1.3,0,2.9,0.5,4.4,1.2c1.5,0.8,2.2,1.6,2.2,2.5c0,0.4-0.1,0.6-0.4,1.5c-1,2.3-2.2,10.7-2.2,15.3c0,1.7,0.4,2.9,1.2,3.7
		c0.7,0.7,2,1,3.4,1c3,0,6.2-1,9.2-2.9c1.7-1.1,2.5-1.8,4.5-4L564.2,807.9z M554.1,792.2c1.6,0.5,2.7,0.9,3.7,1.6
		c1.5,1,2.3,2.1,2.3,3.2c0,0.8-0.4,1.4-1,1.4c-0.4,0-0.7-0.2-1.2-1c-1-1.8-2.4-3.3-4-4.6L554.1,792.2z M557.6,789.5
		c1.7,0.3,3,0.9,4,1.5c1.4,0.9,2,1.7,2,2.7c0,0.9-0.4,1.4-1,1.4c-0.3,0-0.6-0.2-1.1-0.9c-1.2-1.7-2.4-2.8-4.1-4L557.6,789.5z"/>
	<path d="M572.2,792.4c2.8,1.4,4,2.8,4.7,6.2c2.4-1.2,4-1.7,6.9-2.2c0.3-1.9,0.5-3,0.5-4c0-1-0.4-1.4-1.6-1.4c-0.3,0-0.5,0-1,0.1
		l-0.1-0.3c1.3-0.7,2-0.9,2.8-0.9c0.9,0,2.1,0.4,2.8,1c0.6,0.5,0.9,1,0.9,1.7s-0.3,2.2-0.9,3.9c5.9,0.5,10,4.6,10,9.8
		c0,4.3-2.5,7.8-7.1,9.8c-2.2,0.9-4.6,1.5-8.3,1.8l-0.1-0.3c4.6-1.5,6.8-2.8,8.8-5.2c1.7-2.1,2.6-4.5,2.6-7.1c0-2.5-0.9-4.6-2.4-6
		c-1-0.9-2.2-1.4-3.8-1.5c-1.6,4.6-3.4,8.1-5.9,11.4c0.3,0.6,0.5,0.9,1.1,1.5c0.9,1,1.2,1.5,1.2,2.1c0,0.7-0.5,1.1-1.2,1.1
		c-0.9,0-2.1-0.7-3.3-2.2c-0.7,0.9-1.6,1.6-2.8,2.4c-1.2,0.9-2.1,1.2-2.9,1.2c-1,0-1.5-0.6-1.8-2c-0.2-1.1-0.3-1.4-1.1-2.2
		c-0.7-0.7-1-1.5-1-2.5c0-1.4,0.6-3.2,1.5-4.6c1-1.5,2.2-2.6,4-4c-0.8-4.3-1.2-5.4-2.9-7.1L572.2,792.4z M572.1,808.8
		c0,1.4,0.9,2.9,1.6,2.9c0.9,0,2.2-0.9,3.6-2.4c-1-2.4-1.6-4.6-2.1-7.5C573.1,804.1,572.1,806.2,572.1,808.8z M578.3,803.3
		c0.3,1.1,0.7,2.1,1.4,3.4c1.7-2.7,3-5.8,4-9.1c-2.8,0.4-4.3,1-6.3,2.4C577.5,800.7,577.5,800.7,578.3,803.3z"/>
	<path d="M602.7,796.1c1.1,0,2.3-0.3,9.3-2.1c1.7-0.4,2.9-0.7,7.7-1.7c1.4-0.3,1.8-0.4,2.8-0.9c0.5-0.2,0.9-0.3,1.3-0.3
		c0.6,0,1.7,0.4,2.6,0.9c0.9,0.6,1.4,1.2,1.4,1.9c0,0.9-0.7,1.4-1.7,1.4c-0.2,0-0.5,0-0.9-0.1c-0.4,0-0.6,0-1,0
		c-3.1,0-6.1,1.4-8.3,3.9c-1.7,2.1-2.7,4.4-2.7,6.8c0,2.9,1.5,5.2,4.1,6.2c0.9,0.3,2,0.5,2.8,0.5c0.1,0,0.2,0,0.3,0
		c0.2,0,0.3,0,0.3,0c0.7,0,1.3,0.3,1.8,0.7c0.9,0.7,1.4,1.7,1.4,2.4c0,1.1-0.8,1.6-2.4,1.6c-2.5,0-5.3-1-7.3-2.6
		c-2.3-1.9-3.6-4.6-3.6-7.7c0-2.9,1.4-6.1,3.9-8.6c1.4-1.4,2.6-2.3,5.5-4c-3,0.7-6.4,1.6-9.3,2.8c-2.9,1.1-3.7,1.5-5.1,2.3
		c-0.6,0.4-1.2,0.6-1.7,0.6c-1.9,0-4.5-3.3-4.5-5.5c0-0.3,0.1-0.5,0.3-1C600.3,795.3,601.3,796.1,602.7,796.1z"/>
	<path d="M641.7,795.9h1c0.7-0.7,0.9-0.9,1.5-1.6c1,0.8,1.4,1,2.3,1.8c0.3,0.2,0.4,0.3,0.4,0.5c0,0.3-0.3,0.5-1.2,0.9
		c0,16,0,16,0.2,20.6c0,0.7-0.4,0.9-2.2,0.9c-0.8,0-0.9-0.1-0.9-0.6v-2.1h-7.6v2.2c0,0.7-0.4,0.9-2.2,0.9c-0.9,0-1-0.1-1-0.6
		c0,0,0,0,0-0.1c0.2-6.1,0.2-7.7,0.2-15c0-4.8,0-6.2-0.2-9.6c1.5,0.8,2.1,1,3.4,1.9h0.6v-5.4h-2.9c-0.9,0-1.4,0-2.2,0.2l-0.2-1.2
		c0.9,0.2,1.7,0.3,2.5,0.3h8.4c0.9-1.1,1.2-1.5,2.1-2.5c1.5,1.1,1.9,1.5,3.4,2.8c0.1,0.2,0.2,0.3,0.2,0.3c0,0.1-0.2,0.2-0.3,0.2
		h-5.2L641.7,795.9L641.7,795.9z M642.8,807c-0.6,0.1-0.9,0.1-1.4,0.1c-1.6,0-1.9-0.1-1.9-1.1c0-2.2,0-2.2,0-2.5v-6.9h-1.2
		c0,2.9-0.1,4.1-0.3,5.8c-0.3,2.6-1,4.3-2.5,6.5l-0.3-0.2v2h7.6L642.8,807L642.8,807z M635.2,796.6v11.7c0.6-1.1,0.9-2.6,1.1-5
		c0.1-0.9,0.2-3.3,0.2-6.7H635.2z M642.8,811.4h-7.6v4.2h7.6V811.4z M638.2,790.5v5.4h1.2v-5.4H638.2z M641.3,796.6v8.1
		c0,0.3,0.1,0.3,0.4,0.3c0.3,0,0.6,0,1,0v-8.4H641.3z M661.4,807.4v6.4c0,0.6,0,0.6,0.8,0.9c0.6,0.3,0.9,0.8,0.9,1.5
		c0,0.8-0.4,1.4-1.1,1.7c-0.9,0.4-2.4,0.5-5.6,0.5c-4.1,0-5.9-0.1-6.6-0.3c-1.2-0.3-1.6-0.9-1.6-2.6c0,0,0-0.2,0-0.3
		c0-2.2,0-2.2,0-8c0-6,0-7.1-0.1-9.3c1.9,0.9,2.4,1.2,4.2,2.2h4.9v-9.7h-6.8c-1,0-1.5,0-2.4,0.2l-0.2-1.2c0.9,0.2,1.5,0.3,2.7,0.3
		h6.4c0.9-0.9,1.1-1.2,2-2.1c1.4,0.9,1.8,1.2,3,2.1c0.3,0.3,0.5,0.5,0.5,0.7c0,0.3-0.3,0.5-1.4,1c0,1.4,0,2.4,0,3.1
		c0,2.5,0,4.2,0.2,7.7c0,0.3,0,0.5-0.2,0.6c-0.3,0.2-0.5,0.3-1.6,0.3c-0.5,0-1,0.1-1.2,0.1c-0.6,0-0.8-0.2-0.9-0.7v-1.7h-5.3v13.3
		c0,0.6,0.1,0.7,0.5,0.8c0.4,0.1,1.7,0.1,3.7,0.1c2.1,0,2.4-0.1,2.8-0.7s1.3-3.4,2.3-7H661.4z"/>
	<path d="M664.6,804.1c3.6-2.8,6.1-5.2,8.8-8.6c2.2-2.9,3.7-5.5,4.4-7.8c5.7,1.2,5.9,1.3,5.9,1.7c0,0.3-0.5,0.5-1.5,0.7
		c1.7,2.6,4,4.5,7.1,6.2c2.8,1.5,5.7,2.5,8.6,2.9v0.4c-1.5,0.5-2.2,1.4-3,3.8c-0.1,0.3-0.3,0.3-0.4,0.3c-0.3,0-1.4-0.6-2.8-1.5
		c-4.5-2.9-7-5.9-9.8-11.7c-2.6,4.1-4.6,6.4-8.1,9c-2.8,2.2-5,3.4-8.8,5L664.6,804.1z M674,818.2c0,0.5-0.2,0.8-0.5,0.9
		c-0.3,0.1-1.4,0.3-2.2,0.3c-0.9,0-1.3-0.2-1.3-0.9c0,0,0-0.2,0-0.3c0.1-2.6,0.2-5.3,0.2-8.3c0-3.3,0-4.5-0.2-5.9
		c2.1,0.9,2.6,1.2,4.6,2.2H687l2.1-2.2c1.4,0.9,1.7,1.2,3,2.2c0.3,0.3,0.4,0.4,0.4,0.6c0,0.3-0.3,0.5-1.3,0.9c0,4.5,0,6,0.2,10.3
		c0,0.1,0,0.2,0,0.2c0,0.3-0.2,0.6-0.5,0.7c-0.3,0.2-1.7,0.3-2.5,0.3c-0.9,0-1.1-0.2-1.1-0.8v-0.1v-1.4H674V818.2z M673,800.3
		c0.9,0.2,1.7,0.3,2.3,0.3h6.6l2.4-2.8c1.7,1.2,2.2,1.6,3.8,2.9c0.2,0.2,0.2,0.3,0.2,0.3c0,0.2-0.2,0.2-0.4,0.2h-12.7
		c-0.7,0-1.1,0-1.9,0.2L673,800.3z M674,816.4h13.2v-9.5H674V816.4z"/>
</g>
</svg>
