<?xml version="1.0" encoding="utf-8"?>
<!-- Generator: Adobe Illustrator 27.0.1, SVG Export Plug-In . SVG Version: 6.00 Build 0)  -->
<svg version="1.1" id="Layer_1" xmlns="http://www.w3.org/2000/svg" xmlns:xlink="http://www.w3.org/1999/xlink" x="0px" y="0px"
	 viewBox="0 0 1440 960" style="enable-background:new 0 0 1440 960;" xml:space="preserve">
<style type="text/css">
	.st0{opacity:0.63;fill:#AFAEAC;}
	.st1{fill:#7A1C18;}
	.st2{fill:#7A1C18;stroke:#7A1C18;stroke-width:6;stroke-miterlimit:10;}
</style>
<g>
	<circle class="st0" cx="716.4" cy="232.2" r="209.1"/>
	<g>
		<path class="st1" d="M488.4,167c0,0.4-0.3,0.6-1.1,0.7v3.5h6.1v4h-6.1v11c0,4.4-1.8,4.8-9.6,4.8c-0.1-1.2-0.7-2.9-1.3-4.1
			c1.5,0,2.9,0.1,4,0.1c2.4,0,2.6,0,2.6-0.8v-11h-15.5v-1.5l-4.7,1.3v16h-4.2v-14.9c-2.1,0.6-4,1.1-5.6,1.5c0,0.4-0.4,0.6-0.7,0.7
			l-1.6-4.9c2.1-0.4,4.9-1,7.9-1.6v-10.3h-3.4c-0.6,2.6-1.2,5.1-2,6.9c-0.6-0.6-1.9-1.7-2.7-2.3c1.3-3.6,2.1-9.8,2.6-15.7l4.5,1.1
			c-0.1,0.3-0.4,0.6-1.1,0.6c-0.2,1.7-0.4,3.5-0.6,5.2h2.6v-9.2l5.2,0.3c0,0.4-0.3,0.6-1.1,0.7v8.2h5.3v4.2h-5.3v9.4l5.5-1.2
			l0.1,1.5H483v-4.5L488.4,167z M482.2,162.2h11.8v4h-27.2v-4h11.2v-5.1h-8.6v-4h8.6v-5.1l5.4,0.3c0,0.4-0.4,0.6-1.1,0.8v4h9.1v4
			h-9.1V162.2z M474.5,185.9c-0.9-2.1-3-5.2-5-7.4l3.4-1.7c1.9,2.2,4.2,5.1,5.1,7.2L474.5,185.9z"/>
		<path class="st1" d="M536.5,155.8v3.5h-18.7v-3.5H536.5z M534.6,174.8v13.8h-10.8v2h-3.8v-15.8H534.6z M520,165.6v-3.4h14.7v3.4
			H520z M520,171.9v-3.4h14.7v3.4H520z M534.7,149.7v3.4h-14.4v-3.4H534.7z M530.7,178.3h-6.9v6.8h6.9V178.3z M561,169.9v4.2h-9.9
			v17h-4.4v-17h-10.4v-4.2h10.4v-11.1h-3.6c-1.2,3.3-2.7,6.2-4.3,8.5c-0.8-0.7-2.5-1.7-3.5-2.3c2.8-3.9,5.1-10.6,6.4-17l5.2,1.2
			c-0.1,0.4-0.5,0.6-1.1,0.6c-0.4,1.7-0.8,3.4-1.4,5h15.3v4h-8.7v11.1H561z"/>
		<path class="st1" d="M600.5,168.2l0.5,3.8c-1.7,0.6-3.5,1.2-5.2,1.8v12.4c0,4-1.5,4.9-8.4,4.8c-0.1-1.1-0.7-2.8-1.2-4
			c1.1,0,2.3,0.1,3.2,0.1c2,0,2.2,0,2.2-0.9v-11.1c-1.8,0.6-3.5,1.1-4.9,1.6c0,0.4-0.3,0.7-0.7,0.8l-1.5-5c1.9-0.5,4.4-1.1,7-1.8
			v-9.6h-6.4v-4h6.4v-8.9l5.3,0.3c0,0.4-0.3,0.7-1.1,0.8v7.9h5v4h-5v8.5L600.5,168.2z M622.9,166.3l2.8,1.2
			c-0.1,0.3-0.3,0.5-0.6,0.6c-1.7,5.6-4.5,10.2-8.2,13.8c3.2,2.4,6.9,4.3,11.2,5.5c-1,0.8-2.3,2.5-2.8,3.7
			c-4.5-1.4-8.4-3.6-11.6-6.4c-3.8,2.9-8.2,5-13,6.4c-0.5-1.1-1.5-2.9-2.4-3.8c4.5-1.1,8.7-3,12.3-5.6c-2.6-2.9-4.7-6.4-6.3-10.4
			l3-1H602v-4h9.8v-7.1h-10.4v-4h10.4v-7.2l5.4,0.3c0,0.4-0.4,0.6-1.1,0.8v6.2h11.2v4h-11.2v7.1h6L622.9,166.3z M608.3,170.4
			c1.3,3.2,3.2,6.2,5.6,8.6c2.5-2.4,4.5-5.3,6-8.6H608.3z"/>
		<path class="st1" d="M664.4,149.9c-0.2,0.3-0.6,0.5-1.1,0.4c-2.1,3.1-5.9,7.5-9.2,10.3c-0.6-0.8-1.7-2.3-2.4-3.1
			c2.9-2.5,6.3-6.4,8.1-9.5L664.4,149.9z M682,162.4h-6.7v28h-4.1v-28h-6.6v-2.2c-0.2,0.1-0.4,0.1-0.7,0.1c-0.9,1.9-1.9,3.9-2.9,5.9
			l1.1,0.3c-0.1,0.4-0.4,0.6-1.1,0.7v23.9h-4v-18.4c-1,1.5-2.1,2.9-3.1,4.1c-0.5-0.9-1.5-2.8-2.2-3.7c3.1-3.5,6.7-9.4,8.8-14.9
			l4.2,1.5v-1.2h6.6v-9.7l5.1,0.3c0,0.3-0.4,0.6-1.1,0.7v8.7h6.7V162.4z M669.8,168.7c-0.1,0.3-0.4,0.5-1,0.5
			c-0.5,6-1.5,12.4-3.4,16.2c-0.6-0.6-1.9-1.5-2.8-1.9c1.6-3.5,2.4-9.7,2.8-15.7L669.8,168.7z M679.1,149.5c1.4,1.9,2.9,4.4,3.6,6.1
			l-3.1,1.5c-0.6-1.7-2-4.4-3.4-6.3L679.1,149.5z M680.1,167.9c1.1,4.4,2.1,10,2.3,13.8l-3.3,0.6c-0.2-3.8-1.1-9.5-2.2-13.9
			L680.1,167.9z M694.8,163.6v3.9h-3.9v18.6c0,4.5-1.9,4.9-8.5,4.9c-0.1-1.2-0.6-3-1.2-4.2c1.3,0,2.5,0.1,3.4,0.1c2,0,2.3,0,2.3-0.8
			v-18.6h-4.8v-3.9H694.8z M694,150.7v3.9h-10.9v-3.9H694z"/>
		<path class="st1" d="M756.5,153.1c-0.2,0.2-0.6,0.4-1,0.4c-0.1,0-0.3,0-0.5,0c-3.5,3.5-8.3,7.5-12.7,10.7c0.4,0.2,1,0.4,1.2,0.5
			c-0.1,0.4-0.5,0.7-1.1,0.8v24.3h-4.8v-22.6c-4.5,3.1-10.7,6.7-16.3,9.4c-0.6-1.1-1.8-2.7-2.8-3.5c12.3-5.6,26-15.2,33.2-23.4
			L756.5,153.1z"/>
		<path class="st1" d="M783.5,152.8c4.7,1.4,10.2,3.9,13.6,6.1l-2.4,4.1c-3.3-2.3-8.8-4.7-13.3-6.3L783.5,152.8z M782.6,184.3
			c15.8-4.9,26.6-14,32-26.6c1.3,1.1,2.9,1.9,4.2,2.7c-5.7,12.5-16.8,22.4-32.2,27.7c0,0.5-0.4,0.9-0.7,1.1L782.6,184.3z"/>
		<path class="st1" d="M879.2,160.2c-0.1,0.2-0.2,0.5-0.5,0.6c-0.7,13.6-2,22-3.8,25c-1.5,2.5-3.8,3.5-6.4,3.5c-1.9,0-5-0.4-8.2-1
			c0-1.2-0.1-3.3-0.3-4.6c3.1,0.7,6.5,1.1,7.6,1.1c1.5,0,2.5-0.4,3.3-2c1.2-2.4,2.3-9.7,2.8-19.2h-12.9
			c-2.2,10.2-6.4,19.2-14.7,25.8c-0.8-0.8-2.5-2.1-3.7-2.8c7.8-5.9,11.7-13.8,13.6-23h-11.9v-4.3h12.8c0.5-3.2,0.7-5.9,0.9-9.6
			l6.1,0.6c-0.1,0.5-0.5,0.8-1.3,0.9c-0.3,3.1-0.5,5.4-0.9,8.2H875l0.9-0.3L879.2,160.2z"/>
		<path class="st1" d="M941.3,164.5c-0.2,0.3-0.4,0.5-0.8,0.6c-3.9,14-11.3,20.7-25.1,24.6c-0.6-1.1-1.8-2.7-2.8-3.7
			c12-2.9,19.7-9.3,22.2-18.6h-29.1V163h31l0.6-0.4L941.3,164.5z M936.5,155.5h-26.2v-4.2h26.2V155.5z"/>
		<path class="st1" d="M968.4,178.1c9.8,1.1,21.3,3.7,28.8,6.5l-2,4.6c-6.7-2.7-18.6-5.6-28.5-6.9L968.4,178.1z M972,150.5
			c7.8,0.8,18.1,2.8,24.3,5l-1.9,4.5c-6.4-2.5-16.1-4.4-23.9-5.3L972,150.5z M971.9,164.4c7.1,0.7,16.4,2.6,22.1,4.5l-1.5,4.5
			c-5.3-1.9-14.7-4-22-4.7L971.9,164.4z"/>
	</g>
	<line class="st2" x1="447.1" y1="213.5" x2="1019.3" y2="213.5"/>
	<g>
		<path d="M496.6,372.9h6.9c0.8-0.9,1.1-1.2,1.9-2.1c1.3,1.1,1.7,1.4,3,2.5c0.1,0.1,0.2,0.2,0.2,0.3c0,0.1-0.1,0.2-0.4,0.2h-11.5
			v3.4h10.1c0.9-1,1.2-1.3,2.2-2.3c1.4,1.1,1.8,1.5,3.2,2.6c0.1,0.2,0.2,0.3,0.2,0.3c0,0.2-0.2,0.2-0.4,0.2h-14.7
			c1.1,1.1,2.8,2.5,4.4,3.5c2,1.2,4.8,2.3,7.5,3c1.2,0.3,2.1,0.4,4,0.6v0.6c-1.3,0.4-1.7,0.7-2.6,2.3c-4.1-1.6-6-2.5-8.3-4.2
			c-2.1-1.5-3.6-3-5.6-5.3v3.7c0,0.7,0,3.1,0,7c0,0.6-0.3,0.6-2.2,0.6c-0.4,0-0.5-0.1-0.5-0.5v-0.1c0.1-1.8,0.2-5.9,0.2-7.3v-3.1
			c-2.7,2.7-4.7,4.3-7.6,6c-2.1,1.2-3.9,2-7.9,3.3l-0.3-0.6c3.8-1.7,6.4-3.2,9.3-5.4c1.8-1.4,2.7-2.3,4.2-4.1h-8.2
			c-1.4,0-2.6,0.1-3.9,0.3l-0.2-1.5c1.4,0.3,2.4,0.4,4.1,0.4h10.4v-3.4h-6.7c-1.2,0-2.3,0.1-3.7,0.2l-0.2-1.5
			c1.5,0.3,2.5,0.4,3.9,0.4h6.7v-3.5h-8.9c-1.3,0-2.1,0-3.5,0.2l-0.3-1.5c1.6,0.3,2.2,0.4,3.8,0.4h5.9c-0.2-0.3-0.2-0.4-0.4-0.9
			c-0.5-1.5-1.2-2.7-2.1-4l0.3-0.5h-5.7c-1.8,0-2.6,0-3.7,0.2l-0.3-1.5c1.8,0.4,2.5,0.5,4,0.5h8v-3.5c0-1.2,0-1.9-0.1-3.4
			c3.3,0.3,3.9,0.4,3.9,0.8c0,0.3-0.3,0.5-1.4,0.8v5.3h3.8v-3.5c0-1.6,0-2.1-0.1-3.3c3.2,0.3,3.2,0.3,3.5,0.5
			c0.3,0.1,0.4,0.2,0.4,0.4c0,0.3-0.2,0.4-1.5,0.8v5.2h2.2c2.4-4,2.9-4.8,3.3-6.4c1.1,0.5,2.6,1.1,3.3,1.5c0.3,0.2,0.3,0.2,0.3,0.4
			c0,0.3-0.3,0.4-1.6,0.5c-2.7,2.7-2.9,2.8-4.4,4.1h4.8c0.9-1,0.9-1,2.1-2.4c1.5,1.1,2,1.5,3.4,2.7c0.2,0.2,0.2,0.2,0.2,0.3
			c0,0.2-0.1,0.2-0.4,0.2h-11.9c1.2,0.7,1.2,0.7,2.9,1.7c0.3,0.2,0.5,0.4,0.5,0.5c0,0.3-0.3,0.4-0.8,0.4c0,0-0.5,0-0.8,0
			c-0.5,0.4-0.8,0.7-1.1,0.9c-1.4,1.2-1.7,1.5-2.4,2h6.4c0.9-0.9,1.2-1.2,2.1-2.1c1.4,1,1.9,1.4,3.2,2.5c0.1,0.1,0.1,0.2,0.1,0.3
			c0,0.1-0.1,0.2-0.4,0.2h-14.3V372.9z M483.9,356c3.3,1.5,4.6,2.6,4.6,3.8c0,0.9-0.7,2.1-1.2,2.1c-0.3,0-0.5-0.3-0.9-1.2
			c-0.8-1.7-1.5-2.9-2.8-4.4L483.9,356z M489.2,363.2c3.1,2.2,3.9,3,3.9,3.8c0,0.5-0.4,1.1-0.9,1.5h6.4c1.5-2.5,2.1-3.8,2.5-5.4
			H489.2z"/>
		<path d="M524,371.2v1c0,0,0,0.1,0,0.1c0,0.3-0.1,0.4-0.4,0.5c-0.2,0.1-1,0.2-1.5,0.2c-0.5,0-0.7-0.1-0.7-0.5
			c0.1-2.8,0.1-4.2,0.1-6.2c0-2.7-0.1-8-0.1-10c1.3,0.7,1.7,0.9,3,1.8h18c0.7-0.8,0.9-1,1.7-1.8c1.1,0.7,1.4,0.9,2.5,1.7
			c0.2,0.2,0.3,0.3,0.3,0.5c0,0.3-0.3,0.6-1.5,1.1c0,2.3,0,6,0,6.5c0,2.3,0,3.4,0.1,5.9c0,0.3-0.1,0.4-0.3,0.5
			c-0.2,0.1-1,0.2-1.6,0.2c-0.5,0-0.6-0.2-0.6-0.5v-1h-7.4c1.2,1.1,2.3,1.9,4.4,3.1c3.1,1.8,7.2,2.9,11.6,3.3l0,0.5
			c-1.4,0.3-1.9,0.8-2.5,2.5c-4.7-1.5-7.8-3.1-11.1-5.9c-1.8-1.5-2.4-2.2-3.3-3.5h-2.3c-1.8,2.4-2.5,3.2-4.6,4.8
			c0.4,0,0.4,0,2.3,0.5c0.8,0.1,1.1,0.3,1.1,0.6c0,0.3-0.2,0.4-1.4,0.8c-0.3,3.2-0.6,4.3-1.2,5.8c-1.4,3.2-5.1,5.4-11.2,6.6
			l-0.2-0.5c3.5-1.3,5.6-2.4,7.3-4.2c1.8-1.8,2.6-4.2,2.6-7.7c0-0.5,0-0.7,0-1.2c-3.4,2.3-6.1,3.3-10.8,4.4l-0.3-0.6
			c4.1-1.4,6.2-2.4,8.8-4.4c2.1-1.5,3-2.5,4.7-4.8H524z M532.1,364.2V359H524v5.2H532.1z M532.1,365.1H524v5.3h8.1V365.1z
			 M542.9,359h-8.4v5.2h8.4V359z M534.5,365.1v5.3h8.4v-5.3H534.5z M541.1,377.1c0,0.3-0.3,0.5-1.1,0.8c0,2.5,0,2.6,0,3.8
			c0,1.9,0,3.9,0.1,7.4c0,0.3-0.1,0.4-0.3,0.5c-0.2,0.1-1.1,0.2-1.6,0.2c-0.6,0-0.8-0.1-0.8-0.4c0.1-4.1,0.1-4.1,0.1-9.8
			c0-1.6,0-2.2-0.1-3.3C540.3,376.6,541.1,376.8,541.1,377.1z"/>
		<path d="M562.9,373.5c1,0.3,1,0.3,2,0.6c1.8-2.5,2.8-4.1,3.7-6.2c1.3,0.4,2.7,0.9,3.2,1.2c0.3,0.1,0.4,0.2,0.4,0.4
			c0,0.1-0.1,0.2-0.2,0.3c-0.2,0.1-0.7,0.2-1.6,0.4c-1.3,1.3-3.3,3-4.8,4.1c1.7,0.6,2.6,1,3.5,1.7c0.7,0.5,0.9,0.9,0.9,1.8
			c0,0.9-0.4,1.8-0.8,1.8c-0.2,0-0.5-0.2-0.8-0.6c0,0,0,0-1.4-1.5c-1-1.1-2.6-2.3-4.1-3.2v5.3c0,1.4,0.1,6.1,0.2,9.7
			c0,0.2-0.1,0.3-0.3,0.4c-0.2,0.1-1.3,0.2-1.9,0.2c-0.4,0-0.5-0.1-0.6-0.4c0.2-2.4,0.3-7,0.3-9.9v-6.5c-2.8,2.9-4.2,4.1-7.1,6.1
			l-0.5-0.5c2.7-2.5,4.6-4.5,6.7-7.3c1.8-2.3,3-4.1,5.1-8.1h-7.5c-0.6,0-2.1,0.2-2.9,0.3l-0.3-1.4c1.1,0.2,2.1,0.3,3.1,0.3h3.2v-3.6
			c-0.1-1.9-0.2-3.1-0.3-3.6c3.5,0.5,4.1,0.6,4.1,0.9c0,0.3-0.5,0.5-1.5,0.9v5.4h2c0.8-0.8,1-1,1.8-1.7c1.1,0.8,1.5,1.1,2.4,2
			c0.2,0.2,0.3,0.3,0.3,0.4c0,0.1-0.1,0.2-0.2,0.3c-0.1,0.1-0.6,0.3-1.6,0.6c-2.1,3.1-3.1,4.5-4.7,6.4V373.5z M578.6,361.5
			c-0.2,5.3-1.1,10.5-2.6,14.5c-1.5,4.1-3.9,7.6-6.9,10.4c-1.4,1.3-2.3,1.9-4.3,3.1l-0.3-0.5c3-2.6,4.7-4.5,6.4-7.2
			c3.2-5.1,5-12.3,5.2-20.3h-2.7c-1.4,0-2,0-3.2,0.2l-0.3-1.4c1.2,0.2,2,0.3,3.4,0.3h11.1c0.6-0.8,0.8-1,1.4-1.6
			c1.1,0.7,1.4,0.9,2.4,1.7c0.3,0.3,0.4,0.4,0.4,0.5c0,0.2-0.3,0.5-1.5,1.2c-0.2,10.3-0.5,14.2-1.5,20c-0.5,2.9-1.2,4.7-2.3,5.3
			c-0.9,0.6-2.4,1-4.1,1.1c-0.3-1.2-0.7-1.7-1.8-2c-0.9-0.3-2.2-0.5-3.7-0.7v-0.6c4.3,0.3,5.5,0.4,6.7,0.4c1.2,0,1.5-0.2,1.8-0.9
			c0.5-1.1,1.1-4.4,1.5-8.5c0.5-4.1,0.7-8.4,0.7-12.4c0-1.1,0-1.4,0-2.8H578.6z"/>
		<path d="M607.1,386.3c4.1-1.2,6.7-2.7,8.8-5.2c2.2-2.5,3.3-5.6,3.3-9.1c0-3.6-1.5-6.5-4.2-8.3c-1.7-1.1-4.1-1.7-6.5-1.7
			c-0.5,0-0.7,0-1.3,0.1c0.9,1.3,1.2,2,1.2,3.1c0,2.9-2.1,8.4-5,13c-2.4,3.8-4.2,5.6-5.6,5.6c-0.6,0-1.2-0.3-1.7-0.8
			c-0.3-0.5-0.4-0.6-1.1-2.4c-0.3-1-0.6-1.4-1.7-3.5c-0.6-1.2-0.9-2.2-0.9-3.4c0-2.4,1.3-5.1,3.4-7.4c3-3.2,8-5.3,12.9-5.3
			c3.8,0,7.3,1.2,9.7,3.5s3.6,5.2,3.6,8.8c0,4.7-2.7,8.9-7.5,11.4c-2.2,1.2-4.1,1.8-7.3,2.3L607.1,386.3z M594.8,374.6
			c0,1.8,0.6,3.6,1.5,5c0.5,0.7,1,1.1,1.4,1.1c0.8,0,2.6-2,4.5-5c2.8-4.4,4.8-9.3,4.8-11.6c0-0.6-0.1-0.9-0.5-1.9
			C599.9,363.4,594.8,368.8,594.8,374.6z"/>
		<path d="M625.8,374.8c1.6-1.7,2.4-2.9,3.9-5.2c3.4-5.4,5.6-10.1,6.5-14.1c3.2,1.1,4.1,1.4,4.1,1.7c0,0.3-0.4,0.5-1.8,0.9
			c-1.8,3.9-3.2,6.4-5.1,9.1c0.3,0,0.5,0.1,0.6,0.1c1.5,0.2,2.1,0.4,2.1,0.8c0,0.2-0.5,0.6-1.3,0.8v13.9l0,3.7l0,2.6
			c-0.1,0.4-0.2,0.6-0.5,0.7c-0.2,0.1-1.1,0.2-1.6,0.2c-0.6,0-0.9-0.2-0.9-0.6c0,0,0-0.1,0-0.2c0.1-2.1,0.3-8.4,0.3-9.7v-10.7
			c-2.3,2.9-3.8,4.6-6.1,6.5L625.8,374.8z M645.5,372.8c3.9-2.9,8.1-7.8,10.2-11.8c2.9,1.6,3.9,2.3,3.9,2.6c0,0.3-0.4,0.5-1.3,0.5
			c-0.1,0-0.3,0-0.6,0c-4.1,3.7-4.5,4.1-6.8,5.9c-2.7,2.1-4.2,3.2-5.4,3.9v11.5c0,0.6,0.1,0.8,0.3,0.9c0.4,0.2,2.2,0.3,4.1,0.3
			c0.7,0,4.1-0.1,4.7-0.1c1.2-0.1,1.3-0.2,1.7-1.1c0.4-1.1,1.3-4.1,2.5-8.8h0.6l-0.7,8.2c0,0.1,0,0.3,0,0.4c0,0.4,0.2,0.6,1.1,0.9
			c0.5,0.1,0.7,0.5,0.7,1c0,1.4-1.9,1.9-7.4,1.9c-4.9,0-7.9-0.2-8.7-0.4c-1.2-0.3-1.6-1-1.7-2.6c0-1.6,0-2.3,0-3.1v-24.1
			c0-1.1,0-1.7-0.1-3c4.2,0.6,4.4,0.6,4.4,1c0,0.3-0.4,0.6-1.6,1V372.8z"/>
		<path d="M692.7,376.8c1-1.2,1.3-1.7,2.4-2.9c1.5,1.3,2,1.7,3.4,3.1c0.1,0.1,0.1,0.3,0.1,0.4c0,0.2-0.2,0.3-0.5,0.3h-15.4v4.4
			c0,1.6,0,2.7,0,5.1c-0.1,1.2-0.4,1.6-1.4,2.1c-0.8,0.5-1.7,0.6-3.3,0.8c-0.4-2-0.6-2.1-5.9-3v-0.6c2.9,0.2,3.1,0.2,7.1,0.4
			c0.5,0,0.6-0.1,0.6-0.5v-8.8h-12.6c-1.4,0-1.8,0-3.1,0.2l-0.2-1.3c1.3,0.2,1.9,0.3,3.2,0.3H680v-0.6c0-0.8,0-1-0.1-3.1
			c0.8,0.1,1.7,0.3,2.9,0.5c1.5-1.3,2.3-2.3,4-4.5h-13.2c-1.1,0-1.5,0-2.7,0.2l-0.2-1.3c1.1,0.2,2,0.3,2.9,0.3H687
			c0.7-0.8,0.9-1,1.7-1.7c1.2,0.9,1.5,1.1,2.6,2c0.3,0.3,0.5,0.5,0.5,0.6c0,0.3-0.5,0.5-1.9,0.6c-3.3,2.4-4.4,3.2-6.1,4.1
			c0.3,0.1,0.5,0.2,0.5,0.4c0,0.3-0.4,0.5-1.5,0.7v1.9H692.7z M693.3,363.5c0.8-0.9,1-1.1,1.8-1.9c1.4,0.9,1.8,1.2,3.1,2.2
			c0.4,0.3,0.5,0.5,0.5,0.6c0,0.5-0.6,0.7-2.3,0.7c-0.8,0.8-0.8,0.8-1.9,2.1c-0.7,0.8-0.7,0.8-1.5,1.6l-0.4-0.2
			c0.5-1.4,0.6-1.9,1.1-4.2h-24.5c-0.2,2.4-0.7,3.8-1.7,5c-0.6,0.7-1.2,1.2-1.7,1.2c-0.3,0-0.5-0.2-0.7-0.6
			c-0.2-0.5-0.4-1.2-0.4-1.5c0-0.5,0.2-0.8,1.1-1.5c1.5-1.1,2.3-2.7,2.6-5.5h0.7c0,1.1,0,1.4,0,2.1h17c1.6-2.1,3-4.7,4.1-7.5
			c3.6,1.4,3.9,1.6,3.9,1.9s-0.5,0.6-1.1,0.6c-0.2,0-0.5,0-0.8,0c-2.6,2.8-3.3,3.5-5.2,5H693.3z M671.2,356.5
			c1.4,0.8,2.7,1.8,3.6,2.7c0.6,0.5,0.9,1.1,0.9,1.6c0,0.6-0.4,1.7-0.8,2.1c-0.1,0.2-0.4,0.3-0.6,0.3c-0.4,0-0.5-0.2-0.9-1.3
			c-0.7-2.1-1.4-3.3-2.6-5.1L671.2,356.5z M678.9,355.6c3.2,2.4,4.6,3.8,4.6,4.7c0,0.5-0.4,1.6-0.7,2.1c-0.2,0.3-0.5,0.5-0.8,0.5
			c-0.5,0-0.6-0.2-0.9-1.5c-0.8-2.7-1.1-3.3-2.6-5.4L678.9,355.6z"/>
		<path d="M726.3,366.8c0.6-0.8,0.9-1,1.5-1.8c1.2,0.9,1.6,1.1,2.7,2c0.4,0.3,0.5,0.5,0.5,0.7c0,0.5-0.3,0.6-2.1,0.9
			c-2.9,6.7-3.8,8.2-6.7,11.3c4,3.2,8.4,5,14.4,6.1l-0.1,0.5c-1.9,0.4-2.5,0.9-3,2.6c-3.9-1.4-6.1-2.5-9.1-4.7c-1.3-1-2.4-1.9-3.6-3
			c-2.2,2.1-4,3.3-6.7,4.6c-3.2,1.6-5.6,2.4-9.2,3.3l-0.2-0.6c3.4-1,6.1-2.3,9.4-4.6c1.9-1.3,3.5-2.6,5.1-4.3
			c-1.5-1.7-2.6-3.2-3.9-5.7c-1.3-2.4-1.9-3.9-2.6-6.3h-3c-0.3,5.4-0.9,9-2,12.1c-0.8,2.3-2.1,4.6-3.5,6.6c-0.6,0.9-1.2,1.5-2.6,2.7
			l-0.5-0.5c1.5-1.8,2.2-2.9,3.1-4.9c1.5-3.3,2.4-7.4,2.6-10.9c0.1-2,0.2-7.6,0.2-11.7c0-0.8,0-2.4-0.1-4.7c1.5,0.8,1.9,1,3.3,1.9
			h18.8c0.9-1.2,1.2-1.6,2.2-2.8c1.6,1.3,2.1,1.7,3.7,3c0.2,0.2,0.2,0.3,0.2,0.4c0,0.2-0.2,0.3-0.6,0.3h-24.8c0,1.3,0,2.1,0,3
			c0,1.8,0,3.1-0.1,4.6H726.3z M713.6,367.7c1.7,4.7,3.5,7.6,6.8,10.7c2.5-3,4-5.6,5.9-10.7H713.6z"/>
		<path d="M767.6,361.3c1-1.4,1.3-1.8,2.2-3c1.7,1.3,2.3,1.7,3.9,3.2c0.1,0.2,0.2,0.3,0.2,0.4c0,0.2-0.2,0.3-0.6,0.3h-28.2
			c0,1.1,0,1.8,0,2.4c0,4.4-0.2,8.4-0.5,11.4c-0.4,3.9-1.5,7-3.5,10.3c-0.7,1.2-1.2,1.8-2.3,3.1l-0.4-0.3c1.5-2.7,2.4-5.1,3.1-8.3
			c0.6-3.1,0.8-6.7,0.8-14.9c0-3.8,0-4.6-0.2-6.6c1.5,0.8,1.9,1.1,3.3,2h10.1v-3.3c0-0.9,0-1.5-0.2-2.6c3.4,0.3,4.5,0.6,4.5,1
			c0,0.3-0.4,0.5-1.5,0.8v4.1H767.6z M749.4,372c0.1,1.3,0.1,1.8,0.1,2.7c0,3.5-0.3,5.7-1,7.7c-0.3,0.9-0.8,1.4-1.2,1.4
			c-0.5,0-0.8-0.3-1.2-0.9c-0.4-0.6-0.6-1.2-0.6-1.7c0-0.4,0.1-0.5,0.7-1.3c1.4-1.7,2.2-4.4,2.5-8H749.4z M753.1,370.7
			c0-1.8,0-2.5-0.2-3.9c3.6,0.4,4.4,0.6,4.4,1.1c0,0.3-0.4,0.5-1.6,0.9v16.8c0,0.5,0.1,0.8,0.3,0.9c0.4,0.2,1.4,0.3,3,0.3
			c0.3,0,0.7,0,1.3,0c0.9,0,1.7,0,2.3,0c1,0,1.3-0.2,1.5-0.7c0.2-0.5,0.3-0.8,0.7-2.6c0.6-2.2,1-3.8,1.2-4.8h0.4v6.2
			c0,1.1,0,1.1,0.2,1.2c0.1,0.1,0.1,0.1,0.8,0.2c0.6,0.1,1,0.5,1,0.9c0,0.5-0.4,1-1,1.2c-0.8,0.3-3.3,0.4-7.1,0.4
			c-3.6,0-5.5-0.2-6.3-0.5c-0.6-0.3-0.9-0.8-1-2c0-0.8,0-1.4,0-1.9c0-0.6,0-0.6,0.1-3.9V370.7z M757.3,364c2.5,1.1,4.3,2.2,5.7,3.4
			c0.7,0.6,1,1.2,1,1.9c0,0.9-0.2,1.7-0.4,2.1c-0.2,0.3-0.5,0.5-0.7,0.5c-0.3,0-0.5-0.2-1-1.3c-1.1-2.2-2.7-4.3-5-6.2L757.3,364z
			 M766.8,372c4.7,3.7,6.7,6,6.7,7.6c0,1.4-0.9,3-1.7,3c-0.2,0-0.3-0.1-0.5-0.4c-0.2-0.2-0.2-0.2-0.8-2.4c-0.6-1.9-2.1-4.7-4.1-7.4
			L766.8,372z"/>
		<path d="M783.6,358.4c-1.9,1.1-2.9,2.3-2.9,3.6c0,0.6,0,0.6,1.2,0.9c1,0.3,1.7,1.1,1.7,2.2c0,1.4-1.1,2.4-2.6,2.4
			c-1.7,0-2.9-1.4-2.9-3.4c0-2.8,1.7-5.3,4.6-6.7L783.6,358.4z M790.9,358.4c-1.9,1.1-2.9,2.3-2.9,3.6c0,0.6,0,0.6,1.2,0.9
			c1,0.3,1.7,1.1,1.7,2.2c0,1.4-1.1,2.4-2.6,2.4c-1.7,0-2.9-1.4-2.9-3.4c0-2.8,1.7-5.3,4.6-6.7L790.9,358.4z"/>
		<path d="M794.2,376.9c0.4,0,0.6,0,0.8,0c0.5,0,0.8,0,0.9,0c0.1,0,0.2,0,0.2,0c0.6,0,0.8-0.1,0.9-0.5c0.2-0.3,0.6-1.2,1.5-3.8
			c0.9-2.2,1-2.5,2.9-7.3c0.9-2.1,0.9-2.1,1.4-3.6l0.4,0.1l-4,14.5c-0.5,1.8-0.5,1.8-0.5,2.1c0,0.4,0,0.5,0.9,3.7
			c0.3,1.1,0.4,1.7,0.4,2.3c0,1-0.3,1.6-0.9,2.2c-0.5,0.5-1.1,0.8-1.6,0.8c-0.6,0-0.9-0.4-0.9-1c0-0.4,0-0.8,0.3-3.3
			c0.1-0.7,0.1-1.3,0.1-2c0-2.5-0.6-3.2-3.1-3.8L794.2,376.9z M795.7,357.5c1.8,1,2.9,1.7,3.9,2.6c1.1,0.9,1.4,1.4,1.4,2.3
			c0,1.1-0.6,2.1-1.3,2.1c-0.4,0-0.6-0.3-0.9-0.9c-0.7-1.9-1.5-3.2-3.5-5.7L795.7,357.5z M809.6,372.3c-0.2,2.9-0.2,3-0.5,4.6h1.4
			c0.7-0.9,0.7-0.9,1.7-2.1c1.2,1,1.5,1.3,2.6,2.4c0.1,0.1,0.2,0.2,0.2,0.3c0,0.2-0.2,0.3-0.3,0.3H809c-0.2,1-0.3,1.5-0.6,2.3
			c1,0.4,1.4,0.6,2,0.9c1.5,0.9,2.1,1.6,2.1,2.4c0,1.1-0.6,2-1.2,2c-0.3,0-0.3,0-1.7-2.9c-0.4-0.9-0.8-1.4-1.4-2
			c-0.6,1.5-1.3,2.7-2.3,4c-1.7,2.1-3.2,3.3-5.9,4.7l-0.3-0.4c2.3-1.8,3.8-3.5,5.3-5.9c0.9-1.5,1.4-2.9,1.8-5.2h-3.3
			c-1.5,0-1.7,0-2.5,0.2l-0.2-1.4c0.9,0.2,1.6,0.3,2.7,0.3h3.4c0.2-1.6,0.3-2.6,0.4-4.6h-2c-0.9,1.4-1.4,2.2-2.9,3.9l-0.4-0.3
			c1.3-2.3,2-4.4,2.8-7.9c0.6,0.2,1.1,0.3,1.5,0.4c1.5,0.3,1.8,0.5,1.8,0.8c0,0.3-0.2,0.4-1.4,0.7c-0.6,1.1-0.6,1.1-0.8,1.5h4.8
			c0.7-0.9,0.9-1.1,1.7-1.9c1.1,0.9,1.4,1.2,2.4,2.3c0.1,0.1,0.1,0.2,0.1,0.3c0,0.1-0.1,0.2-0.3,0.2H809.6z M806.7,362
			c0.8-0.4,1.2-0.8,2.3-1.5c1.8-1.4,2.4-1.9,3.2-3c0.6,0.3,1,0.6,1.3,0.8c1.4,0.8,1.5,0.9,1.5,1.2c0,0.3-0.2,0.4-1.5,0.4
			c-2.9,1.5-4.8,2.3-6.8,2.8v2.2c0,0.8,0,0.8,3.2,0.8c2,0,2.3,0,2.5-0.5c0.2-0.5,0.5-1.3,1.1-3.6l0.4,0.1l0,2.8v0.6
			c0,0.3,0,0.3,0.6,0.6c0.3,0.2,0.5,0.5,0.5,0.8c0,0.4-0.3,0.7-0.8,0.9c-0.6,0.2-1.9,0.3-4.5,0.3c-4.7,0-5-0.1-5.1-1.8
			c0-1.2,0-1.2,0-2.8v-3.6c0-2.3,0-2.3,0-3.2c3.3,0.3,3.8,0.5,3.8,0.9c0,0.3-0.3,0.5-1.6,0.9V362z M822.6,385.2
			c1.4,0.5,2.4,0.6,4.6,0.6c0.5,0,0.5,0,3.3,0l0,0.5c-1.2,0.5-1.5,1-1.8,2.4c-6.8-0.2-9.6-2.1-12-8.2c-0.8,2.1-1.5,3.4-2.6,4.9
			c-1.4,1.8-2.5,2.8-4.5,4.1l-0.3-0.4c2.2-2.1,3.5-4.1,4.5-6.3c1.2-2.5,2-6.4,2-9.4c0-0.2,0-0.5,0-0.9c3,0.5,3.4,0.6,3.4,0.9
			c0,0.3-0.3,0.5-1.1,0.8c-0.3,2.4-0.6,3.6-1.1,5.4c1.1,2.4,2,3.5,3.3,4.5v-14.8H817c-1,0-1.7,0-2.5,0.2l-0.2-1.3
			c0.8,0.2,1.4,0.3,2.7,0.3h8.8c0.6-0.7,0.8-0.9,1.4-1.6c1.1,0.7,1.4,0.9,2.4,1.8c0.3,0.2,0.4,0.4,0.4,0.5c0,0.3-0.3,0.4-1.8,0.8
			c-1.1,1.1-1.1,1.1-3.6,3.2l-0.3-0.2c1-1.6,1.3-2.1,1.8-3.6h-3.6v7.1h1.8c0.9-1,1.1-1.3,2-2.2c1.2,1.1,1.6,1.4,2.7,2.5
			c0.1,0.2,0.2,0.3,0.2,0.3c0,0.2-0.1,0.2-0.3,0.2h-6.4V385.2z M824.7,358c0.7-0.7,0.9-0.9,1.5-1.7c1.1,0.7,1.4,0.9,2.4,1.7
			c0.3,0.3,0.5,0.4,0.5,0.6c0,0.3-0.3,0.5-1.7,0.9c-1.8,2-2.5,2.5-4.9,4.4c1,0.8,1.2,1.1,1.2,1.9c0,1.1-0.6,2.1-1.2,2.1
			c-0.3,0-0.5-0.2-0.8-0.8c-0.9-1.9-2.4-3.8-4.8-6.1l0.3-0.3c2.4,1.3,3.3,1.8,4.6,2.7c1.3-1.8,1.8-2.6,2.7-4.5h-6.3
			c-1.5,0-2,0-2.7,0.2l-0.2-1.4c1.1,0.2,1.7,0.3,2.9,0.3H824.7z"/>
		<path d="M861.4,378.6c0.9-1.1,1.2-1.4,2.1-2.5c1.5,1.2,2,1.6,3.5,2.8c0.1,0.1,0.1,0.2,0.1,0.3c0,0.2-0.3,0.3-0.6,0.3h-14.7
			c2.3,2.1,3.8,3,6.6,4.1c3,1.2,6.3,1.9,9.6,2.1v0.6c-1.4,0.2-2,0.8-2.5,2.4c-2.6-0.6-5.2-1.7-7.6-3.2c-2.4-1.5-4.3-3.1-6.8-5.9v2.8
			c0,3,0,3,0.1,6.5c-0.2,0.5-0.5,0.6-2,0.6c-0.6,0-0.8-0.1-0.8-0.6c0.2-3.3,0.2-3.3,0.2-6.4v-2.1c-2.5,2.4-4.5,3.8-7.5,5.3
			c-2.4,1.2-4.4,2-8.5,3.1l-0.3-0.6c4.2-1.6,6.7-2.8,9.5-4.8c2-1.4,3.4-2.6,4.8-4.2h-9.4c-1.2,0-3,0.1-3.9,0.1l-0.2-1.3
			c1.5,0.2,2.7,0.3,4.6,0.3h10.9c0-0.8,0-0.8,0-1.2c0-1.1,0-1.4-0.2-2.2c0.8,0.1,1.4,0.2,1.7,0.2c1.7,0.2,2.4,0.3,2.4,0.7
			c0,0.3-0.3,0.5-1.4,0.9v1.7H861.4z M858.4,364.9c0.7-0.9,0.9-1.1,1.6-2c1.4,1,1.7,1.3,3,2.4c0.1,0.1,0.1,0.2,0.1,0.3
			c0,0.1-0.2,0.2-0.4,0.2h-11v3.3h6.6c0.7-0.9,0.9-1.1,1.7-2c1.3,1,1.7,1.3,2.9,2.4c0,0.1,0.1,0.2,0.1,0.2c0,0.1-0.1,0.2-0.3,0.2
			h-11v3.6h8c0.8-0.9,1.1-1.2,2-2c1.4,1,1.8,1.3,3.2,2.4c0.1,0.1,0.2,0.2,0.2,0.3c0,0.1-0.2,0.2-0.3,0.2H841v1.1
			c0,0.4-0.2,0.5-0.4,0.6c-0.3,0.1-1.1,0.2-1.5,0.2c-0.3,0-0.5-0.1-0.5-0.4c0.1-1.8,0.2-2.7,0.2-5.1V364c-2.1,2.4-3,3.2-5.4,4.9
			l-0.4-0.4c2.3-2.3,3.8-4.2,6.2-8c1-1.6,1.6-2.7,2.6-5c0.9,0.3,1.6,0.5,2.1,0.6c1.6,0.5,2,0.7,2,1c0,0.1-0.1,0.2-0.2,0.3
			c-0.1,0-0.3,0.1-0.6,0.2l-0.6,0.1c-0.2,0-0.4,0-0.6,0.1c-0.8,1.1-0.8,1.1-2.3,3h8.5c1.2-1.8,2.1-3.7,2.5-5.1
			c4.2,1.2,4.2,1.2,4.2,1.5c0,0.4-0.5,0.6-2,0.6c-0.8,0.6-0.8,0.6-2.5,2.1c-0.2,0.2-0.3,0.3-1.1,0.9h8.5c0.8-1,1.1-1.3,2-2.4
			c1.4,1.1,1.9,1.4,3.3,2.7c0.1,0.1,0.1,0.2,0.1,0.3c0,0.1-0.2,0.3-0.4,0.3h-12.7v3.3H858.4z M849.3,361.6H841v3.3h8.3V361.6z
			 M849.3,365.8H841v3.3h8.3V365.8z M849.3,369.9H841v3.6h8.3V369.9z"/>
		<path d="M870.4,388.1c1.2-4.2,1.7-7,2.3-12.2c2.7,0.7,3.5,1,3.5,1.4c0,0.3-0.3,0.4-1.3,0.6c-1.6,5.9-2.1,7.1-4,10.5L870.4,388.1z
			 M871.4,360.8c1.3,0.7,1.8,1,2.7,1.7c1.1-2.1,2-4.1,2.8-7.1c1.5,0.5,3.1,1.1,3.6,1.3c0.2,0.1,0.3,0.2,0.3,0.4
			c0,0.3-0.3,0.5-1.7,0.5c-2.1,2.9-2.7,3.6-4.5,5.3c1.6,1.2,2,1.9,2,2.7c0,1-0.6,2.2-1.1,2.2c-0.4,0-0.5-0.1-1.3-1.9
			c-0.8-1.7-1.8-3.2-3.2-4.7L871.4,360.8z M876.9,372.9c-1.5,0.3-2.1,0.5-4.1,0.8c-0.1,0.9-0.4,1.4-0.7,1.4c-0.3,0-0.3,0-1-3.6
			c2,0,3.2,0,3.8,0c1.1-1.5,1.4-2,2.8-4.4c2.1-3.7,2.7-4.8,3.5-7c0.8,0.3,1.4,0.5,1.8,0.7c1.4,0.5,1.7,0.6,1.7,0.9
			c0,0.3-0.2,0.4-1.4,0.5c-1.1,1.5-1.9,2.7-5.4,7.1c-1,1.2-1,1.2-1.8,2.1c1.3-0.1,1.3-0.1,6.2-0.6c-0.4-1-0.6-1.4-1.3-2.9l0.4-0.2
			c1.5,1.4,2.7,2.6,3.3,3.3c0.5,0.6,0.6,1.1,0.6,1.6c0,1.1-0.8,2.4-1.4,2.4c-0.4,0-0.5-0.3-0.9-1.9c-0.2-0.6-0.3-0.9-0.5-1.6
			c-1.5,0.4-1.5,0.4-3.2,0.9v11.5c0,1,0,1.4,0.1,5.3c-0.1,0.4-0.2,0.5-0.7,0.6c-0.4,0.1-1.1,0.1-1.3,0.1c-0.3,0-0.5-0.1-0.6-0.4
			c0.2-2.3,0.3-6.5,0.3-8.8V372.9z M880.8,375.9c2.5,3.1,3.8,5.2,3.8,6.2c0,1.1-1,2.9-1.7,2.9c-0.3,0-0.5-0.2-0.7-1.5
			c-0.5-3.4-0.8-4.5-1.9-7.3L880.8,375.9z M899.5,362.4c1-1.1,1.3-1.5,2.3-2.6c1.4,1.2,1.8,1.6,3.1,2.9c0.1,0.1,0.1,0.2,0.1,0.3
			c0,0.1-0.2,0.2-0.3,0.2h-9.7v6.9h3.7c0.9-1.1,1.2-1.4,2.1-2.4c1.3,1.2,1.7,1.6,3,2.8c0,0.1,0.1,0.2,0.1,0.3c0,0.2-0.2,0.2-0.3,0.2
			H889c-1.2,0-2,0.1-3.3,0.3l-0.3-1.5c1.4,0.2,2.3,0.3,3.6,0.3h3.3v-6.9H888c-1.5,0-2.3,0-3.3,0.3l-0.3-1.5c0.9,0.3,1.9,0.4,3.5,0.4
			h4.3v-2.5c0-1.9,0-2.5-0.2-4.1c1.6,0.2,3.3,0.4,3.9,0.6c0.3,0.1,0.5,0.2,0.5,0.4c0,0.3-0.2,0.4-1.7,0.9v4.8H899.5z M898.6,376.2
			c0.6-0.7,0.9-0.9,1.5-1.7c1.2,0.9,1.2,0.9,2.2,1.6c0.3,0.3,0.4,0.5,0.4,0.6c0,0.2-0.3,0.4-1.4,1c0,5.2,0,5.6,0.1,11.4
			c-0.1,0.3-0.2,0.5-0.4,0.5l-1.7,0.2c-0.3,0-0.5-0.2-0.5-0.5v-2.3h-10.1v2c-0.1,0.6-0.4,0.8-2,0.8c-0.4,0-0.5-0.1-0.6-0.4
			c0-1.5,0-1.5,0.1-4.8c0.1-1.7,0.1-1.7,0.1-2.4c0-0.2,0-0.5,0-0.6c0-2-0.1-5.5-0.2-7.2c1.4,0.7,1.7,0.9,2.9,1.8H898.6z
			 M888.7,386.2h10.1V377h-10.1V386.2z"/>
		<path d="M907.6,373.8c4.2-2.9,7.2-5.8,10.6-10c1.8-2.2,3.4-4.7,4.1-6.2c0.3-0.6,0.4-1,0.7-1.8c0.9,0.2,1.5,0.3,1.9,0.4
			c2.1,0.4,2.5,0.6,2.5,0.9c0,0.3-0.5,0.5-1.5,0.7c1.8,3.1,4.4,5.7,7.7,8.2c3.2,2.3,6.2,3.7,9.7,4.7l-0.1,0.5
			c-1.6,0.2-2.2,0.7-3,2.5c-3.5-1.8-5.5-3.3-8.3-6.1c-2.8-2.8-4-4.5-6.7-9.3c-2.7,4.2-5,7.1-8.5,10.2c-3,2.7-5.4,4.4-8.9,6.1
			L907.6,373.8z M916.9,388.6c0,0.3,0,0.5-0.2,0.5c-0.3,0.1-1.2,0.2-2,0.2c-0.4,0-0.5-0.1-0.5-0.5c0.1-5.9,0.1-7.7,0.1-9.2
			c0-3,0-4.4-0.1-5.8c1.4,0.8,1.8,1.1,3,1.9h15.2c0.6-0.8,0.8-1.1,1.5-1.9c1.1,0.8,1.4,1.1,2.4,1.9c0.3,0.3,0.4,0.4,0.4,0.5
			c0,0.2-0.3,0.5-1.2,0.8c0,5.5,0,5.5,0.2,11.3c0,0.1,0,0.1,0,0.2c0,0.3-0.1,0.4-0.3,0.5c-0.3,0.1-1.5,0.3-1.9,0.3
			c-0.4,0-0.6-0.2-0.6-0.5c0,0,0-0.1,0-0.2v-1.6h-15.9V388.6z M916.8,369.1c1.1,0.2,2,0.3,2.8,0.3h7.9c0.9-0.9,1.1-1.3,2-2.3
			c1.4,1.1,1.8,1.4,3.2,2.5c0.2,0.2,0.3,0.3,0.3,0.5c0,0.2-0.1,0.2-0.5,0.2h-12.8c-0.7,0-1.3,0-2.5,0.2L916.8,369.1z M916.9,386.2
			h15.9v-9.6h-15.9V386.2z"/>
		<path d="M946.6,367.2c1.9-1.1,2.9-2.3,2.9-3.6c0-0.6,0-0.6-1.2-0.9c-1-0.3-1.7-1.1-1.7-2.2c0-1.4,1.1-2.4,2.6-2.4
			c1.7,0,2.9,1.4,2.9,3.4c0,2.7-1.8,5.3-4.6,6.6L946.6,367.2z M954,367.2c1.9-1.1,2.9-2.3,2.9-3.6c0-0.6,0-0.6-1.2-0.9
			c-1-0.3-1.7-1.1-1.7-2.2c0-1.4,1.1-2.4,2.6-2.4c1.7,0,2.9,1.4,2.9,3.4c0,2.7-1.8,5.3-4.6,6.6L954,367.2z"/>
	</g>
	<circle class="st0" cx="1161.3" cy="727.8" r="209.1"/>
	<g>
		<path class="st1" d="M974.2,606.6c-0.2,0.5-0.9,0.7-1.4,0.7c-7.3,17.7-17.9,29.2-30.6,36.6c-0.8-1-2.4-2.5-3.7-3.4
			c12.3-6.9,23.1-18,29.6-36.1L974.2,606.6z"/>
		<path class="st1" d="M1000.9,620.9h38.4v4.6h-36.5c-0.3,0.5-0.9,0.8-1.5,0.8L1000.9,620.9z"/>
		<path class="st1" d="M1064.8,626.2c3.4-3.5,10.2-11.2,13-14.2c1.4-1.4,2.8-2.1,4.1-2.1c1.4,0,2.8,0.8,4.4,2.1
			c5.6,5.1,15.3,15.7,21.8,24l-3.9,3.6c-6-8.4-15.7-19.3-20.1-23.5c-0.9-0.8-1.5-1.3-2.1-1.3c-0.5,0-1.1,0.5-1.9,1.3
			c-1.8,2-7.9,9.2-10.9,12.5c0.1,0.5-0.1,1.1-0.6,1.5L1064.8,626.2z M1095.9,607.2c2,1.8,4.4,4.6,5.6,6.5l-2.3,1.8
			c-1.2-1.9-3.7-5-5.5-6.6L1095.9,607.2z M1101.4,603.1c2.1,1.8,4.4,4.5,5.7,6.4l-2.3,1.8c-1.2-1.9-3.8-4.8-5.6-6.4L1101.4,603.1z"
			/>
		<path class="st1" d="M1144.4,610.9c0,0.5-0.5,0.8-1.1,0.9c-0.3,12.8-1.4,23.7-8.1,32.1c-1-0.7-2.7-1.7-4-2.4
			c6.4-7.3,7.3-19,7.3-31L1144.4,610.9z M1156.2,636c6.8-3.5,11.2-10,13.5-17.5c1,0.8,3,1.9,4.1,2.5c-3.3,9.4-8.8,16.1-18.6,20.9
			c-0.2,0.4-0.6,0.8-0.9,1.1l-3.4-4.1l0.6-0.8v-33.2l5.8,0.3c-0.1,0.5-0.4,0.9-1.1,1V636z"/>
		<path class="st1" d="M1216.3,641c-0.2,0.4-0.6,0.4-1.1,0.4c-3.4,1.7-9,3.3-13.7,4.2c-0.7-0.9-2.1-2.4-3-3.1
			c4.7-0.6,10.2-1.9,13.2-3.4L1216.3,641z M1203.8,610.5v5.4h-4.1v-8.4h7.1c-0.7-1.2-1.8-2.6-2.8-3.7l3.9-1.1
			c1.3,1.3,2.8,3.2,3.5,4.5l-1,0.4h6.3v-5.1l5.4,0.3c0,0.4-0.4,0.6-1.1,0.8v4h6.1l-0.4-0.1c1.2-1.4,2.7-3.4,3.5-4.9l4.9,1.6
			c-0.2,0.3-0.6,0.5-1.1,0.5c-0.7,0.9-1.7,2-2.7,2.9h7.3v8.4h-4.2v-5.4H1203.8z M1225.8,638.9L1225.8,638.9
			c4.9,1.3,10.4,2.9,13.7,4.1l-4.5,2.4c-2.9-1.2-7.9-2.9-13-4.2l3.2-2.3h-21v-16.4h30.1v16.4H1225.8z M1231.5,620.5h-24.6v-7.8h24.6
			V620.5z M1208.4,625v2.2h21.7V625H1208.4z M1208.4,629.6v2.2h21.7v-2.2H1208.4z M1208.4,634.1v2.2h21.7v-2.2H1208.4z M1211,615.3
			v2.7h16.3v-2.7H1211z"/>
		<path class="st1" d="M1292.6,614.4c0.5,5.5,1.3,10.7,2.5,15c2.3-3.5,4-7.5,5.3-11.8l5.1,1.5c-0.1,0.4-0.6,0.6-1.2,0.6
			c-1.9,5.6-4.4,10.6-7.6,14.9c1.6,4.1,3.5,6.6,5.6,6.6c1.3,0,1.9-2.4,2.2-8.5c1,1,2.4,2,3.6,2.4c-0.8,8.1-2.2,10.4-6,10.4
			c-3.5,0-6.2-2.5-8.5-7.2c-2.7,2.8-5.6,5.3-9,7.3c-0.6-0.9-2-2.6-2.8-3.4c3.8-2.1,7.2-4.9,10.1-8.3c-1.7-5.4-2.9-12.3-3.5-19.5
			H1273v5.4h9.1l1,0l2.3,0.1c0,0.4,0,0.9,0,1.4c-0.2,10.7-0.5,14.7-1.5,16c-0.9,1.1-1.8,1.7-5.7,1.7c-0.8,0-1.7,0-2.7,0
			c-0.1-1.2-0.5-2.9-1.2-4c2,0.2,3.8,0.2,4.5,0.2c0.6,0,1.1-0.1,1.4-0.6c0.6-0.7,0.8-3.4,1-10.7h-8.1c0,6.7-0.9,15.8-5.3,21.7
			c-0.7-0.8-2.5-2.3-3.4-2.8c4.1-5.6,4.5-13.5,4.5-19.5v-13h19.3c-0.2-2.6-0.3-5.2-0.3-7.8l5.6,0.3c0,0.4-0.4,0.7-1.1,0.8
			c0,2.2,0,4.5,0.1,6.7h9.7c-1.7-1.6-4.7-3.7-7.2-5.1l2.7-2.6c2.6,1.4,6,3.6,7.7,5.2l-2.4,2.4h4.1v4.2H1292.6z"/>
		<path class="st1" d="M1361.2,603.1c3,6.1,8.9,13,14,16.8c-1.1,0.9-2.8,2.7-3.7,3.9c-1.3-1.1-2.6-2.4-3.9-3.8c0,0.4,0,0.9-0.1,1.4
			c-0.6,14.6-1.2,20-2.8,21.9c-1.1,1.3-2.2,1.7-3.9,1.9c-0.7,0.1-1.7,0.1-2.9,0.1c-1.3,0-2.8,0-4.4-0.1c0-1.3-0.6-3.2-1.4-4.4
			c2.8,0.3,5.5,0.3,6.6,0.3c0.9,0,1.5-0.1,2-0.6c1.1-1.1,1.7-5.6,2.2-16.4H1352c-1.3,8.6-3.7,17.2-16.1,21.7
			c-0.5-1.1-1.8-2.9-2.8-3.9c10.8-3.6,13.3-10.4,14.3-17.8h-8.8v-3.8c-1.4,1.4-2.9,2.7-4.4,3.9c-0.8-0.9-2.4-2.5-3.4-3.3
			c5.6-3.8,10.8-10.5,13.7-17.6l5.4,1.8c-0.2,0.4-0.6,0.6-1.3,0.5c-2.3,5.2-5.7,10.2-9.6,14.2h25.1l1,0l2.5,0.2
			c-4-4.3-7.9-9.8-10.6-15.1L1361.2,603.1z"/>
		<path class="st1" d="M1049.1,698.9c-0.1,0.3-0.4,0.5-0.8,0.6c-3.8,17.3-12.4,27.5-27.5,33c-0.7-1.1-2.2-2.8-3.1-3.8
			c14.1-4.6,22.2-14.6,24.8-27h-28.8v-4.4h30.5l0.8-0.6L1049.1,698.9z"/>
		<path class="st1" d="M1110.2,707.7c-0.2,0.3-0.4,0.5-0.8,0.6c-4,14-11.3,20.7-25.1,24.6c-0.6-1.1-1.8-2.7-2.8-3.7
			c12-2.9,19.7-9.3,22.2-18.6h-29.1v-4.3h31l0.6-0.4L1110.2,707.7z M1105.4,698.8h-26.2v-4.2h26.2V698.8z"/>
		<path class="st1" d="M1136.4,709.9h38.4v4.6h-36.5c-0.3,0.5-0.9,0.8-1.5,0.8L1136.4,709.9z"/>
		<path class="st1" d="M1210.3,726.3c10.7-3.1,19.7-8.8,24.9-18c0.8,1.1,2.4,2.5,3.4,3.3c-6.1,10.1-16.6,16.5-30.2,20.1
			c-0.1,0.4-0.4,0.9-0.8,1l-2.6-4.3l0.6-1v-33.2l6.2,0.3c0,0.5-0.5,0.9-1.4,1.1V726.3z"/>
		<path class="st1" d="M1266.1,696.1c4.7,1.4,10.2,3.9,13.5,6.1l-2.4,4.1c-3.3-2.3-8.8-4.7-13.3-6.3L1266.1,696.1z M1265.2,727.5
			c15.8-4.9,26.6-14,32-26.6c1.3,1.1,2.9,1.9,4.2,2.7c-5.7,12.5-16.8,22.4-32.2,27.7c0,0.5-0.4,0.9-0.7,1.1L1265.2,727.5z"/>
	</g>
	<g>
		<path d="M998.9,851.6c0.8,0.2,2.4,0.4,3.1,0.4h6.8c0.9-1,1.2-1.3,2.1-2.2c1.2,1.1,1.6,1.4,2.7,2.5c0.1,0.1,0.2,0.2,0.2,0.3
			c0,0.1-0.2,0.3-0.4,0.3h-11.5c-0.6,0-1.1,0-2.7,0.2L998.9,851.6z M1000.4,856.9c0.8,0.2,2,0.3,2.7,0.3h4.7c0.8-1,1-1.3,1.9-2.2
			c1.3,1.1,1.6,1.4,2.7,2.5c0.1,0.2,0.2,0.3,0.2,0.3c0,0.2-0.2,0.2-0.5,0.2h-9.1c-0.9,0-1.3,0-2.3,0.2L1000.4,856.9z M1000.5,846.8
			c0.9,0.1,2.3,0.3,3,0.3h4.2c0.9-1,1.2-1.3,2.1-2.2c1.3,1,1.7,1.4,2.9,2.5c0.1,0.1,0.2,0.2,0.2,0.3c0,0.1-0.2,0.2-0.5,0.2h-9
			c-0.2,0-0.8,0-1.7,0.1c-0.3,0-0.6,0-1.1,0L1000.5,846.8z M1000.5,861.8c1.4,0.3,2,0.3,2.7,0.3h4.7c0.8-0.9,1.1-1.2,1.9-2.1
			c1.2,1,1.5,1.3,2.6,2.4c0.1,0.2,0.2,0.3,0.2,0.3c0,0.2-0.2,0.3-0.6,0.3h-8.9c-0.6,0-1.2,0-2.4,0.2L1000.5,861.8z M1003.2,878.4
			c0,0.3-0.1,0.4-0.3,0.5c-0.2,0.1-1,0.2-1.6,0.2c-0.3,0-0.5-0.1-0.5-0.4c0.1-2.7,0.1-4,0.1-6.3c0-2,0-2-0.1-6.7
			c0.9,0.6,1.8,1.1,2.6,1.6h5c0.6-0.6,0.8-0.9,1.5-1.6c0.9,0.7,1.2,0.9,2,1.6c0.3,0.3,0.4,0.5,0.4,0.6c0,0.2-0.3,0.5-1.1,0.9
			c0,6.2,0,6.2,0.1,8.9c0,0.6-0.5,0.8-2,0.8c-0.3,0-0.5-0.1-0.5-0.4v-1.3h-5.5V878.4z M1003.2,875.9h5.5v-7.8h-5.5V875.9z
			 M1024.1,865.7h3.9l1.7-1.8c1.1,0.8,1.4,1,2.3,1.8c0.3,0.3,0.4,0.4,0.4,0.5c0,0.3-0.3,0.6-1.3,1.1c0,6.5,0,7.8,0.1,10.6
			c0,0.7-0.4,0.9-1.8,0.9c-0.6,0-0.8-0.1-0.8-0.6v-1.5h-11.1v1.6c0,0.6-0.4,0.8-1.5,0.8c-0.7,0-0.9-0.1-0.9-0.5
			c0.1-3,0.1-4.5,0.1-6.6c0-2.1,0-2.8-0.1-8c1.3,0.6,1.7,0.8,2.8,1.6h3.8v-7.6h-5c-1.1,0-1.5,0-3.2,0.2l-0.3-1.4
			c1.4,0.3,2.3,0.3,3.5,0.3h5v-7.4c-3.1,0.6-4.7,0.8-8.1,1.1l-0.1-0.5c5.5-1.4,8.5-2.3,11.2-3.4c2.1-0.9,2.9-1.4,4.1-2.3
			c0.8,0.5,1.4,0.8,1.8,1c1.2,0.7,1.8,1.2,1.8,1.4c0,0.2-0.3,0.4-0.6,0.4c-0.2,0-0.3,0-1.5-0.2c-2.3,1-3.3,1.3-5.9,1.9v7.9h3.8
			c1.1-1.2,1.4-1.6,2.6-2.7c1.5,1.2,2,1.6,3.3,2.9c0.1,0.1,0.2,0.3,0.2,0.4c0,0.1-0.2,0.3-0.4,0.3h-9.5V865.7z M1017.5,875.9h11.1
			v-9.4h-11.1V875.9z"/>
		<path d="M1038.3,878.5c2.2-3.5,3-5.7,3.5-10c0.3-2.3,0.3-3.2,0.3-4.9c0.8,0.2,1.4,0.3,1.7,0.4c2,0.4,2.1,0.5,2.1,0.8
			c0,0.3-0.4,0.4-1.4,0.6c-0.3,2.1-0.5,2.8-0.8,4.2c1.1,1.8,2,2.8,3.6,3.8v-12h-5.4c-0.9,0-1.5,0.1-2.4,0.3l-0.3-1.5
			c1,0.2,1.8,0.3,2.7,0.3h9.8c0.9-1.1,1.2-1.4,2.1-2.3c1.1,1,1.4,1.4,2.4,2.5c0.2,0.2,0.2,0.3,0.2,0.5c0,0.2-0.2,0.2-0.5,0.2h-6.5
			v5.6h1.7c0.8-0.9,1.1-1.2,1.9-2.1c1.2,1.1,1.6,1.4,2.7,2.5c0.1,0.1,0.2,0.2,0.2,0.3c0,0.2-0.2,0.2-0.3,0.2h-6.1v6.6
			c2.4,0.8,5,1,12.9,1c5.2,0,7.7-0.1,12-0.6v0.6c-1.2,0.4-1.7,0.9-2,2.4c-6.2,0.1-7,0.1-9.4,0.1c-7.7,0-11.5-0.5-14.2-2
			c-2.1-1.1-4-3-5.4-5.4c-1.1,3.6-2.2,5.6-4.9,8.3L1038.3,878.5z M1041.5,848.3c0-1.2,0-2-0.2-3.6c1.2,0.8,1.6,1.1,2.7,2h6.9
			c0.6-0.7,0.8-0.9,1.5-1.6c0.8,0.7,1.1,0.9,1.7,1.5c0.3,0.3,0.5,0.4,0.5,0.6c0,0.2-0.2,0.4-1,0.9c0,1.1,0,1.9,0,2.4
			c0,0.8,0,1.4,0.1,7.1c0,0.3-0.2,0.4-0.3,0.5c-0.3,0.1-1,0.2-1.6,0.2c-0.3,0-0.5-0.1-0.5-0.4V857h-7.6v1.1
			c-0.1,0.6-0.3,0.6-1.9,0.6c-0.3,0-0.5-0.2-0.5-0.5c0.1-1.2,0.1-2,0.1-2.2v-3.3V848.3z M1051.3,847.6h-7.6v3.7h7.6V847.6z
			 M1043.8,852.2v3.9h7.6v-3.9H1043.8z M1053,874.3c1.8-0.8,3.2-1.6,5-2.9c1.2-0.9,1.7-1.3,2.5-2.3c3.1,1.5,3.2,1.5,3.2,1.8
			c0,0.2-0.3,0.4-0.7,0.4c-0.3,0-0.7,0-1.1-0.1c-3,1.9-4.9,2.7-8.7,3.6L1053,874.3z M1065.7,847.1c-1.1,2.1-1.5,2.8-2.9,4.6h6
			c0.6-0.7,0.8-0.9,1.3-1.5c0.9,0.7,1.1,0.9,1.9,1.5c0.3,0.2,0.5,0.4,0.5,0.6c0,0.3-0.1,0.4-1.2,0.9c0,7,0,7.7,0.2,14.7
			c0,0.4-0.1,0.6-0.3,0.6c-0.2,0-1.2,0.2-1.7,0.2c-0.3,0-0.5-0.1-0.5-0.3v-1h-9.1v0.8c-0.1,0.5-0.4,0.6-1.9,0.6
			c-0.3,0-0.5-0.2-0.5-0.5c0-2.5,0.1-9.7,0.1-13.1c0-1.8-0.1-3.4-0.2-5.1c1.3,0.6,1.7,0.8,2.8,1.5h1.9c0.3-1.6,0.4-2,0.7-4.6h-4.7
			c-0.6,0-1.5,0.1-2.2,0.2l-0.3-1.5c1,0.3,1.7,0.4,2.4,0.4h11.1c0.9-1,1.2-1.3,2.2-2.3c1.4,1,1.7,1.3,2.9,2.5
			c0.2,0.2,0.3,0.3,0.3,0.3c0,0.2-0.2,0.3-0.4,0.3H1065.7z M1069,852.6h-9.1v3.9h9.1V852.6z M1059.9,857.4v4.2h9.1v-4.2H1059.9z
			 M1059.9,862.4v4.2h9.1v-4.2H1059.9z M1065.5,868.9c3.5,0.9,5.7,1.7,6.4,2.3s0.9,1,0.9,2.1c0,0.8-0.2,1.2-0.6,1.2
			c-0.2,0-0.4-0.1-0.6-0.4c-0.9-0.9-1.6-1.6-2.6-2.3c-0.3-0.3-1.6-1.1-3.7-2.4L1065.5,868.9z"/>
		<path d="M1095.2,875.3c4.1-1.2,6.7-2.7,8.8-5.2c2.2-2.5,3.3-5.6,3.3-9.1c0-3.6-1.5-6.5-4.2-8.3c-1.7-1.1-4.1-1.7-6.5-1.7
			c-0.5,0-0.7,0-1.3,0.1c0.9,1.3,1.2,2,1.2,3.1c0,2.9-2.1,8.4-5,13c-2.4,3.8-4.2,5.6-5.6,5.6c-0.6,0-1.2-0.3-1.7-0.8
			c-0.3-0.5-0.4-0.6-1.1-2.4c-0.3-1-0.6-1.4-1.7-3.5c-0.6-1.2-0.9-2.2-0.9-3.4c0-2.4,1.3-5.1,3.4-7.4c3-3.2,8-5.3,12.9-5.3
			c3.8,0,7.3,1.2,9.7,3.5c2.4,2.2,3.6,5.2,3.6,8.8c0,4.7-2.7,8.9-7.5,11.4c-2.2,1.2-4.1,1.8-7.3,2.3L1095.2,875.3z M1082.8,863.7
			c0,1.8,0.6,3.6,1.5,5c0.5,0.7,1,1.1,1.4,1.1c0.8,0,2.6-2,4.5-5c2.8-4.4,4.8-9.3,4.8-11.6c0-0.6-0.1-0.9-0.5-1.9
			C1087.9,852.4,1082.8,857.9,1082.8,863.7z"/>
		<path d="M1122.1,876.7c5.9-5,9.1-8.8,12.4-14.4c2.4-4.2,4.5-8.8,4.5-10c0-0.4-0.2-0.5-0.8-0.5c-0.7,0-4.2,0.6-7,1.3
			c-2.8,0.6-5.2,1.4-6.9,2.1c-0.6,0.3-1,0.4-1.4,0.4c-0.8,0-1.8-0.8-2.7-2c-0.6-0.9-1-1.7-1-2.3c0-0.3,0-0.4,0.3-0.8
			c0.6,1.4,1.9,2.2,3.5,2.2c1.2,0,4.3-0.5,10.7-1.5c3.3-0.6,3.6-0.6,4.4-1.1c0.5-0.3,0.5-0.3,0.8-0.3c0.6,0,1.6,0.7,2.7,1.7
			c0.8,0.8,1.2,1.4,1.2,1.8c0,0.4-0.1,0.5-0.5,1c-0.5,0.5-0.6,0.8-1.3,2.1c-3,6.1-6.9,11.5-10.9,15.2c-2.4,2.2-4.6,3.8-7.7,5.6
			L1122.1,876.7z"/>
		<path d="M1157.3,877c3.7-2.9,6.1-5.2,8.6-8.4c3-3.9,5.3-8,6.3-11.5c-3.6,0.3-7,0.8-10.9,1.7c-2.4,0.6-3.1,0.8-3.9,1.2
			c-0.6,0.3-0.8,0.3-1.1,0.3c-1.3,0-3.5-2.7-3.5-4.4c0-0.3,0-0.4,0.2-0.6c0.9,1.5,1.9,2.2,3.3,2.2c1.5,0,7.8-0.8,12.7-1.6
			c2-0.3,2.3-0.4,3.1-0.9c0.3-0.2,0.5-0.2,0.6-0.2c0.3,0,0.9,0.4,1.8,1.1c1.1,1,1.5,1.6,1.5,2.1c0,0.3-0.2,0.6-0.6,0.9
			c-0.5,0.4-0.8,0.7-1.4,2c-4.1,7.7-10.1,13.8-16.3,16.5L1157.3,877z M1156.8,847.9c1.3,1.5,2.4,2,4,2c2.5,0,7.1-1,8.5-1.8
			c0.3-0.2,0.5-0.2,0.8-0.2c1.1,0,2.9,1.3,2.9,2.1c0,0.5-0.3,0.7-1.4,0.8c-4.5,0.7-7.6,1-9.6,1c-2.8,0-3.9-0.7-5.8-3.5L1156.8,847.9
			z"/>
		<path d="M1187.6,859.8c0.9,0.7,1.7,0.9,3.6,0.9c0.4,0,0.4,0,4.6-0.1c1.5,0,13.4-0.2,14.7-0.2c3.4,0,4.2,0.1,4.9,0.3
			c0.4,0.2,0.5,0.4,0.5,0.8c0,0.5-0.3,0.9-0.9,1c-1,0.3-1.9,0.4-9,0.5c-3.5,0-12.1,0.3-13.4,0.3c-1.8,0.1-2.1,0.2-2.7,0.5
			c-0.2,0-0.4,0.1-0.6,0.1c-0.6,0-1.2-0.4-1.8-1.2c-0.8-1-1.4-2.6-1.4-3.5c0-0.5,0-0.6,0.3-0.9
			C1186.9,859.2,1187.1,859.4,1187.6,859.8z"/>
		<path d="M1251.9,858.8c-2.1,2.9-3.3,4.3-5.6,6.4c-3.4,3.1-7,5.5-11.3,7.7c-2.1,1.1-2.1,1.1-2.8,1.8c-0.3,0.3-0.6,0.5-0.9,0.5
			c-0.8,0-2.5-2.2-2.5-3.2c0-0.2,0-0.2,0.2-0.7c0.3-0.8,0.3-1.7,0.3-5.7c0-8.3-0.2-11.9-0.7-13.3c-0.3-0.9-0.9-1.4-2.6-2
			c0.5-0.3,0.7-0.4,1.2-0.4c0.8,0,2,0.3,3,0.9c1.5,0.8,2.2,1.5,2.2,2.3c0,0.2,0,0.2-0.2,0.8c-0.2,0.6-0.4,2-0.5,3.7
			c-0.2,2.3-0.4,9.1-0.4,11.9c0,0.4,0,1.1,0,1.9c5.4-2,8.8-3.7,12.8-6.7c2.9-2.1,5.4-4.3,7.3-6.3L1251.9,858.8z"/>
		<path d="M1259.9,851c3.6,0.9,5.8,1.8,7.3,2.8c0.9,0.6,1.3,1.4,1.3,2.6c0,1.2-0.4,2.1-1.1,2.1c-0.4,0-0.6-0.2-1.6-1.5
			c-1.8-2.4-3.2-3.7-6.1-5.5L1259.9,851z M1286.6,853.2c-1.9,3.5-4.2,6.5-7.9,10.1c-3.5,3.3-5.8,5.2-10.6,8.6
			c-1.8,1.2-2,1.4-2.2,1.7c-0.6,0.7-0.8,0.9-1.3,0.9c-1.5,0-4.4-3.6-4.4-5.5c0-0.2,0-0.4,0.2-0.8c0.8,1.1,0.8,1.2,1.4,1.7
			c0.6,0.5,1.1,0.8,1.5,0.8c0.6,0,1.8-0.5,3.6-1.6c4.2-2.4,5.7-3.5,9-6.2c4.6-3.8,6.9-6.1,10.1-10L1286.6,853.2z"/>
		<path d="M1295.3,851.3c1.8,1.4,2.7,1.8,4.7,1.8c1.2,0,2.3-0.1,4-0.5c0.8-1.6,1.3-3,1.3-3.8c0-1-0.7-1.6-2.7-2.1
			c0.6-0.3,1-0.4,1.7-0.4c0.9,0,2,0.2,2.9,0.6c0.9,0.4,1.4,0.8,1.4,1.2c0,0.3-0.2,0.5-0.6,1.1c-0.3,0.5-0.8,1.1-1.1,1.5
			c-0.7,1.1-0.7,1.1-0.9,1.5c3.2-0.9,4.2-1.4,5.4-2.4c0.2-0.2,0.5-0.3,0.7-0.3c1.5,0,2.5,0.5,2.5,1.2c0,0.5-0.5,0.8-1.6,1.2
			c-3.3,1.1-5.1,1.5-8.2,2.1c-0.7,0.9-1.1,1.6-2,2.9c-1,1.6-1.3,2-2,3c2.1-1.1,3.4-1.5,4.8-1.5c2.2,0,3.9,1.5,4.2,3.8
			c0.6-0.3,0.6-0.3,3.7-1.8c3.7-1.9,4.6-2.5,4.6-3.2c0-0.6-0.6-1.3-1.7-1.8c0.4-0.2,0.6-0.2,0.9-0.2c1.7,0,4.2,2.3,4.2,3.8
			c0,0.7-0.3,0.9-1.4,1.2c-2.3,0.5-7.1,2.4-10.1,3.9c0,1.2,0,1.4,0,3c0,1.7-0.1,2.9-0.3,3.2c-0.2,0.4-0.6,0.7-1.1,0.7
			c-0.7,0-1.2-0.5-1.2-1.1c0-0.2,0-0.4,0-0.6c0.2-1.1,0.2-2.4,0.3-4c-2.3,1.3-3.4,2-4.4,3c-1.2,1.2-1.8,2.4-1.8,3.5c0,2,2.1,3,6.3,3
			c2.6,0,5.3-0.4,7.6-1.1c0.3-0.1,0.5-0.1,0.7-0.1c1.2,0,2.6,1.1,2.6,1.9c0,0.5-0.4,0.9-1.2,1c-1.5,0.3-4.4,0.5-6.7,0.5
			c-3.5,0-6.1-0.4-7.6-1.1c-1.9-0.9-2.8-2.1-2.8-4c0-1.8,0.9-3.4,2.7-5.1c1-0.9,2.2-1.8,4.7-3.3c0-1.6-0.2-2.2-0.5-3
			c-0.3-0.7-1.1-1.1-1.9-1.1c-2.5,0-5.4,2-8.2,5.4c-0.7,1-1,1.2-1.4,1.2c-0.6,0-1-0.8-1-2c0-0.8,0-0.8,1.1-1.7
			c2.7-2.1,4.3-4.1,7-8.1c-1.2,0.2-1.7,0.2-2.5,0.2c-2.6,0-3.9-0.7-5.6-2.9L1295.3,851.3z"/>
		<path d="M910.9,912.5c0.5,0,0.9-0.2,1.6-0.8c0.6-0.5,0.9-0.8,3.4-3.2c2.8-2.6,3.7-3.2,4.8-3.2c1,0,1,0,6.7,4.1
			c5.4,3.9,8.8,6.1,11,7c0.9,0.3,2.1,2.6,2.1,3.8c0,0.6-0.3,0.9-0.8,0.9c-1.1,0-2.7-1.2-11.8-8.9c-6.2-5.3-6.5-5.5-7.3-5.5
			c-0.8,0-1.6,0.8-3.4,3.2c-1.2,1.7-2.4,3.5-2.9,4.7c-0.4,0.8-0.6,1-1.2,1c-1.7,0-4.5-2.7-4.5-4.3c0-0.1,0-0.1,0.1-0.4
			C909.4,911.9,910.3,912.5,910.9,912.5z"/>
		<path d="M948.1,927.6c2.8-2.3,5.1-5.6,6.8-9.5c1.2-2.9,2.3-6.5,2.3-8.2c0-1-0.7-1.8-2.2-2.4c0.2-0.3,0.5-0.4,0.9-0.4
			c0.5,0,1.8,0.5,2.9,1.1c1,0.5,1.4,0.8,1.6,1.3c1.7-1.1,5.1-3.7,6.7-5.4c0.9-0.8,1.2-1.2,1.2-1.5c0-0.5-0.5-0.6-2.2-0.6
			c-2.5,0-8.9,1-13,2.1c-1.4,0.4-2.7,0.8-3.8,1.3c-0.2,0.1-0.6,0.2-0.9,0.2c-0.8,0-2.2-1.1-3-2.5c-0.4-0.7-0.7-1.6-0.7-2
			c0-0.3,0.1-0.5,0.3-0.9c0.7,1.5,1.9,2.3,3.7,2.3c1.4,0,2-0.1,9.1-1c0.3,0,1.2-0.2,2.6-0.3c5.8-0.7,6.1-0.8,6.9-1.1
			c0.2-0.1,0.3-0.1,0.5-0.1c0.4,0,1.1,0.4,2,1.1c1.6,1.2,2.7,2.5,2.7,3.2c0,0.6-0.2,0.7-1.4,1c-0.6,0.2-1,0.3-1.8,0.8
			c-3.1,1.8-4.8,2.6-8.9,4.5c-0.2,0.6-0.3,0.7-0.6,1.7c-1.7,5.1-3.2,8.1-5.4,10.7c-1.8,2.1-3.7,3.8-5.8,5L948.1,927.6z"/>
		<path d="M977.9,915.1c2.5-2.9,4.3-5.6,5.9-8.6c1.7-3.2,2.7-5.6,2.7-6.6c0-1-0.8-1.8-2.5-2.5c0.4-0.2,0.6-0.3,0.9-0.3
			c0.9,0,2.1,0.4,3.4,1.1c1.1,0.6,1.7,1.2,1.7,1.7c0,0.4,0,0.5-0.8,1.5c-0.1,0.1-0.3,0.5-0.6,1.1c-0.6,1.1-1.6,2.9-2.2,3.8
			c0.6,0.5,1.3,0.8,2.2,0.8c1.7,0,5-0.5,8.3-1.2c3.1-0.8,4.4-1.1,5.7-1.8c0.2-0.1,0.5-0.2,0.7-0.2c0.4,0,1.4,0.3,2.1,0.8
			c0.9,0.5,1.2,0.8,1.2,1.3c0,0.3-0.2,0.6-0.7,0.7c-0.2,0.1-0.3,0.1-2,0.3c-0.3,0-3.4,0.5-4.5,0.6c-3,0.5-3,0.5-3.9,0.6
			c1.6,1,2.3,1.8,2.3,2.4c0,0.5-0.5,2.2-1,3.7c-2.4,6.5-6.3,11.3-11.6,14.6l-0.4-0.4c2.8-2.5,5.1-5.6,7.1-9.4c2-3.7,3-6.9,3-9.1
			c0-0.7-0.2-1.1-1-1.7c-0.3,0-0.6,0.1-0.7,0.1c-1.7,0.2-2.6,0.3-3.9,0.3c-1.7,0-2.1-0.2-3.5-1.3c-2.7,3.9-5,6.4-7.7,8.2
			L977.9,915.1z"/>
		<path d="M1018.1,927.6c2.8-2.3,5.1-5.6,6.8-9.5c1.2-2.9,2.3-6.5,2.3-8.2c0-1-0.7-1.8-2.2-2.4c0.2-0.3,0.5-0.4,0.9-0.4
			c0.5,0,1.8,0.5,2.9,1.1c1,0.5,1.4,0.8,1.6,1.3c1.7-1.1,5.1-3.7,6.7-5.4c0.9-0.8,1.2-1.2,1.2-1.5c0-0.5-0.5-0.6-2.2-0.6
			c-2.5,0-8.9,1-13,2.1c-1.4,0.4-2.7,0.8-3.8,1.3c-0.2,0.1-0.6,0.2-0.9,0.2c-0.8,0-2.2-1.1-3-2.5c-0.4-0.7-0.7-1.6-0.7-2
			c0-0.3,0.1-0.5,0.3-0.9c0.7,1.5,1.9,2.3,3.7,2.3c1.4,0,2-0.1,9.1-1c0.3,0,1.2-0.2,2.6-0.3c5.8-0.7,6.1-0.8,6.9-1.1
			c0.2-0.1,0.3-0.1,0.5-0.1c0.4,0,1.1,0.4,2,1.1c1.6,1.2,2.7,2.5,2.7,3.2c0,0.6-0.2,0.7-1.4,1c-0.6,0.2-1,0.3-1.8,0.8
			c-3.1,1.8-4.8,2.6-8.9,4.5c-0.2,0.6-0.3,0.7-0.6,1.7c-1.7,5.1-3.2,8.1-5.4,10.7c-1.8,2.1-3.7,3.8-5.8,5L1018.1,927.6z"/>
		<path d="M1069.4,903c0.3,5.2,1,9.2,2.4,12.6c1.8-3.5,3.2-7.1,3.4-9.5c3.4,0.8,4.1,1,4.1,1.4c0,0.3-0.4,0.5-1.7,0.8
			c-1.6,4.4-2.7,6.6-4.7,9.6c1.5,2.9,2.7,4.2,5.8,6.7c1.4-2.4,1.9-3.4,3.7-7.2l0.5,0.1l-1.8,7.1c-0.2,0.7-0.2,0.9-0.2,1.1
			c0,0.3,0,0.4,0.5,0.9c0.3,0.4,0.5,0.7,0.5,1.1c0,0.7-0.5,1.1-1.2,1.1c-1.1,0-2.8-1.1-5-3.3c-1.7-1.7-2.9-3.3-4.1-5.4
			c-1.1,1.4-2.3,2.6-3.7,3.9c-2.4,2.1-4.3,3.3-7.9,5.1l-0.3-0.5c3-2.1,4.5-3.4,6.9-5.9c1.7-1.7,2.9-3.2,3.9-4.8
			c-1.7-4-2.8-8.7-3.3-15h-11.9c0,3.3-0.1,4.5-0.2,6.8h6.5c0.6-0.7,0.8-0.9,1.5-1.7c1,0.7,1.3,0.9,2.3,1.7c0.3,0.3,0.4,0.5,0.4,0.6
			c0,0.3-0.4,0.5-1.4,1c-0.5,5.7-0.8,8.4-1.4,10c-0.3,0.8-0.9,1.5-1.6,1.8c-0.7,0.3-1.2,0.5-2.8,0.7c-0.4-1.4-0.5-1.6-0.9-1.9
			c-0.5-0.4-1.1-0.6-3-0.9l0-0.6c2.7,0.3,4.4,0.5,5,0.5c0.7,0,0.9-0.2,1.2-1.5c0.4-1.7,0.8-5.6,0.8-8.8h-6.7
			c-0.2,3.7-0.5,5.6-0.9,7.7c-0.6,2.6-1.5,5.2-2.7,7.3c-0.6,1.2-1.2,2-2.6,3.7l-0.5-0.3c1.8-3.2,2.6-5.3,3.3-8.9
			c0.7-3.7,1-8.2,1-15.1c0-2.2,0-3.2-0.2-4.9c1.4,0.8,1.8,1.1,3.2,2h11.6c-0.1-1.2-0.2-1.8-0.2-2.9c-0.1-2.7-0.1-3-0.3-4.3
			c0.7,0.1,1.3,0.2,1.7,0.2c2,0.2,2.5,0.3,2.5,0.6c0,0.3-0.2,0.5-1.3,0.9c0,1.1,0,1.9,0,2.4c0,1.1,0,1.8,0.1,3h7.1
			c1-1.2,1.3-1.5,2.2-2.6c1.5,1.2,2,1.6,3.3,2.9c0.1,0.1,0.2,0.2,0.2,0.3c0,0.1-0.2,0.2-0.3,0.2H1069.4z M1071.4,896
			c2.2,0.3,3.6,0.8,4.8,1.4c0.8,0.4,1.1,1.1,1.1,2.1c0,0.8-0.3,1.4-0.8,1.4c-0.3,0-0.5-0.2-0.9-0.6c-1.1-1.4-2.3-2.5-4.4-3.9
			L1071.4,896z"/>
		<path d="M1088.9,912.5c3.7-3.3,5.5-5.3,7.7-8.8c1.9-2.9,2.9-5,3.9-8c0.8,0.3,1.5,0.5,1.9,0.6c1.9,0.7,2.3,0.8,2.3,1.1
			c0,0.3-0.4,0.5-1.8,0.7c-2.3,4.1-3.8,6.4-6.3,8.9c-2.2,2.4-4.1,3.9-7.3,5.9L1088.9,912.5z M1105.4,911.2c-0.6,4.2-1.4,6.9-2.9,9.6
			c-1.5,2.7-3.9,5-7.4,7c-1.4,0.8-2.3,1.2-4.4,1.9l-0.3-0.5c5.2-2.9,8.2-5.9,10.1-10.1c1-2.3,1.5-4.1,2-7.7h-4.8
			c-0.9,0-2.1,0.1-3,0.3l-0.3-1.4c1.4,0.2,2.1,0.3,3.2,0.3h16c0.7-0.6,0.9-0.8,1.6-1.4c1.1,0.7,1.4,0.9,2.3,1.7
			c0.3,0.3,0.4,0.4,0.4,0.6c0,0.3-0.3,0.5-1.3,1c-0.4,7.9-1.1,12.9-2,14.8c-0.8,1.6-2.1,2.1-6.5,2.2c-0.1-1-0.4-1.5-1.2-1.9
			c-0.6-0.3-1.5-0.5-4.5-1.1l0-0.7c5.5,0.6,7.1,0.8,8.4,0.8c1.5,0,1.9-0.6,2.4-3.5c0.4-2.6,0.7-6.8,0.8-11.5H1105.4z M1110.1,895.9
			c0,0.4,0,0.6,0.2,0.9c0.6,2,3.3,5.4,5.8,7.3c2.6,2.1,4.8,3.2,8.5,4.4l0,0.5c-1.5,0.4-2.1,0.9-3,2.6c-3.2-2.1-5.1-3.7-7.1-6.1
			c-1.8-2.1-2.7-3.5-4.5-7.3c-0.5-0.9-0.7-1.3-1.2-1.7L1110.1,895.9z"/>
		<path d="M1136.8,897.1c1.1,0,2.9,0.3,3.8,0.7c0.8,0.3,1.1,0.7,1.1,1.2c0,0,0,0.1,0,0.1c0,0.3,0,0.3-0.3,1
			c-0.5,1.3-0.8,4.5-0.8,7.6c0,2.2,0.3,2.8,1.5,2.8c0.8,0,1.6-0.3,5-1.9c0.7-0.3,1.1-0.5,1.5-0.5c0.9,0,1.8,0.8,1.8,1.6
			c0,0.5-0.3,0.9-0.8,1.1c-0.3,0.1-0.8,0.3-2.5,0.8c-4.5,1.3-7,2.4-9.4,4.2c-2,1.6-2.9,3-2.9,4.8c0,2.7,2.1,4.1,6.3,4.1
			c2.3,0,6-0.5,8.7-1.1c0.4-0.1,0.5-0.1,0.8-0.1c1,0,2,0.9,2,1.8c0,0.7-0.4,1-1.6,1.2c-1.2,0.2-5,0.5-7.2,0.5
			c-2.7,0-4.8-0.3-6.4-0.9c-2.5-0.9-4.1-3.1-4.1-5.6c0-2.2,1.2-4.2,3.7-6.3c1.1-1,2.4-1.8,4.6-3c-0.8,0-1.2-0.1-1.8-0.6
			c-0.6-0.4-0.9-1.2-1.1-2.9c-0.1-0.9-0.2-1.7-0.3-4.5c-0.1-3.2-0.1-3.8-0.5-4.3c-0.4-0.7-1.1-1.1-2.7-1.4
			C1135.7,897.2,1136,897.1,1136.8,897.1z"/>
		<path d="M1186.9,920c-3.6,4.9-8.5,7.8-13.2,7.8c-2.9,0-5.1-1.2-6.2-3.2c-0.8-1.3-1.1-3.2-1.1-6.4c0-2.1,0.1-5.6,0.3-9.1
			c0.2-4.1,0.3-5.1,0.3-6.5c0-3.2-0.4-3.9-3-5c0.4-0.3,0.6-0.4,1.1-0.4c0.9,0,2.2,0.3,3.4,0.9c1.4,0.7,2.2,1.4,2.2,2.2
			c0,0.3,0,0.5-0.3,1.4c-0.7,2.3-2,13.6-2,18c0,2.3,0.5,3.6,1.5,4.5c0.8,0.6,2,1,3.3,1c2.6,0,5.7-0.9,8.6-2.4
			c1.7-0.9,2.8-1.7,4.8-3.3L1186.9,920z"/>
		<path d="M1192.8,904.2c0.5,0.5,0.9,0.6,1.7,0.6c1.1,0,2-0.2,10.4-2.2c1.6-0.4,3.6-0.8,6.1-1.3c2.9-0.6,3.9-0.8,5.1-1.2
			c0.8-0.2,1-0.3,1.3-0.3c0.5,0,1.3,0.3,2,0.8c0.8,0.5,1.1,0.9,1.1,1.4c0,0.6-0.5,0.9-1.2,0.9c-0.2,0-0.4,0-0.7,0
			c-0.5-0.1-0.7-0.1-1.1-0.1c-6.4,0-12.6,6.1-12.6,12.4c0,3.5,1.7,6,5,7.4c1.2,0.5,2.7,0.9,3.8,0.9c0.8,0,1,0.1,1.6,0.6
			c0.7,0.7,1.1,1.4,1.1,1.8c0,0.6-0.6,1.1-1.4,1.1c-2.1,0-5.5-1.2-7.6-2.7c-2.9-2-4.4-4.9-4.4-8.4c0-3,1.5-6.4,4.1-9.2
			c1.5-1.7,3-2.7,6.1-4.3c-3.4,0.5-6.5,1.2-10.8,2.6c-2.4,0.8-4.8,1.8-6,2.4c-0.8,0.5-1,0.5-1.5,0.5c-0.9,0-2-0.9-2.9-2.2
			c-0.6-0.9-1-1.9-1-2.5c0-0.3,0.1-0.5,0.4-1C1191.9,903.2,1192.2,903.7,1192.8,904.2z"/>
		<path d="M1236.2,913.3c1,0.3,1,0.3,2,0.6c1.8-2.5,2.8-4.1,3.7-6.2c1.3,0.4,2.7,0.9,3.2,1.2c0.3,0.1,0.4,0.2,0.4,0.4
			c0,0.1-0.1,0.2-0.2,0.3c-0.2,0.1-0.7,0.2-1.6,0.4c-1.3,1.3-3.3,3-4.8,4.1c1.7,0.6,2.6,1,3.5,1.7c0.7,0.5,0.9,0.9,0.9,1.8
			c0,0.9-0.4,1.8-0.8,1.8c-0.2,0-0.5-0.2-0.8-0.6c0,0,0,0-1.4-1.5c-1-1.1-2.6-2.3-4.1-3.2v5.3c0,1.4,0.1,6.1,0.2,9.7
			c0,0.2-0.1,0.3-0.3,0.4c-0.2,0.1-1.3,0.2-1.9,0.2c-0.4,0-0.5-0.1-0.6-0.4c0.2-2.4,0.3-7,0.3-9.9v-6.5c-2.8,2.9-4.2,4.1-7.1,6.1
			l-0.5-0.5c2.7-2.5,4.6-4.5,6.7-7.3c1.8-2.3,3-4.1,5.1-8.1h-7.5c-0.6,0-2.1,0.2-2.9,0.3l-0.3-1.4c1.1,0.2,2.1,0.3,3.1,0.3h3.2v-3.6
			c-0.1-1.9-0.2-3.1-0.3-3.6c3.5,0.5,4.1,0.6,4.1,0.9c0,0.3-0.5,0.5-1.5,0.9v5.4h2c0.8-0.8,1-1,1.8-1.7c1.1,0.8,1.5,1.1,2.4,2
			c0.2,0.2,0.3,0.3,0.3,0.4c0,0.1-0.1,0.2-0.2,0.3c-0.1,0.1-0.6,0.3-1.6,0.6c-2.1,3.1-3.1,4.5-4.7,6.4V913.3z M1252,901.3
			c-0.2,5.3-1.1,10.5-2.6,14.5c-1.5,4.1-3.9,7.6-6.9,10.4c-1.4,1.3-2.3,1.9-4.3,3.1l-0.3-0.5c3-2.6,4.7-4.5,6.4-7.2
			c3.2-5.1,5-12.3,5.2-20.3h-2.7c-1.4,0-2,0-3.2,0.2l-0.3-1.4c1.2,0.2,2,0.3,3.4,0.3h11.1c0.6-0.8,0.8-1,1.4-1.6
			c1.1,0.7,1.4,0.9,2.4,1.7c0.3,0.3,0.4,0.4,0.4,0.5c0,0.2-0.3,0.5-1.5,1.2c-0.2,10.3-0.5,14.2-1.5,20c-0.5,2.9-1.2,4.7-2.3,5.3
			c-0.9,0.6-2.4,1-4.1,1.1c-0.3-1.2-0.7-1.7-1.8-2c-0.9-0.3-2.2-0.5-3.7-0.7v-0.6c4.3,0.3,5.5,0.4,6.7,0.4s1.5-0.2,1.8-0.9
			c0.5-1.1,1.1-4.4,1.5-8.5c0.5-4.1,0.7-8.4,0.7-12.4c0-1.1,0-1.4,0-2.8H1252z"/>
		<path d="M1272.5,900.4c1.5,1.1,2.4,2.1,2.9,3.1c0.3,0.7,0.8,2.1,1.2,3.9c2.6-1.4,4.5-2,7.9-2.4c0.5-1.8,0.7-3.3,0.7-4.4
			c0-0.9-0.4-1.2-1.8-1.2c-0.2,0-0.4,0-0.7,0l-0.1-0.4c1-0.5,1.8-0.6,2.4-0.6c1.4,0,3,1.2,3,2.3c0,0.7-0.6,2.8-1.1,4.4
			c6.2,0.3,10.5,4.3,10.5,9.9c0,4.2-2.4,7.7-6.8,10.1c-2.3,1.2-4.4,1.8-7.4,2.2l-0.2-0.5c3.2-1,5.3-2.1,7.3-3.8
			c2.7-2.4,4.1-5.3,4.1-8.6c0-2.9-1.2-5.3-3.2-6.8c-1.4-0.9-2.7-1.4-4.7-1.5c-1.5,4.2-3.9,8.7-6.3,11.7c0.5,0.8,0.7,1.1,1.4,1.9
			c1.1,1.4,1.2,1.5,1.2,2c0,0.5-0.4,0.8-0.9,0.8c-0.9,0-2-1-3.2-2.7c-0.6,0.8-1.4,1.6-2.9,2.8c-1.2,0.9-2.1,1.4-3,1.4
			c-0.9,0-1.3-0.5-1.7-1.9c-0.3-1.2-0.5-1.5-1.1-2.4c-0.6-0.9-0.9-1.5-0.9-2.3c0-3,2.1-6.2,5.9-8.8c-0.7-4.3-1.1-5.5-2.9-7.7
			L1272.5,900.4z M1272.4,913.3c-0.8,1.4-1.3,3-1.3,4.4c0,1.7,1.1,3.6,2,3.6c0.9,0,2.7-1.3,4.5-3.2c-1.1-2.4-1.5-4.2-2.3-8.1
			C1273.8,911.2,1273.1,912,1272.4,913.3z M1279.2,916.1c2.1-3,3.8-6.4,4.9-10c-3.2,0.5-5,1.1-7.3,2.7
			C1278,913.2,1278.3,914.2,1279.2,916.1z"/>
		<path d="M1305.2,904.2c0.5,0.5,0.9,0.6,1.7,0.6c1.1,0,2-0.2,10.4-2.2c1.6-0.4,3.6-0.8,6.1-1.3c2.9-0.6,3.9-0.8,5.1-1.2
			c0.8-0.2,1-0.3,1.3-0.3c0.5,0,1.3,0.3,2,0.8c0.8,0.5,1.1,0.9,1.1,1.4c0,0.6-0.5,0.9-1.2,0.9c-0.2,0-0.4,0-0.7,0
			c-0.5-0.1-0.7-0.1-1.1-0.1c-6.4,0-12.6,6.1-12.6,12.4c0,3.5,1.7,6,5,7.4c1.2,0.5,2.7,0.9,3.8,0.9c0.8,0,1,0.1,1.6,0.6
			c0.7,0.7,1.1,1.4,1.1,1.8c0,0.6-0.6,1.1-1.4,1.1c-2.1,0-5.5-1.2-7.6-2.7c-2.9-2-4.4-4.9-4.4-8.4c0-3,1.5-6.4,4.1-9.2
			c1.5-1.7,3-2.7,6.1-4.3c-3.4,0.5-6.5,1.2-10.8,2.6c-2.4,0.8-4.8,1.8-6,2.4c-0.8,0.5-1,0.5-1.5,0.5c-0.9,0-2-0.9-2.9-2.2
			c-0.6-0.9-1-1.9-1-2.5c0-0.3,0.1-0.5,0.4-1C1304.3,903.2,1304.6,903.7,1305.2,904.2z"/>
		<path d="M1351.3,904.4h2.3c0.5-0.6,0.7-0.8,1.4-1.4c0.9,0.6,1.1,0.8,1.8,1.4c0.3,0.2,0.5,0.4,0.5,0.5c0,0.2-0.2,0.4-1.2,1
			c0,17.1,0,18.2,0.1,22.2c0,0.5-0.4,0.6-1.7,0.6c-0.4,0-0.5-0.1-0.6-0.3v-2.6h-10.2v3.2c-0.1,0.4-0.4,0.5-1.7,0.5
			c-0.6,0-0.7-0.1-0.8-0.4c0.2-3.8,0.2-8.2,0.2-18c0-3,0-3.3-0.2-8.5c1.2,0.8,1.6,1,2.7,1.8h1.8v-5.9h-2.5c-0.9,0-1.6,0-3.2,0.1
			l-0.1-1.5c1.2,0.3,2.5,0.5,3.4,0.5h9.4c0.8-1,1.1-1.3,1.9-2.3c1.9,1.5,1.9,1.5,3.2,2.6c0.1,0.2,0.2,0.2,0.2,0.3
			c0,0.1-0.1,0.2-0.3,0.2h-6.3V904.4z M1353.9,914.9c-0.4,0.4-0.8,0.5-2.1,0.5c-2,0-2.3-0.1-2.3-0.9l0-3v-6.2h-2
			c0,2.6-0.2,4.3-0.4,5.6c-0.5,2.4-1.2,4.2-2.7,6.2l-0.5-0.3c0.9-2.1,1.4-3.8,1.6-6.4c0.1-1.2,0.1-1.5,0.2-5.2h-2v14.3h10.2V914.9z
			 M1353.9,920.4h-10.2v4.5h10.2V920.4z M1347.5,898.4v5.9h2v-5.9H1347.5z M1353.9,905.2h-2.6v8.1c0,0.2,0.1,0.3,0.3,0.3
			c0.1,0,0.2,0,0.3,0l0.5-4.1h0.4l0.2,4.1c0.5,0.1,0.6,0.1,0.9,0.3V905.2z M1373,918.8v6.5c0,0.6,0,0.6,0.8,0.9
			c0.3,0.1,0.7,0.6,0.7,0.9c0,0.5-0.4,0.9-0.9,1.1c-0.8,0.2-2,0.3-6.4,0.3c-5.1,0-6.4-0.1-7.1-0.5c-0.7-0.3-0.9-0.9-0.9-2.2v-2.7
			c0-12.7,0-12.7-0.2-16.2c1.2,0.7,1.6,0.9,2.7,1.9h7.5v-10.4h-7c-1,0-1.8,0-3.5,0.2l-0.2-1.4c1.4,0.2,2.7,0.3,3.7,0.3h6.7
			c0.5-0.7,0.7-0.9,1.4-1.6c1,0.7,1.3,0.9,2.3,1.6c0.3,0.3,0.4,0.4,0.4,0.6c0,0.3-0.2,0.4-1.3,1c0,1.1,0,1.8,0,2.5
			c0,2.9,0,5.9,0.2,10c0,0.6-0.2,0.6-1.8,0.6c-0.8,0-0.8,0-0.9-0.5v-2.1h-7.7v15.6c0,0.7,0.1,0.9,0.6,0.9c0.4,0,2.1,0.1,6,0.1
			c2.4,0,2.6,0,2.8-0.6c0.1-0.2,0.2-0.8,1.7-7H1373z"/>
		<path d="M1379.7,913.6c4.2-2.9,7.2-5.8,10.6-10c1.8-2.2,3.4-4.7,4.1-6.2c0.3-0.6,0.4-1,0.7-1.8c0.9,0.2,1.5,0.3,1.9,0.4
			c2.1,0.4,2.5,0.6,2.5,0.9c0,0.3-0.5,0.5-1.5,0.7c1.8,3.1,4.4,5.7,7.7,8.2c3.2,2.3,6.2,3.7,9.7,4.7l-0.1,0.5
			c-1.6,0.2-2.2,0.7-3,2.5c-3.5-1.8-5.5-3.3-8.3-6.1c-2.8-2.8-4-4.5-6.7-9.3c-2.7,4.2-5,7.1-8.5,10.2c-3,2.7-5.4,4.4-8.9,6.1
			L1379.7,913.6z M1389,928.4c0,0.3,0,0.5-0.2,0.5c-0.3,0.1-1.2,0.2-2,0.2c-0.4,0-0.5-0.1-0.5-0.5c0.1-5.9,0.1-7.7,0.1-9.2
			c0-3,0-4.4-0.1-5.8c1.4,0.8,1.8,1.1,3,1.9h15.2c0.6-0.8,0.8-1.1,1.5-1.9c1.1,0.8,1.4,1.1,2.4,1.9c0.3,0.3,0.4,0.4,0.4,0.5
			c0,0.2-0.3,0.5-1.2,0.8c0,5.5,0,5.5,0.2,11.3c0,0.1,0,0.1,0,0.2c0,0.3-0.1,0.4-0.3,0.5c-0.3,0.1-1.5,0.3-1.9,0.3
			c-0.4,0-0.6-0.2-0.6-0.5c0,0,0-0.1,0-0.2v-1.6H1389V928.4z M1389,908.8c1.1,0.2,2,0.3,2.8,0.3h7.9c0.9-0.9,1.1-1.3,2-2.3
			c1.4,1.1,1.8,1.4,3.2,2.5c0.2,0.2,0.3,0.3,0.3,0.5c0,0.1-0.1,0.2-0.5,0.2h-12.8c-0.7,0-1.3,0-2.5,0.2L1389,908.8z M1389,926h15.9
			v-9.6H1389V926z"/>
	</g>
	<line class="st2" x1="933.1" y1="667.1" x2="1376.1" y2="667.1"/>
	<line class="st2" x1="991.5" y1="749.3" x2="1316.8" y2="749.3"/>
	<circle class="st0" cx="317.4" cy="726.9" r="209.1"/>
	<g>
		<path class="st1" d="M44.4,677.7c0,2.5,0.5,3,3.7,3h10.6c2.8,0,3.2-1.1,3.6-6.4c1.1,0.8,3,1.5,4.3,1.8c-0.7,6.7-2.1,8.8-7.6,8.8
			H47.9c-6.2,0-7.9-1.5-7.9-7.3v-5.5L25,674.1l-0.6-4.2l15.5-2v-6.2l-13.4,1.9l-0.6-4.2l14-1.9v-6.1c-4.5,0.9-9.2,1.7-13.7,2.3
			c-0.2-1.1-0.8-2.8-1.3-3.8c11.6-1.7,24.5-4.4,31.9-7.7l3.9,3.7c-0.1,0.1-0.4,0.2-0.7,0.2c-0.1,0-0.3,0-0.5,0c-4,1.6-9.3,3-15,4.3
			l1.1,0c0,0.4-0.3,0.6-1.1,0.8v5.6l17.3-2.3l0.6,4l-17.9,2.5v6.2l20.3-2.6l0.6,4.1l-20.9,2.7V677.7z"/>
		<path class="st1" d="M122.7,672.4c0.8,0,0.9,0,1.6-0.1l2.7,1.6c-0.1,0.2-0.4,0.4-0.6,0.5c-1.7,2.3-4,4.2-6.7,5.7
			c4,0.9,8.6,1.5,13.5,1.7c-0.8,0.9-1.8,2.5-2.3,3.5c-5.8-0.5-11.3-1.4-15.9-3c-3.8,1.5-8.1,2.4-12.5,3.1c-0.4-1-1.4-2.6-2.1-3.4
			c3.4-0.4,6.8-1,9.9-1.8c-2.4-1.3-4.5-2.8-6.1-4.5c-2.6,3.8-6,7.2-10.2,9.6c-0.7-0.8-2.3-2.1-3.2-2.8c5.6-2.8,9.6-7.5,12.1-12.6
			H91.4v-3.2h12.6c0.3-0.9,0.6-1.8,0.8-2.8l5.1,1.1c-0.1,0.4-0.5,0.6-1.1,0.6l-0.3,1.1h24.1v3.2h-25.4c-0.4,0.8-0.8,1.6-1.2,2.4
			H122.7z M92.6,661.5l3.6-0.1c0.5-1,1-2.1,1.5-3.2h-5.8v-2.7h4v-11.7h17.5v2.5H99.6v1.6h12.7v2.2H99.6v1.6h12.7v2.2H99.6v1.6h15.3
			v2.7h-4.7c1.7,1.7,3.5,3.9,4.5,5.4l-3.3,1.5c-0.3-0.6-0.8-1.2-1.3-1.9c-5.8,0.5-11.8,1-15.6,1.2c-0.1,0.3-0.4,0.6-0.7,0.6
			L92.6,661.5z M107.9,658.2h-6.3c-0.4,0.9-1,2-1.6,3l8.1-0.4c-0.6-0.7-1.1-1.3-1.7-1.9L107.9,658.2z M108,675.3
			c1.7,1.4,4,2.5,6.7,3.4c2.3-0.9,4.4-2.1,5.9-3.4H108z M133.6,658.9c-0.1,0.2-0.4,0.3-0.9,0.3c-3.4,2.5-10,4.7-15.8,5.8
			c-0.4-0.9-1.3-2.3-2.1-3c5.6-0.9,12.1-3,15.5-5.7L133.6,658.9z M130.5,645.1c-0.2,0.3-0.6,0.3-0.9,0.3c-2.6,2.3-7.7,4.5-12.3,5.6
			c-0.4-0.8-1.4-2.1-2.1-2.8c4.3-1,9.3-3.1,11.9-5.6L130.5,645.1z M132.1,651.8c-0.2,0.2-0.5,0.3-0.9,0.2c-2.9,2.1-8.5,4.2-13.2,5.4
			c-0.5-0.8-1.4-2-2.2-2.7c4.5-1.1,10.1-3.1,13-5.4L132.1,651.8z"/>
		<path class="st1" d="M168.8,664.3l0.9,0l2.3,0.2c0,0.4,0,0.9-0.1,1.3c-0.6,11.8-1.1,16.3-2.4,17.8c-1.3,1.5-2.7,1.7-5.4,1.7
			c-1.1,0-2.3,0-3.5-0.1c-0.1-1.2-0.6-2.8-1.2-4c2.2,0.1,4.3,0.2,5.1,0.2c0.8,0,1.2-0.1,1.7-0.6c0.8-0.9,1.3-4.3,1.7-12.8h-5.8
			l-0.2,1.8l-3.8-0.6c0.6-3.8,1.2-9.9,1.5-14.6h8.3V648h-9.7v-4.1h13.9V660h-4.2v-1.4h-4.8c-0.1,1.9-0.3,3.8-0.5,5.7H168.8z
			 M193.1,678.6c-0.8-1.1-1.6-2.3-2.4-3.3l3.5-1.7c2.6,3,5.3,7.1,6.4,10l-3.7,1.8c-0.3-1-0.9-2.1-1.5-3.3
			c-7.6,0.6-15.4,1.1-20.5,1.3c-0.1,0.4-0.4,0.6-0.7,0.7l-1.5-4.8c3-0.1,7-0.2,11.4-0.4v-6h-8.8v-12.9h8.8v-4.4
			c-3.5,0.2-6.7,0.3-9.2,0.4c0,0.4-0.4,0.6-0.7,0.7l-1.4-4.7c1.2,0,2.5,0,4,0c1.8-2.9,3.9-6.9,5-9.8l5.1,1.5
			c-0.1,0.3-0.6,0.5-1.1,0.5c-1.1,2.3-2.8,5.2-4.5,7.7c3.6-0.1,7.6-0.2,11.6-0.3c-1-1.2-2.1-2.5-3.1-3.6l3.6-1.8
			c2.8,2.9,6,6.8,7.4,9.6l-3.8,2c-0.4-0.8-0.9-1.7-1.5-2.7l-6.2,0.3c0,0.4-0.3,0.6-1,0.7v3.9h9.2V673h-9.2v5.8L193.1,678.6z
			 M179,669.3h5v-5.5h-5V669.3z M193.4,663.8h-5.2v5.5h5.2V663.8z"/>
		<path class="st1" d="M232.3,650.7v9.3c0,7.3-0.6,18.2-4.7,25.4c-0.8-0.7-2.6-2-3.6-2.4c3.8-6.6,4.1-16.1,4.1-22.9v-13.2H245v-4.5
			l5.6,0.3c0,0.4-0.3,0.6-1.1,0.8v3.4H267v3.9H232.3z M260.8,668.6l2.9,1.3c-0.1,0.3-0.4,0.4-0.6,0.5c-2,3.7-4.9,6.5-8.5,8.7
			c3.8,1.2,8.1,2.1,12.8,2.5c-0.9,0.9-2,2.6-2.5,3.8c-5.6-0.7-10.6-2-14.9-3.9c-4.7,2-10.2,3.2-15.9,3.9c-0.4-1.1-1.1-2.7-1.8-3.6
			c4.7-0.5,9.4-1.3,13.5-2.7c-2.6-1.7-4.7-3.7-6.4-6l2.3-0.8h-7.3v-3.5H260L260.8,668.6z M259.1,666h-18.3v-7.3h-6.9v-3.5h6.9v-3.8
			l5.2,0.3c0,0.4-0.4,0.6-1.1,0.8v2.7h9.8v-3.8l5.4,0.3c0,0.4-0.3,0.6-1.1,0.8v2.7h7.7v3.5h-7.7V666z M243.4,672.2
			c1.7,2,4,3.7,6.8,5.1c2.7-1.3,5.1-3,6.8-5.1H243.4z M254.7,658.8h-9.8v3.9h9.8V658.8z"/>
		<path class="st1" d="M293.8,645h38.5V685h-4.6v-3.1h-29.5v3.1h-4.4V645z M298.1,677.6h29.5v-28.3h-29.5V677.6z M304,655.5h17.5
			v15.7H304V655.5z M317.5,667.6v-8.5h-9.6v8.5H317.5z"/>
		<path class="st1" d="M394.9,669.6l2.8,1.2c0,0.3-0.3,0.4-0.5,0.5c-1.6,3-3.8,5.5-6.6,7.4c3.4,1.4,7.3,2.3,11.5,2.8
			c-0.9,0.9-2,2.6-2.5,3.7c-4.8-0.7-9.1-2.2-12.8-4.2c-4.2,2.1-9,3.4-14.1,4.3c-0.4-1.1-1.2-2.7-1.9-3.6c4.4-0.6,8.7-1.5,12.4-3.1
			c-1.6-1.2-3-2.7-4.2-4.2c-1.5,1.5-3.1,2.8-4.7,3.9c-0.6-0.7-2-2-2.8-2.6c3.4-2,6.8-5.3,9-8.9h-4V655c-0.9,1.2-1.8,2.3-2.7,3.3
			c-0.6-0.6-1.7-1.3-2.8-1.9c-0.7,1.3-1.5,2.6-2.3,3.9l1.1,0.4c-0.1,0.3-0.5,0.6-1.1,0.6v24.1h-4.1v-19.1c-1.4,1.7-2.8,3.4-4.1,4.8
			c-0.4-0.9-1.5-2.9-2.2-3.8c3.5-3.5,7.6-9.3,10.2-14.8l3.8,1.4c2.5-3.1,4.6-7.4,6-11.6l5,1.4c-0.1,0.4-0.6,0.6-1.1,0.5
			c-0.3,0.9-0.7,1.7-1.1,2.6h19.8v3.6h-21.5c-0.5,0.9-1,1.8-1.6,2.7h19.9v13.8h-13.1l1.1,0.4c-0.1,0.3-0.6,0.5-1.1,0.4
			c-0.4,0.7-0.9,1.4-1.4,2.1h11.2L394.9,669.6z M372,644.2c-0.2,0.4-0.6,0.5-1.1,0.4c-2.5,3.2-6.8,7.6-10.4,10.6
			c-0.6-0.9-1.7-2.4-2.4-3.2c3.3-2.6,7.3-6.6,9.3-9.7L372,644.2z M380.3,656v2.6h13.2V656H380.3z M380.3,661.3v2.7h13.2v-2.7H380.3z
			 M381.8,672.7c1.3,1.6,2.9,2.9,4.9,4.1c1.9-1.1,3.6-2.5,4.9-4.1H381.8z"/>
		<path class="st1" d="M435.5,681.2v-29.7h-0.1l-5.8,3.2l-1.2-3.9l7.8-4.2h4.5v34.6H435.5z"/>
		<path class="st1" d="M491.2,681.2h-5v-9.1h-14.5v-3.4l13.5-22h5.9v21.4h4.3v4h-4.3V681.2z M476.7,668.1h9.5v-10.4c0-2,0.1-4,0.2-6
			h-0.2c-1.1,2.2-1.9,3.9-2.9,5.7L476.7,668.1L476.7,668.1z"/>
		<path class="st1" d="M519.2,664c0-11.3,4.3-17.9,11.4-17.9c7.3,0,11,7.1,11,17.5c0,11.7-4.2,18.1-11.3,18.1
			C523.1,681.7,519.2,674.6,519.2,664z M536.3,663.8c0-8.2-1.7-13.5-5.8-13.5c-3.5,0-5.9,4.9-5.9,13.5c0,8.6,2.1,13.6,5.8,13.6
			C534.9,677.5,536.3,671,536.3,663.8z"/>
		<path class="st1" d="M583,656.1c0,6.7-3.4,10.1-7.6,10.1c-4.3,0-7.4-3.7-7.4-9.6c0-6,3.2-10,7.7-10C581,646.6,583,651.1,583,656.1
			z M572,656.3c0,4.5,1.5,6.8,3.6,6.8c2.3,0,3.5-2.3,3.5-6.8c0-4.1-1-6.6-3.5-6.6C573.3,649.6,572,652.3,572,656.3z M575.5,681.7
			l20.3-35h3.2l-20.4,35H575.5z M606.8,671.5c0,6.8-3.4,10.1-7.6,10.1c-4.3,0-7.4-3.7-7.4-9.6c0-6,3.2-10,7.7-10
			C604.8,662,606.8,666.6,606.8,671.5z M595.8,672c0,4.4,1.5,6.5,3.5,6.5c2.3,0,3.5-2.3,3.5-6.8c0-4.2-1.1-6.7-3.5-6.7
			C597.3,665.1,595.8,667.1,595.8,672z"/>
	</g>
	<line class="st2" x1="28.7" y1="717.1" x2="600.9" y2="717.1"/>
	<g>
		<path d="M143.2,848h10.8c1-1.3,1.3-1.7,2.2-3c1.8,1.4,2.3,1.8,4,3.4c0.1,0.1,0.2,0.2,0.2,0.2c0,0.1-0.2,0.2-0.5,0.2h-16.7v7.1
			c0,1.4,0,4.1,0.2,7.4c0,0.5-0.3,0.6-1.4,0.7c-0.5,0-0.8,0-0.8,0c-0.1,0-0.1,0-0.1,0c-0.4,0-0.6-0.2-0.6-0.5
			c0.1-1.8,0.2-5.3,0.2-7.6v-7.1h-9.8c-2.1,0-3.8,0.1-5.4,0.3l-0.2-1.5c1.8,0.3,2.7,0.4,5.6,0.4h9.8v-15.1h-8.8
			c-1.7,0-3.2,0.1-4.5,0.2l-0.2-1.4c1.5,0.3,2.6,0.3,4.7,0.3h20.6c1-1.2,1.3-1.6,2.3-2.7c1.6,1.3,2.1,1.7,3.7,3
			c0.2,0.2,0.2,0.3,0.2,0.4c0,0.2-0.2,0.2-0.5,0.2h-14.8V848z M129.8,834.9c2.1,1.7,3.5,3.1,5.1,5.2c1.1,1.5,1.4,2.1,1.4,2.8
			c0,0.6-0.3,1.6-0.8,2.3c-0.1,0.3-0.1,0.3-0.7,0.6l-0.1,0.1c0,0,0,0-0.2,0c-0.3-0.1-0.3-0.2-0.6-1.2c-0.5-1.7-1.5-4.2-2.6-6.5
			c-0.5-1.1-0.9-1.7-1.8-3L129.8,834.9z M146.1,846.3c1.4-2.2,2.4-4,3.9-7.3c1.1-2.3,1.3-2.9,1.5-4.1c3.8,1.4,4.3,1.7,4.3,2
			c0,0.3-0.4,0.5-1.2,0.5c-0.2,0-0.3,0-0.6,0c-3.7,5.5-4.7,6.7-7.6,9.4L146.1,846.3z"/>
		<path d="M174.5,840.4c0.8-0.9,1-1.2,1.8-2.2c1.3,1.1,1.7,1.4,2.8,2.6l0,0c1.1-2.1,1.6-3.5,2.3-5.7c0.9-2.6,1.1-3.5,1.4-5.3
			c0.9,0.2,1.7,0.4,2.1,0.5c1.9,0.5,2.3,0.6,2.3,0.9c0,0.4-0.5,0.6-1.8,0.7c-1,2.7-1.5,3.8-2.3,5.4h12c0.7-0.8,0.9-1,1.7-1.8
			c1.1,0.8,1.4,1.1,2.3,1.9c0.3,0.3,0.4,0.5,0.4,0.6c0,0.3-0.3,0.6-1.3,1.1c-0.2,7.6-0.4,10-0.8,13.4c-0.6,4.6-1.7,7.8-2.9,9.3
			c-0.9,1.1-2,1.6-4.4,2c-0.1-1.1-0.4-1.5-1.2-2c-0.6-0.4-1.2-0.6-4.3-1.5l0.1-0.7c3.5,0.4,5.4,0.6,5.7,0.6c0.4,0,0.7,0,0.7,0
			c0.1,0,0.1,0,0.1,0c1.1,0,1.8-0.9,2.4-2.9c0.6-2,1.2-6.2,1.5-10.2c0.2-2.4,0.2-4.5,0.2-9h-12.7c-0.6,1.1-1.2,2-1.9,3.2
			c-1.6,2.5-2.6,3.6-4.5,5.4l-0.5-0.4c1.4-2,1.9-2.8,3.2-5.2h-5.6v11.4c2-0.7,3-1.2,5.9-2.4l0.2,0.6c-2.6,1.8-4.5,2.9-10.9,6
			c-0.2,1.4-0.3,1.9-0.7,1.9c-0.3,0-0.7-0.8-1.8-3.9c1.4-0.3,1.4-0.3,4.7-1.3v-12.2h-2.6c-0.6,0-1.5,0.1-2.2,0.3l-0.2-1.5
			c0.9,0.2,1.8,0.3,2.4,0.3h2.6v-5.5c0-1.7-0.1-2.7-0.2-4.7c0.9,0.1,1.6,0.2,2,0.2c1.9,0.2,2.4,0.3,2.4,0.7c0,0.3-0.5,0.6-1.6,0.9
			v8.4H174.5z M193.8,849.5c-3.8,2.3-6.2,3.5-12.6,6c-0.2,1.5-0.3,1.9-0.6,1.9c-0.4,0-0.8-0.8-1.9-4.2c3.5-0.4,9.3-2.1,14.8-4.2
			L193.8,849.5z M186.6,844.4c0.8-0.9,1-1.2,1.8-2.2c1.3,1.1,1.7,1.5,2.8,2.6c0.1,0.1,0.2,0.2,0.2,0.3c0,0.1-0.2,0.2-0.4,0.2h-8
			c-0.6,0-1.5,0.1-2.2,0.3l-0.2-1.5c0.9,0.2,1.8,0.3,2.4,0.3H186.6z"/>
		<path d="M217.3,837.2c0.6-0.7,0.8-0.9,1.4-1.6c0.8,0.6,1.1,0.9,2,1.6c0.3,0.3,0.4,0.4,0.4,0.5c0,0.2-0.2,0.4-1.3,0.9
			c0,2.4,0,4,0,4.8c0,7.9,0,14.3,0.1,16.9c0,0.1,0,0.2,0,0.2c0,0.3-0.3,0.4-1.2,0.5c-0.3,0-0.5,0-0.6,0c0,0-0.1,0-0.1,0
			c-0.3,0-0.5-0.1-0.5-0.4c0,0,0-0.1,0-0.1v-2.1h-6.7v3.2c-0.1,0.5-0.3,0.5-1.3,0.5c-0.1,0-0.2,0-0.5,0c-0.6,0-0.7,0-0.7-0.4
			c0.2-4.2,0.2-5.5,0.2-12c0-8.4,0-10.5-0.2-14.4c1.3,0.8,1.6,1,2.8,1.9h1.1c1.2-4.2,1.4-5.3,1.5-7.2c1.5,0.4,3.4,0.9,3.9,1.2
			c0.2,0.1,0.3,0.2,0.3,0.4c0,0.4-0.2,0.5-1.8,0.7c-1.1,2.3-1.7,3.1-3.2,5H217.3z M217.3,846.6v-8.5h-6.7v8.5H217.3z M210.6,847.4
			v10.1h6.7v-10.1H210.6z M236.2,837.2c0.7-0.8,0.9-1.1,1.7-1.8c1,0.8,1.3,1.1,2.2,1.9c0.3,0.3,0.4,0.4,0.4,0.6
			c0,0.3-0.1,0.4-1.4,1.1c-0.2,8.7-0.2,9.5-0.8,14.2c-0.6,4.4-1.3,7-2.3,8.4c-0.7,0.9-1.2,1.2-4.4,1.7c-0.3-1.3-0.6-1.7-1.2-2.1
			c-0.3-0.2-1-0.4-2-0.6l-1.1-0.1c-0.4,0-0.7-0.1-1.1-0.2v-0.6c0.7,0,1.4,0.1,1.7,0.1c2.2,0.1,2.7,0.1,3.6,0.1c2.1,0,2.3,0,2.6-0.7
			c0.6-1.2,1.2-4,1.5-7.1c0.5-4.4,0.7-8,0.7-14.1h-10.2c-2.3,4.4-3.5,6.2-5.3,8.3l-0.5-0.3c1.8-3,2.9-5.4,4.1-9c1-3,1.5-5.1,1.7-7.3
			c1.7,0.4,3.5,0.9,4,1.1c0.3,0.1,0.4,0.2,0.4,0.4c0,0.3-0.3,0.5-1.7,0.8c-0.6,2-1.1,3-2.1,5.2H236.2z M225.2,843
			c2.7,1.8,4.1,2.8,5.5,4.3c1,1,1.4,1.7,1.4,2.7c0,1.4-0.6,2.8-1.3,2.8c-0.3,0-0.6-0.3-0.8-0.9c-0.5-1.3-1-2.4-1.7-3.9
			c-1.1-2.1-1.7-3-3.3-4.7L225.2,843z"/>
		<path d="M251.8,831.4c0.8,0,1.6,0.2,2.8,0.6c1.6,0.6,2.5,1.4,2.5,2.1c0,0.3,0,0.3-0.2,0.8c-0.5,1-0.7,3.8-0.7,8.2
			c2.8,0.3,6.5,1.2,8.8,2.1c1.7,0.8,2.3,1.5,2.3,2.9c0,1.1-0.3,1.7-0.9,1.7c-0.4,0-0.4,0-1.4-0.9c-2.5-2.3-5.4-3.9-8.8-4.9
			c0,2.4,0,3.5,0,4.7c0,1,0,1.4,0,2.3c0,1.7,0,2.3,0,3.2c0,1.1,0,1.1,0.1,4.3c0,0.8,0,1.4,0,2c0,0.7,0,1.1-0.2,1.3
			c-0.1,0.2-0.4,0.3-0.7,0.3c-0.9,0-2.4-2-2.4-3.3c0-0.4,0-0.6,0.2-1.1c0.6-1.8,0.8-6.7,0.8-16.3c0-2.7-0.1-5.4-0.3-6.5
			c-0.2-1.7-1.1-2.6-2.9-3.3C251.3,831.5,251.5,831.4,251.8,831.4z"/>
		<path d="M280.4,833.9c0.9,0,2.5,0.5,3.5,1.2c0.6,0.4,1,0.9,1,1.3c0,0.1-0.1,0.5-0.1,0.8c-0.2,0.9-0.3,3.8-0.3,6.5
			c0,0.5,0,1.4,0,2.9c0,0.5,0,0.9,0,1.3c0,1.2,0,1.6-0.1,2c-0.1,0.5-0.4,0.8-0.8,0.8c-0.5,0-1-0.5-1.4-1.3c-0.4-0.8-0.7-1.6-0.7-2.1
			c0-0.3,0-0.4,0.2-0.8c0.3-1,0.5-3.2,0.5-6.1c0-2.7-0.2-3.6-0.7-4.5c-0.5-0.8-0.8-1-2.2-1.6C279.7,833.9,279.8,833.9,280.4,833.9z
			 M284.4,862.4c3.8-2.6,5.9-4.7,7.6-7.5c2.1-3.6,2.7-6.8,2.7-15.7c0-3.8-0.2-5-0.7-5.7c-0.5-0.6-1.4-1.1-2.7-1.4
			c0.5-0.5,0.8-0.6,1.5-0.6c0.9,0,2.7,0.5,3.8,1.1c0.9,0.5,1.4,0.9,1.4,1.5c0,0.3,0,0.3-0.2,0.9c-0.3,0.9-0.5,3.4-0.6,8
			c-0.2,5.4-0.4,7.2-1.2,9.4c-1.6,4.3-5.6,8.1-11.2,10.3L284.4,862.4z"/>
		<path d="M311.6,844.8c0.9,0.7,1.7,0.9,3.6,0.9c0.4,0,0.4,0,4.6-0.1c1.5,0,13.4-0.2,14.7-0.2c3.4,0,4.2,0.1,4.9,0.3
			c0.4,0.2,0.5,0.4,0.5,0.8c0,0.5-0.3,0.9-0.9,1c-1,0.3-1.9,0.4-9,0.5c-3.5,0-12.1,0.3-13.4,0.3c-1.8,0.1-2.1,0.2-2.7,0.5
			c-0.2,0-0.4,0.1-0.6,0.1c-0.6,0-1.2-0.4-1.8-1.2c-0.8-1-1.4-2.6-1.4-3.5c0-0.5,0-0.6,0.3-0.9C310.9,844.2,311.1,844.4,311.6,844.8
			z"/>
		<path d="M353.3,831.4c0.8,0,1.6,0.2,2.8,0.6c1.6,0.6,2.5,1.4,2.5,2.1c0,0.3,0,0.3-0.2,0.8c-0.5,1-0.7,3.8-0.7,8.2
			c2.8,0.3,6.5,1.2,8.8,2.1c1.7,0.8,2.3,1.5,2.3,2.9c0,1.1-0.3,1.7-0.9,1.7c-0.4,0-0.4,0-1.4-0.9c-2.5-2.3-5.4-3.9-8.8-4.9
			c0,2.4,0,3.5,0,4.7c0,1,0,1.4,0,2.3c0,1.7,0,2.3,0,3.2c0,1.1,0,1.1,0.1,4.3c0,0.8,0,1.4,0,2c0,0.7,0,1.1-0.2,1.3
			c-0.1,0.2-0.4,0.3-0.7,0.3c-0.9,0-2.4-2-2.4-3.3c0-0.4,0-0.6,0.2-1.1c0.6-1.8,0.8-6.7,0.8-16.3c0-2.7-0.1-5.4-0.3-6.5
			c-0.2-1.7-1.1-2.6-2.9-3.3C352.9,831.5,353,831.4,353.3,831.4z"/>
		<path d="M382.4,839.8c3.1,1.3,5.4,2.6,8.9,4.9c1.7-2.7,3.2-5.4,4.1-7.5c0.4-1,0.5-1.4,0.5-2c0-0.9-0.6-1.7-2-2.5
			c0.3-0.2,0.4-0.2,0.6-0.2c0.6,0,1.8,0.4,2.8,1.1c1.5,0.9,2.5,2,2.5,2.7c0,0.4-0.2,0.6-0.6,1.2c-0.7,0.7-1.1,1.3-2.1,2.9
			c-1.8,2.9-1.8,2.9-3.8,5.9c4,3.1,4.7,4,4.7,6c0,1.2-0.4,2-0.9,2c-0.4,0-0.5-0.1-1.4-1.5c-1.1-1.7-2.3-3-3.8-4.6
			c-3.3,4.3-4.8,5.9-7.9,8.5c-2.7,2.2-4.3,3.3-7.9,5.1l-0.3-0.6c3.1-2.3,4.8-3.7,7.1-6.1c2.6-2.6,4.1-4.3,7.3-8.7
			c-2.8-2.5-4.8-4-8.1-6.1L382.4,839.8z"/>
		<path d="M411.1,836c3.6,0.9,5.8,1.8,7.3,2.8c0.9,0.6,1.3,1.4,1.3,2.6c0,1.2-0.4,2.1-1.1,2.1c-0.4,0-0.6-0.2-1.6-1.5
			c-1.8-2.4-3.2-3.7-6.1-5.5L411.1,836z M437.8,838.2c-1.9,3.5-4.2,6.5-7.9,10.1c-3.5,3.3-5.8,5.2-10.6,8.6c-1.8,1.2-2,1.4-2.2,1.7
			c-0.6,0.7-0.8,0.9-1.3,0.9c-1.5,0-4.4-3.6-4.4-5.5c0-0.2,0-0.4,0.2-0.8c0.8,1.1,0.8,1.2,1.4,1.7c0.6,0.5,1.1,0.8,1.5,0.8
			c0.6,0,1.8-0.5,3.6-1.6c4.2-2.4,5.7-3.5,9-6.2c4.6-3.8,6.9-6.1,10.1-10L437.8,838.2z"/>
		<path d="M449.6,831.4c0.8,0,1.6,0.2,2.8,0.6c1.6,0.6,2.5,1.4,2.5,2.1c0,0.3,0,0.3-0.2,0.8c-0.5,1-0.7,3.8-0.7,8.2
			c2.8,0.3,6.5,1.2,8.8,2.1c1.7,0.8,2.3,1.5,2.3,2.9c0,1.1-0.3,1.7-0.9,1.7c-0.4,0-0.4,0-1.4-0.9c-2.5-2.3-5.4-3.9-8.8-4.9
			c0,2.4,0,3.5,0,4.7c0,1,0,1.4,0,2.3c0,1.7,0,2.3,0,3.2c0,1.1,0,1.1,0.1,4.3c0,0.8,0,1.4,0,2c0,0.7,0,1.1-0.2,1.3
			c-0.1,0.2-0.4,0.3-0.7,0.3c-0.9,0-2.4-2-2.4-3.3c0-0.4,0-0.6,0.2-1.1c0.6-1.8,0.8-6.7,0.8-16.3c0-2.7-0.1-5.4-0.3-6.5
			c-0.2-1.7-1.1-2.6-2.9-3.3C449.1,831.5,449.3,831.4,449.6,831.4z"/>
		<path d="M490,860.3c4.1-1.2,6.7-2.7,8.8-5.2c2.2-2.5,3.3-5.6,3.3-9.1c0-3.6-1.5-6.5-4.2-8.3c-1.7-1.1-4.1-1.7-6.5-1.7
			c-0.5,0-0.7,0-1.3,0.1c0.9,1.3,1.2,2,1.2,3.1c0,2.9-2.1,8.4-5,13c-2.4,3.8-4.2,5.6-5.6,5.6c-0.6,0-1.2-0.3-1.7-0.8
			c-0.3-0.5-0.4-0.6-1.1-2.4c-0.3-1-0.6-1.4-1.7-3.5c-0.6-1.2-0.9-2.2-0.9-3.4c0-2.4,1.3-5.1,3.4-7.4c3-3.2,8-5.3,12.9-5.3
			c3.8,0,7.3,1.2,9.7,3.5s3.6,5.2,3.6,8.8c0,4.7-2.7,8.9-7.5,11.4c-2.2,1.2-4.1,1.8-7.3,2.3L490,860.3z M477.6,848.6
			c0,1.8,0.6,3.6,1.5,5c0.5,0.7,1,1.1,1.4,1.1c0.8,0,2.6-2,4.5-5c2.8-4.4,4.8-9.3,4.8-11.6c0-0.6-0.1-0.9-0.5-1.9
			C482.7,837.4,477.6,842.9,477.6,848.6z"/>
		<path d="M97.5,913.9c-0.1,0.5-0.5,0.6-2,0.6c-0.6,0-0.8-0.1-0.8-0.5c0.2-3.5,0.2-8.5,0.2-20.9c0-3.4-0.1-8.9-0.2-12.1
			c1.4,0.8,1.8,1,3.2,1.9h23.8c0.8-0.9,1.1-1.1,1.9-1.9c1.1,0.8,1.4,1.1,2.4,1.9c0.2,0.3,0.3,0.4,0.3,0.5c0,0.3-0.5,0.7-1.5,1.2v3.2
			c0,19.1,0,20.4,0.1,25.7c0,0.5-0.5,0.7-1.8,0.7c-0.1,0-0.1,0-0.3,0c0,0,0,0-0.1,0c-0.4,0-0.6-0.2-0.6-0.5v-1.9H97.5V913.9z
			 M97.5,911h24.6v-27.2H97.5V911z M105.1,904.9c0,0.5-0.3,0.6-1.4,0.6c-0.2,0-0.5,0-0.6,0c0,0-0.1,0-0.1,0c-0.3,0-0.5-0.2-0.5-0.5
			c0.1-3.1,0.1-4.7,0.1-8.3c0-3.9,0-5.6-0.1-7.8c1.3,0.6,1.7,0.8,2.9,1.7h8.5l1.5-1.5l1.9,1.5c0.3,0.2,0.4,0.4,0.4,0.5
			c0,0.2-0.3,0.4-1,0.8v1.5c0,2.8,0,9.5,0.1,10.7c0,0.5-0.4,0.7-1.6,0.7c-0.1,0-0.2,0-0.2,0c0,0-0.1,0-0.1,0c-0.4,0-0.5-0.1-0.6-0.5
			v-2.1h-9.1V904.9z M105.1,901.6h9.1v-10h-9.1V901.6z"/>
		<path d="M136.7,897.7c-1.6,1.7-2.6,2.6-4.6,3.9l-0.4-0.5c3.6-3.8,6.4-8.4,7.8-12.7c3.6,1.4,3.6,1.4,3.6,1.6c0,0.3-0.3,0.4-1.4,0.6
			c-1.2,2.1-2,3.5-3.3,5l0.5,0.1c1.2,0.2,1.5,0.3,1.5,0.6c0,0.3-0.3,0.4-1.2,0.8V914c0,0.6-0.3,0.8-1.9,0.8c-0.5,0-0.7-0.1-0.7-0.4
			l0.1-9.2V897.7z M132.4,890.7c2.1-2,3.5-3.8,4.9-6.3c1-1.7,1.4-2.7,1.9-4.3c0.8,0.3,1.5,0.6,2,0.7c1.7,0.6,2.2,0.8,2.2,1.2
			s-0.3,0.4-1.7,0.5c-1.4,2-2.4,3.3-4,4.9c-1.7,1.6-2.8,2.5-4.9,3.8L132.4,890.7z M140.8,913.9c6-1.9,8.6-3.2,12.3-5.8
			c-1.4-1.4-2.3-2.5-3.6-4.7c-2.5,2.8-4.4,4.3-7.8,6.3l-0.3-0.5c4.1-3.5,6.7-6.6,9-11h-1.9v0.8c0,0.6-0.5,0.7-1.8,0.7
			c-0.6,0-0.7-0.1-0.7-0.5c0-2.6,0.1-3.8,0.1-5.8c0-1.7,0-2.3,0-4.2c-1.4,1.8-2.1,2.5-3.8,4l-0.4-0.4c1.9-2.6,3.3-5,4.7-8.4
			c0.9-1.9,1.1-2.7,1.5-4.2c3.4,1.1,4.1,1.3,4.1,1.7s-0.4,0.5-1.8,0.7c-0.6,1.1-0.8,1.5-1.3,2.3h12.1c0.7-0.9,1.4-1.7,2-2.6
			c1.5,1.2,1.9,1.6,3.2,2.9c0.2,0.2,0.2,0.2,0.2,0.3c0,0.1-0.2,0.2-0.4,0.2h-17.7c-0.7,1.1-0.9,1.4-1.5,2.2c0.6,0.4,0.8,0.5,1.5,1.1
			h11.2c0.6-0.6,0.7-0.8,1.3-1.4c1,0.6,1.3,0.8,2.2,1.5c0.3,0.2,0.4,0.4,0.4,0.5c0,0.2-0.3,0.5-1.1,1c0,0.6,0,0.9,0,1.3
			c0,0.5,0,0.5,0,3.1c0,1.4,0,1.4,0.1,3.3c0,0,0,0.1,0,0.1c0,0.5-0.5,0.7-1.8,0.7c-0.6,0-0.8-0.1-0.8-0.4c0,0,0-0.1,0-0.1v-0.5h-7
			c-1,1.9-1.3,2.3-1.9,3.1h7.8c0.8-0.7,1-0.9,1.7-1.6c1.1,0.8,1.4,1.1,2.3,1.9c0.3,0.3,0.5,0.5,0.5,0.6c0,0.3-0.3,0.5-2,0.9
			c-1.8,2.2-2.9,3.3-5.1,5c2.9,1.3,6.8,2,11.3,2.3v0.5c-1.6,0.3-2.2,0.9-2.7,2.7c-4.8-1.1-7.6-2.2-10.3-4.2c-3.8,2.6-8.2,4.1-13.8,5
			L140.8,913.9z M160,890.1h-11.5v3.2H160V890.1z M148.5,894.1v3.4H160v-3.4H148.5z M150.5,902.3c-0.3,0.3-0.3,0.4-0.6,0.7
			c1.6,2.1,2.6,3,4.4,4.2c2.2-1.8,3.2-2.8,4.7-4.9H150.5z"/>
		<path d="M188.5,904.6c0-2,0-3-0.1-4.3c0.7,0.1,1.3,0.2,1.7,0.2c2.1,0.3,2.4,0.3,2.4,0.7c0,0.3-0.3,0.5-1.3,0.8c0,1.3,0,1.3,0,2.6
			h10.6c1.1-1.2,1.4-1.5,2.4-2.8c1.6,1.2,2.1,1.7,3.6,3c0.2,0.1,0.3,0.3,0.3,0.4c0,0.1-0.2,0.3-0.3,0.3h-16.6l0,7.7c0,0.3,0,0.6,0,1
			c0,0.3-0.1,0.3-0.3,0.4c-0.3,0.1-1.2,0.2-1.8,0.2c-0.6,0-0.7-0.1-0.8-0.5c0.1-2.6,0.1-3.7,0.1-5.7c0,0,0-1.8,0-3.3h-11.6
			c-0.7,0-2.3,0.2-3.4,0.3l-0.4-1.7c0.9,0.1,0.9,0.1,2.1,0.3c0.7,0,0.7,0,1.7,0.2H188.5z M201,884.3c0.9-1.3,1.2-1.7,2.2-2.9
			c1.7,1.2,2.1,1.6,3.8,2.9c0.1,0.2,0.1,0.4,0.1,0.4c0,0.2-0.2,0.5-0.5,0.5h-17.4c0.5,0.2,0.5,0.2,0.9,0.4c1.8,0.8,1.9,0.8,2,1
			c0,0.1,0,0.2,0,0.2c0,0,0,0,0,0c0,0.1-0.3,0.3-0.5,0.3c-0.1,0-0.2,0-0.3,0c-0.2,0-0.4,0-0.8-0.1c-0.6,0.6-2,1.7-4,3.4
			c1.1,0.9,1.5,1.4,1.5,2c0,1.2-0.4,2.2-0.9,2.2c-0.3,0-0.4-0.2-0.8-0.9c-0.7-1.4-2.1-3.2-4-5.2l0.3-0.4c2.1,1.1,2.5,1.4,3.4,1.9
			c1.5-2.6,2.1-3.7,2.4-4.8h-10.8c-0.8,0-2.7,0.2-3.5,0.3l-0.4-1.4c1.1,0.1,2.8,0.3,3.8,0.3h10.9v-1.9c0-0.9,0-1.4-0.1-2.6
			c3.8,0.4,4.4,0.5,4.4,0.9c0,0.3-0.2,0.5-1.5,1v2.5H201z M183.8,894.8c-3,2.5-4.3,3.5-7.2,5.4c0,0.3,0.1,0.6,0.1,1.1
			c0,0.3-0.2,0.6-0.4,0.6c-0.3,0-1-1-2.4-3.6c3.2-1.1,6.6-2.5,9.7-4L183.8,894.8z M175,886.6c5.2,2.5,6.6,3.5,6.6,4.8
			c0,0.4-0.2,1-0.3,1.6c-0.2,0.5-0.4,0.6-0.6,0.6c-0.3,0-0.5-0.2-0.8-0.7c-1.2-2.1-2.9-4-5.1-5.8L175,886.6z M192.7,894.7
			c2,1.1,3.4,2.1,4.7,3.3c0.6,0.5,0.7,0.9,0.7,1.5c0,0.6-0.1,1.2-0.3,1.5c-0.1,0.3-0.6,0.7-0.8,0.7c-0.3,0-0.3-0.1-1.1-1.6
			c-0.3-0.6-0.6-1.1-1.1-1.9c-3.4,0.8-5.9,1.4-11.2,2.3c-0.2,0.8-0.5,1.3-0.8,1.3c-0.4,0-0.6-0.7-1.2-3.7c0.9,0,1.4,0.1,1.7,0.1
			c0.2,0,1,0,2.3-0.1c0.2-0.2,0.2-0.2,0.6-0.6c2.8-2.9,5.3-6.3,6.9-9.3c2.6,1.1,3.5,1.5,3.5,1.9c0,0.4-0.4,0.5-1.7,0.6
			c-4.5,4.5-5.7,5.6-8.3,7.4c4.7-0.2,5.9-0.3,7.7-0.5c-0.7-1.1-1.1-1.5-2-2.6L192.7,894.7z M196.2,893.1c2.9-3,4.5-5,5.3-6.9
			c2.6,1.5,3.3,1.9,3.3,2.3c0,0.2-0.2,0.4-0.5,0.4c-0.2,0-0.8-0.1-1.2-0.1c-2.2,2.1-3.3,2.9-6.5,4.7L196.2,893.1z M196.7,894.5
			c3.3,0.9,6.4,2.1,7.2,2.7c0.5,0.4,0.7,1.1,0.7,2c0,0.5-0.2,1.2-0.3,1.5c-0.1,0.1-0.3,0.2-0.5,0.2c-0.3,0-0.6-0.2-1-0.7
			c-1.4-1.9-2.6-2.9-6.3-5.4L196.7,894.5z"/>
		<path d="M217.5,909.5c1.6-0.1,2-0.2,2.5-0.4c0.8-0.4,1-1.2,1-3.9v-15.8c-0.1-3.3-0.1-3.3-0.4-3.5c-0.3-0.3-0.8-0.3-1.7-0.3h-1.4
			v-1.1c2.9-0.2,5.3-0.5,7.1-1c-0.2,3-0.3,6.2-0.3,10.6v11.2c0,2.5,0.2,3.3,0.7,3.7c0.5,0.4,0.6,0.4,2.7,0.5v1.1h-10.3V909.5z"/>
		<path d="M240.3,887.5c1.4-2.6,4.1-4.2,7.3-4.2c3.2,0,5.9,1.5,7.3,4.2c1.4,2.6,2.1,6,2.1,9.7c0,3.7-0.8,7.1-2.1,9.7
			c-1.4,2.6-4.1,4.2-7.3,4.2c-3.2,0-5.9-1.6-7.3-4.2c-1.4-2.6-2.1-6.1-2.1-9.7C238.2,893.5,238.9,890.1,240.3,887.5z M247.6,910.1
			c4,0,5.8-3.9,5.8-12.9c0-9-1.8-12.9-5.8-12.9c-4,0-5.8,4-5.8,13C241.8,906.2,243.6,910.1,247.6,910.1z"/>
		<path d="M266.5,896.7c2-1.9,3.9-2.7,6.7-2.7c5,0,8.3,3.3,8.3,8.4c0,5.3-3.7,8.7-9.5,8.7c-4.4,0-8-2.2-8-4.8c0-1.1,0.7-1.7,2-1.7
			c1.2,0,1.5,0.3,1.6,1.5c0.2,2.5,1.9,3.9,4.5,3.9c3.6,0,5.9-3,5.9-7.4c0-2.1-0.5-4-1.4-5.4c-0.9-1.4-2.5-2.1-4.2-2.1
			c-2.6,0-5.1,1.7-6.4,4.4l-1.2-0.2l1.2-15.5h14.2l-0.5,2.9h-12.4L266.5,896.7z"/>
		<path d="M296,883.6c3.8,0,6.2,2.9,6.2,7.5c0,4.5-2.5,7.6-6.2,7.6c-2,0-3.7-0.9-4.7-2.4c-0.9-1.3-1.4-3.2-1.4-5.1
			C289.9,886.6,292.4,883.6,296,883.6z M314.4,884.3L294,911.7l-1.1-0.8l20.4-27.4L314.4,884.3z M296.1,897.7c2.2,0,3.1-2,3.1-6.7
			c0-4.7-0.9-6.7-3.2-6.7c-1,0-1.8,0.5-2.2,1.3c-0.6,1.2-0.9,2.9-0.9,5.4C292.9,895.6,293.9,897.7,296.1,897.7z M311.3,896.5
			c3.8,0,6.2,2.9,6.2,7.5c0,4.5-2.5,7.6-6.2,7.6c-3.7,0-6.1-3-6.1-7.6C305.2,899.6,307.7,896.5,311.3,896.5z M311.4,910.7
			c2.2,0,3.1-2,3.1-6.7c0-4.7-0.9-6.7-3.2-6.7c-2.2,0-3.1,2-3.1,6.7C308.2,908.6,309.2,910.7,311.4,910.7z"/>
		<path d="M327.2,887c1.8,1.4,2.7,1.8,4.7,1.8c1.2,0,2.3-0.2,4-0.5c0.8-1.6,1.3-3,1.3-3.8c0-1-0.7-1.6-2.7-2.1
			c0.6-0.3,1-0.4,1.7-0.4c0.9,0,2,0.2,2.9,0.6c0.9,0.4,1.4,0.8,1.4,1.2c0,0.3-0.2,0.5-0.6,1.1c-0.3,0.5-0.8,1.1-1.1,1.5
			c-0.7,1.1-0.7,1.1-0.9,1.5c3.2-0.9,4.2-1.4,5.4-2.4c0.2-0.2,0.5-0.3,0.7-0.3c1.5,0,2.5,0.5,2.5,1.2c0,0.5-0.5,0.8-1.6,1.2
			c-3.3,1.1-5.1,1.5-8.2,2.1c-0.7,0.9-1.1,1.6-2,2.9c-1,1.6-1.3,2-2,3c2.1-1.1,3.4-1.5,4.8-1.5c2.2,0,3.9,1.5,4.2,3.8
			c0.6-0.3,0.6-0.3,3.7-1.8c3.7-1.9,4.6-2.5,4.6-3.2c0-0.6-0.6-1.3-1.7-1.8c0.4-0.2,0.6-0.2,0.9-0.2c1.7,0,4.2,2.3,4.2,3.8
			c0,0.7-0.3,0.9-1.4,1.2c-2.3,0.5-7.1,2.4-10.1,3.9c0,1.2,0,1.4,0,3c0,1.7-0.1,2.9-0.3,3.2c-0.2,0.4-0.6,0.7-1.1,0.7
			c-0.7,0-1.2-0.5-1.2-1.1c0-0.2,0-0.4,0-0.6c0.1-1.1,0.2-2.4,0.3-4c-2.3,1.3-3.4,2-4.4,3c-1.2,1.2-1.8,2.4-1.8,3.5c0,2,2.1,3,6.3,3
			c2.6,0,5.3-0.4,7.6-1.1c0.3-0.1,0.5-0.1,0.7-0.1c1.2,0,2.6,1.1,2.6,1.9c0,0.5-0.4,0.9-1.2,1c-1.5,0.3-4.4,0.5-6.7,0.5
			c-3.5,0-6.1-0.4-7.6-1.1c-1.9-0.9-2.8-2.1-2.8-4c0-1.8,0.9-3.4,2.7-5.1c1-0.9,2.2-1.8,4.7-3.3c0-1.6-0.2-2.2-0.5-3
			c-0.3-0.7-1.1-1.1-1.9-1.1c-2.5,0-5.4,2-8.2,5.4c-0.7,1-1,1.2-1.4,1.2c-0.6,0-1-0.8-1-2c0-0.8,0-0.8,1.1-1.7
			c2.7-2.1,4.3-4.1,7-8.1c-1.2,0.2-1.7,0.2-2.5,0.2c-2.6,0-3.9-0.7-5.6-2.9L327.2,887z"/>
		<path d="M378.9,891.9c1.1,4,2.4,6.8,4.4,9.7c2.1,2.9,4.8,5.5,7.9,7.4c1.6,1,2.6,1.4,4.9,2.1l-0.1,0.5c-2.1,0.3-2.6,0.7-3.4,2.5
			c-3.1-2-4.5-3.1-6.4-5.3c-2.6-2.9-4.7-6.4-6.1-9.8c-0.7-1.8-1.2-3.6-1.8-6.4c-0.6,5.3-2.4,9.7-5.3,13.3c-2,2.4-4.7,4.6-7.6,6.3
			c-1.4,0.8-2.4,1.3-4.9,2.2l-0.3-0.5c3.4-1.9,5-3,7-4.8c5-4.5,8-10.4,8.6-17.2h-10.9c-1.5,0-2.2,0-3.5,0.3l-0.2-1.4
			c1.5,0.3,2.3,0.3,3.9,0.3h10.8c0.2-2.2,0.3-5.1,0.3-7.4c0-1,0-1.4-0.2-2.6c4.4,0.4,4.7,0.5,4.7,0.9c0,0.4-0.5,0.7-1.6,1.1
			c-0.1,4.4-0.2,5.8-0.4,8h10.6c0.9-1.3,1.2-1.7,2.2-3c1.7,1.3,2.2,1.7,3.7,3.2c0.2,0.2,0.2,0.3,0.2,0.3c0,0.2-0.2,0.3-0.4,0.3
			H378.9z"/>
		<path d="M403.3,887.7c1.8,1.3,3,1.7,5,1.7c1.7,0,4.5-0.5,6.2-1.1c-0.9-1.6-2.4-3.6-3.2-4.2c-0.5-0.4-1.5-0.6-2.9-0.8
			c0.3-0.6,0.5-0.8,1.5-1c0.6-0.2,1.1-0.2,1.7-0.2c1.3,0,2.2,0.2,2.6,0.5c0.3,0.3,0.4,0.4,0.5,1.5c0,0.8,0,0.8,1.5,3.7
			c3.5-1.3,4.4-1.7,5.4-2.8c0.3-0.3,0.6-0.4,1.2-0.4c1.5,0,2.2,0.3,2.2,1c0,0.5-0.5,0.8-2.4,1.7c-0.6,0.3-2.4,0.9-5.5,1.9
			c0.4,0.6,0.4,0.6,0.8,1.4c0.2,0.4,0.8,1.4,1.8,3.1c3-1.2,3.7-1.5,4.7-2.1c-0.8-0.8-1.1-1.1-2-1.8l0.3-0.4c1.4,0.7,2.4,1.1,3.2,1.1
			c0,0,0,0,0.7-0.1c0.1,0,0.2,0,0.3,0c0.6,0,1,0.4,1,0.9c0,0.9-2.2,2.1-7.3,3.9c1.2,2,1.4,2.3,1.7,2.9c0.9,1.5,0.9,1.5,1.7,3
			c0.5,0.7,0.6,1.3,0.6,2c0,1.5-0.5,2.4-1.2,2.4c-0.3,0-0.5-0.1-1.1-0.6c-1.9-1.5-5.4-2.6-8.7-2.6c-1.7,0-3.4,0.4-4.7,1.1
			c-1.5,0.8-2.3,1.8-2.3,3c0,2.3,2.5,3.6,7.1,3.6c1.8,0,2.9-0.1,4.7-0.5c0.2,0,0.3-0.1,0.5-0.1c1.1,0,2.5,1.1,2.5,2
			c0,0.3-0.2,0.6-0.6,0.7c-0.7,0.3-3,0.6-5.1,0.6c-2.9,0-5.5-0.4-7.2-1.1c-2.3-1-3.6-2.8-3.6-4.7c0-3.4,4-5.6,9.9-5.6
			c2.2,0,4.3,0.2,7.1,0.8c-0.4-1.5-1.4-3.7-2.8-6.4c-2.5,0.9-5.7,1.4-8,1.4c-1.6,0-2.8-0.3-3.9-1.1c-0.8-0.5-1.2-1.1-1.8-2.3
			l0.5-0.3c1.2,1.6,2.4,2.2,4.4,2.2c2.2,0,4.9-0.5,8-1.4c-0.8-1.5-1.8-3.2-2.6-4.5c-2.5,0.8-5,1.2-7,1.2c-2.1,0-3.8-0.9-5.5-2.7
			L403.3,887.7z"/>
		<path d="M447,881.3c1.1,0,3.1,1,4.2,2c0.6,0.6,0.8,1,0.8,1.5c0,0.5-0.2,0.7-2.2,2.3c-2,1.7-5.7,5.1-6.9,6.5
			c-1.3,1.5-1.8,2.3-1.8,3c0,0.5,0.4,1.2,1.1,2c0.5,0.6,0.5,0.6,2.6,2.5c4.1,3.8,6,5.9,6.9,7.7c0.4,0.8,0.6,1.5,0.6,2.5
			c0,1.4-0.5,2.3-1.3,2.3c-0.5,0-0.6-0.2-1.3-1.5c-0.7-1.5-1.8-3.5-3.2-5.3c-1.4-2-1.6-2.2-5.5-6.8c-1-1.2-1.4-2.1-1.4-3.2
			c0-1.2,0.6-2.2,2.9-5c4.5-5.5,5.7-7.1,5.7-8c0-0.6-0.5-1.2-2.1-2.2C446.5,881.4,446.7,881.3,447,881.3z"/>
		<path d="M475.5,886.2l1.7-2.1c1.2,1,1.6,1.4,2.7,2.4c0.2,0.2,0.2,0.3,0.2,0.3c0,0.1-0.1,0.2-0.2,0.2h-6.1v5.3h2.1
			c0.9-1.1,0.9-1.1,1.7-2.2c1.3,1.1,1.7,1.4,2.9,2.4c0.1,0.1,0.2,0.2,0.2,0.3c0,0.1-0.2,0.3-0.3,0.3h-6.5v6.7h1.8
			c0.7-1,0.9-1.4,1.7-2.4c1.2,1.1,1.6,1.4,2.7,2.6c0.2,0.2,0.3,0.3,0.3,0.4c0,0.1-0.2,0.3-0.3,0.3h-6.1v8.5c2.2,1.1,5.1,1.5,9.8,1.5
			c4.3,0,10-0.3,15.1-0.9v0.5c-1.3,0.7-1.8,1.5-1.9,2.9c-2.1,0-2.1,0-6.8,0.1c-0.8,0-1.7,0-2.4,0c-8.6,0-13.1-1-16-3.8
			c-1.7-1.6-2.8-3.4-3.6-6.2c-0.8,4.1-1.7,6.5-4,10.1l-0.6-0.2c1.2-2.5,1.6-3.9,2.2-7.7c0.3-1.8,0.7-6.7,0.7-8.2c0-0.2,0-0.6,0-1.1
			c3,0.6,3.8,0.8,3.8,1.2c0,0.3-0.2,0.4-1.5,0.8c-0.2,1.9-0.3,2.5-0.5,3.8c0.9,2.4,1.7,3.7,3.4,5.4v-14.3h-4.4
			c-1.3,0-2.2,0.1-3.1,0.2l-0.3-1.4c0.9,0.2,1.8,0.3,3.4,0.3h4.4V887h-2.9c-1.4,0-2.2,0.1-3.3,0.2l-0.3-1.5c1.1,0.3,2.1,0.4,3.5,0.4
			h2.9v-1.8c0-1.3,0-2.2-0.2-4.1c4.1,0.6,4.1,0.6,4.1,1c0,0.3-0.5,0.5-1.5,0.8v4.1H475.5z M488.3,883.5c-0.4,2.8-0.9,4.2-1.8,6.1
			c-1,2-2.4,3.5-4.2,4.7c-0.8,0.5-1.6,0.9-3.1,1.7l-0.3-0.5c2-1.2,2.9-2,3.8-3.3c1.5-2,2.7-4.9,3-7.3c0.1-0.3,0.1-0.5,0.1-1.4h-2
			c-1.6,0-2.3,0-3.1,0.2l-0.3-1.3c0.9,0.2,1.7,0.3,3.2,0.3h9.8c0.6-0.7,0.9-0.9,1.4-1.5c1,0.7,1.3,0.9,2.3,1.7
			c0.2,0.2,0.3,0.3,0.3,0.4c0,0.2-0.3,0.5-1.3,1.1c-0.6,5.4-0.8,6.8-1.2,7.8c-0.3,0.6-0.9,1.4-1.5,1.7c-0.7,0.4-1.4,0.6-2.9,0.6
			c-0.2-0.8-0.5-1.1-1.1-1.5c-0.3-0.2-0.8-0.3-1.6-0.4l-0.8-0.1l-0.7-0.1l0-0.7c2.3,0.2,4,0.4,4.9,0.4c1,0,1.2-0.2,1.5-1.4
			c0.3-1.2,0.8-4.5,0.9-7.1H488.3z M492.2,896.7c0.6-0.7,0.8-0.9,1.4-1.4c0.9,0.6,1.2,0.8,2,1.4c0.3,0.3,0.5,0.5,0.5,0.6
			c0,0.3-0.3,0.6-1.1,1.2c0,1.2,0,1.8,0,2.6c0,2.6,0,4.5,0.2,6.6c0,0,0,0.1,0,0.1c0,0.2-0.1,0.3-0.3,0.4c-0.3,0.1-1.3,0.3-1.8,0.3
			c-0.4,0-0.5-0.1-0.5-0.4v-1.1H484v1.2c0,0.3-0.1,0.3-0.3,0.5c-0.2,0.1-1.1,0.2-1.7,0.2c-0.4,0-0.5-0.1-0.5-0.4
			c0.1-2.8,0.2-6.8,0.2-10.3c0-1.2,0-1.6,0-2.9c1.2,0.6,1.5,0.8,2.7,1.4H492.2z M484,906h8.5v-8.5H484V906z"/>
		<path d="M503.9,895.5c0.7,0.1,2.3,0.3,2.7,0.3h2.7c0.5-0.6,0.7-0.8,1.2-1.5c1.1,0.7,1.4,0.9,2.4,1.5c0.2,0.1,0.3,0.2,0.3,0.3
			c0,0.3-0.3,0.5-1.2,1.2v9.4c0.6,1.4,1.2,2.1,2.6,2.8c1.8,1.1,3.9,1.4,7.5,1.4c4.7,0,12.2-0.3,17.3-0.8v0.5c-1.6,0.5-2.1,1-2.5,2.6
			c-2.3,0.1-5.3,0.2-9.5,0.2c-4.6,0-6.4-0.1-8.3-0.4c-3.1-0.5-4.8-1.4-6.3-3.4c-0.6-0.8-1-1.5-1.9-3.2c-0.9,1.5-2.9,4.1-4.4,5.7
			c0.1,0.5,0.1,0.7,0.1,0.9c0,0.5-0.2,0.8-0.5,0.8c-0.3,0-1-1.2-2.3-3.8c1-0.4,1.5-0.7,3.1-1.6c1.7-1,2-1.2,2.7-1.8v-9.7h-2.8
			c-0.8,0-1.2,0-2.4,0.2L503.9,895.5z M505.4,881c2.1,1.3,3.2,2,5.1,3.7c1.1,0.9,1.5,1.6,1.5,2.4c0,0.5-0.4,1.7-0.7,2.2
			c-0.3,0.5-0.5,0.8-0.8,0.8s-0.5-0.2-0.7-0.7c-0.9-2.6-2.6-5.4-4.8-7.9L505.4,881z M518.6,884.9c0-0.1,0-1.5-0.2-4.4
			c1.3,0.7,1.7,0.9,2.9,1.8h9.8c0.5-0.7,0.6-0.9,1.3-1.6c0.8,0.6,1.6,1.1,2.3,1.5c0.2,0.2,0.3,0.3,0.3,0.4c0,0.2-0.4,0.6-1.2,1.2
			v9.4h0.6c0.5-0.7,0.6-0.9,1.2-1.6c1.1,0.7,1.4,0.9,2.4,1.6c0.1,0.2,0.2,0.3,0.2,0.3c0,0.2-0.2,0.4-1.2,1.3v9.2c0,0.1,0,0.5,0,1.1
			c0,0.3,0,0.8,0,1.4c-0.1,0.9-0.3,1.3-1.1,1.7c-0.7,0.3-1.5,0.5-2.9,0.7c-0.1-0.9-0.3-1.2-0.6-1.5c-0.4-0.3-0.4-0.3-2.8-0.8v-0.5
			c1.7,0.2,2.3,0.2,4.3,0.3c0.5,0,0.5-0.1,0.5-0.6v-11.6h-16.4v11.3c0,0.3,0,0.3,0.1,2.7c0,0.5-0.3,0.6-1.4,0.6
			c-0.2,0-0.4,0-0.7,0.1c0,0-0.1,0-0.1,0c-0.3,0-0.5-0.2-0.5-0.7c0-0.7,0-1.2,0-1.4l0.1-4.7c0-8.3,0-8.5-0.1-10.4
			c1.3,0.6,1.7,0.8,2.8,1.6h0.5V884.9z M524.7,887.8c0-0.5,0-0.9-0.1-2.6c1.3,0.7,1.7,0.9,2.9,1.7h3.9v-3.9h-10.5v10.1h3.8V887.8z
			 M528.7,897.1c0.5-0.6,0.6-0.8,1.2-1.3c0.9,0.6,1.2,0.8,2.1,1.5c0.2,0.2,0.2,0.3,0.2,0.4c0,0.2-0.1,0.3-1,0.9c0,0.4,0,0.6,0,0.8
			c0,1.2,0,2.6,0.2,5c0,0.1,0,0.1,0,0.2c0,0.2-0.1,0.3-0.3,0.4c-0.2,0.2-1,0.3-1.5,0.3c-0.4,0-0.5-0.2-0.6-0.6v-0.8h-5.8v2
			c0,0.1,0,0.1,0,0.1c0,0.2,0,0.3-0.2,0.4c-0.1,0.1-1.1,0.3-1.7,0.3c-0.3,0-0.4-0.1-0.5-0.4c0.1-1.4,0.1-1.8,0.1-3.5
			c0-2.4,0-6.3-0.1-7c1.2,0.5,1.6,0.7,2.7,1.4H528.7z M523.2,902.9h5.8V898h-5.8V902.9z M531.4,893.2v-5.4H527v5.4H531.4z"/>
	</g>
</g>
</svg>
