<?xml version="1.0" encoding="utf-8"?>
<!-- Generator: Adobe Illustrator 27.1.1, SVG Export Plug-In . SVG Version: 6.00 Build 0)  -->
<svg version="1.1" id="Layer_1" xmlns="http://www.w3.org/2000/svg" xmlns:xlink="http://www.w3.org/1999/xlink" x="0px" y="0px"
	 viewBox="0 0 240 90" style="enable-background:new 0 0 240 90;" xml:space="preserve">
<style type="text/css">
	.st0{fill:#231916;}
</style>
<g>
	<path class="st0" d="M62.3,12.9H35.6c-0.1,0-0.2,0.1-0.2,0.2l-0.3,6.2h0.2c0.2-1.1,0.5-1.9,0.8-2.6c0.3-0.8,0.8-1.5,1.4-1.9
		c0.6-0.4,1.3-0.7,2.1-0.7c0.7-0.1,1.7-0.1,2.8-0.1h3.5c0.2,0,0.3,0,0.5,0.1c0.2,0.1,0.3,0.1,0.5,0.3c0.1,0.1,0.2,0.3,0.3,0.5
		c0.1,0.2,0.1,0.5,0.1,0.7v28.1c0,0.1,0.1,0.2,0.2,0.2c1.1,0,2.2-0.1,3.3-0.3V16.2v-0.7c0-0.3,0-0.5,0.1-0.7
		c0.1-0.2,0.2-0.4,0.3-0.5c0.1-0.1,0.3-0.2,0.5-0.3c0.2,0,0.3-0.1,0.5-0.1h3.5c1.1,0,2,0,2.8,0.1c0.8,0.1,1.5,0.3,2.1,0.7
		c0.6,0.4,1,1.1,1.4,1.9c0.3,0.7,0.5,1.5,0.8,2.6h0.2l-0.3-6.2C62.5,13,62.4,12.9,62.3,12.9 M122.8,12.1c-0.1,0-0.4,0-0.8,0.1
		c-0.4,0-0.9,0.1-1.6,0.2c-0.6,0.1-1.3,0.2-2.2,0.3c-0.6,0.1-1.3,0.2-2,0.3l0,0.2c0.2,0,0.4,0,0.6,0c0.3,0,0.7,0,1,0.1
		c0.3,0.1,0.6,0.3,0.9,0.5c0.3,0.3,0.5,0.6,0.6,1c0.1,0.4,0.2,1.2,0.2,1.7v26.9c0,0.1,0.1,0.2,0.2,0.2c1.1,0,2.2-0.1,3.3-0.3V12.4
		C123,12.2,122.9,12.1,122.8,12.1 M127.6,25.5l12.7-12.8c-0.1,0-0.2,0-0.3,0c-0.3,0-0.6,0-0.9,0c-0.3,0-0.6,0-0.9,0.1
		c-0.3,0-0.5,0.1-0.8,0.2c-0.3,0.1-0.6,0.3-0.9,0.6l-12.1,13.6L137.3,44c0.1,0.2,0.2,0.2,0.4,0.2c0.1,0,0.3,0,0.7,0
		c0.4,0,0.8,0,1.2-0.1c0.4,0,0.9-0.1,1.3-0.1c0.4,0,0.7-0.1,0.9-0.1L127.6,25.5L127.6,25.5z M161,12.1c-0.1,0-0.4,0-0.8,0.1
		c-0.4,0-0.9,0.1-1.6,0.2c-0.6,0.1-1.3,0.2-2.2,0.3c-0.6,0.1-1.3,0.2-2,0.3l0,0.2c0.2,0,0.4,0,0.6,0c0.4,0,0.7,0,1,0.1
		c0.3,0.1,0.6,0.3,0.9,0.5c0.3,0.3,0.4,0.6,0.6,1c0.1,0.4,0.2,0.9,0.2,1.4l0,27.3c0,0.1,0.1,0.2,0.2,0.2c1.1,0,2.2-0.1,3.3-0.3V12.4
		C161.2,12.2,161.1,12.1,161,12.1 M88.7,12.5c-8.9,0-13.8,7.1-13.8,15.9c0,8.8,4.8,15.9,13.8,15.9c8.9,0,13.8-7.1,13.8-15.9
		C102.4,19.6,97.6,12.5,88.7,12.5 M89.2,43.2c-6.3,0.2-10.2-6.3-10.5-14.5c-0.3-8.2,3.2-15,9.6-15.3c6.3-0.2,10.2,6.3,10.5,14.5
		C99,36.2,95.5,43,89.2,43.2 M190.8,12.5c-8.9,0-13.8,7.1-13.8,15.9c0,8.8,4.8,15.9,13.8,15.9c8.9,0,13.8-7.1,13.8-15.9
		C204.6,19.6,199.8,12.5,190.8,12.5 M191.3,43.2c-6.3,0.2-10.2-6.3-10.5-14.5c-0.3-8.2,3.3-15,9.6-15.3c6.3-0.2,10.2,6.3,10.5,14.5
		C201.1,36.2,197.6,43,191.3,43.2"/>
	<g>
		<path class="st0" d="M73.5,76.9c0.1-1.7,0.1-2.9,0.1-3v-9.2c-2.5,1.6-4.9,2.9-9.9,4.1l-0.4-1c6.4-1.5,11.3-4.5,16-10.8l1.6,1
			c0,0,0.3,0.2,0.3,0.3c0,0.1-0.1,0.2-0.3,0.2c-0.3,0.1-0.4,0.2-0.5,0.3c-2.1,2.3-3.4,3.5-5.1,4.8v10.3c0,0.7,0.1,2.5,0.1,3.1H73.5z
			"/>
		<path class="st0" d="M88.4,74.6c1.2-0.2,2.9-0.4,5.2-1.2c2.2-0.8,4.2-1.9,6.1-3.2c3.9-2.9,5.4-6,6.1-7.6l0.9,0.7
			c-1.2,2.6-4.2,9-13.5,12.2c-0.6,0.2-3.4,1-3.7,1.2L88.4,74.6z M95.4,64.3c-2.1-2.7-3.6-3.8-6.5-4.7l0.7-1c3.1,0.9,5.3,2.2,7.5,3.9
			L95.4,64.3z"/>
		<path class="st0" d="M112.3,61.8c1.3,0.1,2.9,0.2,3.6,0.2h3.7c0-0.7,0-1.4,0-2.1c0-0.5,0-1.7-0.2-3.1l1.8,0.1c0.3,0,0.6,0,0.6,0.2
			c0,0.1,0,0.1-0.2,0.4c-0.2,0.2-0.2,0.3-0.2,0.5c0,1.1,0,2.4-0.1,4h4.4c0.8,0,3.1-0.1,4.4-0.2c-0.1,1.1-0.1,2-0.1,2
			c0,2.2-0.1,5.3-0.9,8.5c-0.7,3-1.6,4.1-2.6,4.1c-0.6,0-1.8-0.5-4.3-1.8l0.5-1c0.9,0.5,2.4,1.2,3.1,1.2c0.7,0,1.1-1.3,1.3-1.8
			c1-3.5,1.1-6.6,1.1-9.9h-6.9c-0.5,4.4-1.3,7.1-3.5,9.6c-2.1,2.4-4,3.1-6.3,3.8l-0.4-1.1c1.8-0.1,3.4-1.3,4.2-2
			c3.5-3.2,3.9-7.7,4.2-10.3H116c-1,0-2.8,0.1-3.6,0.2V61.8z"/>
		<path class="st0" d="M140.3,74.9c1.3,0,3.6-0.1,6.2-1.6c2-1,3.4-2.8,4.2-4.2c1.1-1.9,1.7-4.6,1.7-4.7c0-0.1-0.1-0.1-0.2-0.1h-12
			c-0.9,0-2.5,0.1-3.7,0.2V63c1.1,0.1,2.9,0.2,3.7,0.2h10.1c0.3,0,2.2-0.1,3.2-0.3l1.1,1.1c0,0.1-0.1,0.1-0.1,0.2
			c-0.1,0.3-0.8,2.4-0.9,2.9c-2.8,8.1-9.7,8.6-13,8.9L140.3,74.9z M139.2,58.1c1.3,0.1,3,0.2,3.7,0.2h5.6c0.8,0,2.7-0.1,3.7-0.2v1.5
			c-1.3-0.1-2.9-0.2-3.7-0.2h-5.6c-0.9,0-2.5,0.1-3.7,0.2V58.1z"/>
		<path class="st0" d="M175.4,76.1c-1-0.7-3.1-2.1-6.6-3.3c-3.6-1.2-6.5-1.5-8-1.7l0.2-1c5,0.3,10.6,1.7,15.3,4.2L175.4,76.1z
			 M173.9,61.6c-3.7-1.4-6.8-1.9-11.7-1.9l0.1-1.1c5.4,0,8.2,0.3,12.2,1.1L173.9,61.6z M173.2,68c-4.5-2.3-8.7-2.7-10.3-2.9l0.1-1
			c3.2,0.2,7.6,1,10.8,2.1L173.2,68z"/>
	</g>
</g>
</svg>
