<?xml version="1.0" encoding="utf-8"?>
<!-- Generator: Adobe Illustrator 27.0.1, SVG Export Plug-In . SVG Version: 6.00 Build 0)  -->
<svg version="1.1" id="Layer_1" xmlns="http://www.w3.org/2000/svg" xmlns:xlink="http://www.w3.org/1999/xlink" x="0px" y="0px"
	 viewBox="0 0 600 250" style="enable-background:new 0 0 600 250;" xml:space="preserve">
<style type="text/css">
	.st0{fill:#FFFFFF;}
</style>
<g>
	<path class="st0" d="M106,18.2H15.7c-0.4,0-0.7,0.3-0.7,0.8l-1,21.1h0.7c0.8-3.6,1.7-6.5,2.6-8.8c1.2-2.8,2.7-5.1,4.7-6.6
		c2-1.5,4.4-2.3,7.1-2.5c2.5-0.2,5.6-0.3,9.4-0.3h11.8c0.6,0,1.2,0.1,1.7,0.2c0.6,0.2,1.1,0.5,1.6,0.9c0.5,0.5,0.8,1.1,1,1.8
		c0.2,0.7,0.3,1.6,0.3,2.5v95c0,0.4,0.3,0.7,0.6,0.7c3.8,0,7.5-0.4,11.2-1V29.5v-2.2c0-0.9,0.1-1.7,0.3-2.5c0.2-0.7,0.5-1.3,1-1.8
		c0.4-0.4,1-0.8,1.6-0.9c0.5-0.1,1.1-0.2,1.7-0.2h11.8c3.8,0,6.9,0.1,9.4,0.3c2.7,0.2,5.1,1,7.1,2.5c2,1.5,3.5,3.7,4.7,6.6
		c1,2.3,1.8,5.2,2.6,8.8h0.7l-1-21.1C106.7,18.6,106.4,18.2,106,18.2 M311.1,15.8c-0.3,0-1.2,0.1-2.6,0.2c-1.4,0.1-3.2,0.3-5.3,0.5
		c-2.1,0.3-4.5,0.6-7.3,1c-2.2,0.3-4.4,0.7-6.8,1.2l0.1,0.8c0.6-0.1,1.3-0.1,1.9-0.1c1.2,0,2.3,0.1,3.3,0.4c1.1,0.3,2.2,1,3,1.8
		c0.9,0.9,1.5,2.1,1.9,3.5c0.4,1.4,0.6,4,0.6,5.9v91.2c0,0.4,0.3,0.7,0.6,0.7c3.8,0,7.5-0.4,11.2-1V16.6
		C311.8,16.2,311.5,15.8,311.1,15.8 M327.4,61.2l43.1-43.4c-0.3,0-0.7,0-1.1,0c-0.9,0-2,0.1-3,0.1c-1.1,0.1-2.1,0.2-3.1,0.3
		c-1,0.1-1.9,0.3-2.6,0.5c-1.1,0.3-2,1-3,2.1l-41,45.9l43.5,56.8c0.4,0.6,0.6,0.7,1.5,0.7c0.4,0,1.2,0,2.4,0c1.2,0,2.5-0.1,4.1-0.2
		c1.5-0.1,3-0.2,4.5-0.4c1.3-0.1,2.4-0.3,3.2-0.4l-48.2-62L327.4,61.2z M440.4,15.8c-0.3,0-1.2,0.1-2.6,0.2
		c-1.4,0.1-3.2,0.3-5.3,0.5c-2.1,0.3-4.6,0.6-7.3,1c-2.2,0.3-4.5,0.7-6.8,1.2l0.1,0.8c0.6-0.1,1.3-0.1,1.9-0.1
		c1.2,0,2.3,0.1,3.3,0.4c1.2,0.3,2.2,1,3,1.8c0.9,0.9,1.5,2.1,1.9,3.5c0.4,1.4,0.6,3,0.6,4.9l0,92.3c0,0.4,0.3,0.7,0.6,0.7
		c3.8,0,7.5-0.4,11.2-1V16.6C441.1,16.2,440.8,15.8,440.4,15.8 M195.5,17.1c-30.3,0-46.6,24-46.6,53.7c0,29.7,16.3,53.7,46.6,53.7
		c30.3,0,46.6-24,46.6-53.7C242.1,41.1,225.8,17.1,195.5,17.1 M197.1,121.1c-21.4,0.8-34.6-21.2-35.5-49
		c-0.9-27.8,11-50.8,32.4-51.7c21.4-0.8,34.6,21.2,35.5,49C230.3,97.3,218.5,120.3,197.1,121.1 M541.4,17.1
		c-30.3,0-46.6,24-46.6,53.7c0,29.7,16.3,53.7,46.6,53.7c30.3,0,46.6-24,46.6-53.7C588,41.1,571.7,17.1,541.4,17.1 M543,121.1
		c-21.4,0.8-34.6-21.2-35.5-49c-0.9-27.8,11-50.8,32.4-51.7c21.4-0.8,34.6,21.2,35.5,49C576.2,97.3,564.3,120.3,543,121.1"/>
	<g>
		<path class="st0" d="M144.2,235.1c0.4-5.7,0.5-9.9,0.5-10.1v-31.3c-8.4,5.3-16.6,9.7-33.6,13.8l-1.4-3.5
			c21.7-5.1,38.2-15.1,54.1-36.7l5.5,3.5c0.2,0.2,0.9,0.6,0.9,1.1c0,0.3-0.2,0.6-1,0.7c-0.9,0.3-1.2,0.6-1.7,1
			c-7.2,7.9-11.5,11.7-17.2,16.1v35c0,2.5,0.3,8.3,0.5,10.4H144.2z"/>
		<path class="st0" d="M194.4,227.4c4.1-0.6,9.9-1.4,17.7-4.2c7.4-2.6,14.3-6.3,20.5-11c13.2-9.9,18.1-20.4,20.6-25.7l3,2.3
			c-4.1,8.7-14.2,30.5-45.9,41.3c-2,0.7-11.6,3.3-12.7,4.1L194.4,227.4z M218.2,192.5c-7.1-9.1-12.4-12.8-22-16l2.3-3.4
			c10.6,3.2,18,7.5,25.3,13.2L218.2,192.5z"/>
		<path class="st0" d="M275.6,183.9c4.3,0.5,9.9,0.7,12.4,0.7h12.7c0.2-2.2,0.2-4.7,0.2-7c0-1.8,0-5.6-0.6-10.7l6.3,0.5
			c1,0.1,2.2,0.2,2.2,0.8c0,0.2,0,0.5-0.6,1.2c-0.6,0.7-0.7,1-0.8,1.6c0,3.8-0.1,8.1-0.5,13.6h14.7c2.6,0,10.4-0.3,14.8-0.8
			c-0.4,3.8-0.4,6.7-0.4,6.7c-0.1,7.5-0.2,18-2.9,28.9c-2.5,10.2-5.4,14-8.7,14c-2,0-5.9-1.7-14.7-6.1l1.7-3.3c3.2,1.6,8.2,4,10.4,4
			c2.4,0,3.8-4.5,4.2-6.3c3.4-11.7,3.7-22.3,3.8-33.4h-23.4c-1.6,15-4.3,24-11.7,32.5c-7,8.1-13.5,10.4-21.2,12.9l-1.4-3.8
			c6.2-0.5,11.5-4.3,14.2-6.8c11.9-10.9,13.3-26.2,14.1-34.8H288c-3.4,0-9.5,0.4-12.4,0.7V183.9z"/>
		<path class="st0" d="M370.4,228.4c4.5-0.2,12-0.5,21.1-5.3c6.6-3.5,11.4-9.4,14.2-14.4c3.7-6.6,5.6-15.6,5.6-15.8
			c0-0.5-0.4-0.5-0.6-0.5h-40.7c-3,0-8.5,0.3-12.4,0.7v-5.1c3.8,0.4,9.9,0.7,12.4,0.7h34.3c1,0,7.5-0.4,10.7-1l3.6,3.7
			c-0.2,0.3-0.2,0.5-0.4,0.8c-0.5,1-2.6,8.2-3.1,9.7c-9.5,27.4-32.8,29.3-44.1,30.2L370.4,228.4z M366.6,171.4
			c4.3,0.5,10.3,0.7,12.4,0.7h18.9c2.8,0,9-0.3,12.4-0.7v5.1c-4.3-0.5-9.9-0.7-12.4-0.7H379c-2.9,0-8.6,0.3-12.4,0.7V171.4z"/>
		<path class="st0" d="M489.3,232.3c-3.5-2.5-10.4-7.1-22.5-11.2c-12.2-4.2-22-5.2-27.1-5.7l0.6-3.5c17.1,1.1,35.9,5.6,52,14.1
			L489.3,232.3z M484,183.4c-12.4-4.8-22.9-6.4-39.5-6.5l0.2-3.6c18.4,0.1,27.7,1,41.4,3.9L484,183.4z M481.6,204.9
			c-15.2-7.8-29.4-9.1-35-9.7l0.5-3.4c10.7,0.6,25.7,3.4,36.7,7.1L481.6,204.9z"/>
	</g>
</g>
</svg>
