<?xml version="1.0" encoding="utf-8"?>
<!-- Generator: Adobe Illustrator 27.0.1, SVG Export Plug-In . SVG Version: 6.00 Build 0)  -->
<svg version="1.1" id="Layer_1" xmlns="http://www.w3.org/2000/svg" xmlns:xlink="http://www.w3.org/1999/xlink" x="0px" y="0px"
	 viewBox="0 0 1800 160" style="enable-background:new 0 0 1800 160;" xml:space="preserve">
<style type="text/css">
	.st0{fill:#231916;}
</style>
<g>
	<path class="st0" d="M169,10.7H49.3c-0.5,0-0.9,0.5-0.9,1l-1.4,28h1C49.1,35,50.2,31,51.4,28c1.6-3.7,3.6-6.7,6.2-8.7
		c2.6-2,5.8-3,9.4-3.3c3.3-0.3,7.5-0.5,12.5-0.5h15.7c0.8,0,1.6,0.1,2.3,0.3c0.8,0.2,1.5,0.7,2.1,1.3c0.6,0.6,1.1,1.5,1.3,2.4
		c0.3,1,0.4,2.1,0.4,3.3v126c0,0.5,0.4,0.9,0.8,1c5.1-0.1,10-0.5,14.9-1.3V25.7v-3c0-1.2,0.1-2.3,0.4-3.3c0.3-0.9,0.7-1.7,1.3-2.4
		c0.6-0.6,1.3-1,2.1-1.3c0.7-0.2,1.5-0.3,2.3-0.3h15.7c5,0,9.1,0.1,12.5,0.5c3.6,0.3,6.8,1.3,9.4,3.3c2.7,2,4.7,5,6.3,8.7
		c1.3,3.1,2.4,7,3.5,11.7h1l-1.4-28C169.9,11.1,169.5,10.7,169,10.7 M441,7.5c-0.3,0-1.6,0.1-3.4,0.2c-1.8,0.2-4.2,0.4-7.1,0.7
		c-2.8,0.3-6,0.8-9.7,1.4c-2.9,0.4-5.9,0.9-9,1.5l0.1,1c0.9-0.1,1.7-0.1,2.6-0.1c1.6,0,3,0.2,4.4,0.6c1.5,0.5,2.9,1.3,4,2.4
		c1.2,1.2,2,2.8,2.5,4.6c0.6,1.9,0.7,5.4,0.8,7.8v121c0,0.5,0.4,0.9,0.8,1c5-0.1,10-0.5,14.8-1.3V8.5C441.9,7.9,441.5,7.5,441,7.5
		 M462.5,67.7l57.2-57.5c-0.4,0-0.9,0-1.4,0c-1.2,0.1-2.6,0.1-4,0.2c-1.4,0.1-2.8,0.2-4.2,0.4c-1.3,0.2-2.5,0.4-3.4,0.7
		c-1.5,0.4-2.7,1.3-4,2.7l-54.4,60.9l57.7,75.3c0.6,0.7,0.8,0.9,2,1c0.5,0,1.6,0,3.2-0.1c1.6-0.1,3.4-0.2,5.4-0.2
		c2-0.2,4-0.3,5.9-0.5c1.7-0.2,3.2-0.4,4.2-0.5l-63.9-82.1L462.5,67.7z M612.4,7.5c-0.3,0-1.6,0.1-3.4,0.2c-1.9,0.2-4.2,0.4-7.1,0.7
		c-2.8,0.3-6,0.8-9.7,1.4c-2.9,0.4-5.9,0.9-9,1.5l0.1,1c0.9-0.1,1.7-0.1,2.6-0.1c1.6,0,3,0.2,4.4,0.6c1.5,0.5,2.9,1.3,4,2.4
		c1.2,1.2,2,2.8,2.5,4.6c0.5,1.8,0.7,4,0.8,6.4l0,122.4c0,0.5,0.4,0.9,0.8,1c5.1-0.1,10-0.5,14.8-1.3V8.5
		C613.3,7.9,612.9,7.5,612.4,7.5 M287.7,9.2c-40.2,0-61.8,31.9-61.8,71.2c0,39.3,21.6,71.2,61.8,71.2c40.1,0,61.8-31.9,61.8-71.2
		C349.4,41.1,327.8,9.2,287.7,9.2 M289.7,147.2c-28.4,1.1-45.9-28.1-47.1-65c-1.2-36.9,14.6-67.4,42.9-68.5
		c28.3-1.1,45.9,28.1,47.1,65C333.8,115.5,318.1,146,289.7,147.2 M746.3,9.2c-40.1,0-61.8,31.9-61.8,71.2
		c0,39.3,21.6,71.2,61.8,71.2c40.2,0,61.8-31.9,61.8-71.2C808.1,41.1,786.5,9.2,746.3,9.2 M748.4,147.2c-28.3,1.1-45.9-28.1-47.1-65
		c-1.1-36.9,14.6-67.4,42.9-68.5c28.3-1.1,45.9,28.1,47.1,65C792.5,115.5,776.7,146,748.4,147.2"/>
	<g>
		<path class="st0" d="M1020.2,151.6c0.8-12,1-20.9,1-21.3V64.5c-17.7,11.1-34.9,20.4-70.7,29l-2.9-7.4
			c45.6-10.8,80.4-31.7,114-77.3l11.7,7.4c0.3,0.3,1.8,1.4,1.8,2.4c0,0.7-0.5,1.2-2,1.5c-1.8,0.7-2.5,1.2-3.5,2
			c-15.2,16.7-24.1,24.6-36.1,33.9v73.6c0,5.2,0.7,17.6,1,21.9H1020.2z"/>
		<path class="st0" d="M1125.9,135.5c8.6-1.2,20.9-2.9,37.3-8.8c15.5-5.6,30-13.3,43.2-23.1c27.8-20.9,38.2-42.9,43.4-54l6.2,4.9
			c-8.6,18.2-29.9,64.1-96.6,87c-4.2,1.5-24.3,6.9-26.7,8.6L1125.9,135.5z M1176,62.1c-15-19.1-26-27-46.3-33.8l4.9-7.1
			c22.3,6.8,37.8,15.9,53.2,27.9L1176,62.1z"/>
		<path class="st0" d="M1296.9,43.9c9.1,1,20.8,1.5,26,1.5h26.7c0.3-4.7,0.3-10,0.3-14.7c0-3.9,0-11.8-1.2-22.4l13.2,1
			c2,0.2,4.5,0.3,4.5,1.7c0,0.5,0,1-1.2,2.5c-1.3,1.5-1.5,2.2-1.7,3.4c0,7.9-0.2,17.1-1,28.5h31c5.4,0,22-0.7,31.2-1.7
			c-0.8,7.9-0.8,14.2-0.8,14.2c-0.2,15.7-0.5,37.8-6.1,60.8c-5.2,21.4-11.3,29.4-18.2,29.4c-4.2,0-12.5-3.6-30.9-12.8l3.5-6.9
			c6.8,3.4,17.2,8.4,22,8.4c5.1,0,7.9-9.5,8.9-13.2c7.3-24.6,7.8-46.9,8-70.4h-49.3c-3.4,31.6-9.1,50.5-24.7,68.4
			c-14.7,17-28.3,21.9-44.6,27.2l-3-7.9c13-1,24.1-9.1,29.9-14.4c25-23,28-55.2,29.7-73.3h-26.3c-7.1,0-20.1,0.8-26,1.5V43.9z"/>
		<path class="st0" d="M1496.3,137.6c9.5-0.3,25.3-1,44.4-11.1c14-7.4,23.9-19.7,29.9-30.2c7.8-13.8,11.8-32.9,11.8-33.3
			c0-1-0.8-1-1.3-1h-85.6c-6.3,0-17.9,0.7-26.2,1.5V52.6c7.9,0.9,20.8,1.5,26.2,1.5h72.3c2,0,15.9-0.8,22.6-2.2l7.6,7.8
			c-0.3,0.7-0.5,1-0.8,1.7c-1,2.2-5.4,17.2-6.6,20.4c-20.1,57.6-69,61.6-92.9,63.5L1496.3,137.6z M1488.3,17.5
			c8.9,1,21.6,1.5,26.2,1.5h39.7c5.9,0,18.9-0.7,26.2-1.5v10.8c-9.1-1-20.9-1.5-26.2-1.5h-39.7c-6.1,0-18.1,0.7-26.2,1.5V17.5z"/>
		<path class="st0" d="M1746.6,145.7c-7.4-5.2-21.8-15-47.3-23.6c-25.7-8.8-46.3-11-57.1-12l1.4-7.3c36,2.4,75.5,11.8,109.4,29.7
			L1746.6,145.7z M1735.5,42.9c-26.2-10.1-48.3-13.5-83-13.7l0.5-7.6c38.7,0.2,58.3,2,87.1,8.1L1735.5,42.9z M1730.4,88.1
			c-31.9-16.4-61.8-19.3-73.6-20.4l1-7.3c22.5,1.2,54,7.3,77.2,14.8L1730.4,88.1z"/>
	</g>
</g>
</svg>
